<?xml version="1.0" standalone="no"?>
<!DOCTYPE svg PUBLIC "-//W3C//DTD SVG 20010904//EN"
 "http://www.w3.org/TR/2001/REC-SVG-20010904/DTD/svg10.dtd">
<svg version="1.0" xmlns="http://www.w3.org/2000/svg"
 width="160.000000pt" height="160.000000pt" viewBox="0 0 160.000000 160.000000"
 preserveAspectRatio="xMidYMid meet">

<g transform="translate(0.000000,160.000000) scale(0.100000,-0.100000)"
fill="#000000" stroke="none">
<path d="M990 1350 c-62 -62 -140 -241 -124 -284 3 -9 -28 -25 -97 -52 -97
-37 -142 -70 -111 -81 21 -8 13 -33 -23 -76 -36 -42 -55 -90 -55 -141 0 -26 2
-28 28 -23 25 5 31 2 45 -28 21 -44 68 -69 113 -60 63 11 124 84 124 149 0 25
34 42 64 30 26 -10 178 44 261 92 118 69 147 84 155 79 4 -2 13 -25 20 -50 14
-49 20 -57 37 -47 8 5 7 18 -3 47 -19 55 -18 65 10 65 62 0 110 -88 82 -153
-45 -110 -196 -77 -196 42 0 21 -5 31 -15 31 -11 0 -15 -11 -15 -41 0 -108
115 -174 201 -116 66 44 86 124 49 197 -24 48 -56 70 -110 77 -36 5 -41 9 -52
45 -9 32 -9 44 4 71 8 18 18 46 22 63 l7 31 -115 6 c-63 3 -123 10 -134 16
-20 11 -72 94 -72 115 0 6 -14 17 -31 23 -28 11 -33 9 -69 -27z m103 -146 c26
-22 39 -25 91 -24 117 3 113 4 129 -43 14 -42 14 -44 -12 -74 -27 -32 -117
-103 -130 -103 -4 0 -3 23 3 50 13 64 3 74 -84 91 -36 7 -69 16 -74 21 -9 7
31 108 42 108 2 0 18 -12 35 -26z m277 -28 c0 -12 -13 -36 -20 -36 -4 0 -10 9
-13 20 -4 15 0 20 14 20 10 0 19 -2 19 -4z m-15 -163 c3 -13 2 -23 -2 -23 -5
0 -49 -23 -98 -51 -107 -62 -115 -65 -115 -48 0 8 27 29 59 48 33 18 76 51 97
72 39 40 47 40 59 2z m-257 -7 c1 -2 -3 -17 -9 -35 -9 -24 -23 -38 -52 -51
-23 -10 -45 -16 -49 -14 -5 3 -6 22 -2 42 12 76 11 75 62 67 26 -4 48 -8 50
-9z m-40 -143 c-5 -25 -22 -26 -49 -4 l-24 20 38 1 c31 0 38 -3 35 -17z m-218
-113 c0 -6 -7 -24 -15 -40 -26 -49 -73 -64 -107 -33 -31 28 -21 41 45 62 76
23 77 24 77 11z"/>
<path d="M272 761 c-117 -71 -216 -132 -220 -136 -4 -5 -2 -6 3 -3 6 3 124 42
264 87 242 79 252 83 231 98 -12 9 -28 31 -36 49 -8 19 -18 34 -22 34 -4 -1
-103 -59 -220 -129z"/>
<path d="M610 441 c-40 -21 -66 -75 -56 -115 23 -92 160 -116 201 -35 33 63
11 129 -51 155 -43 18 -52 18 -94 -5z m105 -36 c64 -63 -4 -162 -90 -129 -24
10 -46 60 -39 89 8 32 49 65 81 65 13 0 35 -11 48 -25z"/>
<path d="M160 345 c0 -87 3 -105 15 -105 11 0 15 12 15 45 0 40 2 45 23 45 36
0 67 27 67 59 0 39 -28 61 -78 61 l-42 0 0 -105z m85 45 c0 -20 -6 -26 -27
-28 -25 -3 -28 0 -28 28 0 28 3 31 28 28 21 -2 27 -8 27 -28z"/>
<path d="M320 344 c0 -80 3 -105 13 -102 8 3 13 36 15 106 2 86 0 102 -13 102
-12 0 -15 -17 -15 -106z"/>
<path d="M380 445 c0 -3 12 -24 27 -48 18 -27 29 -61 33 -97 7 -77 33 -77 41
0 3 33 16 74 33 103 25 43 26 47 9 47 -12 0 -26 -13 -36 -35 -9 -19 -21 -35
-26 -35 -5 0 -18 16 -30 35 -11 19 -27 35 -36 35 -8 0 -15 -2 -15 -5z"/>
<path d="M349 143 c5 -37 6 -37 9 -8 2 16 9 33 15 37 8 5 4 8 -8 8 -18 0 -20
-5 -16 -37z"/>
<path d="M610 165 c0 -8 -7 -15 -15 -15 -8 0 -15 -9 -15 -20 0 -13 7 -20 20
-20 16 0 20 7 20 35 0 19 -2 35 -5 35 -3 0 -5 -7 -5 -15z m0 -35 c0 -5 -4 -10
-10 -10 -5 0 -10 5 -10 10 0 6 5 10 10 10 6 0 10 -4 10 -10z"/>
<path d="M660 144 c0 -31 3 -35 23 -32 41 6 32 67 -10 68 -8 0 -13 -14 -13
-36z m38 -2 c2 -15 -2 -22 -12 -22 -11 0 -16 9 -16 26 0 31 23 28 28 -4z"/>
<path d="M783 145 c0 -22 2 -30 4 -17 2 12 2 30 0 40 -3 9 -5 -1 -4 -23z"/>
<path d="M1034 168 c-4 -6 0 -16 9 -23 21 -15 22 -29 2 -21 -8 3 -15 1 -15 -4
0 -6 9 -10 20 -10 25 0 26 25 3 39 -16 9 -16 12 -3 21 9 6 10 10 3 10 -6 0
-15 -5 -19 -12z"/>
<path d="M500 150 c0 -5 5 -10 10 -10 6 0 10 5 10 10 0 6 -4 10 -10 10 -5 0
-10 -4 -10 -10z"/>
<path d="M381 128 c0 -16 2 -18 6 -8 3 8 11 18 17 22 7 5 4 8 -6 8 -12 0 -18
-7 -17 -22z"/>
<path d="M421 133 c-1 -14 5 -23 14 -23 9 0 15 9 14 23 0 21 -1 21 -8 2 l-8
-20 -5 20 c-5 18 -6 18 -7 -2z"/>
<path d="M473 130 c1 -11 5 -20 9 -20 3 0 6 9 5 20 -1 11 -5 20 -9 20 -3 0 -6
-9 -5 -20z"/>
<path d="M530 130 c0 -12 7 -20 18 -20 14 0 15 2 2 10 -13 8 -12 10 3 10 10 0
15 5 12 10 -11 18 -35 11 -35 -10z"/>
<path d="M730 128 c0 -11 7 -18 18 -18 14 0 15 2 2 10 -10 6 -11 10 -2 10 6 0
12 4 12 8 0 5 -7 9 -15 9 -8 0 -15 -9 -15 -19z"/>
<path d="M802 130 c0 -14 2 -19 5 -12 2 6 2 18 0 25 -3 6 -5 1 -5 -13z"/>
<path d="M827 133 c3 -7 9 -13 13 -13 4 0 10 6 13 13 3 7 -3 13 -13 13 -10 0
-16 -6 -13 -13z"/>
<path d="M870 129 c0 -11 7 -19 18 -19 14 0 15 2 2 10 -13 8 -12 10 4 10 21 0
14 13 -9 16 -9 1 -15 -6 -15 -17z"/>
<path d="M920 130 c0 -11 2 -20 4 -20 2 0 6 9 9 20 3 11 1 20 -4 20 -5 0 -9
-9 -9 -20z"/>
<path d="M958 133 c5 -10 7 -25 5 -33 -2 -8 3 -4 11 10 17 27 22 55 6 30 -6
-10 -10 -11 -10 -2 0 6 -5 12 -10 12 -7 0 -7 -6 -2 -17z"/>
<path d="M1084 138 c-8 -13 5 -28 24 -27 14 0 13 2 -3 9 -17 7 -17 9 -2 9 21
1 23 18 2 18 -9 0 -18 -4 -21 -9z"/>
<path d="M1130 133 c0 -10 4 -14 8 -8 4 6 11 13 16 18 5 4 2 7 -7 7 -10 0 -17
-8 -17 -17z"/>
<path d="M1171 145 c0 -5 3 -16 8 -24 7 -11 12 -9 22 10 11 21 11 23 -3 11
-13 -10 -17 -10 -21 0 -3 7 -6 9 -6 3z"/>
<path d="M1222 130 c0 -14 2 -19 5 -12 2 6 2 18 0 25 -3 6 -5 1 -5 -13z"/>
<path d="M1240 130 c0 -12 7 -20 18 -20 14 0 15 2 2 10 -13 9 -13 11 0 20 13
8 12 10 -2 10 -11 0 -18 -8 -18 -20z"/>
<path d="M1284 138 c-8 -13 5 -28 24 -27 14 0 13 2 -3 9 -17 7 -17 9 -2 9 9 1
17 5 17 9 0 11 -29 11 -36 0z"/>
</g>
</svg>
