<svg xmlns="http://www.w3.org/2000/svg" xmlns:xlink="http://www.w3.org/1999/xlink" width="1440" height="1452" fill="none" xmlns:v="https://vecta.io/nano"><style><![CDATA[.B{fill:#089bd9}.C{fill:#000}.D{fill:#fff}.E{opacity:.2}.F{opacity:.1}.G{fill:#e0e0e0}.H{fill:#263238}.I{opacity:.4}.J{fill:#455a64}.K{fill:#f5f5f5}.L{opacity:.15}.M{fill:#37474f}.N{opacity:.05}.O{fill:#ebebeb}]]></style><path d="M760.456 1451.01c375.304 0 679.544-178.7 679.544-399.15 0-220.44-304.24-399.145-679.544-399.145S80.913 831.42 80.913 1051.86c0 220.45 304.242 399.15 679.544 399.15z" class="K"/><path d="M285.932 1052.2c39.3 22.69 39.3 59.5 0 82.13s-103.088 22.69-142.419 0c-39.331-22.7-39.331-59.53 0-82.13s102.875-22.72 142.419 0zm86.205 52.17l356.684 205.93a29.12 29.12 0 0 0 13.171 3.15c4.577 0 9.09-1.08 13.172-3.15l603.806-348.597c7.27-4.197 7.27-11.011 0-15.209l-356.69-205.962a29.1 29.1 0 0 0-13.17-3.15 29.11 29.11 0 0 0-13.171 3.15L372.137 1089.16c-7.3 4.19-7.3 11.01 0 15.21z" class="G"/><use xlink:href="#B" class="B"/><g opacity=".3" class="C"><use xlink:href="#B"/></g><path d="M1262.02 857.795h.34a1.72 1.72 0 0 0 .62-.248c.19-.123.36-.282.48-.469a1.58 1.58 0 0 0 .26-.619 1.69 1.69 0 0 0 .01-.672c-13.63-71.696 11.43-152.304 42.58-185.825.3-.341.45-.784.42-1.235a1.72 1.72 0 0 0-.56-1.177c-.33-.305-.77-.468-1.22-.455s-.88.201-1.19.525c-31.58 34.159-57.13 116.045-43.29 188.806a1.7 1.7 0 0 0 .54.953 1.68 1.68 0 0 0 1.01.416z" class="D"/><use xlink:href="#C" class="B"/><g class="L C"><use xlink:href="#C"/></g><g class="D"><path d="M1299.38 905.612c.22-.019.45-.083.65-.188s.38-.25.53-.425.26-.378.33-.597c.06-.218.09-.448.07-.676-6.3-68.197 22.11-145.277 44.41-168.395.19-.154.35-.346.46-.565a1.91 1.91 0 0 0 .19-.704 1.77 1.77 0 0 0-.12-.719c-.09-.228-.23-.435-.4-.607-.18-.171-.39-.303-.62-.387s-.48-.119-.72-.101a1.69 1.69 0 0 0-.7.206 1.72 1.72 0 0 0-.56.474c-22.78 23.574-51.71 101.962-45.38 171.102.04.455.26.876.6 1.172.35.297.8.444 1.26.41z"/><path d="M1306.16 821.506h.52c15.96-5.298 32.45-8.817 49.18-10.495.46-.046.88-.27 1.17-.623a1.7 1.7 0 0 0 .38-1.263 1.64 1.64 0 0 0-.16-.653c-.11-.203-.25-.384-.42-.53a1.7 1.7 0 0 0-.6-.317 1.64 1.64 0 0 0-.67-.051c-17.03 1.734-33.82 5.314-50.07 10.677-.38.149-.69.426-.88.783a1.7 1.7 0 0 0-.18 1.169 1.71 1.71 0 0 0 .61 1.011c.32.255.71.39 1.12.383v-.091z"/></g><path d="M384.304 1066.52c.374 5.06 1.931 9.95 4.547 14.29s6.216 8 10.51 10.69l327.635 189.11c4.666 2.35 9.818 3.57 15.042 3.57a33.44 33.44 0 0 0 15.042-3.57l576.76-332.99a28.24 28.24 0 0 0 11.01-10.39c2.66-4.401 4.06-9.443 4.06-14.584s-1.4-10.182-4.06-14.583a28.24 28.24 0 0 0-11.01-10.39l-327.57-189.171a33.2 33.2 0 0 0-15.046-3.605 33.18 33.18 0 0 0-15.042 3.605L399.361 1041.52c-4.294 2.7-7.895 6.36-10.51 10.71-2.616 4.34-4.173 9.24-4.547 14.29z" class="M"/><path d="M399.361 1058.89l327.635 189.17c4.66 2.37 9.814 3.61 15.042 3.61s10.382-1.24 15.042-3.61l576.76-333.018c8.33-4.806 8.33-12.593 0-17.369l-327.57-189.171a33.2 33.2 0 0 0-15.046-3.605c-5.228 0-10.381 1.235-15.041 3.605L399.361 1041.52c-8.304 4.87-8.304 12.59 0 17.37z" class="J"/><path d="M741.992 1251.68v32.58a30.74 30.74 0 0 1-15.209-3.59L399.361 1091.5a28.15 28.15 0 0 1-10.774-10c-2.644-4.22-4.118-9.08-4.273-14.06s1.016-9.92 3.392-14.3 5.874-8.06 10.134-10.65c-6.753 4.84-6.083 11.93 1.521 16.43l327.635 189.17c4.617 2.44 9.775 3.68 14.996 3.59z" class="H"/><path d="M370.19 1042.07c-7.787-4.5-7.361-12.17-7.361-21.69V567.909a33.46 33.46 0 0 1 4.498-14.847c2.642-4.528 6.311-8.372 10.711-11.222l576.669-333.019a32.28 32.28 0 0 1 14.505-3.75c5.062-.095 10.076 1.002 14.636 3.203 7.817 4.502 7.391 12.167 7.391 21.718v452.442c-.284 5.222-1.796 10.304-4.412 14.834s-6.263 8.378-10.645 11.234L399.361 1041.52c-4.477 2.38-9.451 3.67-14.52 3.76-5.068.1-10.088-1-14.651-3.21z" class="M"/><path d="M991.24 229.962c0-9.582-6.753-13.445-15.057-8.669L399.361 554.342c-4.457 2.762-8.124 6.628-10.646 11.225l-21.445-12.472c2.527-4.601 6.193-8.476 10.646-11.255l576.761-333.019a32.24 32.24 0 0 1 29.171-.547c7.787 4.654 7.392 12.106 7.392 21.688z" class="J"/><path d="M397.597 1042.43c-4.312 1.95-8.999 2.92-13.729 2.86s-9.389-1.16-13.648-3.22c-7.787-4.5-7.391-12.17-7.391-21.69V567.909c.17-5.236 1.689-10.338 4.41-14.814l21.476 12.441c-2.704 4.484-4.222 9.582-4.411 14.814v452.5c0 8.88 5.81 12.9 13.293 9.58z" class="H"/><path d="M407.604 571.681l555.985-321.004c4.989-3.042 9.126-.548 9.126 5.201v395.073a19.93 19.93 0 0 1-2.685 8.913c-1.586 2.718-3.793 5.021-6.441 6.722L407.604 987.498c-4.988 2.86-9.125.548-9.125-5.232v-394.95c.183-3.141 1.105-6.194 2.691-8.91s3.79-5.021 6.434-6.725z" fill="#fafafa"/><path d="M441.065 1042.43l535.361-309.137c2.327-1.186 4.901-1.804 7.513-1.804s5.186.618 7.513 1.804l8.908 4.897c4.17 2.403 4.17 6.297 0 8.7l-535.356 309.05a16.63 16.63 0 0 1-7.605 1.84 16.62 16.62 0 0 1-7.604-1.84l-8.822-4.84c-4.137-2.4-4.137-6.29.092-8.67zm41.916 24.95l535.359-309.114a15.39 15.39 0 0 1 6.79-2.007 15.35 15.35 0 0 1 6.96 1.247l139.35 80.486c3.43 1.978 2.86 5.537-1.28 7.94L635.437 1154.62c-2.081 1.18-4.407 1.87-6.797 2-2.39.14-4.78-.27-6.982-1.21l-139.924-80.09c-3.468-1.98-2.89-5.54 1.247-7.94z" class="H"/><path d="M946.92 888.213l16.791-9.673c.7-.395.76-1.034 0-1.399l-16.031-9.126c-.378-.187-.794-.285-1.216-.285s-.839.098-1.217.285l-16.76 9.704c-.73.395-.791 1.034 0 1.399l16.03 9.125c.375.185.788.279 1.205.274a2.66 2.66 0 0 0 1.198-.304zm-24.335-33.46l-16.76 9.673c-.73.395-.791 1.034-.152 1.399l16.03 9.126a2.75 2.75 0 0 0 1.217.285c.422 0 .839-.098 1.217-.285l16.76-9.704c.73-.395.791-1.034.152-1.399l-16.03-9.126a2.65 2.65 0 0 0-2.555.031h.121zm-54.174 31.27l-28.35 16.365c-.73.395-.791 1.034-.152 1.399l16.03 9.278c.378.187.795.285 1.217.285a2.75 2.75 0 0 0 1.217-.285l28.38-16.396c.699-.395.76-1.034 0-1.399l-16.061-9.125c-.353-.229-.754-.37-1.172-.412a2.64 2.64 0 0 0-1.231.168l.122.122zm29.657-17.126l-16.76 9.673c-.7.396-.761 1.035-.152 1.4l16.061 9.125a2.73 2.73 0 0 0 1.216.285c.422 0 .839-.097 1.217-.285l16.761-9.703c.699-.396.76-1.034 0-1.399l-16.061-9.126a2.65 2.65 0 0 0-1.191-.334c-.418-.016-.833.067-1.212.243l.121.121zm-65.764 37.962l-16.76 9.673c-.7.426-.761 1.035-.152 1.4l16.06 9.125c.379.185.795.282 1.217.282s.838-.097 1.217-.282l16.76-9.673c.7-.426.761-1.034.152-1.43l-16.06-9.125c-.384-.23-.819-.359-1.266-.375s-.891.082-1.29.284l.122.121zm-24.487 14.145l-16.943 9.551c-.73.426-.79 1.034 0 1.399l16.031 9.278a2.73 2.73 0 0 0 2.433 0l16.761-9.673c.73-.426.791-1.034.152-1.43l-16.031-9.125c-.377-.229-.806-.361-1.247-.382s-.88.068-1.277.26l.121.122zm62.845 37.779l16.79-9.673c.7-.426.761-1.034 0-1.399l-16.03-9.125a2.64 2.64 0 0 0-1.217-.297c-.423 0-.841.102-1.217.297l-16.76 9.673c-.73.425-.791 1.034-.152 1.399l16.03 9.277c.399.147.827.198 1.249.151a2.75 2.75 0 0 0 1.185-.424l.122.121zm-24.487 14.145l16.76-9.673c.7-.426.791-1.034.152-1.399l-16.03-9.278c-.381-.195-.804-.297-1.232-.297s-.851.102-1.232.297l-16.76 9.673c-.7.426-.761 1.034 0 1.399l16.03 9.126a2.76 2.76 0 0 0 1.092.244 2.74 2.74 0 0 0 1.098-.214l.122.122zm-24.517 14.144l16.791-9.673c.699-.426.76-1.034 0-1.399l-16.031-9.277a2.64 2.64 0 0 0-2.433 0l-16.761 9.703c-.73.426-.791 1.034-.152 1.399l16.031 9.278a2.66 2.66 0 0 0 1.235.221c.423-.027.834-.155 1.198-.373l.122.121zm-24.7 14.028l16.761-9.678c.73-.426.79-1.034 0-1.399l-16.031-9.278c-.376-.194-.793-.296-1.217-.296s-.84.102-1.216.296l-16.548 9.765c-.7.425-.76 1.034 0 1.399l16.03 9.281a2.86 2.86 0 0 0 1.121.2 2.8 2.8 0 0 0 1.1-.29zm125.384-98.864l16.761-9.673c.699-.396.79-1.034.152-1.399l-16.031-9.126a2.73 2.73 0 0 0-2.433 0L904 891.742c-.7.395-.761 1.034 0 1.399l16.03 9.125c.375.185.788.279 1.206.274s.828-.11 1.197-.304h-.091zm-27.376 42.281l37.384-21.597c.73-.395.791-1.034 0-1.399l-38.936-22.479a2.8 2.8 0 0 0-2.464 0l-19.315 11.163c-.73.426-.791 1.065-.152 1.43l20.623 11.894c.639.365.548 1.003-.152 1.399l-15.239 8.912c-.7.426-.761 1.035 0 1.4l16.03 9.277c.362.169.757.256 1.156.256s.794-.087 1.156-.256h-.091zm-111.879-9.49L766.54 944.7c-.7.426-.761 1.034 0 1.399l16.03 9.277c.378.188.795.286 1.217.286s.839-.098 1.217-.286l16.76-9.673c.7-.425.761-1.034.152-1.399l-16.061-9.277a2.64 2.64 0 0 0-2.676 0h-.092zm-24.395 14.023l-16.761 9.672c-.73.426-.79 1.035 0 1.4l16.031 9.277a2.64 2.64 0 0 0 2.433 0l16.761-9.673c.73-.426.791-1.034.152-1.399l-16.183-9.277a2.64 2.64 0 0 0-2.433 0zm-135.574 151.03a2.7 2.7 0 0 0 2.433 0l16.761-9.68c.699-.39.76-1.03.152-1.4l-16.061-9.12c-.376-.2-.793-.3-1.217-.3s-.841.1-1.217.3l-16.76 9.67c-.7.43-.76 1.07-.152 1.43l16.061 9.1zm-60.38-37.75l-16.761 9.67c-.7.43-.791 1.06-.152 1.43l16.061 9.13a2.7 2.7 0 0 0 2.433 0l16.761-9.68c.699-.39.76-1.03 0-1.4l-16.031-9.12a2.57 2.57 0 0 0-1.152-.28 2.58 2.58 0 0 0-1.159.25zm31.057 28.38a2.91 2.91 0 0 0 1.232.28 2.91 2.91 0 0 0 1.231-.28l16.761-9.68c.699-.42.76-1.06 0-1.43l-16.031-9.12c-.376-.2-.793-.3-1.216-.3s-.841.1-1.217.3l-16.608 9.55c-.7.4-.791 1.03-.152 1.4l16 9.28zm67.619 15.21l16.761-9.68c.699-.39.76-1.03 0-1.4l-16.061-9.12a2.71 2.71 0 0 0-1.217-.29c-.422 0-.838.1-1.217.29l-16.76 9.7c-.7.4-.76 1.04 0 1.4l16.03 9.13a2.66 2.66 0 0 0 1.209.26c.418-.02.827-.12 1.194-.32l.061.03zm-26.95 14.23c.376.2.793.3 1.216.3s.841-.1 1.217-.3l16.761-9.67c.73-.4.791-1.04 0-1.4l-16.031-9.13c-.378-.18-.794-.28-1.216-.28s-.839.1-1.217.28l-16.761 9.71c-.73.39-.791 1.03-.152 1.4l16.183 9.09zm-47.392-71.97l-16.791 9.68c-.699.42-.76 1.06 0 1.43l16.031 9.12c.376.2.793.3 1.216.3s.841-.1 1.217-.3l16.761-9.67c.73-.4.79-1.04.152-1.4l-16.031-9.28c-.403-.19-.847-.28-1.292-.26a2.94 2.94 0 0 0-1.263.38zm122.494-70.72l-16.76 9.673c-.73.426-.791 1.034-.152 1.399l16.03 9.126c.376.195.794.296 1.217.296s.841-.101 1.217-.296l16.791-9.673c.699-.426.76-1.034 0-1.399l-16.031-9.278c-.354-.133-.734-.188-1.111-.162a2.67 2.67 0 0 0-1.079.314h-.122zm-98.007 56.58l-16.761 9.67c-.699.43-.791 1.07-.152 1.43l16.031 9.13a2.76 2.76 0 0 0 1.232.29 2.77 2.77 0 0 0 1.232-.29l16.76-9.68c.7-.42.76-1.03 0-1.4l-16.03-9.12c-.344-.16-.715-.24-1.092-.25a2.77 2.77 0 0 0-1.099.22h-.121zm122.494-70.724l-16.76 9.673c-.7.426-.761 1.034 0 1.399l16.03 9.277a2.64 2.64 0 0 0 1.217.297c.423 0 .841-.102 1.217-.297l16.76-9.672c.7-.426.76-1.035.152-1.4l-16.061-9.125a2.63 2.63 0 0 0-1.198-.373c-.423-.027-.847.049-1.235.221h-.122zm-48.882 28.319l-16.76 9.675c-.7.42-.761 1.03 0 1.4l16.03 9.27c.376.2.793.3 1.217.3s.84-.1 1.216-.3l16.761-9.67c.699-.42.791-1.03.152-1.4l-16.152-9.275a2.71 2.71 0 0 0-1.232-.296c-.428 0-.851.101-1.232.296zm-24.487 14.145l-16.76 9.67c-.73.43-.791 1.04-.152 1.4l16.03 9.28a2.71 2.71 0 0 0 1.217.3c.423 0 .841-.11 1.217-.3l16.79-9.67c.7-.43.761-1.04 0-1.4l-15.908-9.4c-.385-.18-.806-.26-1.228-.24-.422.01-.835.13-1.206.33v.03zm-24.334 14.14l-16.791 9.68c-.7.42-.761 1.06 0 1.43l16.03 9.12c.376.2.794.3 1.217.3s.841-.1 1.217-.3l16.76-9.67c.73-.43.791-1.04.152-1.4l-16.152-9.28a2.8 2.8 0 0 0-1.304-.28c-.451.02-.891.15-1.281.37l.152.03zm111.848 9.49l16.76-9.67c.73-.42.791-1.03 0-1.4l-16.03-9.12c-.379-.19-.795-.29-1.217-.29a2.71 2.71 0 0 0-1.217.29l-16.791 9.67c-.699.43-.76 1.03 0 1.4l16.031 9.28a2.77 2.77 0 0 0 1.177.17c.4-.03.788-.15 1.135-.36l.152.03zM976.76 823.392L960 833.065c-.7.395-.761 1.034-.152 1.399l16.061 9.125a2.73 2.73 0 0 0 2.433 0l16.761-9.703c.699-.395.76-1.034.152-1.399l-16.061-9.126a2.65 2.65 0 0 0-2.586 0l.152.031zm-29.657 17.095l-16.761 9.703c-.699.396-.76 1.034-.152 1.399l16.061 9.126c.378.187.794.285 1.217.285s.838-.098 1.216-.285l16.761-9.704c.699-.395.76-1.034.152-1.399l-16.061-9.125a2.73 2.73 0 0 0-1.289-.34 2.75 2.75 0 0 0-1.297.309l.153.031zm54.027-31.361l-16.765 9.673c-.73.395-.791 1.034-.152 1.399l16.027 9.125a2.76 2.76 0 0 0 2.44 0l16.76-9.703c.73-.396.79-1.034.15-1.399l-16.03-9.126c-.38-.19-.8-.286-1.22-.281a2.59 2.59 0 0 0-1.21.312zm-135.427 125.87l16.761-9.673c.699-.395.76-1.034.152-1.399l-16.061-9.125c-.378-.188-.795-.286-1.217-.286a2.73 2.73 0 0 0-1.216.286l-16.761 9.703c-.699.395-.76 1.034-.152 1.399l16.061 9.126a2.65 2.65 0 0 0 1.22.281 2.63 2.63 0 0 0 1.213-.312zm162.347-139.924a2.77 2.77 0 0 0-2.44 0l-16.76 9.704c-.7.395-.76 1.034-.15 1.399l16.06 9.125a2.73 2.73 0 0 0 1.22.286c.42 0 .84-.098 1.21-.286l16.76-9.703c.7-.395.76-1.034.16-1.399l-16.06-9.126zM772.532 1015.33l16.761-9.67c.699-.43.76-1.04 0-1.4l-16.031-9.279a2.64 2.64 0 0 0-2.433 0l-16.456 9.669c-.7.43-.791 1.04 0 1.4l16.03 9.28a2.68 2.68 0 0 0 1.12.19 2.63 2.63 0 0 0 1.1-.28l-.091.09zm300.438-173.383l16.76-9.673c.73-.396.79-1.034.16-1.399l-16.13-9.582c-.37-.188-.79-.285-1.21-.285a2.76 2.76 0 0 0-1.22.285l-16.76 9.673c-.73.426-.79 1.064-.15 1.429l16.03 9.126c.37.254.8.41 1.24.452a2.63 2.63 0 0 0 1.31-.209l-.03.183zm-47.42.912l16.79-9.673c.7-.395.76-1.034 0-1.399l-16.03-9.125a2.73 2.73 0 0 0-1.22-.286c-.42 0-.83.098-1.21.286l-16.76 9.703c-.73.396-.79 1.034-.15 1.399l16.03 9.126c.42.176.88.241 1.33.188s.88-.223 1.25-.492l-.03.273zm25.37-34.463a2.73 2.73 0 0 0-1.22-.286c-.42 0-.84.098-1.21.286l-16.76 9.703c-.7.395-.76 1.034 0 1.399l16.03 9.126a2.62 2.62 0 0 0 1.21.296 2.66 2.66 0 0 0 1.22-.296l16.76-9.673c.7-.396.79-1.035 0-1.4l-16.03-9.155zm5.17-3.042l38.94 22.479a2.69 2.69 0 0 0 2.46 0l16.76-9.673c.7-.396.76-1.034 0-1.399l-38.93-22.48a2.77 2.77 0 0 0-2.44 0l-16.76 9.673c-.61.274-.61.913 0 1.278l-.03.122zm-56.577 31.148l-16.76 9.703c-.7.396-.761 1.035 0 1.4l16.03 9.125a2.64 2.64 0 0 0 1.217.296 2.68 2.68 0 0 0 1.22-.296l16.76-9.673c.7-.395.79-1.034.15-1.399l-16.03-9.126c-.4-.212-.84-.326-1.29-.331s-.895.098-1.297.301zM815.209 942.966l-16.76 9.703c-.7.396-.761 1.034 0 1.399l16.06 9.126c.376.195.794.296 1.217.296a2.64 2.64 0 0 0 1.217-.296l16.517-9.582c.7-.395.76-1.034.152-1.399l-16.061-9.125a2.73 2.73 0 0 0-2.342-.122zm230.961-87.027a2.68 2.68 0 0 0 2.44 0l16.76-9.673c.7-.395.76-1.034 0-1.399l-15.94-9.308c-.38-.188-.79-.285-1.22-.285-.42 0-.84.097-1.21.285l-16.76 9.673c-.7.426-.76 1.065-.16 1.43l16.09 9.277zm-206.444 73.004l-16.76 9.703c-.73.396-.791 1.035 0 1.4l16.03 9.125a2.64 2.64 0 0 0 1.217.297 2.65 2.65 0 0 0 1.217-.297l16.76-9.673c.73-.395.791-1.034.152-1.399l-16.03-9.126c-.412-.26-.885-.405-1.372-.421s-.969.098-1.396.33l.182.061zM647.604 1085.93c.376.2.794.3 1.217.3s.841-.1 1.217-.3l16.76-9.67c.73-.4.791-1.04 0-1.4l-15.848-9.25c-.378-.19-.794-.28-1.216-.28s-.839.09-1.217.28l-16.76 9.68c-.731.42-.791 1.06-.153 1.42l16 9.22zm-28.471-29.84l-16.852 9.8c-.699.39-.76 1.03 0 1.4l16.031 9.12c.376.2.793.3 1.216.3s.841-.1 1.217-.3l16.761-9.67c.73-.43.79-1.07.152-1.43l-16.031-9.13a2.59 2.59 0 0 0-1.251-.29c-.435 0-.862.11-1.243.32v-.12zm55.422 15.61l16.76-9.68c.7-.39.761-1.03 0-1.4l-16.03-9.15a2.71 2.71 0 0 0-1.217-.29c-.422 0-.838.1-1.216.29l-16.761 9.67c-.699.43-.76 1.07 0 1.43l16.061 9.13c.362.2.769.32 1.187.35.418.02.834-.06 1.216-.23v-.12zm24.487-14.15l16.76-9.67c.73-.43.791-1.04.152-1.4l-16.03-9.22c-.378-.19-.795-.28-1.217-.28s-.838.09-1.217.28l-16.76 9.68c-.73.42-.791 1.06 0 1.43l16.03 9.12c.343.2.725.32 1.12.35s.792-.02 1.162-.17v-.12zm24.517-14.14l16.76-9.68c.7-.42.761-1.03 0-1.4l-16.03-9.27a2.71 2.71 0 0 0-1.217-.29c-.422 0-.838.1-1.217.29l-16.76 9.67c-.7.43-.791 1.06-.152 1.4l16.061 9.12a2.66 2.66 0 0 0 1.242.47 2.68 2.68 0 0 0 1.313-.19v-.12zm-79.939-1.46l-16.761 9.67c-.699.4-.791 1.03-.152 1.4l16.031 9.12a2.77 2.77 0 0 0 2.463 0l16.761-9.67c.699-.42.76-1.06 0-1.43l-16.031-9.12c-.371-.16-.772-.22-1.173-.19a2.54 2.54 0 0 0-1.138.34v-.12zm24.517-14.15l-16.791 9.68c-.7.39-.761 1.03 0 1.39l16.03 9.13a2.71 2.71 0 0 0 2.434 0l16.76-9.7c.7-.4.791-1.04.152-1.4l-16.03-9.13c-.404-.19-.85-.28-1.297-.25a2.67 2.67 0 0 0-1.258.4v-.12zm97.977-56.576l-16.76 9.673c-.7.396-.761 1.035 0 1.4l16.03 9.125c.378.188.795.285 1.217.285a2.73 2.73 0 0 0 1.216-.285l16.761-9.703c.699-.396.76-1.035.152-1.4l-16.061-9.125a2.64 2.64 0 0 0-2.555.152v-.122zm-24.487 14.327l-16.76 9.673c-.73.396-.791 1.035-.152 1.4l16.03 9.126c.378.19.795.28 1.217.28s.838-.09 1.217-.28l16.76-9.704c.73-.396.791-1.035 0-1.4l-16.03-9.125c-.359-.165-.75-.249-1.145-.243s-.783.098-1.137.273zm49.004-28.319l-16.76 9.703c-.73.396-.791 1.035 0 1.4l16.03 9.125c.378.188.795.285 1.217.285s.838-.097 1.217-.285l16.76-9.703c.73-.396.791-1.034.152-1.4l-16.03-9.125a2.75 2.75 0 0 0-1.286-.355 2.73 2.73 0 0 0-1.3.294v.061zm-98.008 56.548l-16.76 9.67c-.73.4-.791 1.04-.152 1.4l16.03 9.13a2.84 2.84 0 0 0 1.217.28 2.84 2.84 0 0 0 1.217-.28l16.791-9.71c.699-.39.76-1.03 0-1.4l-16.031-9.12a2.58 2.58 0 0 0-1.159-.25 2.57 2.57 0 0 0-1.153.28zm24.487-14.145l-16.76 9.675c-.7.39-.761 1.03 0 1.4l16.03 9.12a2.71 2.71 0 0 0 1.217.29c.422 0 .838-.1 1.217-.29l16.76-9.7c.7-.4.791-1.03.152-1.4l-16.061-9.125a2.65 2.65 0 0 0-2.555.03zm-31.27 92.105l16.761-9.67c.73-.4.791-1.04.152-1.4l-16.031-9.13c-.378-.18-.794-.28-1.216-.28s-.839.1-1.217.28l-16.761 9.68c-.73.42-.79 1.06 0 1.43l16.031 9.12a2.66 2.66 0 0 0 1.144.25c.395-.01.783-.1 1.137-.28zm-129.186-6.08l-16.031-9.13a2.7 2.7 0 0 0-2.433 0l-16.76 9.68c-.731.42-.791 1.06 0 1.43l16.03 9.12c.376.2.793.3 1.217.3s.84-.1 1.216-.3l16.761-9.67c.578-.43.639-1.16 0-1.43zm31.939 8l-16.03-9.13a2.7 2.7 0 0 0-2.434 0l-25.642 14.85c-.73.42-.791 1.06 0 1.43l16.03 9.12c.376.2.793.3 1.217.3s.84-.1 1.216-.3l25.795-14.87c.426-.4.487-1.04-.152-1.4zm-55.878-26.28l-16.031-9.13c-.376-.19-.793-.3-1.216-.3a2.71 2.71 0 0 0-1.217.3l-20.654 11.93c-.7.39-.761 1.03 0 1.39l16.03 9.13c.378.19.795.28 1.217.28s.839-.09 1.217-.28l20.623-11.92c.609-.43.669-1.1.031-1.4zm15.817-9.13c.376.2.793.3 1.217.3s.841-.1 1.217-.3l16.76-9.67c.73-.43.791-1.07.152-1.43l-16.03-9.13a2.7 2.7 0 0 0-2.434 0l-16.76 9.68c-.73.39-.791 1.03-.152 1.4l16.03 9.15zm69.415 44.96l-16.031-9.13c-.378-.18-.794-.28-1.217-.28s-.838.1-1.216.28l-32.244 18.62c-.699.43-.79 1.03 0 1.4l16.031 9.12c.381.2.803.3 1.232.3a2.65 2.65 0 0 0 1.232-.3l32.213-18.61c.578-.43.638-1.07 0-1.43v.03zm11.315 19.92l-16.061-9.12c-.378-.19-.794-.29-1.216-.29a2.71 2.71 0 0 0-1.217.29l-20.654 11.83c-.7.43-.761 1.03 0 1.4l16.061 9.28c.379.18.795.28 1.216.28s.838-.1 1.217-.28l20.624-11.93c.578-.48.669-1.12.03-1.49v.03zm101.445-170.035a2.64 2.64 0 0 0 1.217.296c.423 0 .841-.101 1.217-.296l16.76-9.673c.7-.426.76-1.034.152-1.399l-16.061-9.126a2.77 2.77 0 0 0-1.216-.281c-.422 0-.838.096-1.217.281l-16.73 9.491c-.7.426-.761 1.034-.152 1.399l16.03 9.308zm-49.004 28.289c.376.195.794.296 1.217.296s.841-.101 1.217-.296l16.76-9.673c.7-.395.791-1.034.152-1.399l-16.061-9.278a2.77 2.77 0 0 0-1.216-.281c-.422 0-.838.096-1.217.281l-16.76 9.673c-.7.426-.761 1.065 0 1.43l15.908 9.247zm-108.684 62.726c.383.18.805.28 1.232.28a2.91 2.91 0 0 0 1.232-.28l16.76-9.89c.7-.43.761-1.06 0-1.43l-16.03-9.12c-.376-.2-.793-.3-1.217-.3s-.841.1-1.217.3l-16.76 9.67c-.7.39-.791 1.03 0 1.4l16 9.37zM706.19 967.3a2.64 2.64 0 0 0 2.433 0l16.761-9.673c.73-.395.791-1.034.152-1.399l-16.03-9.277c-.379-.188-.795-.286-1.217-.286s-.839.098-1.217.286l-16.76 9.673c-.73.425-.791 1.064-.152 1.429l16.03 9.247zm-49.004 28.289a2.64 2.64 0 0 0 1.217.297c.423 0 .841-.102 1.217-.297l16.76-9.673c.73-.395.791-1.034 0-1.399l-16.03-9.277c-.378-.188-.795-.286-1.217-.286s-.839.098-1.217.286l-16.76 9.673c-.73.426-.791 1.064-.152 1.429l16.182 9.247zM641.277 1124.2c-.378-.19-.794-.29-1.216-.29a2.71 2.71 0 0 0-1.217.29l-25.795 14.9c-.699.4-.76 1.04 0 1.4l16.031 9.13a2.7 2.7 0 0 0 2.433 0l25.795-14.91c.699-.39.76-1.03 0-1.4l-16.031-9.12zm-19.254-108.32c.378.19.794.28 1.216.28a2.7 2.7 0 0 0 1.217-.28l16.791-9.71c.7-.39.76-1.03 0-1.39l-16.03-9.13c-.376-.194-.794-.296-1.217-.296s-.841.102-1.217.296l-16.76 9.67c-.73.4-.791 1.04-.152 1.4l16.152 9.16zm-24.487 14.14a2.71 2.71 0 0 0 1.217.29c.422 0 .838-.1 1.216-.29l16.761-9.7c.73-.4.791-1.03.152-1.4l-16.03-9.13a2.7 2.7 0 0 0-2.434 0l-16.791 9.68c-.699.39-.76 1.03 0 1.4l15.909 9.15zm497.674-167.906c-.38-.195-.79-.296-1.22-.296-.42 0-.84.101-1.21.296l-41.28 23.818c-.7.425-.79 1.034-.15 1.399l16.06 9.277a2.61 2.61 0 0 0 1.21.297 2.65 2.65 0 0 0 1.22-.297l41.25-23.817c.73-.426.79-1.034.15-1.399l-16.03-9.278zm-54.18 31.27c-.37-.195-.79-.296-1.21-.296-.43 0-.84.101-1.22.296l-16.76 9.673c-.7.426-.79 1.034-.15 1.399l16.03 9.278a2.69 2.69 0 0 0 2.46 0l16.76-9.673c.7-.426.76-1.034 0-1.399l-15.91-9.278zM710.357 1077.6l16.761-9.68c.699-.39.76-1.03.152-1.4l-16.061-9.12a2.71 2.71 0 0 0-1.217-.29c-.422 0-.838.1-1.216.29l-16.761 9.67c-.7.43-.76 1.07 0 1.43l16.031 9.13a2.72 2.72 0 0 0 1.159.25c.4-.01.794-.1 1.152-.28zM992.03 921.673a2.73 2.73 0 0 0-2.433 0l-16.761 9.673c-.699.426-.79 1.034-.152 1.399l16.061 9.278a2.64 2.64 0 0 0 1.217.296c.423 0 .841-.101 1.217-.296l16.761-9.673c.7-.426.76-1.034 0-1.399l-15.91-9.278zm127.76-73.703a2.68 2.68 0 0 0-1.22-.297 2.68 2.68 0 0 0-1.22.297l-16.85 9.825c-.7.426-.79 1.034-.15 1.399l16.03 9.125a2.73 2.73 0 0 0 1.22.286c.42 0 .84-.098 1.21-.286l16.79-9.673c.7-.425.76-1.034 0-1.399l-15.81-9.277zm40.54-4.867l-38.96-22.51a2.66 2.66 0 0 0-1.22-.296 2.62 2.62 0 0 0-1.21.296l-16.86 9.825c-.7.426-.76 1.035-.15 1.4l38.97 22.509c.38.188.79.285 1.21.285.43 0 .84-.097 1.22-.285l16.76-9.673c.7-.669.79-1.277.15-1.642l.09.091zM900.38 974.449a2.64 2.64 0 0 0-2.433 0l-20.624 11.893c-.699.426-.791 1.065-.152 1.43l16.03 9.125a2.71 2.71 0 0 0 1.232.297c.429 0 .851-.102 1.232-.297l20.624-11.893c.7-.426.76-1.065.152-1.43l-16.061-9.125zm61.901-35.742c-.376-.194-.793-.296-1.216-.296s-.841.102-1.217.296l-25.795 14.875c-.699.426-.76 1.064-.152 1.429l16.061 9.126a2.64 2.64 0 0 0 2.433 0l25.795-14.875c.7-.425.76-1.034 0-1.399l-15.909-9.156zM843.65 1007.21c-.376-.2-.793-.3-1.217-.3s-.84.1-1.216.3l-137.978 79.66c-.699.4-.79 1.04-.152 1.4l16.031 9.13c.376.19.793.3 1.216.3a2.71 2.71 0 0 0 1.217-.3l138.008-79.64c.699-.42.76-1.06 0-1.43l-15.909-9.12zm-145.703 84.14c-.379-.19-.795-.29-1.217-.29a2.71 2.71 0 0 0-1.217.29l-20.654 11.92c-.699.43-.76 1.03 0 1.4l16.031 9.28c.378.18.794.28 1.216.28a2.84 2.84 0 0 0 1.217-.28l20.624-11.93c.699-.39.791-1.03.152-1.4l-16.152-9.27zM872.03 990.966a2.64 2.64 0 0 0-2.433 0l-20.654 11.924c-.7.4-.761 1.03 0 1.4l16.03 9.12c.376.2.794.3 1.217.3s.841-.1 1.217-.3l20.623-11.92c.73-.39.791-1.03.152-1.4l-16.152-9.124zM669.566 1107.83a2.7 2.7 0 0 0-2.433 0l-20.624 11.9c-.73.42-.791 1.06 0 1.43l16.031 9.12c.376.2.793.3 1.217.3s.84-.1 1.216-.3l20.624-11.89c.73-.43.791-1.04 0-1.4l-16.031-9.16zm259.286-149.655c-.379-.188-.795-.285-1.217-.285s-.839.097-1.217.285l-20.623 11.924c-.73.395-.791 1.034 0 1.399l16.03 9.278c.378.187.795.285 1.217.285s.838-.098 1.216-.285l20.624-11.924c.73-.396.791-1.034.152-1.399l-16.182-9.278zm87.698-50.646a2.68 2.68 0 0 0-1.22-.297 2.68 2.68 0 0 0-1.22.297l-16.787 9.673c-.7.425-.76 1.034 0 1.399l15.907 9.156a2.69 2.69 0 0 0 1.22.296 2.69 2.69 0 0 0 1.22-.296l16.76-9.673c.73-.426.79-1.035 0-1.4l-15.88-9.155zm54.75-38.297l16.76-9.673c.7-.426.79-1.034.15-1.399l-16.06-9.126c-.38-.185-.79-.281-1.21-.281-.43 0-.84.096-1.22.281l-16.76 9.673c-.7.426-.76 1.034 0 1.43l16.03 9.125c.38.177.81.257 1.23.236s.84-.143 1.2-.357l-.12.091zm-99.984 4.806l16.76-9.673c.7-.395.791-1.034.152-1.399l-16.03-9.126a2.8 2.8 0 0 0-1.232-.285c-.427 0-.849.097-1.232.285l-16.761 9.704c-.699.395-.76 1.034 0 1.399l16.031 9.126c.385.176.808.257 1.231.235a2.64 2.64 0 0 0 1.202-.357l-.121.091zm-64.852 90.403l48.973-28.289c.73-.426.791-1.034.152-1.399l-16.03-9.278c-.378-.187-.795-.285-1.217-.285a2.75 2.75 0 0 0-1.217.285l-49.003 28.289c-.7.426-.791 1.035-.152 1.4l16.03 9.125a2.7 2.7 0 0 0 2.464.152zm138.096-81.064a2.69 2.69 0 0 0 1.22.296 2.69 2.69 0 0 0 1.22-.296l16.76-9.673c.73-.426.79-1.035.15-1.4l-16.03-9.277a2.76 2.76 0 0 0-2.44 0l-16.76 9.673c-.73.426-.79 1.064 0 1.429l15.88 9.248zM1024 869.962l16.76-9.673c.73-.395.79-1.034.15-1.399l-16.03-9.126a2.73 2.73 0 0 0-1.21-.285 2.74 2.74 0 0 0-1.22.285l-16.76 9.673c-.73.426-.79 1.065-.15 1.43l16.03 9.125c.37.19.79.287 1.22.282a2.65 2.65 0 0 0 1.21-.312zM881.855 978.494l16.761-9.673c.73-.425.791-1.034.152-1.399l-16.03-9.247c-.376-.195-.794-.296-1.217-.296a2.64 2.64 0 0 0-1.217.296l-16.791 9.673c-.699.426-.76 1.034 0 1.399l16.031 9.278a2.64 2.64 0 0 0 2.311.061v-.092zm108.472-63.878a2.64 2.64 0 0 0 2.433 0l16.76-9.673c.7-.426.76-1.034.15-1.399l-16.058-9.126c-.379-.185-.795-.281-1.217-.281a2.77 2.77 0 0 0-1.216.281l-16.761 9.673c-.699.426-.76 1.035 0 1.43l15.909 9.095zM759.361 1049.43l16.761-9.67c.699-.4.76-1.04 0-1.4l-16.061-9.28c-.379-.19-.795-.28-1.217-.28s-.838.09-1.217.28l-16.76 9.67c-.7.43-.761 1.07-.152 1.43l16.061 9.13a2.63 2.63 0 0 0 1.276.4c.453.02.904-.08 1.309-.28zm24.487-14.14l16.76-9.68c.73-.39.791-1.03.152-1.4l-15.969-9.4a2.84 2.84 0 0 0-1.217-.28 2.84 2.84 0 0 0-1.217.28l-16.76 9.68c-.73.42-.791 1.06 0 1.43l16.03 9.12a2.64 2.64 0 0 0 1.097.31 2.55 2.55 0 0 0 1.124-.19v.13zm-49.004 28.28l16.76-9.67c.73-.39.791-1.03 0-1.4l-16.03-9.12a2.71 2.71 0 0 0-1.217-.29c-.422 0-.838.1-1.216.29l-16.761 9.67c-.73.43-.791 1.06-.152 1.43l16.03 9.12a2.71 2.71 0 0 0 1.313.27c.453-.03.891-.17 1.273-.42v.12zm98.008-56.73l16.76-9.669c.73-.426.791-1.034.152-1.399l-16.03-9.278c-.378-.187-.795-.285-1.217-.285s-.839.098-1.217.285l-16.76 9.673c-.73.426-.791 1.035 0 1.4l15.878 9.273c.376.2.793.3 1.217.3s.841-.1 1.217-.3zm-24.487 14.15l16.76-9.67c.7-.4.761-1.04.152-1.4l-16.152-9.16c-.378-.19-.794-.28-1.216-.28s-.839.09-1.217.28l-16.761 9.67c-.699.43-.76 1.07-.152 1.43l16.061 9.13a2.64 2.64 0 0 0 1.259.33c.441.01.876-.1 1.266-.3v-.03zm49.004-28.29l16.76-9.673c.7-.426.761-1.035 0-1.4l-16.03-9.277c-.376-.195-.794-.296-1.217-.296s-.841.101-1.217.296l-16.76 9.673c-.7.426-.791 1.034-.152 1.399l16.061 9.278c.388.22.826.338 1.273.344s.888-.103 1.282-.314v-.03zm133.688-196.776a2.64 2.64 0 0 0 2.433 0l16.76-9.673c.73-.426.79-1.034.15-1.399l-4.26-2.464c-.37-.188-.79-.285-1.21-.285a2.76 2.76 0 0 0-1.22.285l-16.79 9.703c-.7.396-.76 1.034 0 1.4l4.137 2.433zm-121.673 77.11a2.76 2.76 0 0 0 1.217.282c.421 0 .838-.096 1.216-.282l16.761-9.673c.699-.426.76-1.064 0-1.429l-16.031-9.126a2.64 2.64 0 0 0-2.433 0l-16.76 9.673c-.7.396-.761 1.034-.153 1.399l16.183 9.156zm49.004-28.289a2.76 2.76 0 0 0 2.433 0l16.761-9.673c.699-.426.76-1.064 0-1.429l-15.909-9.308a2.64 2.64 0 0 0-1.217-.297 2.65 2.65 0 0 0-1.217.297l-16.76 9.673c-.7.395-.791 1.034-.152 1.399l16.061 9.338zm-78.936 45.628a2.75 2.75 0 0 0 1.217.285c.422 0 .839-.098 1.217-.285l16.76-9.704c.73-.395.791-1.034.152-1.399l-16.213-9.308a2.64 2.64 0 0 0-2.433 0l-16.76 9.673c-.731.395-.791 1.034-.153 1.399l16.213 9.339zm54.419-31.392a2.73 2.73 0 0 0 2.433 0l16.761-9.673c.73-.426.79-1.065.152-1.43l-16.031-9.125a2.64 2.64 0 0 0-2.433 0l-16.761 9.673c-.73.395-.791 1.034-.152 1.399l16.031 9.156zm-103.422 59.711c.38.179.796.272 1.216.272a2.86 2.86 0 0 0 1.217-.272l16.761-9.673c.73-.426.79-1.065.152-1.43l-16.031-9.125a2.64 2.64 0 0 0-2.433 0l-16.761 9.673c-.73.395-.791 1.034-.152 1.399l16.031 9.156zm24.517-14.175a2.73 2.73 0 0 0 2.433 0l16.761-9.673c.699-.426.76-1.064 0-1.43l-16.031-9.125a2.64 2.64 0 0 0-2.433 0l-16.761 9.673c-.699.396-.76 1.034-.152 1.399l16.183 9.156zm127.087-80.182c.376.194.793.296 1.217.296s.841-.102 1.217-.296l16.76-9.673c.73-.426.791-1.035.152-1.4l-4.258-2.463c-.379-.188-.795-.286-1.217-.286s-.839.098-1.217.286l-16.76 9.703c-.73.395-.791 1.034-.152 1.399l4.258 2.434zm73.517-42.586a2.68 2.68 0 0 0 2.44 0l16.76-9.673c.7-.426.76-1.034 0-1.399l-4.26-2.464a2.76 2.76 0 0 0-1.22-.285c-.42 0-.84.097-1.21.285l-16.76 9.703c-.73.396-.8 1.035-.16 1.4l4.41 2.433zm33.68 19.437c.38.188.79.286 1.21.286a2.73 2.73 0 0 0 1.22-.286l16.76-9.703c.73-.395.79-1.034.15-1.399l-16.03-9.126a2.73 2.73 0 0 0-1.21-.285 2.74 2.74 0 0 0-1.22.285l-16.76 9.704c-.73.395-.79 1.034-.15 1.399l16.03 9.125zm46.66 53.749l16.76-9.673c.73-.425.79-1.034 0-1.399l-16.03-9.277a2.76 2.76 0 0 0-1.22-.286c-.42 0-.84.098-1.21.286l-16.77 9.673c-.73.425-.79 1.034-.15 1.399l16.03 9.277c.39.231.84.358 1.29.368s.9-.095 1.3-.307v-.061zm-129.34-44.897c.376.195.794.296 1.217.296s.841-.101 1.217-.296l16.76-9.673c.7-.426.761-1.034 0-1.399l-4.258-2.464c-.378-.188-.795-.285-1.217-.285s-.839.097-1.217.285l-16.76 9.703c-.7.396-.791 1.035 0 1.4l4.258 2.433zM765.81 932.715c.379.185.795.282 1.217.282s.837-.097 1.216-.282l16.761-9.673c.699-.426.76-1.065.152-1.43l-16.061-9.125a2.64 2.64 0 0 0-1.217-.297c-.423 0-.841.102-1.217.297l-16.76 9.673c-.7.395-.76 1.034-.152 1.399l16.061 9.156z" class="J"/><path d="M838.357 1059.13l3.438 1.98 91.315 52.68 162.34-93.71 3.38-1.95-94.72-54.662-165.753 95.662z" class="M"/><path d="M841.795 1061.11l91.315 52.68 162.34-93.71-91.34-52.719-162.315 93.749z" class="H"/><use xlink:href="#D" class="B"/><use xlink:href="#D" opacity=".5" class="D"/><path d="M283.924 629.658c-3.62-2.099-5.11-.73-3.285 3.042l9.125 18.737-6.753 6.084a5.27 5.27 0 0 0-1.636 2.107c-.355.831-.491 1.74-.393 2.638a5.26 5.26 0 0 0 .952 2.492 5.25 5.25 0 0 0 2.051 1.706l37.201 21.475v-36.776l-37.262-21.505z" class="B"/><path d="M325.475 766.875a4.35 4.35 0 0 1-3.106-1.274 4.35 4.35 0 0 1-.949-1.426 4.36 4.36 0 0 1-.325-1.681V638.935a4.38 4.38 0 0 1 4.365-4.015 4.38 4.38 0 0 1 4.365 4.015v123.559c.004.574-.105 1.143-.322 1.674a4.35 4.35 0 0 1-.941 1.422c-.404.407-.885.73-1.415.951a4.36 4.36 0 0 1-1.672.334z" class="J"/><path d="M165.445 1095.88v-7.7h1.855c2.89-5.19 7.236-9.42 12.502-12.16 19.225-11.11 50.373-11.11 69.597 0a30.09 30.09 0 0 1 12.502 12.16h1.886v7.46c0 7.39-4.623 14.81-14.388 20.44-19.224 11.1-50.372 11.1-69.597 0-9.46-5.57-14.418-12.9-14.357-20.2z" class="H"/><path d="M214.631 1116.59c27.182 0 49.217-12.72 49.217-28.41s-22.035-28.41-49.217-28.41-49.217 12.72-49.217 28.41 22.035 28.41 49.217 28.41z" class="J"/><path d="M227.316 820.593v264.217c-.107 1.11-.506 2.17-1.158 3.08a6.35 6.35 0 0 1-2.553 2.09c-2.776 1.41-5.845 2.14-8.959 2.14s-6.182-.73-8.958-2.14a6.25 6.25 0 0 1-2.561-2.08 6.28 6.28 0 0 1-1.15-3.09V820.593h25.339z" class="M"/><path d="M201.977 852.563v24.851l25.339 14.601v-24.791l-25.339-14.661z" class="H"/><use xlink:href="#E" class="B"/><use xlink:href="#E" class="C I"/><use xlink:href="#F" class="B"/><use xlink:href="#F" opacity=".3" class="C"/><use xlink:href="#G" class="B"/><use xlink:href="#G" class="C I"/><use xlink:href="#H" class="B"/><use xlink:href="#H" class="C E"/><use xlink:href="#I" class="B"/><use xlink:href="#I" opacity=".3" class="C"/><path d="M255.939 878.966l85.749-49.521-1.916-4.472-81.947 47.331-1.886 6.662z" class="B"/><path d="M255.939 878.966l85.749-49.521-1.916-4.472-81.947 47.331-1.886 6.662z" class="C F"/><path d="M333.475 754.373c-.036-.708-.239-1.397-.593-2.01a4.48 4.48 0 0 0-1.445-1.519l-104.395-60.35c-.629-.33-1.328-.503-2.038-.503s-1.41.173-2.038.503l-2.312 1.339c-.595.384-1.09.905-1.444 1.518a4.47 4.47 0 0 0-.594 2.01v80.031c.041.706.246 1.393.6 2.006s.846 1.134 1.438 1.522l104.395 60.289a4.66 4.66 0 0 0 2.054.478c.712 0 1.414-.164 2.053-.478l2.281-1.338c.592-.388 1.084-.91 1.438-1.523s.56-1.299.6-2.006v-79.969z" class="K"/><path d="M332.897 752.243l-5.81 3.346-107.863-62.296c.336-.631.828-1.166 1.43-1.552l2.312-1.308c.628-.33 1.328-.503 2.038-.503s1.409.173 2.038.503l104.517 60.289a3.93 3.93 0 0 1 1.338 1.521z" class="G"/><path d="M327.118 755.559l-1.065.639a1.76 1.76 0 0 1 .808.698 1.77 1.77 0 0 1 .257 1.036v80.03c.029.261-.015.524-.128.761s-.29.437-.511.577a1.33 1.33 0 0 1-.973 0l-.426-.182-104.426-60.259a4.56 4.56 0 0 1-1.435-1.524c-.353-.612-.56-1.298-.603-2.004V695.3c.027-.72.236-1.421.608-2.038l107.894 62.297z" class="O"/><path d="M327.087 755.589l-48.334 18.038a7.82 7.82 0 0 1-5.207.129c-1.699-.553-3.157-1.672-4.132-3.17l-7.817-11.924-42.768-65.613 41.277 66.069-41.49 16.243c.025.725.246 1.429.639 2.038l40.973-18.099 9.126 14.449c1.002 1.607 2.55 2.799 4.36 3.358a7.88 7.88 0 0 0 5.495-.316l6.418-2.829 40.974 65.369a1.47 1.47 0 0 0 .485-.587 1.46 1.46 0 0 0 .123-.752v-1.49l-41.49-62.662 41.368-18.251z" class="C E"/><path d="M308.776 768.395a4.56 4.56 0 0 0-.604-2.004c-.353-.612-.844-1.134-1.434-1.524l-104.426-60.259c-.629-.33-1.328-.503-2.038-.503s-1.41.173-2.038.503l-2.312 1.308a4.57 4.57 0 0 0-1.435 1.524 4.56 4.56 0 0 0-.603 2.005v80.03a4.64 4.64 0 0 0 .606 2.016 4.65 4.65 0 0 0 1.432 1.543l104.426 60.259c.628.33 1.328.503 2.038.503s1.409-.173 2.038-.503l2.312-1.308c.59-.39 1.081-.912 1.434-1.524s.561-1.299.604-2.005v-80.061z" class="K"/><path d="M308.167 766.54l-5.779 3.346-107.894-62.449c.345-.616.836-1.138 1.43-1.521l2.312-1.308c.628-.33 1.328-.503 2.038-.503s1.409.173 2.038.503l104.426 60.259c.613.425 1.105 1.001 1.429 1.673z" class="G"/><path d="M302.388 769.734l-1.065.639a1.76 1.76 0 0 1 .808.698 1.77 1.77 0 0 1 .257 1.035v80.031c.029.26-.015.524-.128.761s-.29.436-.511.577a1.34 1.34 0 0 1-.973 0l-.426-.182-104.426-60.259a4.57 4.57 0 0 1-1.435-1.524 4.56 4.56 0 0 1-.603-2.004v-80.031c.027-.72.236-1.421.608-2.038l107.894 62.297z" class="O"/><path d="M302.388 769.734l-48.365 18.099c-1.667.623-3.496.661-5.187.109a7.85 7.85 0 0 1-4.121-3.151l-7.787-11.894-42.829-65.673 41.277 66.069-41.49 16.243c.062.718.28 1.413.639 2.038l40.973-18.251 9.126 14.449c1.001 1.6 2.544 2.787 4.347 3.345a7.88 7.88 0 0 0 5.478-.303l6.448-2.829 40.852 65.49c.221-.141.398-.341.511-.577s.157-.501.128-.761v-1.339l-41.399-62.783 41.399-18.281z" class="C E"/><path d="M284.046 782.57a4.48 4.48 0 0 0-.594-2.01c-.354-.613-.849-1.134-1.444-1.518l-104.396-60.289a4.56 4.56 0 0 0-2.038-.481c-.707 0-1.405.165-2.038.481l-2.312 1.338c-.595.385-1.09.905-1.444 1.519s-.558 1.302-.594 2.01v80.03c.036.708.24 1.397.594 2.01s.849 1.134 1.444 1.519l104.396 60.289c.639.314 1.341.477 2.053.477s1.414-.163 2.053-.477l2.282-1.339c.595-.384 1.09-.905 1.444-1.518a4.48 4.48 0 0 0 .594-2.01V782.57z" class="K"/><path d="M283.468 780.563l-5.81 3.346-107.863-62.297c.336-.622.829-1.147 1.429-1.521l2.312-1.338c.633-.316 1.331-.481 2.038-.481s1.405.165 2.038.481l104.396 60.289c.609.372 1.112.896 1.46 1.521z" class="G"/><path d="M277.201 867.894a.83.83 0 0 0 .396 0 .4.4 0 0 1-.198.052c-.069 0-.137-.018-.198-.052z" class="B"/><path d="M277.688 783.878l-1.064.639c.334.144.616.388.807.698s.28.672.257 1.036v80.061c.028.256-.018.514-.131.746a1.37 1.37 0 0 1-.508.562 1.34 1.34 0 0 1-.973 0l-.426-.152-104.426-60.289c-.595-.385-1.09-.905-1.444-1.519s-.558-1.302-.594-2.01v-80c.027-.72.237-1.421.609-2.038l107.893 62.266z" class="O"/><path d="M277.658 783.909l-48.335 18.068c-1.671.626-3.505.665-5.201.113a7.88 7.88 0 0 1-4.137-3.155l-7.757-11.893-42.829-65.643 41.278 66.038-41.491 16.244a4.02 4.02 0 0 0 .639 2.038l40.973-18.099 9.126 14.448c1.003 1.608 2.551 2.8 4.361 3.358a7.87 7.87 0 0 0 5.494-.316l6.419-2.859 40.973 65.369c.216-.145.387-.347.494-.583a1.39 1.39 0 0 0 .114-.756v-1.338l-41.368-62.783 41.247-18.251z" class="C E"/><use xlink:href="#J" class="B"/><g class="C"><use xlink:href="#J" class="E"/><path d="M127.452 809.582l120.122 69.506c1.285.673 2.717 1.018 4.167 1.003v-67.589a85.46 85.46 0 0 1 2.251-18.89l-128.486-74.19a86.83 86.83 0 0 0-2.221 18.859v64.061c.085 1.448.506 2.855 1.229 4.112s1.73 2.327 2.938 3.128z" class="F"/></g><use xlink:href="#K" class="B"/><use xlink:href="#K" class="C I"/><use xlink:href="#L" class="B"/><use xlink:href="#L" class="C F"/><use xlink:href="#M" class="B"/><g opacity=".7" class="D"><use xlink:href="#M"/></g><use xlink:href="#N" class="B"/><use xlink:href="#N" opacity=".8" class="D"/><use xlink:href="#O" class="B F"/><use xlink:href="#O" class="C N"/><use xlink:href="#P" class="B E"/><use xlink:href="#P" class="C N"/><use xlink:href="#Q" class="B"/><g opacity=".5" class="D"><use xlink:href="#Q"/></g><use xlink:href="#R" class="B"/><use xlink:href="#R" opacity=".6" class="D"/><path d="M643.133 756.35v309.9a17.4 17.4 0 0 0 2.29 7.73c1.358 2.36 3.251 4.37 5.528 5.87l8.882 5.17c.702.38 1.434.71 2.19.97a16.5 16.5 0 0 0 3.255.73c2.076.27 4.182.19 6.235-.21l1.521-.43a5.24 5.24 0 0 0 .943-.36c-.595.26-1.237.39-1.886.39s-1.291-.13-1.886-.39c-.845-.56-1.519-1.34-1.948-2.26s-.597-1.94-.485-2.94V770.646a6.9 6.9 0 0 1 1-4.004 6.91 6.91 0 0 1 3.106-2.718l-4.106-2.403-22.449-12.928c-1.363 2.364-2.115 5.03-2.19 7.757z" class="C F"/><use xlink:href="#S" class="B I"/><use xlink:href="#S" class="C N"/><use xlink:href="#T" class="B"/><use xlink:href="#T" class="C E"/><path d="M1146.31 555.437l1.64-.912-6.29-3.65a9.08 9.08 0 0 0-1.68-.791l-178.55-66.19c-2.457-.802-5.104-.81-7.566-.024a12.32 12.32 0 0 0-6.153 4.404l-199.726 291.68c-3.124 5.022-4.905 10.762-5.171 16.67v19.346l6.083 3.619 399.513-237.84v-19.376a13.05 13.05 0 0 0-2.1-6.936z" class="B"/><path d="M955.985 489.734c-.795.622-1.493 1.361-2.069 2.19L754.16 783.604a31.02 31.02 0 0 0-3.711 8.335l-6.084-3.589a39.89 39.89 0 0 1 1.612-4.411l.852-1.764.152-.274c.316-.61.672-1.2 1.065-1.764l199.726-291.681c.301-.432.637-.839 1.004-1.217l1.064-.973 6.145 3.468z" class="C F"/><path opacity=".35" d="M1147.89 554.494c-.54-.328-1.11-.603-1.7-.821l-178.585-66.19a12.16 12.16 0 0 0-11.62 2.19l-6.084-3.589a12.37 12.37 0 0 1 11.65-2.19l178.559 66.159c.58.218 1.14.493 1.67.822l6.11 3.619z" class="D"/><path d="M947.711 488.274a12.57 12.57 0 0 1 1.004-1.217c-.375.371-.711.779-1.004 1.217z" class="C E"/><path d="M953.916 491.863L754.16 783.544c-3.101 5.03-4.87 10.766-5.141 16.669v19.376l405.721-234.22v-19.346c-.15-2.625-1.02-5.156-2.54-7.307-1.51-2.151-3.59-3.835-6.01-4.861l-178.585-66.342a12.17 12.17 0 0 0-7.555-.06c-2.461.782-4.609 2.326-6.134 4.41z" class="B"/><path d="M1154.74 565.962c-.08-2.426-.83-4.784-2.16-6.814l-402.131 232.73a29.82 29.82 0 0 0-1.4 8.274v19.377l405.721-234.221-.03-19.346z" class="C N"/><path d="M1137.4 483.65c.08-.812-.05-1.632-.38-2.378s-.85-1.394-1.51-1.88l-12.41-7.149c-.75-.337-1.57-.469-2.39-.384a4.63 4.63 0 0 0-2.26.871L785.673 664.943a14.53 14.53 0 0 0-4.667 4.913c-1.147 1.982-1.81 4.207-1.934 6.494v398.48a4.59 4.59 0 0 0 .377 2.39c.337.75.869 1.39 1.54 1.87l12.349 7.15c.749.33 1.572.47 2.388.39s1.597-.38 2.266-.85l332.838-192.092a14.59 14.59 0 0 0 4.64-4.921c1.14-1.981 1.8-4.203 1.93-6.486V483.65z" fill="#f0f0f0"/><path d="M798.023 1085.93l332.807-192.242a14.59 14.59 0 0 0 4.64-4.921c1.14-1.981 1.8-4.203 1.93-6.486V483.65c0-4.197-3.04-5.901-6.57-3.802L798.023 672.061a14.6 14.6 0 0 0-4.644 4.921 14.61 14.61 0 0 0-1.927 6.486v398.482c0 4.29 2.951 5.99 6.571 3.98z" fill="#fafafa"/><path d="M1011.32 708.745c-.32 4.502-1.16 8.953-2.5 13.263-1.2 3.872-2.81 7.605-4.8 11.133-1.73 3.088-3.84 5.949-6.271 8.517-2.013 2.145-4.367 3.944-6.966 5.323a14.6 14.6 0 0 1-9.581 2.312 8.55 8.55 0 0 1-4.959-3.042c-.73 1.582-1.49 3.163-2.281 4.745-.852 1.69-1.871 3.29-3.042 4.776-1.314 1.693-2.814 3.234-4.471 4.593-2.009 1.667-4.203 3.096-6.54 4.259-2.491 1.473-5.41 2.052-8.274 1.642-2.516-.567-4.704-2.11-6.084-4.289-1.887-2.933-3.141-6.227-3.68-9.673a66.54 66.54 0 0 1-.822-14.54c.203-5.359.865-10.692 1.978-15.939 1.01-4.72 2.467-9.334 4.349-13.779a45.64 45.64 0 0 1 6.51-10.829c2.293-2.891 5.162-5.274 8.426-6.996 1.083-.764 2.31-1.301 3.607-1.578s2.635-.289 3.936-.035c1.662.744 3.032 2.017 3.894 3.62v-1.642c.069-1.387.454-2.739 1.125-3.955a6.33 6.33 0 0 1 2.434-2.707l6.509-3.316a1.83 1.83 0 0 1 2.312.244c.349.419.607.905.759 1.428s.194 1.073.123 1.614l-1.46 38.661c-.121 2.92.426 4.837 1.643 5.749a3.83 3.83 0 0 0 4.35 0 10.86 10.86 0 0 0 4.41-4.684 22.69 22.69 0 0 0 2.403-9.369c.305-3.376.517-6.844.67-10.433s.152-6.905 0-9.947a60.25 60.25 0 0 0-2.434-16.122c-.955-3.693-3.092-6.972-6.084-9.338-2.992-2.006-6.634-2.799-10.19-2.221-5.206.814-10.23 2.533-14.844 5.08a52 52 0 0 0-13.14 9.673c-3.945 4.046-7.377 8.562-10.221 13.445a82.59 82.59 0 0 0-7.118 16.274 97.98 97.98 0 0 0-3.924 17.946c-.213 1.673-.395 3.803-.547 6.449l-.396 8.243-.274 8.305c-.06 2.676 0 4.775 0 6.387.136 4.911 1.018 9.773 2.616 14.419a20.97 20.97 0 0 0 6.084 9.308c2.68 2.223 6.07 3.41 9.551 3.346 4.518-.152 8.933-1.394 12.867-3.62 3.087-1.561 6.065-3.33 8.913-5.293a60.02 60.02 0 0 0 6.662-5.354 63.7 63.7 0 0 0 4.927-5.292c1.369-1.734 2.616-3.407 3.742-5.05s1.703-2.524 2.281-3.224c.591-.755 1.352-1.359 2.221-1.764l9.125-4.746a1.98 1.98 0 0 1 1.186-.395c.43 0 .84.139 1.19.395.67.548.94 1.613.79 3.255a7.46 7.46 0 0 1-.98 3.042 241.97 241.97 0 0 1-6.262 10.89 82.92 82.92 0 0 1-8.213 11.194c-3.435 3.886-7.19 7.478-11.224 10.737-4.712 3.772-9.81 7.035-15.209 9.734-5.766 3.325-12.296 5.096-18.951 5.141-4.995-.146-9.769-2.091-13.445-5.475a31.67 31.67 0 0 1-8.182-13.871c-1.973-6.48-2.997-13.212-3.042-19.985v-6.753c0-2.829.152-5.81.274-8.912l.425-8.882.457-6.662a121.66 121.66 0 0 1 4.684-23.787c2.375-8.035 5.619-15.786 9.673-23.118 4.007-7.277 8.912-14.022 14.601-20.076 5.55-5.985 12.108-10.947 19.376-14.662 6.557-3.78 13.893-6.007 21.445-6.509 5.156-.207 10.195 1.567 14.083 4.958 3.9 3.854 6.59 8.757 7.76 14.114a89.83 89.83 0 0 1 2.67 20.837c0 3.041 0 6.722-.21 10.92s-.15 8.395-.42 11.893zm-57.13 22.266a24.34 24.34 0 0 0 1.825 12.654c1.43 2.495 3.62 3.042 6.54 1.491 3.323-1.838 5.864-4.822 7.148-8.396a44.34 44.34 0 0 0 2.86-15.209c.508-4.339-.099-8.736-1.765-12.775-1.399-2.555-3.65-3.042-6.722-1.46-3.264 1.888-5.737 4.891-6.966 8.456a45.05 45.05 0 0 0-2.92 15.118v.121z" class="B"/><path d="M791.422 1082.04a4.94 4.94 0 0 0 .317 2.18c.269.7.691 1.32 1.234 1.83l-11.954-6.87a4.58 4.58 0 0 1-1.557-1.86c-.342-.75-.477-1.58-.39-2.4V676.441c.075-2.292.746-4.525 1.947-6.479l12.35 7.118a13.29 13.29 0 0 0-1.947 6.509v398.451z" class="G"/><path d="M1162.13 907.62c-.12.216-.26.42-.43.608l-169.092-53.475a29.14 29.14 0 0 0-20.352-1.187c-6.705 2.067-12.44 6.485-16.149 12.442L775.331 1134.6l-6.692 3.86a5.44 5.44 0 0 1-2.512.95 5.49 5.49 0 0 1-2.659-.37l185.886-276.804c3.722-5.943 9.455-10.351 16.155-12.422a29.26 29.26 0 0 1 20.347 1.137l176.274 56.669z" class="B"/><g class="D"><path d="M939.437 892.228l.426-.365L775.331 1134.6l-6.692 3.86c-.749.52-1.612.84-2.514.94a5.48 5.48 0 0 1-2.657-.36l169.46-250.827 6.509 4.015zm222.693 15.392c-.12.216-.26.42-.43.608l-169.091-53.475c-6.419-2.84-13.648-3.265-20.356-1.197s-12.441 6.49-16.146 12.452l-6.692-3.894c3.727-5.936 9.466-10.333 16.168-12.389a29.2 29.2 0 0 1 20.333 1.195l176.214 56.7z" class="I"/></g><path d="M1172.26 602.433c-.37-2.19-1.52-2.798-3.04-1.764-.76.561-1.41 1.239-1.95 2.008l-.85 1.186L999.574 857.49l-24.912 34.708c-1.604 2.022-3.729 3.569-6.146 4.475s-5.035 1.136-7.573.665l-21.506-5.11-164.258-60.411c-1.104-.225-2.242-.225-3.346 0-.429.087-.847.22-1.247.396l6.083-3.589 157.384 57.794 20.715 7.392a14.15 14.15 0 0 0 7.577-.656c2.418-.906 4.542-2.457 6.142-4.485l24.912-34.677 167.661-254.813a6.89 6.89 0 0 1 1.89-1.734l-14.51-8.365 6.08-3.498 10.04 5.779c1.96 1.241 3.65 2.859 4.97 4.76s2.25 4.048 2.73 6.312z" class="B"/><path d="M999.574 857.49l-24.912 34.708c-1.604 2.022-3.729 3.569-6.146 4.475s-5.035 1.136-7.573.665l-21.506-5.11.426-.365 1.034-1.643 14.084 3.346a14.14 14.14 0 0 0 7.577-.655 14.16 14.16 0 0 0 6.142-4.485l24.669-34.312 6.205 3.376z" class="D I"/><path d="M1164.78 591.087l-10.04-5.779-6.09 3.498 14.51 8.365c-.74.445-1.38 1.034-1.88 1.734L993.612 853.719l-.243.334 6.084 3.377L1166.3 603.772l.85-1.187a8.7 8.7 0 0 1 1.95-2.007c1.49-1.034 2.64-.426 3.04 1.764-.42-2.27-1.29-4.435-2.55-6.367-1.27-1.933-2.9-3.594-4.81-4.888z" class="C F"/><use xlink:href="#U" class="B"/><use xlink:href="#U" class="C L"/><g class="B"><path d="M1172.41 604.35v299.285c-.1 2.74-.91 5.405-2.37 7.726-1.14 1.959-2.66 3.667-4.47 5.019l-.31.152c-.15.122-.32.234-.48.335L774.327 1142.27a5.49 5.49 0 0 1-2.523.97c-.909.1-1.83-.02-2.679-.37a4.52 4.52 0 0 1-1.591-1.54c-.397-.63-.634-1.36-.69-2.11-.032-.45-.032-.91 0-1.36V838.54a6.63 6.63 0 0 1 2.516-5.628 6.63 6.63 0 0 1 2.893-1.31c1.055-.196 2.143-.132 3.169.185l164.259 60.411 21.505 5.11c2.538.47 5.156.24 7.573-.665s4.542-2.453 6.146-4.476l24.912-34.707 166.843-253.627.85-1.187c2.59-3.893 4.9-3.163 4.9 1.704z"/><use xlink:href="#V"/></g><use xlink:href="#V" class="C E"/><path d="M766.692 1137.86a5.22 5.22 0 0 0 .471 2.84c.419.89 1.078 1.64 1.902 2.17a5.33 5.33 0 0 0 2.675.39 5.6 5.6 0 0 0 2.526-.96l134.479-77.66 30.723-172.442-172.776 240.672v4.99z" class="B"/><path d="M956.015 865.825l-186.95 277.045c-.824-.53-1.483-1.28-1.902-2.17a5.22 5.22 0 0 1-.471-2.84v-4.96l182.509-270.725 6.814 3.65z" class="C L"/><path d="M1170.04 911.361a16.25 16.25 0 0 1-4.47 4.989l-.28.182-390.963 225.738a5.61 5.61 0 0 1-2.526.96c-.91.1-1.83-.03-2.676-.39l186.981-277.076a29.36 29.36 0 0 1 36.746-11.285l177.188 56.882z" class="B"/><path d="M744.243 788.289l6.084 3.589c-.862 2.698-1.343 5.504-1.43 8.335v19.346l-6.083-3.589v-19.377c.089-2.821.57-5.616 1.429-8.304z" class="C L"/><path d="M776.882 828.502l-6.205 3.589-6.266-3.62-15.422-8.882 5.992-3.559 21.901 12.472z" class="B"/><path d="M777.156 828.623l-22.175-12.593-6.084 3.559 15.422 8.882 6.267 3.62 1.186-.365c1.104-.225 2.242-.225 3.346 0l12.715 4.776 143.3 52.775 2.251-3.315-156.228-57.339z" class="C F"/><path d="M441.065 310.479l-23.179 13.384a26.42 26.42 0 0 0 .182-3.042v-6.692c0-11.954-8.395-16.791-18.737-10.829a36.96 36.96 0 0 0-11.164 10.738c-1.673-15.027-13.475-20.623-27.802-12.35-15.452 8.943-28.015 30.662-28.015 48.669v10.038c-.1 4.013.711 7.997 2.372 11.651l-19.254 11.102a23.03 23.03 0 0 0-7.334 7.767c-1.801 3.129-2.843 6.636-3.039 10.241 0 6.631 4.654 9.308 10.373 6.084l125.597-72.639c3.019-1.972 5.531-4.627 7.333-7.75a22.96 22.96 0 0 0 3.039-10.227c.092-6.753-4.562-9.4-10.372-6.145zm-112.122-76.258l-28.532 16.456a31.93 31.93 0 0 0 .243-3.772v-8.395c0-14.692-10.312-20.654-23.057-13.293a44.86 44.86 0 0 0-13.749 13.201c-2.069-18.494-16.578-25.369-34.221-15.209-19.041 11.012-34.494 37.78-34.494 59.681v12.35a32.61 32.61 0 0 0 3.042 14.327l-23.696 13.688c-3.724 2.425-6.824 5.694-9.049 9.542a28.29 28.29 0 0 0-3.757 12.602c0 8.183 5.749 11.468 12.806 7.392l154.586-89.247c3.729-2.421 6.833-5.688 9.058-9.537a28.19 28.19 0 0 0 3.748-12.608c-.122-8.091-5.841-11.376-12.928-7.178z" fill="#f0f0f0"/><g class="B"><path d="M1231.82 501.049l107.59-68.897 47.42 15.209-155.01 53.688z"/><path d="M1231.82 501.05l92.99-77.567-20.66-23.848-72.33 101.415z"/><path d="M1324.81 423.483v18.008l-92.99 59.558 92.99-77.566z"/></g><path opacity=".25" d="M1324.81 423.483v18.008l-92.99 59.558 92.99-77.566z" class="C"/><path d="M1340.32 421.992a2.3 2.3 0 0 1-1.29-.396 2.21 2.21 0 0 1-.83-1.052 2.2 2.2 0 0 1-.1-1.341 2.24 2.24 0 0 1 .67-1.165 78.88 78.88 0 0 0 8.79-9.582 2.24 2.24 0 0 1 .66-.637c.26-.165.55-.275.86-.324s.62-.034.92.041a2.21 2.21 0 0 1 .82.4c.25.188.46.424.61.694s.24.567.28.874a2.36 2.36 0 0 1-.09.915 2.27 2.27 0 0 1-.44.805c-2.82 3.636-5.93 7.034-9.31 10.16a2.38 2.38 0 0 1-1.55.608zm17.12-22.722c-.35.006-.71-.077-1.03-.243a2.28 2.28 0 0 1-.7-.542 2.47 2.47 0 0 1-.44-.77c-.09-.283-.13-.581-.1-.878.02-.297.1-.587.24-.852a78.16 78.16 0 0 0 6.08-16.639 2.27 2.27 0 0 1 1.03-1.414c.51-.317 1.13-.415 1.72-.274a2.3 2.3 0 0 1 1.42 1.027c.31.516.41 1.137.27 1.726a80.01 80.01 0 0 1-6.39 17.612c-.19.385-.49.707-.86.928-.38.221-.8.331-1.24.319zm8.34-32.152a2.35 2.35 0 0 1-.87-.208c-.27-.126-.51-.304-.72-.524-.2-.221-.36-.479-.46-.76a2.21 2.21 0 0 1-.14-.881v-3.68a83.42 83.42 0 0 0-1.19-14.023c-.05-.296-.04-.599.02-.892.07-.293.19-.571.36-.817a2.2 2.2 0 0 1 .65-.616 2.23 2.23 0 0 1 .83-.322c.6-.097 1.21.047 1.71.4a2.31 2.31 0 0 1 .93 1.486c.83 4.885 1.24 9.83 1.25 14.784v3.863c-.01.299-.08.594-.21.866a2.2 2.2 0 0 1-.52.721c-.22.203-.48.361-.76.465a2.29 2.29 0 0 1-.88.138zm-4.9-32.882c-.47-.001-.94-.15-1.33-.429a2.37 2.37 0 0 1-.83-1.123c-1.96-5.607-4.44-11.024-7.39-16.182-.26-.522-.32-1.123-.16-1.686.15-.563.52-1.047 1.01-1.356a2.32 2.32 0 0 1 1.69-.175 2.28 2.28 0 0 1 1.35 1.027 100.69 100.69 0 0 1 7.7 16.973 2.22 2.22 0 0 1 .17.917c0 .315-.07.624-.2.91-.14.285-.33.541-.56.75s-.51.367-.81.465c-.22-.005-.45-.036-.67-.091h.03zm-16-29.232a2.3 2.3 0 0 1-1-.234c-.31-.153-.58-.375-.79-.648a116.56 116.56 0 0 0-11.99-13.263c-.28-.18-.51-.419-.69-.7a2.35 2.35 0 0 1-.33-.926 2.32 2.32 0 0 1 .09-.979 2.33 2.33 0 0 1 1.3-1.415 2.29 2.29 0 0 1 .97-.173c.33.014.65.099.95.251.29.151.55.365.75.627 4.5 4.272 8.67 8.878 12.48 13.779.32.469.45 1.041.37 1.604a2.27 2.27 0 0 1-.8 1.438 2.24 2.24 0 0 1-1.34.639h.03zm-23.82-23.361c-.49.002-.97-.158-1.36-.457-4.8-3.598-9.8-6.899-15-9.886a2.29 2.29 0 0 1-1.01-1.359 2.34 2.34 0 0 1 .19-1.682c.3-.508.78-.878 1.35-1.032a2.25 2.25 0 0 1 1.69.21c5.35 3.077 10.52 6.48 15.45 10.19a2.23 2.23 0 0 1 .81 1.145c.14.457.14.948-.01 1.402s-.44.849-.83 1.129a2.3 2.3 0 0 1-1.34.431l.06-.091zm-239.05-8.822a2.28 2.28 0 0 1-1.4-.463c-.4-.305-.69-.734-.82-1.22a2.31 2.31 0 0 1 .09-1.469 2.25 2.25 0 0 1 .97-1.106c5.29-3.042 10.77-5.901 16.34-8.548.27-.128.56-.202.86-.216s.6.03.88.132c.29.102.55.258.77.461a2.35 2.35 0 0 1 .53.718 2.18 2.18 0 0 1 .22.867c.02.301-.02.602-.13.886-.1.284-.26.544-.46.766s-.45.399-.73.523c-5.44 2.586-10.83 5.384-16 8.365-.35.204-.75.309-1.15.304h.03zm210.37-8.182c-.34.006-.67-.067-.97-.213-5.42-2.616-10.98-5.019-16.58-7.179a2.24 2.24 0 0 1-.78-.485c-.23-.213-.41-.47-.53-.755s-.18-.591-.18-.901.06-.616.18-.901c.11-.29.27-.556.49-.781.21-.225.47-.404.75-.527a2.3 2.3 0 0 1 .9-.185c.31 0 .62.063.9.185 5.69 2.19 11.38 4.654 16.92 7.331a2.33 2.33 0 0 1 1.04 1.07 2.3 2.3 0 0 1 .15 1.485 2.24 2.24 0 0 1-.79 1.263 2.3 2.3 0 0 1-1.41.502l-.09.091zm-180.29-6.084c-.46-.008-.9-.15-1.28-.41a2.33 2.33 0 0 1-.85-1.05 2.32 2.32 0 0 1-.18-.901 2.32 2.32 0 0 1 .18-.901 2.18 2.18 0 0 1 .53-.754c.22-.214.49-.379.78-.486 5.69-2.22 11.56-4.258 17.43-6.083a2.28 2.28 0 0 1 2.84 1.536c.18.581.11 1.207-.18 1.74-.28.533-.77.93-1.35 1.104-5.75 1.703-11.5 3.711-17.07 5.871a2.17 2.17 0 0 1-.85.152v.182zm149.05-6.084c-.22.044-.45.044-.67 0-5.72-1.733-11.59-3.254-17.46-4.532a2.46 2.46 0 0 1-.84-.384c-.25-.182-.46-.412-.62-.676-.33-.533-.43-1.175-.29-1.784a2.39 2.39 0 0 1 1.06-1.463 2.38 2.38 0 0 1 1.79-.286c6.08 1.308 11.98 2.859 17.82 4.654a2.25 2.25 0 0 1 .79.421 2.31 2.31 0 0 1 .57.692c.14.266.23.557.25.857a2.23 2.23 0 0 1-.09.889c-.15.466-.44.873-.83 1.163s-.87.447-1.36.449h-.12zm-117.11-3.984a2.32 2.32 0 0 1-1.42-.495c-.4-.321-.68-.768-.8-1.27-.13-.592-.02-1.211.31-1.723.32-.512.83-.876 1.42-1.014 5.94-1.369 12.02-2.525 18.1-3.407.31-.068.62-.072.93-.012s.6.182.86.36a2.18 2.18 0 0 1 .64.671c.17.266.28.563.32.873.05.31.03.625-.05.928s-.22.585-.42.83a2.33 2.33 0 0 1-.72.593 2.24 2.24 0 0 1-.89.259c-6.08.882-11.92 2.007-17.76 3.376l-.52.031zm84.62-3.498h-.33a222.23 222.23 0 0 0-17.98-1.917c-.32.009-.63-.049-.93-.169-.29-.121-.55-.301-.77-.531a2.3 2.3 0 0 1-.5-.8c-.11-.298-.16-.616-.14-.933.03-.317.11-.626.26-.907s.35-.529.6-.727a2.34 2.34 0 0 1 .84-.421 2.32 2.32 0 0 1 .95-.044 232.34 232.34 0 0 1 18.25 1.916c.56.093 1.07.392 1.42.84a2.3 2.3 0 0 1 .48 1.579c-.04.569-.29 1.101-.71 1.492-.41.391-.96.613-1.53.622h.09zm-51.46-1.643c-.61.024-1.2-.193-1.64-.604a2.29 2.29 0 0 1-.74-1.586 2.31 2.31 0 0 1 .61-1.64c.41-.445.98-.709 1.58-.733 6.09-.486 12.32-.76 18.44-.76.6 0 1.18.24 1.61.668s.67 1.008.67 1.613a2.27 2.27 0 0 1-.67 1.613c-.43.428-1.01.669-1.61.669-6.09 0-12.17.273-18.07.76h-.18z" class="G"/><defs ><path id="B" d="M1272.33 887.848l-24.85-14.358s-14.81-61.475-8.91-116.775c8.3-77.749 50.13-111.605 78.94-100.38 19.16 7.543 25.09 29.323-7.12 75.65-18.98 27.407-42.31 84.289-38.06 155.863z"/><path id="C" d="M1337.43 925.445c3.92 1.977 14.36-6.966 17.28-9.126 4.98-3.779 8.91-8.775 11.4-14.509a34.26 34.26 0 0 0 1.98-20.654c-.76-3.656-1.78-7.254-3.04-10.768l-3.56-10.403c-1.41-3.35-2.12-6.952-2.1-10.586.55-7.3 6.72-12.684 12.35-17.338 6.09-5.171 12.59-11.894 12.17-20.593-.82-6.741-3.84-13.02-8.61-17.856-4.41-5.049-9.61-9.46-13.66-14.844-3.15-3.736-4.93-8.436-5.05-13.323.25-3.011 1.11-5.94 2.53-8.609 3.26-5.565 6.07-11.383 8.39-17.399 1.83-6.083 1.13-13.779-3.83-17.886-4.11-3.376-9.92-3.589-15.21-3.042-4.91.856-9.58 2.766-13.69 5.597-13.44 8.396-20.5 25.187-34.89 31.818-5.72 2.111-11.57 3.869-17.52 5.262-5.84 1.856-11.71 5.171-14.14 10.738-4.87 11.042 5.81 23.787 2.58 35.407-2.83 10.281-12.44 14.631-17.49 24.03-2.07 4.126-2.74 8.813-1.91 13.354.86 7.699 3.13 15.174 6.69 22.053a194.67 194.67 0 0 0 13.29 20.411l66.04 38.266z"/><path id="D" d="M325.658 648.517l-37.202-21.293c-1.642-.973-2.859-1.216-3.498-.821l-4.532 2.616c-.791.456-.761 1.795.213 3.863l9.125 18.738-6.753 6.083a5.27 5.27 0 0 0-1.636 2.107c-.355.831-.491 1.74-.393 2.639s.426 1.757.952 2.492a5.25 5.25 0 0 0 2.051 1.705l37.201 21.476 4.533-2.647-.061-36.958z"/><path id="E" d="M293.84 796.958l46.844 27.072a3.5 3.5 0 0 1-.912.974l-81.947 47.3c-.7.396-1.247 0-1.247-.76v-59.042a92.31 92.31 0 0 1 6.844-33.095l30.418 17.551z"/><path id="F" d="M341.049 758.175v66.16l-77.627-44.898.274-.639c8.304-20.806 22.236-38.418 37.445-47.178a35.52 35.52 0 0 1 17.551-5.445c13.81 0 22.357 12.258 22.357 32z"/><path id="G" d="M425.338 898.008v-5.902h-.578v.852a25.57 25.57 0 0 0-1.52-4.776c-3.042-7.239-9.643-14.174-19.59-19.924l-55.452-32.03a9.4 9.4 0 0 0-4.183-.982c-1.451 0-2.883.336-4.182.982l-84.806 48.943c-1.046-.868-1.949-1.894-2.677-3.042v6.084c.052.517.236 1.013.534 1.439a3.04 3.04 0 0 0 1.169.994l55.483 32c16.274 8.74 34.555 13.061 53.019 12.533 15.379.17 30.555-3.522 44.137-10.738 12.471-7.148 18.616-16.669 18.616-26.373l.03-.06z"/><path id="H" d="M423.24 888.213c-3.042-7.24-9.643-14.175-19.59-19.924l-55.452-32.03a9.4 9.4 0 0 0-4.183-.982c-1.451 0-2.883.336-4.182.982l-84.806 48.912 54.509 31.453c16.28 8.725 34.556 13.045 53.019 12.532a92.23 92.23 0 0 0 44.137-10.738c11.194-6.448 17.308-14.753 18.433-23.422-.301-2.339-.937-4.624-1.885-6.783z"/><path id="I" d="M425.125 895.027a24.74 24.74 0 0 0-1.885-6.845c-3.042-7.239-9.643-14.174-19.59-19.923l-55.452-32.031a9.4 9.4 0 0 0-4.183-.982c-1.451 0-2.883.336-4.182.982l-84.806 48.943-.974-.547a2.56 2.56 0 0 1-1.73-2.419c0-.533.167-1.053.477-1.486s.749-.76 1.253-.932l85.78-49.369a9.12 9.12 0 0 1 4.182-1.015 9.13 9.13 0 0 1 4.183 1.015l55.452 32.031c9.947 5.749 16.487 12.684 19.59 19.924a24.62 24.62 0 0 1 1.946 7.27c.198 1.79.178 3.598-.061 5.384z"/><path id="J" d="M330.19 723.954c-8.304-4.349-19.315-3.589-31.361 3.407-13.536 7.757-25.734 21.871-34.281 38.023-1.988 3.745-3.775 7.594-5.354 11.529a97.02 97.02 0 0 0-7.453 35.498V880a8.79 8.79 0 0 1-4.167-1.004l-120.122-69.414c-1.208-.801-2.214-1.871-2.938-3.128s-1.144-2.664-1.229-4.112v-64.061c0-32 21.08-69.961 47.057-85.171 12.167-7.117 23.514-7.695 31.909-3.041l127.939 73.885z"/><path id="K" d="M259.194 777.004a97.02 97.02 0 0 0-7.453 35.498V880c-.511-.014-1.02-.075-1.52-.183v-67.315c0-49.612 38.174-81.156 48.669-85.171-13.536 7.756-25.734 21.871-34.282 38.023a119.59 119.59 0 0 0-5.414 11.65z"/><path id="L" d="M257.825 872.304c-.669.396-1.247 0-1.247-.73v-59.042a92.05 92.05 0 0 1 6.844-33.095l.274-.639c1.659-4.167 3.569-8.23 5.718-12.167 8.305-15.3 19.559-28.015 31.727-35.011a35.52 35.52 0 0 1 17.551-5.445 19.25 19.25 0 0 1 9.126 2.22c8.212 4.381 13.019 14.966 13.019 29.78v64.639c-.027.432-.154.851-.37 1.226a2.8 2.8 0 0 1-.878.933l1.886 4.472.426-.243c.65-.479 1.233-1.042 1.734-1.674a9.13 9.13 0 0 0 2.008-5.292v-64.061c0-17.126-6.084-29.05-15.666-34.099-8.304-4.38-19.315-3.62-31.361 3.376-13.536 7.757-25.734 21.841-34.281 38.054a119.47 119.47 0 0 0-5.354 11.498c-4.7 11.268-7.228 23.322-7.452 35.528v67.438h.943a8.36 8.36 0 0 0 3.467-.974l1.886-6.692z"/><path id="M" d="M544.304 699.255a17.37 17.37 0 0 1 2.307-7.796 17.38 17.38 0 0 1 5.602-5.893l389.871-225.095c2.45-1.245 5.16-1.893 7.908-1.893s5.459.648 7.909 1.893l8.913 5.141a17.46 17.46 0 0 1 5.575 5.903 17.45 17.45 0 0 1 2.303 7.785v309.901a17.55 17.55 0 0 1-2.312 7.781 17.57 17.57 0 0 1-5.566 5.908l-389.901 225.25c-2.45 1.23-5.153 1.87-7.894 1.87s-5.444-.64-7.894-1.87l-8.912-5.14a17.61 17.61 0 0 1-5.583-5.91 17.52 17.52 0 0 1-2.326-7.78V699.255z"/><path id="N" d="M546.616 691.468l22.418 12.927L972.38 471.483a16.54 16.54 0 0 0-5.566-5.901l-8.943-5.111a17.17 17.17 0 0 0-7.879-1.915c-2.741 0-5.443.657-7.878 1.915L552.213 685.567c-2.346 1.447-4.275 3.481-5.597 5.901z"/><path id="O" d="M544.304 699.224v309.906a17.37 17.37 0 0 0 2.307 7.79c1.375 2.38 3.295 4.4 5.602 5.89l8.912 5.17c.692.39 1.414.71 2.16.98 1.059.34 2.149.59 3.255.73 2.076.26 4.182.19 6.236-.21l1.551-.4.973-.33c-.613.24-1.272.35-1.932.33a4.66 4.66 0 0 1-1.9-.49c-.848-.55-1.525-1.32-1.955-2.24a5.39 5.39 0 0 1-.479-2.93V713.521c-.082-1.406.267-2.803 1.001-4.004s1.817-2.15 3.106-2.719l-4.107-2.403-22.418-12.927c-1.419 2.346-2.215 5.016-2.312 7.756z"/><path id="P" d="M569.034 704.395l187.225 69.962c6.478 2.421 13.588 2.562 20.157.4s12.205-6.498 15.979-12.293l30.054-46.084L972.38 471.483 828.441 718.084l146.251 71.209c-.137 2.802-.985 5.524-2.464 7.908l-144.243-78.357-34.92 55.909a30.42 30.42 0 0 1-38.114 11.711l-24.913-10.981-158.631 253.107c-.848-.55-1.525-1.32-1.955-2.24a5.39 5.39 0 0 1-.479-2.93v-5.17l160.274-243.102-160.213-70.753z"/><path id="Q" d="M643.164 756.38a17.46 17.46 0 0 1 2.303-7.786c1.368-2.378 3.278-4.4 5.575-5.902l389.898-225.095a17.42 17.42 0 0 1 7.9-1.894 17.41 17.41 0 0 1 7.89 1.894l8.91 5.141a17.43 17.43 0 0 1 5.59 5.897c1.38 2.379 2.17 5.048 2.32 7.791v309.901c-.15 2.742-.95 5.409-2.32 7.787-1.38 2.377-3.29 4.399-5.59 5.901L675.772 1085.11c-2.455 1.23-5.163 1.87-7.909 1.87s-5.454-.64-7.909-1.87l-9.003-5.26c-2.288-1.51-4.192-3.54-5.56-5.91-1.368-2.38-2.162-5.04-2.319-7.78l.092-309.78z"/><path id="R" d="M645.445 748.593l22.449 12.928 403.346-232.882a16.54 16.54 0 0 0-5.57-5.901l-8.94-5.111a17.22 17.22 0 0 0-7.89-1.916 17.23 17.23 0 0 0-7.9 1.916L650.951 742.692c-2.312 1.462-4.208 3.494-5.506 5.901z"/><path id="S" d="M667.894 761.521l187.224 69.962c6.478 2.421 13.588 2.562 20.157.4s12.206-6.498 15.98-12.294l30.083-46.053 149.932-244.897L927.331 775.24l146.249 71.209a16.55 16.55 0 0 1-2.46 7.908L926.844 775.97l-34.951 55.908c-3.877 6.207-9.862 10.808-16.857 12.959s-14.531 1.708-21.226-1.248l-24.882-10.981-158.601 253.142c-.845-.56-1.519-1.34-1.949-2.26s-.597-1.94-.484-2.94v-5.17l160.273-243.106-160.273-70.753z"/><path id="T" d="M742.814 816l405.716-234.22 16.25 9.368c2.21 1.451 4.06 3.401 5.38 5.694a16.86 16.86 0 0 1 2.25 7.508v299.315a16.86 16.86 0 0 1-2.24 7.512c-1.33 2.294-3.18 4.243-5.39 5.69L774.327 1142.27a16.88 16.88 0 0 1-15.209 0l-8.608-4.96a16.89 16.89 0 0 1-5.387-5.7 16.91 16.91 0 0 1-2.248-7.5L742.814 816z"/><path id="U" d="M778.707 836.654L742.905 816v308.11a16.91 16.91 0 0 0 2.248 7.5 16.89 16.89 0 0 0 5.387 5.7l8.608 4.96c2.359 1.19 4.963 1.81 7.605 1.81s5.246-.62 7.605-1.81l4.288-2.47.061-303.146z"/><path id="V" d="M1164.78 916.867l.51-.335.28-.182a16.25 16.25 0 0 0 4.47-4.989c1.44-2.285 2.25-4.906 2.37-7.604l-172.806-46.236 115.586 87.878 49.59-28.532z"/></defs></svg>