<svg width="21" height="21" viewBox="0 0 21 21" fill="none" xmlns="http://www.w3.org/2000/svg">
<path d="M6.4231 8.64649H2.22338C0.98817 8.64649 0 7.65832 0 6.42311V2.22339C0 0.988174 0.98817 0 2.22338 0H6.4231C7.65832 0 8.64649 0.988174 8.64649 2.22339V6.42311C8.77001 7.65832 7.65832 8.64649 6.4231 8.64649Z" fill="#0F172A"/>
<path d="M6.4231 20.3814H2.22338C0.98817 20.3814 0 19.3932 0 18.158V13.9583C0 12.7231 0.98817 11.7349 2.22338 11.7349H6.4231C7.65832 11.7349 8.64649 12.7231 8.64649 13.9583V18.158C8.77001 19.2697 7.65832 20.3814 6.4231 20.3814Z" fill="#0F172A"/>
<path d="M18.7766 8.64629H14.5769C13.3417 8.64629 12.3535 7.65812 12.3535 6.42291V2.22319C12.3535 0.987975 13.3417 -0.000198364 14.5769 -0.000198364H18.7766C20.0118 -0.000198364 21 0.987975 21 2.22319V6.42291C21 7.65812 20.0118 8.64629 18.7766 8.64629Z" fill="#0F172A"/>
<path d="M18.7766 20.3814H14.5769C13.3417 20.3814 12.3535 19.3932 12.3535 18.158V13.9583C12.3535 12.7231 13.3417 11.7349 14.5769 11.7349H18.7766C20.0118 11.7349 21 12.7231 21 13.9583V18.158C21 19.2697 20.0118 20.3814 18.7766 20.3814Z" fill="#0F172A"/>
</svg>
