<svg width="20" height="20" viewBox="0 0 20 20" fill="none" xmlns="http://www.w3.org/2000/svg">
<path fill-rule="evenodd" clip-rule="evenodd" d="M9.99992 16.6666C9.55789 16.6666 9.13397 16.491 8.82141 16.1784C8.50885 15.8659 8.33325 15.4419 8.33325 14.9999C8.33325 14.5579 8.50885 14.134 8.82141 13.8214C9.13397 13.5088 9.55789 13.3333 9.99992 13.3333C10.4419 13.3333 10.8659 13.5088 11.1784 13.8214C11.491 14.134 11.6666 14.5579 11.6666 14.9999C11.6666 15.4419 11.491 15.8659 11.1784 16.1784C10.8659 16.491 10.4419 16.6666 9.99992 16.6666ZM9.99992 11.6666C9.55789 11.6666 9.13397 11.491 8.82141 11.1784C8.50885 10.8659 8.33325 10.4419 8.33325 9.99992C8.33325 9.55789 8.50885 9.13397 8.82141 8.82141C9.13397 8.50885 9.55789 8.33325 9.99992 8.33325C10.4419 8.33325 10.8659 8.50885 11.1784 8.82141C11.491 9.13397 11.6666 9.55789 11.6666 9.99992C11.6666 10.4419 11.491 10.8659 11.1784 11.1784C10.8659 11.491 10.4419 11.6666 9.99992 11.6666ZM9.99992 6.66659C9.55789 6.66659 9.13397 6.49099 8.82141 6.17843C8.50885 5.86587 8.33325 5.44195 8.33325 4.99992C8.33325 4.55789 8.50885 4.13397 8.82141 3.82141C9.13397 3.50885 9.55789 3.33325 9.99992 3.33325C10.4419 3.33325 10.8659 3.50885 11.1784 3.82141C11.491 4.13397 11.6666 4.55789 11.6666 4.99992C11.6666 5.44195 11.491 5.86587 11.1784 6.17843C10.8659 6.49099 10.4419 6.66659 9.99992 6.66659Z" fill="#089BD9"/>
</svg>
