<svg width="18" height="18" viewBox="0 0 18 18" fill="none" xmlns="http://www.w3.org/2000/svg">
<g clip-path="url(#clip0_365_743)">
<path fill-rule="evenodd" clip-rule="evenodd" d="M0 1.92857C0 1.41708 0.203188 0.926543 0.564865 0.564865C0.926543 0.203188 1.41708 0 1.92857 0L16.0714 0C16.5829 0 17.0735 0.203188 17.4351 0.564865C17.7968 0.926543 18 1.41708 18 1.92857V3.69643H0V1.92857ZM0 5.30357H18V12.2143C18 12.7258 17.7968 13.2163 17.4351 13.578C17.0735 13.9397 16.5829 14.1429 16.0714 14.1429H13.2557L15.4671 16.3543C15.5619 16.4426 15.6379 16.549 15.6906 16.6673C15.7433 16.7856 15.7716 16.9133 15.7739 17.0428C15.7762 17.1722 15.7524 17.3008 15.7039 17.4209C15.6554 17.541 15.5832 17.6501 15.4916 17.7416C15.4001 17.8332 15.291 17.9054 15.1709 17.9539C15.0508 18.0024 14.9222 18.0262 14.7928 18.0239C14.6633 18.0216 14.5356 17.9933 14.4173 17.9406C14.299 17.8879 14.1926 17.8119 14.1043 17.7171L10.53 14.1429H9.96429V17.0357C9.96429 17.2915 9.86269 17.5367 9.68185 17.7176C9.50101 17.8984 9.25574 18 9 18C8.74426 18 8.49899 17.8984 8.31815 17.7176C8.13731 17.5367 8.03571 17.2915 8.03571 17.0357V14.1429H7.47L3.89571 17.7171C3.71292 17.8875 3.47114 17.9802 3.22133 17.9758C2.97151 17.9714 2.73316 17.8702 2.55649 17.6935C2.37981 17.5168 2.27861 17.2785 2.2742 17.0287C2.2698 16.7789 2.36253 16.5371 2.53286 16.3543L4.74429 14.1429H1.92857C1.41708 14.1429 0.926543 13.9397 0.564865 13.578C0.203188 13.2163 0 12.7258 0 12.2143L0 5.30357Z" fill="#089BD9"/>
</g>
<defs>
<clipPath id="clip0_365_743">
<rect width="18" height="18" fill="white"/>
</clipPath>
</defs>
</svg>
