<svg xmlns="http://www.w3.org/2000/svg" width="100" height="100" fill="none" xmlns:v="https://vecta.io/nano"><path d="M50 6.25A43.75 43.75 0 0 1 93.75 50 43.75 43.75 0 0 1 50 93.75 43.75 43.75 0 0 1 6.25 50 43.75 43.75 0 0 1 50 6.25zm-5.45 52.381l-9.719-9.725c-.348-.348-.762-.625-1.217-.813a3.75 3.75 0 0 0-2.872 0 3.75 3.75 0 0 0-2.316 3.466 3.75 3.75 0 0 0 1.099 2.653L41.9 66.588c.347.35.761.628 1.216.818s.944.287 1.437.287.982-.098 1.437-.287.869-.467 1.216-.818l25.625-25.631a3.75 3.75 0 0 0 1.122-2.657 3.75 3.75 0 0 0-1.097-2.667 3.75 3.75 0 0 0-2.666-1.1 3.75 3.75 0 0 0-1.441.293c-.456.192-.87.472-1.217.825L44.55 58.631z" fill="#089bd9"/></svg>