<svg width="162" height="32" viewBox="0 0 162 32" fill="none" xmlns="http://www.w3.org/2000/svg">
<g id="Logo">
<g id="Group 22">
<path id="Vector" d="M31.4728 26.1655C31.2162 25.7571 30.8808 25.404 30.4862 25.1267C30.0916 24.8494 29.6457 24.6536 29.1745 24.5507C27.3718 24.1314 25.8084 23.0157 24.8259 21.4472C23.8433 19.8788 23.5216 17.9852 23.9309 16.1802C24.0882 15.4826 24.036 14.7541 23.7806 14.086C23.5253 13.418 23.0782 12.8403 22.4957 12.4256C21.9131 12.0108 21.2209 11.7775 20.5061 11.7548C19.7913 11.7321 19.0858 11.9211 18.4781 12.2981C17.8703 12.6751 17.3876 13.2232 17.0904 13.8737C16.7932 14.5242 16.6948 15.248 16.8077 15.9542C16.9204 16.6604 17.2394 17.3175 17.7245 17.843C18.2095 18.3685 18.8391 18.739 19.534 18.9079C20.433 19.1107 21.2831 19.4889 22.0357 20.0209C22.7882 20.5528 23.4284 21.2281 23.9194 22.008C24.4105 22.7879 24.7428 23.657 24.8974 24.5655C25.0519 25.474 25.0256 26.4042 24.82 27.3025C24.6982 27.8817 24.7199 28.4818 24.8832 29.0506C25.0465 29.6194 25.3465 30.1396 25.757 30.5659C26.1674 30.9923 26.6758 31.3117 27.2381 31.4965C27.8003 31.6813 28.3991 31.7257 28.9824 31.6261C29.5658 31.5264 30.1159 31.2855 30.5848 30.9245C31.0537 30.5635 31.4272 30.0933 31.6728 29.5549C31.9183 29.0164 32.0285 28.4261 31.9936 27.8354C31.9588 27.2446 31.78 26.6713 31.4728 26.1655Z" fill="#E4E4E7"/>
<path id="Vector_2" d="M9.16106 22.1373C9.79589 22.4837 10.5197 22.6326 11.2397 22.5647C11.9597 22.4969 12.6429 22.2155 13.2019 21.7567C13.7609 21.2978 14.17 20.6824 14.3767 19.9894C14.5835 19.2964 14.5785 18.5575 14.3623 17.8674C14.0884 16.9874 13.9908 16.062 14.0752 15.1442C14.1596 14.2264 14.4242 13.3344 14.8541 12.5191C15.2839 11.7038 15.8704 10.9814 16.58 10.3933C17.2896 9.8051 18.1082 9.36283 18.9891 9.0917C19.6723 8.87772 20.2768 8.46643 20.7268 7.90964C21.1767 7.35285 21.452 6.6754 21.5178 5.96254C21.5836 5.24967 21.4372 4.53325 21.0968 3.90349C20.7564 3.27369 20.2374 2.75863 19.605 2.42315C18.9726 2.08767 18.2551 1.94671 17.5428 2.01808C16.8304 2.0894 16.1551 2.36982 15.6018 2.82409C15.0485 3.27831 14.6419 3.88607 14.4332 4.57085C14.2245 5.25563 14.223 5.98685 14.4289 6.67247C14.9693 8.44252 14.7866 10.3546 13.9206 11.9903C13.0546 13.6259 11.5759 14.8518 9.8082 15.3998C9.11035 15.6021 8.4893 16.0093 8.02548 16.5686C7.56166 17.1279 7.2764 17.8136 7.20667 18.5368C7.13699 19.2601 7.286 19.9876 7.63445 20.6252C7.98291 21.2628 8.51472 21.7811 9.16106 22.1131V22.1373Z" fill="#E4E4E7"/>
<path id="Vector_3" d="M18.4992 21.5441C18.0167 21.5611 17.5425 21.6741 17.1043 21.8766C16.666 22.0792 16.2726 22.367 15.9469 22.7235C14.6837 24.0747 12.9369 24.8707 11.0885 24.9375C9.23999 25.0044 7.44021 24.3367 6.08266 23.0803C5.73189 22.7512 5.31922 22.4951 4.8686 22.3269C4.41802 22.1587 3.93846 22.0818 3.45784 22.1006C2.86626 22.1285 2.29045 22.3008 1.78076 22.6024C1.27103 22.904 0.842943 23.3258 0.533773 23.8309C0.224559 24.336 0.0437316 24.9092 0.00697966 25.5003C-0.0297279 26.0914 0.0787508 26.6825 0.323038 27.2221C0.567326 27.7616 0.939911 28.2331 1.40835 28.5955C1.8768 28.958 2.42679 29.2002 3.01038 29.3011C3.59396 29.402 4.19342 29.3586 4.75634 29.1746C5.31931 28.9905 5.82864 28.6715 6.23989 28.2454C6.86551 27.568 7.6186 27.0207 8.45603 26.6349C9.2935 26.2491 10.1988 26.0322 11.1202 25.9968C12.0416 25.9614 12.9609 26.1081 13.8255 26.4286C14.6901 26.7491 15.4829 27.237 16.1587 27.8643C16.5986 28.2618 17.1292 28.5455 17.7041 28.6904C18.279 28.8354 18.8806 28.8373 19.4564 28.696C20.0322 28.5547 20.5646 28.2745 21.007 27.8798C21.4495 27.4851 21.7885 26.988 21.9944 26.432C22.2003 25.876 22.2668 25.2781 22.1882 24.6904C22.1095 24.1028 21.8881 23.5434 21.5432 23.0611C21.1983 22.5788 20.7406 22.1884 20.21 21.9239C19.6793 21.6595 19.0919 21.5291 18.4992 21.5441Z" fill="#E4E4E7"/>
</g>
<g id="aromix">
<path d="M56.6362 26.4004C58.5848 26.4004 59.7993 25.693 60.2798 24.2783C60.4399 23.7445 60.5601 23.0638 60.6401 22.2363L59.5991 22.1963C59.439 24.0381 58.9718 24.9723 58.1978 24.999C57.6105 24.9456 57.3169 24.2783 57.3169 22.9971V14.6289C57.3169 11.2923 55.7687 9.23698 52.6724 8.46289C51.8716 8.27604 51.0041 8.18262 50.0698 8.18262C46.4396 8.18262 44.1574 8.97005 43.2231 10.5449C42.9829 10.9453 42.8628 11.3724 42.8628 11.8262C42.8628 12.8672 43.3566 13.5212 44.3442 13.7881C44.5845 13.8682 44.8381 13.9082 45.105 13.9082C46.2528 13.9082 47.0269 13.3477 47.4272 12.2266C47.4806 12.0664 47.5607 11.7995 47.6675 11.4258C47.9611 10.3581 48.3348 9.69075 48.7886 9.42383C49.0822 9.29036 49.4159 9.22363 49.7896 9.22363C51.0441 9.22363 51.8049 9.98438 52.0718 11.5059C52.1785 12.0664 52.2319 12.7337 52.2319 13.5078V16.1104C45.3719 16.2438 41.9285 18.0589 41.9019 21.5557C41.9019 23.9313 42.9429 25.4528 45.0249 26.1201C45.6388 26.307 46.3195 26.4004 47.0669 26.4004C49.3358 26.4004 51.0041 25.5462 52.0718 23.8379C52.2853 23.4909 52.4588 23.1305 52.5923 22.7568C53.1528 25.0524 54.5008 26.2669 56.6362 26.4004ZM49.1489 24.6787C47.8143 24.6253 47.1336 23.4375 47.1069 21.1152C47.1069 19.3535 47.8276 18.2057 49.269 17.6719C50.0431 17.4316 51.0308 17.2848 52.2319 17.2314V21.1152C51.7248 22.9837 50.9106 24.1315 49.7896 24.5586C49.5493 24.6387 49.3358 24.6787 49.1489 24.6787Z" fill="#E4E4E7"/>
<path d="M72.0112 24.959H69.0483V16.3105C69.2352 13.5078 69.9159 11.7995 71.0903 11.1855C71.2772 11.1055 71.4507 11.0654 71.6108 11.0654C71.9045 11.0654 72.2248 11.3724 72.5718 11.9863C73.0522 12.8405 73.5728 13.3743 74.1333 13.5879C74.4002 13.668 74.6938 13.708 75.0142 13.708C76.0819 13.708 76.8426 13.2008 77.2964 12.1865C77.4565 11.8395 77.5366 11.4792 77.5366 11.1055C77.5366 9.77083 76.8826 8.93001 75.5747 8.58301C75.2544 8.50293 74.9207 8.46289 74.5737 8.46289C72.9188 8.46289 71.464 9.11686 70.2095 10.4248C69.6489 11.0654 69.2218 11.7594 68.9282 12.5068L68.6479 8.7832H61.6411V9.82422H63.9634V22.877C63.9634 24.0514 63.4963 24.7188 62.562 24.8789C62.2951 24.9323 61.9881 24.959 61.6411 24.959V26H72.9722C72.9722 25.3861 72.7987 25.0524 72.4517 24.999C72.3182 24.9723 72.1714 24.959 72.0112 24.959Z" fill="#E4E4E7"/>
<path d="M84.4233 17.3115C84.4233 13.5745 84.8771 11.1855 85.7847 10.1445C86.3452 9.5306 87.1326 9.22363 88.147 9.22363C89.8553 9.22363 90.9497 10.0911 91.4302 11.8262C91.7505 12.9473 91.9106 14.7223 91.9106 17.1514C91.9106 21.0485 91.4035 23.5042 90.3892 24.5186C89.8019 25.0791 89.0412 25.3594 88.1069 25.3594C86.452 25.3594 85.3843 24.5052 84.9038 22.7969C84.5835 21.6491 84.4233 19.8206 84.4233 17.3115ZM88.3472 8.18262C85.064 8.18262 82.5415 9.30371 80.7798 11.5459C79.5519 13.1475 78.938 15.016 78.938 17.1514C78.938 20.1676 79.979 22.5566 82.061 24.3184C83.716 25.7064 85.6912 26.4004 87.9868 26.4004C91.1366 26.4004 93.6056 25.266 95.394 22.9971C96.7287 21.2887 97.396 19.3135 97.396 17.0713C97.396 14.0817 96.3416 11.7461 94.2329 10.0645C92.6047 8.8099 90.6427 8.18262 88.3472 8.18262Z" fill="#E4E4E7"/>
<path d="M107.526 24.959H106.805L106.845 14.6289C107.005 12.5202 107.699 11.1455 108.927 10.5049C109.274 10.318 109.621 10.2246 109.968 10.2246C110.956 10.2246 111.663 10.8385 112.09 12.0664C112.277 12.6536 112.371 13.3076 112.371 14.0283V22.877C112.371 23.9714 112.117 24.6253 111.61 24.8389C111.37 24.9189 111.036 24.959 110.609 24.959V26H119.097C119.097 25.3861 118.924 25.0524 118.577 24.999C118.417 24.9723 118.256 24.959 118.096 24.959H117.416V14.709V14.4287C117.602 12.2132 118.323 10.8385 119.578 10.3047C119.845 10.1979 120.111 10.1445 120.378 10.1445C121.526 10.1445 122.314 10.8252 122.741 12.1865C122.901 12.7471 122.981 13.361 122.981 14.0283V22.877C122.981 23.9714 122.727 24.6253 122.22 24.8389C121.98 24.9189 121.646 24.959 121.219 24.959V26H130.348C130.348 25.3861 130.175 25.0524 129.828 24.999C129.667 24.9723 129.507 24.959 129.347 24.959H128.026V14.5088C128.026 11.8929 127.158 10.0378 125.423 8.94336C124.623 8.4362 123.755 8.18262 122.821 8.18262C120.232 8.20931 118.296 9.45052 117.015 11.9062C116.375 10.0111 115.24 8.82324 113.612 8.34277C113.185 8.236 112.758 8.18262 112.331 8.18262C109.768 8.20931 107.9 9.38379 106.725 11.7061L106.525 8.7832H99.3979V9.82422H101.72V22.877C101.72 24.1048 101.146 24.7855 99.9985 24.9189C99.8117 24.9456 99.6115 24.959 99.3979 24.959V26H108.487C108.487 25.3861 108.313 25.0524 107.966 24.999C107.833 24.9723 107.686 24.959 107.526 24.959Z" fill="#E4E4E7"/>
<path d="M140.838 24.959H139.357V8.7832H131.95V9.82422H134.272V22.877C134.272 24.0514 133.805 24.7188 132.871 24.8789C132.604 24.9323 132.297 24.959 131.95 24.959V26H141.799C141.799 25.3861 141.626 25.0524 141.279 24.999C141.145 24.9723 140.999 24.959 140.838 24.959ZM139.717 3.53809C139.717 2.36361 139.197 1.49609 138.156 0.935547C137.702 0.66862 137.222 0.535156 136.714 0.535156C135.567 0.535156 134.699 1.05566 134.112 2.09668C133.872 2.55046 133.751 3.03092 133.751 3.53809C133.751 4.71256 134.272 5.56673 135.313 6.10059C135.767 6.34082 136.234 6.46094 136.714 6.46094C137.889 6.46094 138.756 5.96712 139.317 4.97949C139.584 4.52572 139.717 4.04525 139.717 3.53809Z" fill="#E4E4E7"/>
<path d="M142.8 26H148.846V24.959H146.043L150.848 18.9531L154.852 24.959H152.65V26H161.899C161.899 25.3861 161.685 25.0524 161.258 24.999C161.152 24.9723 161.031 24.959 160.898 24.959H160.097L154.251 16.1504L158.215 10.9854C158.749 10.2646 159.43 9.86426 160.257 9.78418C160.658 9.73079 160.898 9.57064 160.978 9.30371C161.005 9.14355 161.018 8.97005 161.018 8.7832H155.092V9.82422H157.695L153.571 15.1494L150.047 9.82422H152.25V8.7832H142.96V9.82422H144.802L150.248 17.9922L145.523 23.7979C144.962 24.4652 144.282 24.8656 143.481 24.999C143.107 25.0257 142.894 25.1859 142.84 25.4795C142.814 25.6396 142.8 25.8132 142.8 26Z" fill="#E4E4E7"/>
</g>
</g>
</svg>
