<svg width="30" height="9" viewBox="0 0 30 9" fill="none" xmlns="http://www.w3.org/2000/svg">
<path opacity="0.5" d="M1.33146 7.10645H0.517418L2.87187 0.69433H3.67338L6.02783 7.10645H5.21379L3.29767 1.70875H3.24758L1.33146 7.10645ZM1.63202 4.60171H4.91322V5.29051H1.63202V4.60171ZM10.1775 5.14023V2.29736H10.9164V7.10645H10.1775V6.29241H10.1275C10.0147 6.53662 9.83941 6.7443 9.60146 6.91546C9.36351 7.08453 9.06294 7.16906 8.69975 7.16906C8.39919 7.16906 8.13201 7.10331 7.89824 6.97182C7.66446 6.83823 7.48078 6.63785 7.3472 6.37068C7.21361 6.10142 7.14682 5.76224 7.14682 5.35313V2.29736H7.88572V5.30304C7.88572 5.6537 7.98382 5.9334 8.18002 6.14212C8.37831 6.35085 8.63087 6.45521 8.9377 6.45521C9.12138 6.45521 9.3082 6.40825 9.49814 6.31432C9.69017 6.2204 9.85089 6.07637 9.9803 5.88226C10.1118 5.68814 10.1775 5.4408 10.1775 5.14023ZM14.4314 9.01004C14.0744 9.01004 13.7676 8.96412 13.5109 8.87228C13.2541 8.78253 13.0402 8.66355 12.869 8.51536C12.7 8.36925 12.5653 8.2127 12.4651 8.04572L13.0538 7.63244C13.1206 7.7201 13.2051 7.82029 13.3074 7.93301C13.4096 8.04781 13.5495 8.14695 13.7269 8.23044C13.9064 8.31602 14.1412 8.35881 14.4314 8.35881C14.8196 8.35881 15.14 8.26488 15.3926 8.07703C15.6451 7.88917 15.7714 7.59487 15.7714 7.19411V6.21727H15.7088C15.6545 6.30493 15.5773 6.41347 15.4771 6.54288C15.379 6.6702 15.2371 6.78396 15.0513 6.88415C14.8676 6.98225 14.6192 7.0313 14.3061 7.0313C13.9179 7.0313 13.5693 6.93946 13.2604 6.75578C12.9536 6.5721 12.7104 6.30493 12.5309 5.95427C12.3535 5.60361 12.2648 5.1778 12.2648 4.67685C12.2648 4.18426 12.3514 3.75532 12.5246 3.39005C12.6979 3.02269 12.939 2.73882 13.2479 2.53844C13.5568 2.33597 13.9137 2.23474 14.3187 2.23474C14.6317 2.23474 14.8801 2.28692 15.0638 2.39129C15.2496 2.49356 15.3915 2.61045 15.4896 2.74195C15.5898 2.87136 15.667 2.97781 15.7213 3.0613H15.7964V2.29736H16.5103V7.24421C16.5103 7.65749 16.4164 7.99354 16.2285 8.25236C16.0427 8.51327 15.7923 8.70426 15.4771 8.82532C15.164 8.94847 14.8154 9.01004 14.4314 9.01004ZM14.4063 6.36755C14.7027 6.36755 14.9532 6.29971 15.1577 6.16404C15.3623 6.02837 15.5178 5.83321 15.6242 5.57856C15.7307 5.32391 15.7839 5.01917 15.7839 4.66433C15.7839 4.31784 15.7317 4.01206 15.6274 3.74697C15.523 3.48189 15.3686 3.2742 15.164 3.12392C14.9594 2.97364 14.7069 2.89849 14.4063 2.89849C14.0932 2.89849 13.8323 2.97781 13.6236 3.13644C13.4169 3.29508 13.2614 3.50798 13.1571 3.77515C13.0548 4.04232 13.0037 4.33872 13.0037 4.66433C13.0037 4.9983 13.0558 5.29364 13.1602 5.55038C13.2667 5.80503 13.4232 6.00541 13.6299 6.15152C13.8386 6.29554 14.0974 6.36755 14.4063 6.36755ZM23.0251 0.69433V7.10645H22.2486V1.50837H22.2111L20.6456 2.54783V1.75884L22.2486 0.69433H23.0251ZM27.1811 7.19411C26.7094 7.19411 26.3076 7.06574 25.9757 6.80901C25.6438 6.55019 25.3902 6.17552 25.2149 5.68501C25.0395 5.19241 24.9519 4.59754 24.9519 3.90039C24.9519 3.20741 25.0395 2.61567 25.2149 2.12516C25.3923 1.63256 25.6469 1.25685 25.9788 0.998028C26.3128 0.737119 26.7135 0.606664 27.1811 0.606664C27.6486 0.606664 28.0483 0.737119 28.3802 0.998028C28.7142 1.25685 28.9688 1.63256 29.1442 2.12516C29.3216 2.61567 29.4103 3.20741 29.4103 3.90039C29.4103 4.59754 29.3226 5.19241 29.1473 5.68501C28.972 6.17552 28.7184 6.55019 28.3865 6.80901C28.0546 7.06574 27.6528 7.19411 27.1811 7.19411ZM27.1811 6.50531C27.6486 6.50531 28.0118 6.27988 28.2706 5.82903C28.5295 5.37818 28.6589 4.7353 28.6589 3.90039C28.6589 3.34517 28.5994 2.8724 28.4804 2.48208C28.3635 2.09176 28.1945 1.79432 27.9732 1.58977C27.754 1.38522 27.49 1.28294 27.1811 1.28294C26.7177 1.28294 26.3556 1.5115 26.0947 1.96861C25.8337 2.42364 25.7033 3.06756 25.7033 3.90039C25.7033 4.4556 25.7617 4.92733 25.8786 5.31556C25.9955 5.70379 26.1635 5.99914 26.3827 6.20161C26.6039 6.40408 26.8701 6.50531 27.1811 6.50531Z" fill="#12141D"/>
</svg>
