<svg width="26" height="26" viewBox="0 0 26 26" fill="none" xmlns="http://www.w3.org/2000/svg">
<path d="M8.00018 1.00002L18.0001 1.00002C21.875 1.00002 25 4.12498 25 7.99994L25 18.2498C25 22.1248 21.875 25.2498 18.0001 25.2498L8.00018 25.2498C4.12523 25.2498 1.00026 22.1248 1.00026 18.2498L1.00026 7.99994C1.00026 4.12499 4.12522 1.00002 8.00018 1.00002Z" fill="#CEE9FF" stroke="#000044" stroke-width="0.626493" stroke-miterlimit="10"/>
<path d="M12.752 17.9993L8.002 12.9993L12.752 7.99938" fill="#CEE9FF"/>
<path d="M12.752 17.9993L8.002 12.9993L12.752 7.99938" stroke="#000044" stroke-width="1.23076" stroke-miterlimit="10" stroke-linecap="round"/>
<path d="M18.627 12.999C15.127 12.999 11.627 12.999 8.12707 12.999L18.627 12.999Z" fill="#CEE9FF"/>
<path d="M18.627 12.999C15.127 12.999 11.627 12.999 8.12707 12.999" stroke="#000044" stroke-width="1.23076" stroke-miterlimit="10" stroke-linecap="round"/>
</svg>
