<svg width="212" height="110" viewBox="0 0 212 110" fill="none" xmlns="http://www.w3.org/2000/svg">
<g id="Chart">
<rect id="Rectangle 2.6" x="7.95703" y="0.470215" width="204.413" height="0.295901" rx="0.147951" transform="rotate(5 7.95703 0.470215)" fill="#DAE8EF"/>
<rect id="Rectangle 2.7" x="6.37109" y="18.5986" width="204.413" height="0.295901" rx="0.147951" transform="rotate(5 6.37109 18.5986)" fill="#DAE8EF"/>
<rect id="Rectangle 2.8" x="4.78516" y="36.728" width="204.413" height="0.295901" rx="0.147951" transform="rotate(5 4.78516 36.728)" fill="#DAE8EF"/>
<rect id="Rectangle 2.9" x="3.19873" y="54.8564" width="204.413" height="0.295901" rx="0.147951" transform="rotate(5 3.19873 54.8564)" fill="#DAE8EF"/>
<rect id="Rectangle 2.10" x="1.61279" y="72.9849" width="204.413" height="0.295901" rx="0.147951" transform="rotate(5 1.61279 72.9849)" fill="#DAE8EF"/>
<rect id="Rectangle 2.11" x="0.0268555" y="91.113" width="204.413" height="0.295901" rx="0.147951" transform="rotate(5 0.0268555 91.113)" fill="#DAE8EF"/>
<path id="Vector 2" d="M9.75581 92.1137L31.6865 75.8392L50.6215 65.0541C51.3277 64.6518 52.1015 64.3819 52.9046 64.2575L69.8322 61.6372C71.3779 61.398 72.9586 61.709 74.2985 62.516L89.3129 71.5596C90.0301 71.9916 90.8223 72.2849 91.6479 72.424L108.357 75.2407C109.778 75.4803 111.238 75.2536 112.52 74.5946L128.811 66.2175L149.177 59.1113C150.324 58.7109 151.341 58.0048 152.116 57.0693L172.352 32.667C173.064 31.8088 173.979 31.1425 175.014 30.7288L196.306 22.2213" stroke="#2B59FF" stroke-width="2.00302"/>
</g>
</svg>
