<svg width="24" height="24" viewBox="0 0 24 24" fill="none" xmlns="http://www.w3.org/2000/svg">
<g id="clipboard">
<path id="Vector" d="M16 4.00006H18C18.5304 4.00006 19.0391 4.21077 19.4142 4.58585C19.7893 4.96092 20 5.46963 20 6.00006V20.0001C20 20.5305 19.7893 21.0392 19.4142 21.4143C19.0391 21.7893 18.5304 22.0001 18 22.0001H6C5.46957 22.0001 4.96086 21.7893 4.58579 21.4143C4.21071 21.0392 4 20.5305 4 20.0001V6.00006C4 5.46963 4.21071 4.96092 4.58579 4.58585C4.96086 4.21077 5.46957 4.00006 6 4.00006H8" stroke="#089BD9" stroke-width="2" stroke-linecap="round" stroke-linejoin="round"/>
<path id="Vector_2" d="M15 2.00006H9C8.44772 2.00006 8 2.44778 8 3.00006V5.00006C8 5.55235 8.44772 6.00006 9 6.00006H15C15.5523 6.00006 16 5.55235 16 5.00006V3.00006C16 2.44778 15.5523 2.00006 15 2.00006Z" stroke="#089BD9" stroke-width="2" stroke-linecap="round" stroke-linejoin="round"/>
</g>
</svg>
