<svg width="117" height="22" viewBox="0 0 117 22" fill="none" xmlns="http://www.w3.org/2000/svg">
<path d="M0.924437 6.77881V0.366693H2.08601V3.31288H2.16428L4.66588 0.366693H6.08419L3.6045 3.244L6.1061 6.77881H4.70971L2.79672 4.02986L2.08601 4.86895V6.77881H0.924437ZM8.59231 6.87587C8.28757 6.87587 8.01309 6.8216 7.76888 6.71306C7.52676 6.60243 7.33473 6.43963 7.19279 6.22464C7.05294 6.00965 6.98302 5.74456 6.98302 5.42938C6.98302 5.15804 7.03311 4.93366 7.1333 4.75624C7.23349 4.57882 7.37021 4.43688 7.54345 4.33043C7.7167 4.22398 7.91186 4.14362 8.12894 4.08935C8.3481 4.033 8.57457 3.99229 8.80834 3.96725C9.09013 3.93802 9.31868 3.91193 9.49401 3.88897C9.66935 3.86393 9.79667 3.82635 9.87599 3.77626C9.95739 3.72408 9.99809 3.64372 9.99809 3.53518V3.51639C9.99809 3.28053 9.92817 3.0979 9.78832 2.96848C9.64847 2.83907 9.44705 2.77437 9.18405 2.77437C8.90645 2.77437 8.68624 2.8349 8.52343 2.95596C8.36271 3.07702 8.25417 3.22 8.19782 3.3849L7.13957 3.23461C7.22306 2.94239 7.36082 2.69818 7.55285 2.50198C7.74488 2.30369 7.9797 2.15549 8.2573 2.05739C8.53491 1.9572 8.84174 1.9071 9.17779 1.9071C9.40948 1.9071 9.64012 1.93424 9.86972 1.98851C10.0993 2.04278 10.3091 2.13253 10.499 2.25777C10.689 2.38092 10.8414 2.54894 10.9562 2.76184C11.073 2.97475 11.1315 3.24087 11.1315 3.56023V6.77881H10.0419V6.11819H10.0044C9.93547 6.25177 9.83842 6.37701 9.71318 6.4939C9.59003 6.6087 9.43453 6.70158 9.24667 6.77255C9.0609 6.84143 8.84278 6.87587 8.59231 6.87587ZM8.88662 6.04304C9.11413 6.04304 9.31138 5.99817 9.47836 5.90841C9.64534 5.81657 9.77371 5.69551 9.86346 5.54523C9.9553 5.39494 10.0012 5.23109 10.0012 5.05367V4.48698C9.96574 4.5162 9.90521 4.54333 9.81963 4.56838C9.73614 4.59343 9.64221 4.61535 9.53785 4.63413C9.43348 4.65292 9.33016 4.66961 9.22789 4.68423C9.12561 4.69884 9.0369 4.71136 8.96176 4.7218C8.79269 4.74476 8.64136 4.78233 8.50778 4.83451C8.37419 4.88669 8.26878 4.95975 8.19155 5.05367C8.11432 5.14551 8.07571 5.26449 8.07571 5.4106C8.07571 5.61933 8.1519 5.77692 8.30427 5.88337C8.45664 5.98982 8.65075 6.04304 8.88662 6.04304ZM12.6385 6.77881V1.96972H13.7374V2.77124H13.7875C13.8752 2.49363 14.0255 2.27968 14.2384 2.1294C14.4534 1.97703 14.6986 1.90084 14.9742 1.90084C15.0368 1.90084 15.1067 1.90397 15.1839 1.91023C15.2632 1.91441 15.329 1.92171 15.3812 1.93215V2.97475C15.3332 2.95805 15.257 2.94344 15.1526 2.93091C15.0503 2.9163 14.9512 2.909 14.8552 2.909C14.6485 2.909 14.4628 2.95387 14.2979 3.04363C14.1351 3.13129 14.0067 3.2534 13.9128 3.40994C13.8189 3.56649 13.7719 3.74704 13.7719 3.95159V6.77881H12.6385ZM18.4325 6.87274C17.9504 6.87274 17.5339 6.77255 17.1833 6.57217C16.8347 6.3697 16.5665 6.08375 16.3786 5.7143C16.1908 5.34276 16.0969 4.90548 16.0969 4.40244C16.0969 3.90776 16.1908 3.47361 16.3786 3.09998C16.5686 2.72427 16.8337 2.43205 17.1739 2.22333C17.5141 2.01251 17.9138 1.9071 18.373 1.9071C18.6694 1.9071 18.9491 1.95511 19.2121 2.05113C19.4772 2.14505 19.711 2.29116 19.9134 2.48945C20.118 2.68775 20.2787 2.94031 20.3956 3.24714C20.5125 3.55188 20.5709 3.91506 20.5709 4.33669V4.68423H16.6291V3.92028H19.4845C19.4824 3.70321 19.4355 3.51013 19.3436 3.34106C19.2518 3.16991 19.1234 3.03528 18.9585 2.93717C18.7957 2.83907 18.6058 2.79002 18.3887 2.79002C18.157 2.79002 17.9535 2.84638 17.7782 2.95909C17.6028 3.06972 17.4661 3.21583 17.368 3.39742C17.272 3.57693 17.2229 3.77417 17.2209 3.98916V4.65605C17.2209 4.93574 17.272 5.17578 17.3743 5.37616C17.4765 5.57445 17.6195 5.72682 17.8032 5.83327C17.9869 5.93764 18.2019 5.98982 18.4482 5.98982C18.6131 5.98982 18.7623 5.96686 18.8959 5.92094C19.0295 5.87293 19.1453 5.80301 19.2434 5.71117C19.3415 5.61933 19.4156 5.50557 19.4657 5.3699L20.524 5.48887C20.4572 5.76857 20.3299 6.01278 20.142 6.22151C19.9562 6.42815 19.7183 6.58887 19.4282 6.70367C19.138 6.81638 18.8061 6.87274 18.4325 6.87274ZM23.0305 3.96098V6.77881H21.8971V1.96972H22.9804V2.78689H23.0368C23.1474 2.51763 23.3238 2.30369 23.5659 2.14505C23.8101 1.98642 24.1117 1.9071 24.4708 1.9071C24.8026 1.9071 25.0917 1.97807 25.338 2.12001C25.5864 2.26194 25.7784 2.46754 25.9141 2.7368C26.0519 3.00605 26.1197 3.33271 26.1176 3.71677V6.77881H24.9842V3.8921C24.9842 3.57066 24.9007 3.31915 24.7337 3.13755C24.5689 2.95596 24.3403 2.86516 24.0481 2.86516C23.8498 2.86516 23.6734 2.909 23.519 2.99666C23.3666 3.08224 23.2466 3.20643 23.1589 3.36924C23.0733 3.53205 23.0305 3.7293 23.0305 3.96098ZM32.2391 6.879C31.7882 6.879 31.4 6.77255 31.0744 6.55964C30.7488 6.34674 30.4983 6.05348 30.323 5.67986C30.1476 5.30623 30.06 4.87939 30.06 4.39931C30.06 3.91089 30.1497 3.47987 30.3292 3.10624C30.5108 2.73053 30.7634 2.43727 31.0869 2.22646C31.4125 2.01355 31.7924 1.9071 32.2265 1.9071C32.5647 1.9071 32.8694 1.96972 33.1408 2.09496C33.4121 2.2202 33.6344 2.39553 33.8077 2.62095C33.9809 2.84638 34.0884 3.10938 34.1301 3.40994H33.3913C33.3349 3.19078 33.2097 2.99666 33.0155 2.82759C32.8235 2.65644 32.5647 2.57086 32.2391 2.57086C31.951 2.57086 31.6985 2.646 31.4814 2.79628C31.2664 2.94448 31.0984 3.15425 30.9773 3.4256C30.8583 3.69486 30.7989 4.01108 30.7989 4.37427C30.7989 4.7458 30.8573 5.06933 30.9742 5.34485C31.0932 5.62037 31.2601 5.83432 31.4751 5.98669C31.6922 6.13906 31.9469 6.21524 32.2391 6.21524C32.4311 6.21524 32.6054 6.18185 32.7619 6.11505C32.9185 6.04826 33.051 5.95225 33.1596 5.82701C33.2681 5.70177 33.3453 5.55149 33.3913 5.37616H34.1301C34.0884 5.66003 33.9851 5.91572 33.8202 6.14323C33.6574 6.36866 33.4413 6.54816 33.1721 6.68175C32.9049 6.81325 32.5939 6.879 32.2391 6.879ZM36.3166 3.88584V6.77881H35.5777V0.366693H36.3166V2.72114H36.3792C36.4919 2.47276 36.661 2.27551 36.8864 2.1294C37.1139 1.9812 37.4166 1.9071 37.7944 1.9071C38.1221 1.9071 38.4091 1.97285 38.6554 2.10435C38.9017 2.23376 39.0927 2.4331 39.2283 2.70236C39.3661 2.96953 39.435 3.30975 39.435 3.72303V6.77881H38.6961V3.77313C38.6961 3.39116 38.5969 3.09581 38.3986 2.88708C38.2024 2.67627 37.93 2.57086 37.5815 2.57086C37.3393 2.57086 37.1223 2.622 36.9302 2.72427C36.7403 2.82655 36.59 2.97579 36.4794 3.17199C36.3708 3.3682 36.3166 3.60615 36.3166 3.88584ZM42.5693 6.89152C42.2645 6.89152 41.988 6.83412 41.7396 6.71932C41.4912 6.60243 41.2939 6.43441 41.1478 6.21524C41.0017 5.99399 40.9287 5.72682 40.9287 5.41373C40.9287 5.13821 40.9829 4.91487 41.0915 4.74371C41.2 4.57047 41.3451 4.4348 41.5267 4.33669C41.7083 4.23859 41.9086 4.16554 42.1278 4.11753C42.3491 4.06744 42.5714 4.02778 42.7947 3.99856C43.0869 3.96098 43.3238 3.93281 43.5054 3.91402C43.6891 3.89315 43.8227 3.85871 43.9062 3.8107C43.9917 3.76269 44.0345 3.6792 44.0345 3.56023V3.53518C44.0345 3.22626 43.95 2.98623 43.7809 2.81507C43.614 2.64391 43.3603 2.55833 43.0201 2.55833C42.6674 2.55833 42.3908 2.63556 42.1904 2.79002C41.99 2.94448 41.8492 3.10938 41.7678 3.28471L41.0664 3.03423C41.1917 2.74201 41.3586 2.5145 41.5674 2.35169C41.7782 2.1868 42.0078 2.072 42.2562 2.00729C42.5067 1.9405 42.7529 1.9071 42.9951 1.9071C43.1495 1.9071 43.327 1.92589 43.5273 1.96346C43.7298 1.99894 43.925 2.07304 44.1128 2.18575C44.3028 2.29847 44.4603 2.46858 44.5856 2.69609C44.7108 2.92361 44.7734 3.22835 44.7734 3.61032V6.77881H44.0345V6.12758H43.997C43.9469 6.23194 43.8634 6.34361 43.7465 6.46259C43.6296 6.58156 43.4741 6.68279 43.28 6.76628C43.0859 6.84978 42.849 6.89152 42.5693 6.89152ZM42.682 6.22777C42.9742 6.22777 43.2205 6.17037 43.4209 6.05557C43.6233 5.94077 43.7757 5.79257 43.878 5.61098C43.9824 5.42938 44.0345 5.2384 44.0345 5.03802V4.36174C44.0032 4.39931 43.9343 4.43375 43.8279 4.46506C43.7235 4.49428 43.6025 4.52037 43.4647 4.54333C43.329 4.56421 43.1965 4.58299 43.0671 4.59969C42.9398 4.6143 42.8364 4.62683 42.7571 4.63726C42.5651 4.66231 42.3856 4.70301 42.2186 4.75937C42.0537 4.81364 41.9201 4.89608 41.8178 5.00671C41.7177 5.11525 41.6676 5.26345 41.6676 5.4513C41.6676 5.70804 41.7625 5.90215 41.9525 6.03365C42.1445 6.16306 42.3877 6.22777 42.682 6.22777ZM47.2283 3.88584V6.77881H46.4894V1.96972H47.2033V2.72114H47.2659C47.3786 2.47693 47.5498 2.28073 47.7794 2.13253C48.009 1.98225 48.3054 1.9071 48.6686 1.9071C48.9942 1.9071 49.2791 1.9739 49.5233 2.10748C49.7675 2.23898 49.9574 2.43936 50.0931 2.70862C50.2288 2.97579 50.2966 3.31393 50.2966 3.72303V6.77881H49.5577V3.77313C49.5577 3.39533 49.4596 3.10103 49.2634 2.89021C49.0672 2.67731 48.798 2.57086 48.4557 2.57086C48.2198 2.57086 48.009 2.622 47.8232 2.72427C47.6395 2.82655 47.4945 2.97579 47.388 3.17199C47.2816 3.3682 47.2283 3.60615 47.2283 3.88584ZM53.9554 8.68241C53.5984 8.68241 53.2916 8.63649 53.0349 8.54465C52.7781 8.45489 52.5642 8.33592 52.393 8.18772C52.224 8.04161 52.0893 7.88507 51.9892 7.71808L52.5778 7.3048C52.6446 7.39247 52.7291 7.49266 52.8314 7.60537C52.9336 7.72017 53.0735 7.81932 53.2509 7.90281C53.4304 7.98839 53.6652 8.03117 53.9554 8.03117C54.3436 8.03117 54.664 7.93725 54.9166 7.74939C55.1691 7.56154 55.2954 7.26723 55.2954 6.86647V5.88963H55.2328C55.1785 5.97729 55.1013 6.08583 55.0011 6.21524C54.903 6.34257 54.7611 6.45632 54.5753 6.55651C54.3916 6.65462 54.1432 6.70367 53.8301 6.70367C53.4419 6.70367 53.0933 6.61183 52.7844 6.42815C52.4776 6.24447 52.2344 5.97729 52.0549 5.62663C51.8775 5.27597 51.7888 4.85016 51.7888 4.34922C51.7888 3.85662 51.8754 3.42768 52.0486 3.06241C52.2219 2.69505 52.463 2.41118 52.7719 2.2108C53.0808 2.00834 53.4377 1.9071 53.8427 1.9071C54.1557 1.9071 54.4041 1.95929 54.5878 2.06365C54.7736 2.16593 54.9155 2.28281 55.0136 2.41431C55.1138 2.54372 55.191 2.65017 55.2453 2.73367H55.3204V1.96972H56.0343V6.91657C56.0343 7.32985 55.9404 7.6659 55.7525 7.92472C55.5667 8.18563 55.3163 8.37662 55.0011 8.49768C54.688 8.62083 54.3394 8.68241 53.9554 8.68241ZM53.9303 6.03991C54.2267 6.03991 54.4772 5.97208 54.6817 5.8364C54.8863 5.70073 55.0418 5.50557 55.1482 5.25092C55.2547 4.99627 55.3079 4.69153 55.3079 4.33669C55.3079 3.99021 55.2557 3.68442 55.1514 3.41934C55.047 3.15425 54.8926 2.94657 54.688 2.79628C54.4834 2.646 54.2309 2.57086 53.9303 2.57086C53.6172 2.57086 53.3563 2.65017 53.1476 2.80881C52.941 2.96744 52.7854 3.18034 52.6811 3.44751C52.5788 3.71469 52.5277 4.01108 52.5277 4.33669C52.5277 4.67066 52.5799 4.96601 52.6842 5.22274C52.7907 5.47739 52.9472 5.67777 53.1539 5.82388C53.3626 5.9679 53.6214 6.03991 53.9303 6.03991ZM59.7705 6.879C59.3071 6.879 58.9074 6.77672 58.5714 6.57217C58.2374 6.36553 57.9796 6.07748 57.798 5.70804C57.6185 5.3365 57.5288 4.90443 57.5288 4.41184C57.5288 3.91924 57.6185 3.48508 57.798 3.10938C57.9796 2.73158 58.2322 2.43727 58.5557 2.22646C58.8813 2.01355 59.2612 1.9071 59.6954 1.9071C59.9459 1.9071 60.1932 1.94885 60.4374 2.03234C60.6816 2.11583 60.9039 2.2515 61.1043 2.43936C61.3047 2.62513 61.4643 2.87143 61.5833 3.17826C61.7023 3.48508 61.7618 3.86288 61.7618 4.31165V4.62474H58.0548V3.98603H61.0104C61.0104 3.71469 60.9561 3.47256 60.8476 3.25966C60.7411 3.04676 60.5887 2.87873 60.3904 2.75558C60.1942 2.63243 59.9626 2.57086 59.6954 2.57086C59.4011 2.57086 59.1464 2.64391 58.9314 2.79002C58.7185 2.93404 58.5547 3.1219 58.4399 3.35359C58.3251 3.58527 58.2677 3.83366 58.2677 4.09874V4.52455C58.2677 4.88774 58.3303 5.19561 58.4555 5.44817C58.5829 5.69864 58.7592 5.88963 58.9847 6.02113C59.2101 6.15054 59.472 6.21524 59.7705 6.21524C59.9646 6.21524 60.14 6.18811 60.2965 6.13384C60.4551 6.07748 60.5919 5.99399 60.7067 5.88337C60.8215 5.77065 60.9102 5.63081 60.9728 5.46382L61.6866 5.6642C61.6115 5.90633 61.4852 6.11923 61.3078 6.30291C61.1304 6.4845 60.9112 6.62644 60.6503 6.72871C60.3894 6.8289 60.0961 6.879 59.7705 6.879ZM66.1002 8.58222V1.96972H66.814V2.73367H66.9017C66.956 2.65017 67.0311 2.54372 67.1271 2.41431C67.2252 2.28281 67.3651 2.16593 67.5467 2.06365C67.7304 1.95929 67.9787 1.9071 68.2918 1.9071C68.6968 1.9071 69.0537 2.00834 69.3626 2.2108C69.6715 2.41327 69.9126 2.70027 70.0858 3.0718C70.2591 3.44334 70.3457 3.88167 70.3457 4.38679C70.3457 4.89608 70.2591 5.33754 70.0858 5.71117C69.9126 6.0827 69.6726 6.37075 69.3657 6.5753C69.0589 6.77776 68.7051 6.879 68.3044 6.879C67.9954 6.879 67.7481 6.82786 67.5623 6.72558C67.3766 6.62122 67.2336 6.50329 67.1334 6.37179C67.0332 6.2382 66.956 6.12758 66.9017 6.03991H66.8391V8.58222H66.1002ZM66.8266 4.37427C66.8266 4.73745 66.8798 5.05785 66.9862 5.33546C67.0927 5.61098 67.2482 5.82701 67.4527 5.98356C67.6573 6.13801 67.9078 6.21524 68.2042 6.21524C68.5131 6.21524 68.7709 6.13384 68.9775 5.97103C69.1862 5.80614 69.3428 5.58489 69.4471 5.30728C69.5536 5.02758 69.6068 4.71658 69.6068 4.37427C69.6068 4.03613 69.5546 3.73138 69.4503 3.46004C69.348 3.1866 69.1925 2.97057 68.9838 2.81194C68.7771 2.65122 68.5173 2.57086 68.2042 2.57086C67.9036 2.57086 67.651 2.64704 67.4465 2.79941C67.2419 2.9497 67.0875 3.16051 66.9831 3.43186C66.8787 3.70112 66.8266 4.01525 66.8266 4.37427ZM71.8402 6.77881V1.96972H72.5541V2.69609H72.6041C72.6918 2.45814 72.8504 2.26507 73.08 2.11687C73.3096 1.96868 73.5685 1.89458 73.8565 1.89458C73.9108 1.89458 73.9786 1.89562 74.06 1.89771C74.1414 1.8998 74.203 1.90293 74.2447 1.9071V2.65852C74.2197 2.65226 74.1623 2.64287 74.0725 2.63034C73.9849 2.61573 73.892 2.60843 73.7939 2.60843C73.5601 2.60843 73.3514 2.65748 73.1677 2.75558C72.9861 2.8516 72.8421 2.98518 72.7356 3.15634C72.6313 3.32541 72.5791 3.51848 72.5791 3.73556V6.77881H71.8402ZM77.2953 6.879C76.8611 6.879 76.4802 6.77568 76.1525 6.56904C75.8269 6.3624 75.5723 6.07331 75.3886 5.70177C75.207 5.33024 75.1162 4.89608 75.1162 4.39931C75.1162 3.89837 75.207 3.46108 75.3886 3.08746C75.5723 2.71384 75.8269 2.4237 76.1525 2.21706C76.4802 2.01042 76.8611 1.9071 77.2953 1.9071C77.7295 1.9071 78.1093 2.01042 78.435 2.21706C78.7627 2.4237 79.0173 2.71384 79.1989 3.08746C79.3826 3.46108 79.4744 3.89837 79.4744 4.39931C79.4744 4.89608 79.3826 5.33024 79.1989 5.70177C79.0173 6.07331 78.7627 6.3624 78.435 6.56904C78.1093 6.77568 77.7295 6.879 77.2953 6.879ZM77.2953 6.21524C77.6251 6.21524 77.8964 6.13071 78.1093 5.96164C78.3222 5.79257 78.4798 5.57028 78.5821 5.29475C78.6844 5.01923 78.7355 4.72075 78.7355 4.39931C78.7355 4.07787 78.6844 3.77835 78.5821 3.50074C78.4798 3.22313 78.3222 2.99875 78.1093 2.82759C77.8964 2.65644 77.6251 2.57086 77.2953 2.57086C76.9655 2.57086 76.6942 2.65644 76.4813 2.82759C76.2684 2.99875 76.1108 3.22313 76.0085 3.50074C75.9062 3.77835 75.8551 4.07787 75.8551 4.39931C75.8551 4.72075 75.9062 5.01923 76.0085 5.29475C76.1108 5.57028 76.2684 5.79257 76.4813 5.96164C76.6942 6.13071 76.9655 6.21524 77.2953 6.21524ZM80.9697 1.96972H81.7086V7.12947C81.7086 7.42586 81.6574 7.6826 81.5552 7.89968C81.455 8.11675 81.3026 8.28478 81.0981 8.40375C80.8956 8.52273 80.6399 8.58222 80.331 8.58222C80.3059 8.58222 80.2809 8.58222 80.2558 8.58222C80.2308 8.58222 80.2057 8.58222 80.1807 8.58222V7.89341C80.2057 7.89341 80.2287 7.89341 80.2496 7.89341C80.2705 7.89341 80.2934 7.89341 80.3185 7.89341C80.5439 7.89341 80.7088 7.82662 80.8131 7.69304C80.9175 7.56154 80.9697 7.37368 80.9697 7.12947V1.96972ZM81.3329 1.16821C81.1889 1.16821 81.0647 1.11916 80.9603 1.02105C80.858 0.922952 80.8069 0.805021 80.8069 0.667261C80.8069 0.529501 80.858 0.411569 80.9603 0.313467C81.0647 0.215365 81.1889 0.166314 81.3329 0.166314C81.4769 0.166314 81.6 0.215365 81.7023 0.313467C81.8067 0.411569 81.8589 0.529501 81.8589 0.667261C81.8589 0.805021 81.8067 0.922952 81.7023 1.02105C81.6 1.11916 81.4769 1.16821 81.3329 1.16821ZM85.4456 6.879C84.9822 6.879 84.5825 6.77672 84.2465 6.57217C83.9125 6.36553 83.6547 6.07748 83.4731 5.70804C83.2936 5.3365 83.2039 4.90443 83.2039 4.41184C83.2039 3.91924 83.2936 3.48508 83.4731 3.10938C83.6547 2.73158 83.9073 2.43727 84.2308 2.22646C84.5564 2.01355 84.9363 1.9071 85.3705 1.9071C85.6209 1.9071 85.8683 1.94885 86.1125 2.03234C86.3567 2.11583 86.579 2.2515 86.7794 2.43936C86.9797 2.62513 87.1394 2.87143 87.2584 3.17826C87.3774 3.48508 87.4369 3.86288 87.4369 4.31165V4.62474H83.7299V3.98603H86.6854C86.6854 3.71469 86.6312 3.47256 86.5226 3.25966C86.4162 3.04676 86.2638 2.87873 86.0655 2.75558C85.8693 2.63243 85.6376 2.57086 85.3705 2.57086C85.0761 2.57086 84.8215 2.64391 84.6065 2.79002C84.3936 2.93404 84.2298 3.1219 84.115 3.35359C84.0002 3.58527 83.9428 3.83366 83.9428 4.09874V4.52455C83.9428 4.88774 84.0054 5.19561 84.1306 5.44817C84.2579 5.69864 84.4343 5.88963 84.6597 6.02113C84.8852 6.15054 85.1471 6.21524 85.4456 6.21524C85.6397 6.21524 85.815 6.18811 85.9716 6.13384C86.1302 6.07748 86.2669 5.99399 86.3817 5.88337C86.4965 5.77065 86.5852 5.63081 86.6479 5.46382L87.3617 5.6642C87.2866 5.90633 87.1603 6.11923 86.9829 6.30291C86.8055 6.4845 86.5863 6.62644 86.3254 6.72871C86.0645 6.8289 85.7712 6.879 85.4456 6.879ZM90.8819 6.879C90.4311 6.879 90.0428 6.77255 89.7172 6.55964C89.3916 6.34674 89.1411 6.05348 88.9658 5.67986C88.7905 5.30623 88.7028 4.87939 88.7028 4.39931C88.7028 3.91089 88.7925 3.47987 88.972 3.10624C89.1536 2.73053 89.4062 2.43727 89.7297 2.22646C90.0553 2.01355 90.4352 1.9071 90.8694 1.9071C91.2075 1.9071 91.5123 1.96972 91.7836 2.09496C92.055 2.2202 92.2773 2.39553 92.4505 2.62095C92.6237 2.84638 92.7312 3.10938 92.773 3.40994H92.0341C91.9777 3.19078 91.8525 2.99666 91.6584 2.82759C91.4663 2.65644 91.2075 2.57086 90.8819 2.57086C90.5939 2.57086 90.3413 2.646 90.1242 2.79628C89.9092 2.94448 89.7412 3.15425 89.6201 3.4256C89.5012 3.69486 89.4417 4.01108 89.4417 4.37427C89.4417 4.7458 89.5001 5.06933 89.617 5.34485C89.736 5.62037 89.903 5.83432 90.118 5.98669C90.335 6.13906 90.5897 6.21524 90.8819 6.21524C91.0739 6.21524 91.2482 6.18185 91.4048 6.11505C91.5613 6.04826 91.6939 5.95225 91.8024 5.82701C91.9109 5.70177 91.9882 5.55149 92.0341 5.37616H92.773C92.7312 5.66003 92.6279 5.91572 92.463 6.14323C92.3002 6.36866 92.0842 6.54816 91.8149 6.68175C91.5477 6.81325 91.2367 6.879 90.8819 6.879ZM96.312 1.96972V2.5959H93.8198V1.96972H96.312ZM94.5461 0.817545H95.285V5.40121C95.285 5.60993 95.3153 5.76648 95.3758 5.87084C95.4384 5.97312 95.5178 6.042 95.6138 6.07748C95.7119 6.11088 95.8152 6.12758 95.9237 6.12758C96.0051 6.12758 96.0719 6.1234 96.1241 6.11505C96.1763 6.10462 96.218 6.09627 96.2493 6.09001L96.3996 6.75376C96.3495 6.77255 96.2796 6.79133 96.1899 6.81012C96.1001 6.83099 95.9863 6.84143 95.8486 6.84143C95.6399 6.84143 95.4353 6.79655 95.2349 6.7068C95.0366 6.61704 94.8717 6.48033 94.7402 6.29665C94.6108 6.11297 94.5461 5.88128 94.5461 5.60158V0.817545ZM100.638 6.77881V1.96972H101.377V6.77881H100.638ZM101.014 1.16821C100.87 1.16821 100.745 1.11916 100.641 1.02105C100.539 0.922952 100.488 0.805021 100.488 0.667261C100.488 0.529501 100.539 0.411569 100.641 0.313467C100.745 0.215365 100.87 0.166314 101.014 0.166314C101.158 0.166314 101.281 0.215365 101.383 0.313467C101.487 0.411569 101.54 0.529501 101.54 0.667261C101.54 0.805021 101.487 0.922952 101.383 1.02105C101.281 1.11916 101.158 1.16821 101.014 1.16821ZM103.836 3.88584V6.77881H103.097V1.96972H103.811V2.72114H103.874C103.987 2.47693 104.158 2.28073 104.387 2.13253C104.617 1.98225 104.913 1.9071 105.277 1.9071C105.602 1.9071 105.887 1.9739 106.131 2.10748C106.376 2.23898 106.565 2.43936 106.701 2.70862C106.837 2.97579 106.905 3.31393 106.905 3.72303V6.77881H106.166V3.77313C106.166 3.39533 106.068 3.10103 105.871 2.89021C105.675 2.67731 105.406 2.57086 105.064 2.57086C104.828 2.57086 104.617 2.622 104.431 2.72427C104.248 2.82655 104.102 2.97579 103.996 3.17199C103.89 3.3682 103.836 3.60615 103.836 3.88584ZM110.764 1.96972V2.5959H108.171V1.96972H110.764ZM108.948 6.77881V1.30597C108.948 1.03045 109.013 0.800846 109.142 0.617166C109.271 0.433485 109.439 0.295725 109.646 0.203885C109.853 0.112045 110.071 0.0661246 110.3 0.0661246C110.482 0.0661246 110.63 0.0807357 110.745 0.109958C110.86 0.139179 110.945 0.166314 111.002 0.191361L110.789 0.830068C110.751 0.817545 110.699 0.80189 110.632 0.783105C110.568 0.764319 110.482 0.754926 110.376 0.754926C110.131 0.754926 109.955 0.816501 109.846 0.939651C109.74 1.0628 109.687 1.24335 109.687 1.4813V6.77881H108.948ZM113.922 6.879C113.488 6.879 113.107 6.77568 112.78 6.56904C112.454 6.3624 112.199 6.07331 112.016 5.70177C111.834 5.33024 111.743 4.89608 111.743 4.39931C111.743 3.89837 111.834 3.46108 112.016 3.08746C112.199 2.71384 112.454 2.4237 112.78 2.21706C113.107 2.01042 113.488 1.9071 113.922 1.9071C114.356 1.9071 114.736 2.01042 115.062 2.21706C115.39 2.4237 115.644 2.71384 115.826 3.08746C116.01 3.46108 116.101 3.89837 116.101 4.39931C116.101 4.89608 116.01 5.33024 115.826 5.70177C115.644 6.07331 115.39 6.3624 115.062 6.56904C114.736 6.77568 114.356 6.879 113.922 6.879ZM113.922 6.21524C114.252 6.21524 114.523 6.13071 114.736 5.96164C114.949 5.79257 115.107 5.57028 115.209 5.29475C115.311 5.01923 115.363 4.72075 115.363 4.39931C115.363 4.07787 115.311 3.77835 115.209 3.50074C115.107 3.22313 114.949 2.99875 114.736 2.82759C114.523 2.65644 114.252 2.57086 113.922 2.57086C113.593 2.57086 113.321 2.65644 113.108 2.82759C112.895 2.99875 112.738 3.22313 112.636 3.50074C112.533 3.77835 112.482 4.07787 112.482 4.39931C112.482 4.72075 112.533 5.01923 112.636 5.29475C112.738 5.57028 112.895 5.79257 113.108 5.96164C113.321 6.13071 113.593 6.21524 113.922 6.21524ZM2.92196 19.879C2.48781 19.879 2.10688 19.7757 1.77918 19.569C1.45356 19.3624 1.19891 19.0733 1.01523 18.7018C0.833641 18.3302 0.742844 17.8961 0.742844 17.3993C0.742844 16.8984 0.833641 16.4611 1.01523 16.0875C1.19891 15.7138 1.45356 15.4237 1.77918 15.2171C2.10688 15.0104 2.48781 14.9071 2.92196 14.9071C3.35612 14.9071 3.736 15.0104 4.06162 15.2171C4.38932 15.4237 4.64397 15.7138 4.82556 16.0875C5.00924 16.4611 5.10108 16.8984 5.10108 17.3993C5.10108 17.8961 5.00924 18.3302 4.82556 18.7018C4.64397 19.0733 4.38932 19.3624 4.06162 19.569C3.736 19.7757 3.35612 19.879 2.92196 19.879ZM2.92196 19.2152C3.25175 19.2152 3.5231 19.1307 3.736 18.9616C3.9489 18.7926 4.10649 18.5703 4.20877 18.2948C4.31104 18.0192 4.36218 17.7208 4.36218 17.3993C4.36218 17.0779 4.31104 16.7783 4.20877 16.5007C4.10649 16.2231 3.9489 15.9987 3.736 15.8276C3.5231 15.6564 3.25175 15.5709 2.92196 15.5709C2.59217 15.5709 2.32083 15.6564 2.10792 15.8276C1.89502 15.9987 1.73743 16.2231 1.63516 16.5007C1.53288 16.7783 1.48174 17.0779 1.48174 17.3993C1.48174 17.7208 1.53288 18.0192 1.63516 18.2948C1.73743 18.5703 1.89502 18.7926 2.10792 18.9616C2.32083 19.1307 2.59217 19.2152 2.92196 19.2152ZM7.33525 16.8858V19.7788H6.59635V14.9697H7.3102V15.7211H7.37282C7.48553 15.4769 7.65669 15.2807 7.88629 15.1325C8.11589 14.9822 8.41228 14.9071 8.77547 14.9071C9.10108 14.9071 9.386 14.9739 9.63021 15.1075C9.87442 15.239 10.0644 15.4394 10.2 15.7086C10.3357 15.9758 10.4035 16.3139 10.4035 16.723V19.7788H9.66465V16.7731C9.66465 16.3953 9.56655 16.101 9.37034 15.8902C9.17414 15.6773 8.90488 15.5709 8.56257 15.5709C8.3267 15.5709 8.11589 15.622 7.93012 15.7243C7.74644 15.8265 7.60138 15.9758 7.49492 16.172C7.38847 16.3682 7.33525 16.6061 7.33525 16.8858ZM15.0683 19.7788V13.3667H17.2349C17.738 13.3667 18.1492 13.4575 18.4685 13.6391C18.79 13.8186 19.0279 14.0618 19.1824 14.3686C19.3368 14.6754 19.4141 15.0177 19.4141 15.3955C19.4141 15.7733 19.3368 16.1167 19.1824 16.4256C19.03 16.7345 18.7941 16.9808 18.4748 17.1645C18.1554 17.3461 17.7463 17.4369 17.2475 17.4369H15.6945V16.7481H17.2224C17.5668 16.7481 17.8434 16.6886 18.0521 16.5696C18.2608 16.4506 18.4122 16.2899 18.5061 16.0875C18.6021 15.8829 18.6501 15.6523 18.6501 15.3955C18.6501 15.1388 18.6021 14.9092 18.5061 14.7067C18.4122 14.5043 18.2598 14.3456 18.049 14.2308C17.8382 14.1139 17.5585 14.0555 17.2099 14.0555H15.8448V19.7788H15.0683ZM20.932 19.7788V14.9697H21.6459V15.6961H21.696C21.7836 15.4581 21.9423 15.2651 22.1719 15.1169C22.4015 14.9687 22.6603 14.8946 22.9483 14.8946C23.0026 14.8946 23.0704 14.8956 23.1519 14.8977C23.2333 14.8998 23.2948 14.9029 23.3366 14.9071V15.6585C23.3115 15.6523 23.2541 15.6429 23.1644 15.6303C23.0767 15.6157 22.9838 15.6084 22.8857 15.6084C22.6519 15.6084 22.4432 15.6575 22.2595 15.7556C22.0779 15.8516 21.9339 15.9852 21.8275 16.1563C21.7231 16.3254 21.6709 16.5185 21.6709 16.7356V19.7788H20.932ZM26.3871 19.879C25.953 19.879 25.572 19.7757 25.2443 19.569C24.9187 19.3624 24.6641 19.0733 24.4804 18.7018C24.2988 18.3302 24.208 17.8961 24.208 17.3993C24.208 16.8984 24.2988 16.4611 24.4804 16.0875C24.6641 15.7138 24.9187 15.4237 25.2443 15.2171C25.572 15.0104 25.953 14.9071 26.3871 14.9071C26.8213 14.9071 27.2012 15.0104 27.5268 15.2171C27.8545 15.4237 28.1091 15.7138 28.2907 16.0875C28.4744 16.4611 28.5662 16.8984 28.5662 17.3993C28.5662 17.8961 28.4744 18.3302 28.2907 18.7018C28.1091 19.0733 27.8545 19.3624 27.5268 19.569C27.2012 19.7757 26.8213 19.879 26.3871 19.879ZM26.3871 19.2152C26.7169 19.2152 26.9883 19.1307 27.2012 18.9616C27.4141 18.7926 27.5717 18.5703 27.6739 18.2948C27.7762 18.0192 27.8274 17.7208 27.8274 17.3993C27.8274 17.0779 27.7762 16.7783 27.6739 16.5007C27.5717 16.2231 27.4141 15.9987 27.2012 15.8276C26.9883 15.6564 26.7169 15.5709 26.3871 15.5709C26.0573 15.5709 25.786 15.6564 25.5731 15.8276C25.3602 15.9987 25.2026 16.2231 25.1003 16.5007C24.998 16.7783 24.9469 17.0779 24.9469 17.3993C24.9469 17.7208 24.998 18.0192 25.1003 18.2948C25.2026 18.5703 25.3602 18.7926 25.5731 18.9616C25.786 19.1307 26.0573 19.2152 26.3871 19.2152ZM30.0615 14.9697H30.8004V20.1295C30.8004 20.4259 30.7493 20.6826 30.647 20.8997C30.5468 21.1168 30.3944 21.2848 30.1899 21.4038C29.9874 21.5227 29.7317 21.5822 29.4228 21.5822C29.3978 21.5822 29.3727 21.5822 29.3477 21.5822C29.3226 21.5822 29.2976 21.5822 29.2725 21.5822V20.8934C29.2976 20.8934 29.3205 20.8934 29.3414 20.8934C29.3623 20.8934 29.3852 20.8934 29.4103 20.8934C29.6357 20.8934 29.8006 20.8266 29.905 20.693C30.0093 20.5615 30.0615 20.3737 30.0615 20.1295V14.9697ZM30.4247 14.1682C30.2807 14.1682 30.1565 14.1192 30.0521 14.0211C29.9499 13.923 29.8987 13.805 29.8987 13.6673C29.8987 13.5295 29.9499 13.4116 30.0521 13.3135C30.1565 13.2154 30.2807 13.1663 30.4247 13.1663C30.5687 13.1663 30.6919 13.2154 30.7942 13.3135C30.8985 13.4116 30.9507 13.5295 30.9507 13.6673C30.9507 13.805 30.8985 13.923 30.7942 14.0211C30.6919 14.1192 30.5687 14.1682 30.4247 14.1682ZM34.5374 19.879C34.0741 19.879 33.6743 19.7767 33.3383 19.5722C33.0043 19.3655 32.7465 19.0775 32.5649 18.708C32.3854 18.3365 32.2957 17.9044 32.2957 17.4118C32.2957 16.9192 32.3854 16.4851 32.5649 16.1094C32.7465 15.7316 32.9991 15.4373 33.3226 15.2265C33.6482 15.0136 34.0281 14.9071 34.4623 14.9071C34.7128 14.9071 34.9601 14.9488 35.2043 15.0323C35.4485 15.1158 35.6708 15.2515 35.8712 15.4394C36.0716 15.6251 36.2313 15.8714 36.3502 16.1783C36.4692 16.4851 36.5287 16.8629 36.5287 17.3116V17.6247H32.8217V16.986H35.7773C35.7773 16.7147 35.723 16.4726 35.6145 16.2597C35.508 16.0468 35.3556 15.8787 35.1573 15.7556C34.9611 15.6324 34.7295 15.5709 34.4623 15.5709C34.168 15.5709 33.9133 15.6439 33.6983 15.79C33.4854 15.934 33.3216 16.1219 33.2068 16.3536C33.092 16.5853 33.0346 16.8337 33.0346 17.0987V17.5245C33.0346 17.8877 33.0972 18.1956 33.2224 18.4482C33.3498 18.6986 33.5261 18.8896 33.7516 19.0211C33.977 19.1505 34.2389 19.2152 34.5374 19.2152C34.7315 19.2152 34.9069 19.1881 35.0634 19.1338C35.2221 19.0775 35.3588 18.994 35.4736 18.8834C35.5884 18.7707 35.6771 18.6308 35.7397 18.4638L36.4535 18.6642C36.3784 18.9063 36.2521 19.1192 36.0747 19.3029C35.8973 19.4845 35.6781 19.6264 35.4172 19.7287C35.1563 19.8289 34.863 19.879 34.5374 19.879ZM39.9737 19.879C39.5229 19.879 39.1347 19.7725 38.809 19.5596C38.4834 19.3467 38.233 19.0535 38.0576 18.6799C37.8823 18.3062 37.7946 17.8794 37.7946 17.3993C37.7946 16.9109 37.8844 16.4799 38.0639 16.1062C38.2455 15.7305 38.498 15.4373 38.8216 15.2265C39.1472 15.0136 39.5271 14.9071 39.9612 14.9071C40.2994 14.9071 40.6041 14.9697 40.8754 15.095C41.1468 15.2202 41.3691 15.3955 41.5423 15.621C41.7156 15.8464 41.8231 16.1094 41.8648 16.4099H41.1259C41.0696 16.1908 40.9443 15.9967 40.7502 15.8276C40.5582 15.6564 40.2994 15.5709 39.9737 15.5709C39.6857 15.5709 39.4331 15.646 39.2161 15.7963C39.0011 15.9445 38.833 16.1543 38.712 16.4256C38.593 16.6949 38.5335 17.0111 38.5335 17.3743C38.5335 17.7458 38.592 18.0693 38.7089 18.3448C38.8278 18.6204 38.9948 18.8343 39.2098 18.9867C39.4269 19.1391 39.6815 19.2152 39.9737 19.2152C40.1658 19.2152 40.3401 19.1818 40.4966 19.1151C40.6532 19.0483 40.7857 18.9522 40.8942 18.827C41.0028 18.7018 41.08 18.5515 41.1259 18.3762H41.8648C41.8231 18.66 41.7197 18.9157 41.5549 19.1432C41.392 19.3687 41.176 19.5482 40.9068 19.6818C40.6396 19.8132 40.3286 19.879 39.9737 19.879ZM45.4038 14.9697V15.5959H42.9116V14.9697H45.4038ZM43.638 13.8175H44.3769V18.4012C44.3769 18.6099 44.4071 18.7665 44.4676 18.8708C44.5303 18.9731 44.6096 19.042 44.7056 19.0775C44.8037 19.1109 44.907 19.1276 45.0156 19.1276C45.097 19.1276 45.1638 19.1234 45.2159 19.1151C45.2681 19.1046 45.3099 19.0963 45.3412 19.09L45.4915 19.7538C45.4414 19.7725 45.3714 19.7913 45.2817 19.8101C45.1919 19.831 45.0782 19.8414 44.9404 19.8414C44.7317 19.8414 44.5271 19.7966 44.3268 19.7068C44.1285 19.617 43.9636 19.4803 43.8321 19.2966C43.7027 19.113 43.638 18.8813 43.638 18.6016V13.8175ZM49.8299 19.7788V13.3667H50.6063V16.2221H54.0253V13.3667H54.8018V19.7788H54.0253V16.9109H50.6063V19.7788H49.8299ZM58.5771 19.879C58.143 19.879 57.762 19.7757 57.4343 19.569C57.1087 19.3624 56.8541 19.0733 56.6704 18.7018C56.4888 18.3302 56.398 17.8961 56.398 17.3993C56.398 16.8984 56.4888 16.4611 56.6704 16.0875C56.8541 15.7138 57.1087 15.4237 57.4343 15.2171C57.762 15.0104 58.143 14.9071 58.5771 14.9071C59.0113 14.9071 59.3912 15.0104 59.7168 15.2171C60.0445 15.4237 60.2991 15.7138 60.4807 16.0875C60.6644 16.4611 60.7562 16.8984 60.7562 17.3993C60.7562 17.8961 60.6644 18.3302 60.4807 18.7018C60.2991 19.0733 60.0445 19.3624 59.7168 19.569C59.3912 19.7757 59.0113 19.879 58.5771 19.879ZM58.5771 19.2152C58.9069 19.2152 59.1783 19.1307 59.3912 18.9616C59.6041 18.7926 59.7617 18.5703 59.8639 18.2948C59.9662 18.0192 60.0173 17.7208 60.0173 17.3993C60.0173 17.0779 59.9662 16.7783 59.8639 16.5007C59.7617 16.2231 59.6041 15.9987 59.3912 15.8276C59.1783 15.6564 58.9069 15.5709 58.5771 15.5709C58.2473 15.5709 57.976 15.6564 57.7631 15.8276C57.5502 15.9987 57.3926 16.2231 57.2903 16.5007C57.188 16.7783 57.1369 17.0779 57.1369 17.3993C57.1369 17.7208 57.188 18.0192 57.2903 18.2948C57.3926 18.5703 57.5502 18.7926 57.7631 18.9616C57.976 19.1307 58.2473 19.2152 58.5771 19.2152ZM62.2515 19.7788V14.9697H62.9654V15.7211H63.028C63.1282 15.4644 63.2899 15.2651 63.5133 15.1231C63.7366 14.9791 64.0048 14.9071 64.3179 14.9071C64.6352 14.9071 64.8992 14.9791 65.11 15.1231C65.3229 15.2651 65.4889 15.4644 65.6079 15.7211H65.6579C65.7811 15.4728 65.9658 15.2755 66.2121 15.1294C66.4584 14.9812 66.7538 14.9071 67.0982 14.9071C67.5281 14.9071 67.8799 15.0417 68.1533 15.311C68.4267 15.5782 68.5634 15.9946 68.5634 16.5602V19.7788H67.8245V16.5602C67.8245 16.2054 67.7275 15.9518 67.5334 15.7994C67.3392 15.647 67.1107 15.5709 66.8477 15.5709C66.5096 15.5709 66.2476 15.6731 66.0618 15.8777C65.8761 16.0802 65.7832 16.3369 65.7832 16.6479V19.7788H65.0318V16.4851C65.0318 16.2117 64.9431 15.9914 64.7656 15.8245C64.5882 15.6554 64.3597 15.5709 64.08 15.5709C63.8879 15.5709 63.7084 15.622 63.5414 15.7243C63.3766 15.8265 63.243 15.9685 63.1407 16.1501C63.0405 16.3296 62.9904 16.5373 62.9904 16.7731V19.7788H62.2515ZM72.2981 19.879C71.8347 19.879 71.435 19.7767 71.099 19.5722C70.765 19.3655 70.5072 19.0775 70.3256 18.708C70.1461 18.3365 70.0564 17.9044 70.0564 17.4118C70.0564 16.9192 70.1461 16.4851 70.3256 16.1094C70.5072 15.7316 70.7598 15.4373 71.0833 15.2265C71.4089 15.0136 71.7888 14.9071 72.223 14.9071C72.4734 14.9071 72.7208 14.9488 72.965 15.0323C73.2092 15.1158 73.4315 15.2515 73.6319 15.4394C73.8322 15.6251 73.9919 15.8714 74.1109 16.1783C74.2299 16.4851 74.2894 16.8629 74.2894 17.3116V17.6247H70.5824V16.986H73.5379C73.5379 16.7147 73.4837 16.4726 73.3751 16.2597C73.2687 16.0468 73.1163 15.8787 72.918 15.7556C72.7218 15.6324 72.4901 15.5709 72.223 15.5709C71.9286 15.5709 71.674 15.6439 71.459 15.79C71.2461 15.934 71.0823 16.1219 70.9675 16.3536C70.8527 16.5853 70.7953 16.8337 70.7953 17.0987V17.5245C70.7953 17.8877 70.8579 18.1956 70.9831 18.4482C71.1104 18.6986 71.2868 18.8896 71.5122 19.0211C71.7377 19.1505 71.9996 19.2152 72.2981 19.2152C72.4922 19.2152 72.6675 19.1881 72.8241 19.1338C72.9827 19.0775 73.1194 18.994 73.2342 18.8834C73.349 18.7707 73.4377 18.6308 73.5004 18.4638L74.2142 18.6642C74.1391 18.9063 74.0128 19.1192 73.8354 19.3029C73.658 19.4845 73.4388 19.6264 73.1779 19.7287C72.917 19.8289 72.6237 19.879 72.2981 19.879ZM75.7807 21.5822V14.9697H76.4946V15.7337H76.5822C76.6365 15.6502 76.7116 15.5437 76.8077 15.4143C76.9058 15.2828 77.0456 15.1659 77.2272 15.0636C77.4109 14.9593 77.6593 14.9071 77.9724 14.9071C78.3773 14.9071 78.7342 15.0083 79.0431 15.2108C79.352 15.4133 79.5931 15.7003 79.7664 16.0718C79.9396 16.4433 80.0262 16.8817 80.0262 17.3868C80.0262 17.8961 79.9396 18.3375 79.7664 18.7112C79.5931 19.0827 79.3531 19.3707 79.0463 19.5753C78.7394 19.7778 78.3856 19.879 77.9849 19.879C77.676 19.879 77.4286 19.8279 77.2429 19.7256C77.0571 19.6212 76.9141 19.5033 76.8139 19.3718C76.7137 19.2382 76.6365 19.1276 76.5822 19.0399H76.5196V21.5822H75.7807ZM76.5071 17.3743C76.5071 17.7375 76.5603 18.0578 76.6668 18.3355C76.7732 18.611 76.9287 18.827 77.1333 18.9836C77.3378 19.138 77.5883 19.2152 77.8847 19.2152C78.1936 19.2152 78.4514 19.1338 78.658 18.971C78.8668 18.8061 79.0233 18.5849 79.1277 18.3073C79.2341 18.0276 79.2873 17.7166 79.2873 17.3743C79.2873 17.0361 79.2352 16.7314 79.1308 16.46C79.0285 16.1866 78.873 15.9706 78.6643 15.8119C78.4576 15.6512 78.1978 15.5709 77.8847 15.5709C77.5841 15.5709 77.3316 15.647 77.127 15.7994C76.9225 15.9497 76.768 16.1605 76.6636 16.4319C76.5593 16.7011 76.5071 17.0153 76.5071 17.3743ZM82.9359 19.8915C82.6312 19.8915 82.3546 19.8341 82.1062 19.7193C81.8578 19.6024 81.6606 19.4344 81.5145 19.2152C81.3684 18.994 81.2953 18.7268 81.2953 18.4137C81.2953 18.1382 81.3496 17.9149 81.4581 17.7437C81.5666 17.5705 81.7117 17.4348 81.8933 17.3367C82.0749 17.2386 82.2753 17.1655 82.4944 17.1175C82.7157 17.0674 82.938 17.0278 83.1613 16.9986C83.4535 16.961 83.6905 16.9328 83.872 16.914C84.0557 16.8931 84.1893 16.8587 84.2728 16.8107C84.3584 16.7627 84.4012 16.6792 84.4012 16.5602V16.5352C84.4012 16.2263 84.3166 15.9862 84.1476 15.8151C83.9806 15.6439 83.727 15.5583 83.3868 15.5583C83.034 15.5583 82.7574 15.6356 82.5571 15.79C82.3567 15.9445 82.2158 16.1094 82.1344 16.2847L81.4331 16.0342C81.5583 15.742 81.7253 15.5145 81.934 15.3517C82.1448 15.1868 82.3744 15.072 82.6228 15.0073C82.8733 14.9405 83.1196 14.9071 83.3617 14.9071C83.5162 14.9071 83.6936 14.9259 83.894 14.9635C84.0964 14.9989 84.2916 15.073 84.4794 15.1858C84.6694 15.2985 84.827 15.4686 84.9522 15.6961C85.0775 15.9236 85.1401 16.2283 85.1401 16.6103V19.7788H84.4012V19.1276H84.3636C84.3135 19.2319 84.23 19.3436 84.1131 19.4626C83.9962 19.5816 83.8407 19.6828 83.6466 19.7663C83.4525 19.8498 83.2156 19.8915 82.9359 19.8915ZM83.0486 19.2278C83.3408 19.2278 83.5871 19.1704 83.7875 19.0556C83.99 18.9408 84.1423 18.7926 84.2446 18.611C84.349 18.4294 84.4012 18.2384 84.4012 18.038V17.3617C84.3699 17.3993 84.301 17.4338 84.1945 17.4651C84.0902 17.4943 83.9691 17.5204 83.8313 17.5433C83.6957 17.5642 83.5631 17.583 83.4337 17.5997C83.3064 17.6143 83.2031 17.6268 83.1238 17.6373C82.9317 17.6623 82.7522 17.703 82.5852 17.7594C82.4203 17.8136 82.2868 17.8961 82.1845 18.0067C82.0843 18.1152 82.0342 18.2634 82.0342 18.4513C82.0342 18.708 82.1292 18.9022 82.3191 19.0337C82.5111 19.1631 82.7543 19.2278 83.0486 19.2278ZM88.7972 21.6824C88.4403 21.6824 88.1335 21.6365 87.8768 21.5446C87.62 21.4549 87.4061 21.3359 87.2349 21.1877C87.0658 21.0416 86.9312 20.8851 86.831 20.7181L87.4196 20.3048C87.4864 20.3925 87.571 20.4927 87.6732 20.6054C87.7755 20.7202 87.9154 20.8193 88.0928 20.9028C88.2723 20.9884 88.5071 21.0312 88.7972 21.0312C89.1855 21.0312 89.5059 20.9372 89.7584 20.7494C90.011 20.5615 90.1373 20.2672 90.1373 19.8665V18.8896H90.0747C90.0204 18.9773 89.9432 19.0858 89.843 19.2152C89.7449 19.3426 89.6029 19.4563 89.4172 19.5565C89.2335 19.6546 88.9851 19.7037 88.672 19.7037C88.2838 19.7037 87.9352 19.6118 87.6263 19.4281C87.3194 19.2445 87.0763 18.9773 86.8968 18.6266C86.7194 18.276 86.6306 17.8502 86.6306 17.3492C86.6306 16.8566 86.7173 16.4277 86.8905 16.0624C87.0638 15.6951 87.3048 15.4112 87.6138 15.2108C87.9227 15.0083 88.2796 14.9071 88.6845 14.9071C88.9976 14.9071 89.246 14.9593 89.4297 15.0636C89.6155 15.1659 89.7574 15.2828 89.8555 15.4143C89.9557 15.5437 90.0329 15.6502 90.0872 15.7337H90.1623V14.9697H90.8762V19.9166C90.8762 20.3298 90.7822 20.6659 90.5944 20.9247C90.4086 21.1856 90.1581 21.3766 89.843 21.4977C89.5299 21.6208 89.1813 21.6824 88.7972 21.6824ZM88.7722 19.0399C89.0686 19.0399 89.3191 18.9721 89.5236 18.8364C89.7282 18.7007 89.8837 18.5056 89.9901 18.2509C90.0966 17.9963 90.1498 17.6915 90.1498 17.3367C90.1498 16.9902 90.0976 16.6844 89.9933 16.4193C89.8889 16.1543 89.7344 15.9466 89.5299 15.7963C89.3253 15.646 89.0728 15.5709 88.7722 15.5709C88.4591 15.5709 88.1982 15.6502 87.9895 15.8088C87.7828 15.9674 87.6273 16.1803 87.523 16.4475C87.4207 16.7147 87.3695 17.0111 87.3695 17.3367C87.3695 17.6707 87.4217 17.966 87.5261 18.2227C87.6325 18.4774 87.7891 18.6778 87.9957 18.8239C88.2045 18.9679 88.4633 19.0399 88.7722 19.0399ZM94.6124 19.879C94.149 19.879 93.7493 19.7767 93.4133 19.5722C93.0793 19.3655 92.8215 19.0775 92.6399 18.708C92.4604 18.3365 92.3707 17.9044 92.3707 17.4118C92.3707 16.9192 92.4604 16.4851 92.6399 16.1094C92.8215 15.7316 93.0741 15.4373 93.3976 15.2265C93.7232 15.0136 94.1031 14.9071 94.5373 14.9071C94.7877 14.9071 95.0351 14.9488 95.2793 15.0323C95.5235 15.1158 95.7458 15.2515 95.9462 15.4394C96.1465 15.6251 96.3062 15.8714 96.4252 16.1783C96.5442 16.4851 96.6037 16.8629 96.6037 17.3116V17.6247H92.8967V16.986H95.8522C95.8522 16.7147 95.798 16.4726 95.6894 16.2597C95.583 16.0468 95.4306 15.8787 95.2323 15.7556C95.0361 15.6324 94.8044 15.5709 94.5373 15.5709C94.2429 15.5709 93.9883 15.6439 93.7733 15.79C93.5604 15.934 93.3966 16.1219 93.2818 16.3536C93.167 16.5853 93.1096 16.8337 93.1096 17.0987V17.5245C93.1096 17.8877 93.1722 18.1956 93.2974 18.4482C93.4247 18.6986 93.6011 18.8896 93.8265 19.0211C94.052 19.1505 94.3139 19.2152 94.6124 19.2152C94.8065 19.2152 94.9818 19.1881 95.1384 19.1338C95.297 19.0775 95.4337 18.994 95.5485 18.8834C95.6633 18.7707 95.752 18.6308 95.8147 18.4638L96.5285 18.6642C96.4534 18.9063 96.3271 19.1192 96.1497 19.3029C95.9723 19.4845 95.7531 19.6264 95.4922 19.7287C95.2313 19.8289 94.938 19.879 94.6124 19.879Z" fill="#12141D"/>
</svg>
