<svg width="98" height="21" viewBox="0 0 98 21" fill="none" xmlns="http://www.w3.org/2000/svg">
<path d="M0.235472 7.19678V0.784662H1.39704V3.73085H1.47532L3.97692 0.784662H5.39522L2.91554 3.66197L5.41714 7.19678H4.02075L2.10776 4.44783L1.39704 5.28692V7.19678H0.235472ZM7.90335 7.29384C7.5986 7.29384 7.32413 7.23957 7.07992 7.13103C6.83779 7.0204 6.64576 6.85759 6.50383 6.64261C6.36398 6.42762 6.29406 6.16253 6.29406 5.84735C6.29406 5.57601 6.34415 5.35162 6.44434 5.17421C6.54453 4.99679 6.68125 4.85485 6.85449 4.7484C7.02773 4.64195 7.22289 4.56159 7.43997 4.50732C7.65913 4.45096 7.8856 4.41026 8.11938 4.38521C8.40116 4.35599 8.62972 4.3299 8.80505 4.30694C8.98038 4.28189 9.10771 4.24432 9.18702 4.19423C9.26843 4.14205 9.30913 4.06169 9.30913 3.95315V3.93436C9.30913 3.6985 9.2392 3.51586 9.09936 3.38645C8.95951 3.25704 8.75809 3.19234 8.49509 3.19234C8.21748 3.19234 7.99727 3.25287 7.83447 3.37393C7.67375 3.49499 7.56521 3.63797 7.50885 3.80286L6.4506 3.65258C6.53409 3.36036 6.67185 3.11615 6.86388 2.91995C7.05591 2.72165 7.29073 2.57346 7.56834 2.47536C7.84595 2.37517 8.15278 2.32507 8.48883 2.32507C8.72052 2.32507 8.95116 2.35221 9.18076 2.40648C9.41036 2.46075 9.62013 2.5505 9.81007 2.67573C10 2.79888 10.1524 2.96691 10.2672 3.17981C10.3841 3.39271 10.4425 3.65884 10.4425 3.9782V7.19678H9.35296V6.53615H9.31539C9.24651 6.66974 9.14945 6.79498 9.02421 6.91186C8.90106 7.02666 8.74556 7.11955 8.55771 7.19052C8.37194 7.2594 8.15382 7.29384 7.90335 7.29384ZM8.19765 6.46101C8.42517 6.46101 8.62241 6.41614 8.7894 6.32638C8.95638 6.23454 9.08475 6.11348 9.1745 5.9632C9.26634 5.81291 9.31226 5.64906 9.31226 5.47164V4.90495C9.27677 4.93417 9.21624 4.9613 9.13067 4.98635C9.04717 5.0114 8.95325 5.03331 8.84888 5.0521C8.74452 5.07089 8.6412 5.08758 8.53892 5.10219C8.43665 5.11681 8.34794 5.12933 8.27279 5.13977C8.10372 5.16273 7.9524 5.2003 7.81881 5.25248C7.68523 5.30466 7.57982 5.37772 7.50259 5.47164C7.42536 5.56348 7.38675 5.68246 7.38675 5.82857C7.38675 6.03729 7.46293 6.19488 7.6153 6.30134C7.76767 6.40779 7.96179 6.46101 8.19765 6.46101ZM11.9495 7.19678V2.38769H13.0485V3.1892H13.0986C13.1862 2.9116 13.3365 2.69765 13.5494 2.54737C13.7644 2.395 14.0097 2.31881 14.2852 2.31881C14.3478 2.31881 14.4177 2.32194 14.495 2.3282C14.5743 2.33238 14.64 2.33968 14.6922 2.35012V3.39271C14.6442 3.37602 14.568 3.36141 14.4637 3.34888C14.3614 3.33427 14.2622 3.32697 14.1662 3.32697C13.9596 3.32697 13.7738 3.37184 13.6089 3.46159C13.4461 3.54926 13.3177 3.67137 13.2238 3.82791C13.1299 3.98446 13.0829 4.16501 13.0829 4.36956V7.19678H11.9495ZM17.7436 7.2907C17.2614 7.2907 16.845 7.19052 16.4943 6.99014C16.1457 6.78767 15.8775 6.50171 15.6897 6.13227C15.5018 5.76073 15.4079 5.32345 15.4079 4.82041C15.4079 4.32573 15.5018 3.89157 15.6897 3.51795C15.8796 3.14224 16.1447 2.85002 16.4849 2.64129C16.8252 2.43048 17.2249 2.32507 17.6841 2.32507C17.9805 2.32507 18.2602 2.37308 18.5232 2.46909C18.7882 2.56302 19.022 2.70913 19.2245 2.90742C19.429 3.10571 19.5898 3.35827 19.7066 3.6651C19.8235 3.96985 19.882 4.33303 19.882 4.75466V5.10219H15.9401V4.33825H18.7955C18.7935 4.12117 18.7465 3.9281 18.6547 3.75903C18.5628 3.58787 18.4344 3.45325 18.2695 3.35514C18.1067 3.25704 17.9168 3.20799 17.6997 3.20799C17.468 3.20799 17.2645 3.26435 17.0892 3.37706C16.9139 3.48769 16.7771 3.6338 16.679 3.81539C16.583 3.99489 16.534 4.19214 16.5319 4.40713V5.07402C16.5319 5.35371 16.583 5.59375 16.6853 5.79413C16.7876 5.99242 16.9306 6.14479 17.1142 6.25124C17.2979 6.3556 17.5129 6.40779 17.7592 6.40779C17.9241 6.40779 18.0733 6.38483 18.2069 6.33891C18.3405 6.2909 18.4564 6.22098 18.5545 6.12914C18.6526 6.03729 18.7267 5.92354 18.7768 5.78787L19.835 5.90684C19.7682 6.18654 19.6409 6.43075 19.453 6.63947C19.2673 6.84611 19.0293 7.00684 18.7392 7.12164C18.4491 7.23435 18.1172 7.2907 17.7436 7.2907ZM22.3416 4.37895V7.19678H21.2082V2.38769H22.2915V3.20486H22.3478C22.4585 2.9356 22.6348 2.72165 22.877 2.56302C23.1212 2.40439 23.4228 2.32507 23.7818 2.32507C24.1137 2.32507 24.4028 2.39604 24.649 2.53797C24.8974 2.67991 25.0895 2.88551 25.2251 3.15476C25.3629 3.42402 25.4307 3.75068 25.4286 4.13474V7.19678H24.2953V4.31007C24.2953 3.98863 24.2118 3.73712 24.0448 3.55552C23.8799 3.37393 23.6513 3.28313 23.3591 3.28313C23.1608 3.28313 22.9844 3.32697 22.83 3.41463C22.6776 3.50021 22.5576 3.6244 22.4699 3.78721C22.3844 3.95002 22.3416 4.14727 22.3416 4.37895ZM30.3353 0.784662V7.19678H29.5964V0.784662H30.3353ZM34.0723 7.29697C33.6089 7.29697 33.2092 7.19469 32.8732 6.99014C32.5392 6.7835 32.2814 6.49545 32.0998 6.126C31.9203 5.75447 31.8306 5.3224 31.8306 4.82981C31.8306 4.33721 31.9203 3.90305 32.0998 3.52734C32.2814 3.14955 32.534 2.85524 32.8575 2.64443C33.1831 2.43152 33.563 2.32507 33.9972 2.32507C34.2477 2.32507 34.495 2.36682 34.7392 2.45031C34.9834 2.5338 35.2057 2.66947 35.4061 2.85733C35.6065 3.0431 35.7661 3.28939 35.8851 3.59622C36.0041 3.90305 36.0636 4.28085 36.0636 4.72962V5.04271H32.3566V4.404H35.3122C35.3122 4.13265 35.2579 3.89053 35.1494 3.67763C35.0429 3.46473 34.8905 3.2967 34.6922 3.17355C34.496 3.0504 34.2644 2.98883 33.9972 2.98883C33.7029 2.98883 33.4482 3.06188 33.2332 3.20799C33.0203 3.35201 32.8565 3.53987 32.7417 3.77156C32.6269 4.00324 32.5695 4.25163 32.5695 4.51671V4.94252C32.5695 5.3057 32.6321 5.61358 32.7573 5.86614C32.8847 6.11661 33.061 6.3076 33.2865 6.4391C33.5119 6.56851 33.7738 6.63321 34.0723 6.63321C34.2664 6.63321 34.4418 6.60608 34.5983 6.55181C34.757 6.49545 34.8937 6.41196 35.0085 6.30134C35.1233 6.18862 35.212 6.04877 35.2746 5.88179L35.9884 6.08217C35.9133 6.3243 35.787 6.5372 35.6096 6.72088C35.4322 6.90247 35.213 7.04441 34.9521 7.14668C34.6912 7.24687 34.3979 7.29697 34.0723 7.29697ZM38.9701 7.30949C38.6654 7.30949 38.3888 7.25209 38.1404 7.13729C37.892 7.0204 37.6948 6.85238 37.5487 6.63321C37.4026 6.41196 37.3295 6.14479 37.3295 5.8317C37.3295 5.55618 37.3838 5.33284 37.4923 5.16168C37.6009 4.98844 37.7459 4.85276 37.9275 4.75466C38.1091 4.65656 38.3095 4.58351 38.5287 4.5355C38.7499 4.4854 38.9722 4.44575 39.1955 4.41652C39.4878 4.37895 39.7247 4.35077 39.9063 4.33199C40.0899 4.31112 40.2235 4.27668 40.307 4.22867C40.3926 4.18066 40.4354 4.09717 40.4354 3.9782V3.95315C40.4354 3.64423 40.3509 3.40419 40.1818 3.23304C40.0148 3.06188 39.7612 2.9763 39.421 2.9763C39.0682 2.9763 38.7917 3.05353 38.5913 3.20799C38.3909 3.36245 38.25 3.52734 38.1686 3.70268L37.4673 3.4522C37.5925 3.15998 37.7595 2.93247 37.9682 2.76966C38.179 2.60477 38.4086 2.48997 38.657 2.42526C38.9075 2.35847 39.1538 2.32507 39.3959 2.32507C39.5504 2.32507 39.7278 2.34386 39.9282 2.38143C40.1306 2.41691 40.3258 2.49101 40.5137 2.60372C40.7036 2.71644 40.8612 2.88655 40.9864 3.11406C41.1117 3.34158 41.1743 3.64632 41.1743 4.02829V7.19678H40.4354V6.54555H40.3978C40.3477 6.64991 40.2642 6.76158 40.1473 6.88055C40.0305 6.99953 39.875 7.10076 39.6808 7.18425C39.4867 7.26774 39.2498 7.30949 38.9701 7.30949ZM39.0828 6.64574C39.375 6.64574 39.6213 6.58834 39.8217 6.47354C40.0242 6.35874 40.1766 6.21054 40.2788 6.02895C40.3832 5.84735 40.4354 5.65637 40.4354 5.45599V4.77971C40.4041 4.81728 40.3352 4.85172 40.2287 4.88303C40.1244 4.91225 40.0033 4.93834 39.8656 4.9613C39.7299 4.98218 39.5973 5.00096 39.4679 5.01766C39.3406 5.03227 39.2373 5.04479 39.158 5.05523C38.9659 5.08028 38.7864 5.12098 38.6195 5.17734C38.4546 5.23161 38.321 5.31405 38.2187 5.42468C38.1185 5.53322 38.0684 5.68141 38.0684 5.86927C38.0684 6.126 38.1634 6.32012 38.3533 6.45162C38.5454 6.58103 38.7885 6.64574 39.0828 6.64574ZM46.6505 2.38769L44.8722 7.19678H44.1207L42.3424 2.38769H43.1439L44.4714 6.21993H44.5215L45.849 2.38769H46.6505ZM49.8373 7.29697C49.3739 7.29697 48.9742 7.19469 48.6381 6.99014C48.3042 6.7835 48.0464 6.49545 47.8648 6.126C47.6853 5.75447 47.5955 5.3224 47.5955 4.82981C47.5955 4.33721 47.6853 3.90305 47.8648 3.52734C48.0464 3.14955 48.2989 2.85524 48.6225 2.64443C48.9481 2.43152 49.328 2.32507 49.7621 2.32507C50.0126 2.32507 50.2599 2.36682 50.5042 2.45031C50.7484 2.5338 50.9707 2.66947 51.171 2.85733C51.3714 3.0431 51.5311 3.28939 51.6501 3.59622C51.769 3.90305 51.8285 4.28085 51.8285 4.72962V5.04271H48.1215V4.404H51.0771C51.0771 4.13265 51.0228 3.89053 50.9143 3.67763C50.8079 3.46473 50.6555 3.2967 50.4572 3.17355C50.261 3.0504 50.0293 2.98883 49.7621 2.98883C49.4678 2.98883 49.2132 3.06188 48.9982 3.20799C48.7853 3.35201 48.6214 3.53987 48.5066 3.77156C48.3918 4.00324 48.3344 4.25163 48.3344 4.51671V4.94252C48.3344 5.3057 48.397 5.61358 48.5223 5.86614C48.6496 6.11661 48.826 6.3076 49.0514 6.4391C49.2768 6.56851 49.5388 6.63321 49.8373 6.63321C50.0314 6.63321 50.2067 6.60608 50.3633 6.55181C50.5219 6.49545 50.6586 6.41196 50.7734 6.30134C50.8882 6.18862 50.9769 6.04877 51.0395 5.88179L51.7534 6.08217C51.6782 6.3243 51.552 6.5372 51.3745 6.72088C51.1971 6.90247 50.978 7.04441 50.7171 7.14668C50.4561 7.24687 50.1629 7.29697 49.8373 7.29697ZM59.5734 3.46473L58.9096 3.65258C58.8679 3.54195 58.8063 3.43446 58.7249 3.3301C58.6456 3.22365 58.537 3.13598 58.3993 3.0671C58.2615 2.99822 58.0851 2.96378 57.8702 2.96378C57.5758 2.96378 57.3306 3.03162 57.1344 3.16729C56.9403 3.30087 56.8432 3.47099 56.8432 3.67763C56.8432 3.86131 56.91 4.00637 57.0436 4.11283C57.1772 4.21928 57.3859 4.30799 57.6698 4.37895L58.3836 4.55428C58.8136 4.65865 59.134 4.81832 59.3448 5.03331C59.5556 5.24622 59.661 5.52069 59.661 5.85675C59.661 6.13227 59.5817 6.37856 59.4231 6.59564C59.2665 6.81272 59.0474 6.98388 58.7656 7.10911C58.4838 7.23435 58.1561 7.29697 57.7825 7.29697C57.292 7.29697 56.886 7.19052 56.5646 6.97761C56.2431 6.76471 56.0396 6.45371 55.954 6.0446L56.6554 5.86927C56.7222 6.12809 56.8484 6.32221 57.0342 6.45162C57.2221 6.58103 57.4673 6.64574 57.77 6.64574C58.1144 6.64574 58.3878 6.57268 58.5903 6.42657C58.7948 6.27838 58.8971 6.10096 58.8971 5.89432C58.8971 5.72733 58.8387 5.58749 58.7218 5.47477C58.6049 5.35997 58.4254 5.27439 58.1832 5.21804L57.3817 5.03018C56.9413 4.92582 56.6178 4.76406 56.4111 4.54489C56.2066 4.32364 56.1043 4.04708 56.1043 3.7152C56.1043 3.44385 56.1805 3.20382 56.3329 2.99509C56.4873 2.78636 56.6971 2.62251 56.9622 2.50353C57.2294 2.38456 57.532 2.32507 57.8702 2.32507C58.3461 2.32507 58.7197 2.42944 58.991 2.63816C59.2645 2.84689 59.4586 3.12241 59.5734 3.46473ZM63.0943 7.29697C62.6602 7.29697 62.2793 7.19365 61.9516 6.98701C61.6259 6.78037 61.3713 6.49128 61.1876 6.11974C61.006 5.74821 60.9152 5.31405 60.9152 4.81728C60.9152 4.31633 61.006 3.87905 61.1876 3.50543C61.3713 3.1318 61.6259 2.84167 61.9516 2.63503C62.2793 2.42839 62.6602 2.32507 63.0943 2.32507C63.5285 2.32507 63.9084 2.42839 64.234 2.63503C64.5617 2.84167 64.8164 3.1318 64.9979 3.50543C65.1816 3.87905 65.2735 4.31633 65.2735 4.81728C65.2735 5.31405 65.1816 5.74821 64.9979 6.11974C64.8164 6.49128 64.5617 6.78037 64.234 6.98701C63.9084 7.19365 63.5285 7.29697 63.0943 7.29697ZM63.0943 6.63321C63.4241 6.63321 63.6955 6.54868 63.9084 6.37961C64.1213 6.21054 64.2789 5.98824 64.3812 5.71272C64.4834 5.4372 64.5346 5.13872 64.5346 4.81728C64.5346 4.49584 64.4834 4.19632 64.3812 3.91871C64.2789 3.6411 64.1213 3.41672 63.9084 3.24556C63.6955 3.0744 63.4241 2.98883 63.0943 2.98883C62.7646 2.98883 62.4932 3.0744 62.2803 3.24556C62.0674 3.41672 61.9098 3.6411 61.8075 3.91871C61.7053 4.19632 61.6541 4.49584 61.6541 4.81728C61.6541 5.13872 61.7053 5.4372 61.8075 5.71272C61.9098 5.98824 62.0674 6.21054 62.2803 6.37961C62.4932 6.54868 62.7646 6.63321 63.0943 6.63321ZM66.7687 7.19678V2.38769H67.4826V3.13911H67.5452C67.6454 2.88238 67.8072 2.68304 68.0305 2.54111C68.2538 2.39708 68.5221 2.32507 68.8351 2.32507C69.1524 2.32507 69.4164 2.39708 69.6273 2.54111C69.8402 2.68304 70.0061 2.88238 70.1251 3.13911H70.1752C70.2983 2.89072 70.483 2.69348 70.7293 2.54737C70.9756 2.39917 71.271 2.32507 71.6154 2.32507C72.0454 2.32507 72.3971 2.4597 72.6705 2.72896C72.9439 2.99613 73.0807 3.41254 73.0807 3.9782V7.19678H72.3418V3.9782C72.3418 3.62336 72.2447 3.36975 72.0506 3.21738C71.8565 3.06501 71.6279 2.98883 71.3649 2.98883C71.0268 2.98883 70.7648 3.0911 70.5791 3.29566C70.3933 3.49812 70.3004 3.75486 70.3004 4.06586V7.19678H69.549V3.90305C69.549 3.62962 69.4603 3.40941 69.2829 3.24243C69.1054 3.07336 68.8769 2.98883 68.5972 2.98883C68.4052 2.98883 68.2257 3.03996 68.0587 3.14224C67.8938 3.24452 67.7602 3.38645 67.6579 3.56805C67.5577 3.74755 67.5076 3.95524 67.5076 4.1911V7.19678H66.7687ZM76.8153 7.29697C76.3519 7.29697 75.9522 7.19469 75.6162 6.99014C75.2822 6.7835 75.0244 6.49545 74.8428 6.126C74.6633 5.75447 74.5736 5.3224 74.5736 4.82981C74.5736 4.33721 74.6633 3.90305 74.8428 3.52734C75.0244 3.14955 75.277 2.85524 75.6005 2.64443C75.9261 2.43152 76.306 2.32507 76.7402 2.32507C76.9907 2.32507 77.238 2.36682 77.4822 2.45031C77.7264 2.5338 77.9487 2.66947 78.1491 2.85733C78.3495 3.0431 78.5091 3.28939 78.6281 3.59622C78.7471 3.90305 78.8066 4.28085 78.8066 4.72962V5.04271H75.0996V4.404H78.0552C78.0552 4.13265 78.0009 3.89053 77.8924 3.67763C77.7859 3.46473 77.6335 3.2967 77.4352 3.17355C77.239 3.0504 77.0074 2.98883 76.7402 2.98883C76.4459 2.98883 76.1912 3.06188 75.9762 3.20799C75.7633 3.35201 75.5995 3.53987 75.4847 3.77156C75.3699 4.00324 75.3125 4.25163 75.3125 4.51671V4.94252C75.3125 5.3057 75.3751 5.61358 75.5003 5.86614C75.6277 6.11661 75.804 6.3076 76.0295 6.4391C76.2549 6.56851 76.5168 6.63321 76.8153 6.63321C77.0094 6.63321 77.1848 6.60608 77.3413 6.55181C77.4999 6.49545 77.6367 6.41196 77.7515 6.30134C77.8663 6.18862 77.955 6.04877 78.0176 5.88179L78.7314 6.08217C78.6563 6.3243 78.53 6.5372 78.3526 6.72088C78.1752 6.90247 77.956 7.04441 77.6951 7.14668C77.4342 7.24687 77.1409 7.29697 76.8153 7.29697ZM2.233 20.297C1.78214 20.297 1.39391 20.1905 1.0683 19.9776C0.742681 19.7647 0.492207 19.4714 0.316876 19.0978C0.141545 18.7242 0.0538793 18.2974 0.0538793 17.8173C0.0538793 17.3289 0.143632 16.8978 0.323138 16.5242C0.504731 16.1485 0.757292 15.8552 1.08082 15.6444C1.40643 15.4315 1.78632 15.3251 2.22047 15.3251C2.55861 15.3251 2.86335 15.3877 3.1347 15.5129C3.40605 15.6382 3.62834 15.8135 3.80159 16.0389C3.97483 16.2643 4.08232 16.5273 4.12407 16.8279H3.38517C3.32882 16.6087 3.20358 16.4146 3.00946 16.2456C2.81743 16.0744 2.55861 15.9888 2.233 15.9888C1.94495 15.9888 1.69239 16.064 1.47532 16.2143C1.26033 16.3624 1.0923 16.5722 0.971238 16.8436C0.852263 17.1128 0.792775 17.429 0.792775 17.7922C0.792775 18.1638 0.851219 18.4873 0.968107 18.7628C1.08708 19.0383 1.25406 19.2523 1.46905 19.4047C1.68613 19.557 1.94078 19.6332 2.233 19.6332C2.42503 19.6332 2.59931 19.5998 2.75586 19.533C2.91241 19.4662 3.04495 19.3702 3.15349 19.245C3.26202 19.1197 3.33925 18.9695 3.38517 18.7941H4.12407C4.08232 19.078 3.979 19.3337 3.81411 19.5612C3.6513 19.7866 3.43527 19.9661 3.16601 20.0997C2.89884 20.2312 2.58783 20.297 2.233 20.297ZM7.52529 20.297C7.09113 20.297 6.71021 20.1936 6.3825 19.987C6.05689 19.7804 5.80224 19.4913 5.61856 19.1197C5.43697 18.7482 5.34617 18.3141 5.34617 17.8173C5.34617 17.3163 5.43697 16.8791 5.61856 16.5054C5.80224 16.1318 6.05689 15.8417 6.3825 15.635C6.71021 15.4284 7.09113 15.3251 7.52529 15.3251C7.95944 15.3251 8.33933 15.4284 8.66494 15.635C8.99264 15.8417 9.24729 16.1318 9.42888 16.5054C9.61257 16.8791 9.70441 17.3163 9.70441 17.8173C9.70441 18.3141 9.61257 18.7482 9.42888 19.1197C9.24729 19.4913 8.99264 19.7804 8.66494 19.987C8.33933 20.1936 7.95944 20.297 7.52529 20.297ZM7.52529 19.6332C7.85508 19.6332 8.12642 19.5487 8.33933 19.3796C8.55223 19.2105 8.70982 18.9882 8.81209 18.7127C8.91437 18.4372 8.96551 18.1387 8.96551 17.8173C8.96551 17.4958 8.91437 17.1963 8.81209 16.9187C8.70982 16.6411 8.55223 16.4167 8.33933 16.2456C8.12642 16.0744 7.85508 15.9888 7.52529 15.9888C7.1955 15.9888 6.92415 16.0744 6.71125 16.2456C6.49835 16.4167 6.34076 16.6411 6.23848 16.9187C6.1362 17.1963 6.08507 17.4958 6.08507 17.8173C6.08507 18.1387 6.1362 18.4372 6.23848 18.7127C6.34076 18.9882 6.49835 19.2105 6.71125 19.3796C6.92415 19.5487 7.1955 19.6332 7.52529 19.6332ZM11.1997 20.1968V15.3877H11.9135V16.1391H11.9761C12.0763 15.8824 12.2381 15.683 12.4614 15.5411C12.6848 15.3971 12.953 15.3251 13.2661 15.3251C13.5833 15.3251 13.8474 15.3971 14.0582 15.5411C14.2711 15.683 14.437 15.8824 14.556 16.1391H14.6061C14.7293 15.8907 14.914 15.6935 15.1603 15.5474C15.4066 15.3992 15.7019 15.3251 16.0463 15.3251C16.4763 15.3251 16.828 15.4597 17.1015 15.729C17.3749 15.9961 17.5116 16.4125 17.5116 16.9782V20.1968H16.7727V16.9782C16.7727 16.6234 16.6756 16.3698 16.4815 16.2174C16.2874 16.065 16.0589 15.9888 15.7959 15.9888C15.4577 15.9888 15.1958 16.0911 15.01 16.2957C14.8242 16.4981 14.7314 16.7549 14.7314 17.0659V20.1968H13.9799V16.9031C13.9799 16.6296 13.8912 16.4094 13.7138 16.2424C13.5364 16.0734 13.3078 15.9888 13.0281 15.9888C12.8361 15.9888 12.6566 16.04 12.4896 16.1422C12.3247 16.2445 12.1911 16.3865 12.0889 16.568C11.9887 16.7476 11.9386 16.9552 11.9386 17.1911V20.1968H11.1997ZM19.23 20.1968V15.3877H19.9438V16.1391H20.0064C20.1066 15.8824 20.2684 15.683 20.4917 15.5411C20.7151 15.3971 20.9833 15.3251 21.2964 15.3251C21.6136 15.3251 21.8777 15.3971 22.0885 15.5411C22.3014 15.683 22.4673 15.8824 22.5863 16.1391H22.6364C22.7595 15.8907 22.9443 15.6935 23.1906 15.5474C23.4369 15.3992 23.7322 15.3251 24.0766 15.3251C24.5066 15.3251 24.8583 15.4597 25.1317 15.729C25.4052 15.9961 25.5419 16.4125 25.5419 16.9782V20.1968H24.803V16.9782C24.803 16.6234 24.7059 16.3698 24.5118 16.2174C24.3177 16.065 24.0891 15.9888 23.8261 15.9888C23.488 15.9888 23.226 16.0911 23.0403 16.2957C22.8545 16.4981 22.7616 16.7549 22.7616 17.0659V20.1968H22.0102V16.9031C22.0102 16.6296 21.9215 16.4094 21.7441 16.2424C21.5667 16.0734 21.3381 15.9888 21.0584 15.9888C20.8664 15.9888 20.6869 16.04 20.5199 16.1422C20.355 16.2445 20.2214 16.3865 20.1191 16.568C20.0189 16.7476 19.9689 16.9552 19.9689 17.1911V20.1968H19.23ZM29.2765 20.297C28.8132 20.297 28.4135 20.1947 28.0774 19.9901C27.7434 19.7835 27.4857 19.4955 27.3041 19.126C27.1246 18.7545 27.0348 18.3224 27.0348 17.8298C27.0348 17.3372 27.1246 16.9031 27.3041 16.5273C27.4857 16.1495 27.7382 15.8552 28.0617 15.6444C28.3874 15.4315 28.7672 15.3251 29.2014 15.3251C29.4519 15.3251 29.6992 15.3668 29.9434 15.4503C30.1876 15.5338 30.4099 15.6695 30.6103 15.8573C30.8107 16.0431 30.9704 16.2894 31.0893 16.5962C31.2083 16.9031 31.2678 17.2809 31.2678 17.7296V18.0427H27.5608V17.404H30.5164C30.5164 17.1327 30.4621 16.8905 30.3536 16.6776C30.2471 16.4647 30.0948 16.2967 29.8965 16.1736C29.7003 16.0504 29.4686 15.9888 29.2014 15.9888C28.9071 15.9888 28.6524 16.0619 28.4375 16.208C28.2246 16.352 28.0607 16.5399 27.9459 16.7716C27.8311 17.0032 27.7737 17.2516 27.7737 17.5167V17.9425C27.7737 18.3057 27.8363 18.6136 27.9616 18.8661C28.0889 19.1166 28.2653 19.3076 28.4907 19.4391C28.7161 19.5685 28.9781 19.6332 29.2765 19.6332C29.4707 19.6332 29.646 19.6061 29.8025 19.5518C29.9612 19.4955 30.0979 19.412 30.2127 19.3013C30.3275 19.1886 30.4162 19.0488 30.4788 18.8818L31.1927 19.0822C31.1175 19.3243 30.9912 19.5372 30.8138 19.7209C30.6364 19.9025 30.4172 20.0444 30.1563 20.1467C29.8954 20.2469 29.6022 20.297 29.2765 20.297ZM33.4981 17.3038V20.1968H32.7592V15.3877H33.473V16.1391H33.5356C33.6483 15.8949 33.8195 15.6987 34.0491 15.5505C34.2787 15.4002 34.5751 15.3251 34.9383 15.3251C35.2639 15.3251 35.5488 15.3919 35.793 15.5255C36.0372 15.6569 36.2272 15.8573 36.3628 16.1266C36.4985 16.3938 36.5664 16.7319 36.5664 17.141V20.1968H35.8275V17.1911C35.8275 16.8133 35.7294 16.519 35.5332 16.3082C35.337 16.0953 35.0677 15.9888 34.7254 15.9888C34.4895 15.9888 34.2787 16.04 34.0929 16.1422C33.9093 16.2445 33.7642 16.3938 33.6577 16.59C33.5513 16.7862 33.4981 17.0241 33.4981 17.3038ZM40.3754 15.3877V16.0139H37.8832V15.3877H40.3754ZM38.6095 14.2355H39.3484V18.8192C39.3484 19.0279 39.3787 19.1844 39.4392 19.2888C39.5019 19.3911 39.5812 19.46 39.6772 19.4955C39.7753 19.5288 39.8786 19.5455 39.9871 19.5455C40.0686 19.5455 40.1353 19.5414 40.1875 19.533C40.2397 19.5226 40.2815 19.5142 40.3128 19.508L40.463 20.1717C40.413 20.1905 40.343 20.2093 40.2533 20.2281C40.1635 20.249 40.0498 20.2594 39.912 20.2594C39.7033 20.2594 39.4987 20.2145 39.2983 20.1248C39.1001 20.035 38.9352 19.8983 38.8037 19.7146C38.6742 19.5309 38.6095 19.2992 38.6095 19.0196V14.2355ZM45.1745 16.4647L44.5108 16.6526C44.469 16.542 44.4075 16.4345 44.3261 16.3301C44.2468 16.2236 44.1382 16.136 44.0005 16.0671C43.8627 15.9982 43.6863 15.9638 43.4713 15.9638C43.177 15.9638 42.9318 16.0316 42.7356 16.1673C42.5414 16.3009 42.4444 16.471 42.4444 16.6776C42.4444 16.8613 42.5112 17.0064 42.6448 17.1128C42.7784 17.2193 42.9871 17.308 43.271 17.379L43.9848 17.5543C44.4148 17.6586 44.7352 17.8183 44.946 18.0333C45.1568 18.2462 45.2622 18.5207 45.2622 18.8567C45.2622 19.1323 45.1829 19.3786 45.0243 19.5956C44.8677 19.8127 44.6486 19.9839 44.3668 20.1091C44.085 20.2343 43.7573 20.297 43.3837 20.297C42.8932 20.297 42.4872 20.1905 42.1657 19.9776C41.8443 19.7647 41.6408 19.4537 41.5552 19.0446L42.2565 18.8693C42.3233 19.1281 42.4496 19.3222 42.6354 19.4516C42.8232 19.581 43.0685 19.6457 43.3711 19.6457C43.7155 19.6457 43.989 19.5727 44.1914 19.4266C44.396 19.2784 44.4983 19.101 44.4983 18.8943C44.4983 18.7273 44.4398 18.5875 44.3229 18.4748C44.2061 18.36 44.0265 18.2744 43.7844 18.218L42.9829 18.0302C42.5425 17.9258 42.219 17.7641 42.0123 17.5449C41.8078 17.3236 41.7055 17.0471 41.7055 16.7152C41.7055 16.4439 41.7817 16.2038 41.9341 15.9951C42.0885 15.7864 42.2983 15.6225 42.5634 15.5035C42.8305 15.3846 43.1332 15.3251 43.4713 15.3251C43.9472 15.3251 44.3209 15.4294 44.5922 15.6382C44.8656 15.8469 45.0597 16.1224 45.1745 16.4647ZM51.5426 20.297C51.1084 20.297 50.7275 20.1936 50.3998 19.987C50.0742 19.7804 49.8195 19.4913 49.6358 19.1197C49.4542 18.7482 49.3635 18.3141 49.3635 17.8173C49.3635 17.3163 49.4542 16.8791 49.6358 16.5054C49.8195 16.1318 50.0742 15.8417 50.3998 15.635C50.7275 15.4284 51.1084 15.3251 51.5426 15.3251C51.9767 15.3251 52.3566 15.4284 52.6822 15.635C53.0099 15.8417 53.2646 16.1318 53.4462 16.5054C53.6298 16.8791 53.7217 17.3163 53.7217 17.8173C53.7217 18.3141 53.6298 18.7482 53.4462 19.1197C53.2646 19.4913 53.0099 19.7804 52.6822 19.987C52.3566 20.1936 51.9767 20.297 51.5426 20.297ZM51.5426 19.6332C51.8724 19.6332 52.1437 19.5487 52.3566 19.3796C52.5695 19.2105 52.7271 18.9882 52.8294 18.7127C52.9317 18.4372 52.9828 18.1387 52.9828 17.8173C52.9828 17.4958 52.9317 17.1963 52.8294 16.9187C52.7271 16.6411 52.5695 16.4167 52.3566 16.2456C52.1437 16.0744 51.8724 15.9888 51.5426 15.9888C51.2128 15.9888 50.9414 16.0744 50.7285 16.2456C50.5156 16.4167 50.358 16.6411 50.2558 16.9187C50.1535 17.1963 50.1023 17.4958 50.1023 17.8173C50.1023 18.1387 50.1535 18.4372 50.2558 18.7127C50.358 18.9882 50.5156 19.2105 50.7285 19.3796C50.9414 19.5487 51.2128 19.6332 51.5426 19.6332ZM55.9559 17.3038V20.1968H55.217V15.3877H55.9308V16.1391H55.9934C56.1061 15.8949 56.2773 15.6987 56.5069 15.5505C56.7365 15.4002 57.0329 15.3251 57.3961 15.3251C57.7217 15.3251 58.0066 15.3919 58.2508 15.5255C58.495 15.6569 58.685 15.8573 58.8206 16.1266C58.9563 16.3938 59.0242 16.7319 59.0242 17.141V20.1968H58.2853V17.1911C58.2853 16.8133 58.1872 16.519 57.991 16.3082C57.7947 16.0953 57.5255 15.9888 57.1832 15.9888C56.9473 15.9888 56.7365 16.04 56.5507 16.1422C56.3671 16.2445 56.222 16.3938 56.1155 16.59C56.0091 16.7862 55.9559 17.0241 55.9559 17.3038ZM64.4654 13.7847V20.1968H63.689V13.7847H64.4654ZM67.0283 13.7847V20.1968H66.2894V13.7847H67.0283ZM71.7798 18.2306V15.3877H72.5187V20.1968H71.7798V19.3827H71.7297C71.617 19.627 71.4416 19.8346 71.2037 20.0058C70.9657 20.1749 70.6652 20.2594 70.302 20.2594C70.0014 20.2594 69.7342 20.1936 69.5005 20.0621C69.2667 19.9286 69.083 19.7282 68.9494 19.461C68.8158 19.1918 68.749 18.8526 68.749 18.4435V15.3877H69.4879V18.3934C69.4879 18.744 69.586 19.0237 69.7822 19.2325C69.9805 19.4412 70.2331 19.5455 70.5399 19.5455C70.7236 19.5455 70.9104 19.4986 71.1004 19.4047C71.2924 19.3107 71.4531 19.1667 71.5825 18.9726C71.714 18.7785 71.7798 18.5311 71.7798 18.2306ZM77.6458 16.4647L76.982 16.6526C76.9403 16.542 76.8787 16.4345 76.7973 16.3301C76.718 16.2236 76.6095 16.136 76.4717 16.0671C76.3339 15.9982 76.1576 15.9638 75.9426 15.9638C75.6483 15.9638 75.403 16.0316 75.2068 16.1673C75.0127 16.3009 74.9156 16.471 74.9156 16.6776C74.9156 16.8613 74.9824 17.0064 75.116 17.1128C75.2496 17.2193 75.4583 17.308 75.7422 17.379L76.4561 17.5543C76.886 17.6586 77.2064 17.8183 77.4172 18.0333C77.6281 18.2462 77.7335 18.5207 77.7335 18.8567C77.7335 19.1323 77.6542 19.3786 77.4955 19.5956C77.339 19.8127 77.1198 19.9839 76.838 20.1091C76.5562 20.2343 76.2285 20.297 75.8549 20.297C75.3644 20.297 74.9584 20.1905 74.637 19.9776C74.3156 19.7647 74.112 19.4537 74.0265 19.0446L74.7278 18.8693C74.7946 19.1281 74.9209 19.3222 75.1066 19.4516C75.2945 19.581 75.5397 19.6457 75.8424 19.6457C76.1868 19.6457 76.4602 19.5727 76.6627 19.4266C76.8672 19.2784 76.9695 19.101 76.9695 18.8943C76.9695 18.7273 76.9111 18.5875 76.7942 18.4748C76.6773 18.36 76.4978 18.2744 76.2557 18.218L75.4542 18.0302C75.0137 17.9258 74.6902 17.7641 74.4836 17.5449C74.279 17.3236 74.1767 17.0471 74.1767 16.7152C74.1767 16.4439 74.2529 16.2038 74.4053 15.9951C74.5598 15.7864 74.7695 15.6225 75.0346 15.5035C75.3018 15.3846 75.6044 15.3251 75.9426 15.3251C76.4185 15.3251 76.7921 15.4294 77.0635 15.6382C77.3369 15.8469 77.531 16.1224 77.6458 16.4647ZM81.3045 15.3877V16.0139H78.8123V15.3877H81.3045ZM79.5387 14.2355H80.2776V18.8192C80.2776 19.0279 80.3079 19.1844 80.3684 19.2888C80.431 19.3911 80.5103 19.46 80.6063 19.4955C80.7044 19.5288 80.8078 19.5455 80.9163 19.5455C80.9977 19.5455 81.0645 19.5414 81.1167 19.533C81.1689 19.5226 81.2106 19.5142 81.2419 19.508L81.3922 20.1717C81.3421 20.1905 81.2722 20.2093 81.1824 20.2281C81.0927 20.249 80.9789 20.2594 80.8412 20.2594C80.6324 20.2594 80.4279 20.2145 80.2275 20.1248C80.0292 20.035 79.8643 19.8983 79.7328 19.7146C79.6034 19.5309 79.5387 19.2992 79.5387 19.0196V14.2355ZM82.7834 20.1968V15.3877H83.4972V16.1141H83.5473C83.635 15.8761 83.7936 15.683 84.0232 15.5348C84.2528 15.3866 84.5116 15.3125 84.7997 15.3125C84.854 15.3125 84.9218 15.3136 85.0032 15.3157C85.0846 15.3178 85.1462 15.3209 85.1879 15.3251V16.0765C85.1629 16.0702 85.1055 16.0608 85.0157 16.0483C84.928 16.0337 84.8352 16.0264 84.7371 16.0264C84.5033 16.0264 84.2946 16.0754 84.1109 16.1736C83.9293 16.2696 83.7853 16.4032 83.6788 16.5743C83.5744 16.7434 83.5223 16.9365 83.5223 17.1535V20.1968H82.7834ZM87.8463 20.3095C87.5416 20.3095 87.265 20.2521 87.0166 20.1373C86.7682 20.0204 86.571 19.8524 86.4249 19.6332C86.2788 19.412 86.2057 19.1448 86.2057 18.8317C86.2057 18.5562 86.26 18.3328 86.3685 18.1617C86.4771 17.9884 86.6221 17.8528 86.8037 17.7547C86.9853 17.6566 87.1857 17.5835 87.4049 17.5355C87.6261 17.4854 87.8484 17.4457 88.0718 17.4165C88.364 17.379 88.6009 17.3508 88.7825 17.332C88.9662 17.3111 89.0997 17.2767 89.1832 17.2287C89.2688 17.1807 89.3116 17.0972 89.3116 16.9782V16.9531C89.3116 16.6442 89.2271 16.4042 89.058 16.233C88.891 16.0619 88.6374 15.9763 88.2972 15.9763C87.9444 15.9763 87.6679 16.0535 87.4675 16.208C87.2671 16.3624 87.1262 16.5273 87.0448 16.7027L86.3435 16.4522C86.4687 16.16 86.6357 15.9325 86.8444 15.7697C87.0552 15.6048 87.2848 15.49 87.5332 15.4253C87.7837 15.3585 88.03 15.3251 88.2721 15.3251C88.4266 15.3251 88.604 15.3439 88.8044 15.3814C89.0069 15.4169 89.202 15.491 89.3899 15.6037C89.5798 15.7164 89.7374 15.8865 89.8626 16.1141C89.9879 16.3416 90.0505 16.6463 90.0505 17.0283V20.1968H89.3116V19.5455H89.274C89.2239 19.6499 89.1404 19.7616 89.0236 19.8806C88.9067 19.9995 88.7512 20.1008 88.557 20.1843C88.3629 20.2677 88.126 20.3095 87.8463 20.3095ZM87.959 19.6457C88.2513 19.6457 88.4976 19.5883 88.6979 19.4735C88.9004 19.3587 89.0528 19.2105 89.155 19.0289C89.2594 18.8474 89.3116 18.6564 89.3116 18.456V17.7797C89.2803 17.8173 89.2114 17.8517 89.105 17.883C89.0006 17.9123 88.8795 17.9383 88.7418 17.9613C88.6061 17.9822 88.4736 18.001 88.3441 18.0177C88.2168 18.0323 88.1135 18.0448 88.0342 18.0552C87.8422 18.0803 87.6626 18.121 87.4957 18.1773C87.3308 18.2316 87.1972 18.3141 87.0949 18.4247C86.9947 18.5332 86.9446 18.6814 86.9446 18.8693C86.9446 19.126 87.0396 19.3201 87.2295 19.4516C87.4216 19.581 87.6647 19.6457 87.959 19.6457ZM95.1729 16.4647L94.5092 16.6526C94.4674 16.542 94.4059 16.4345 94.3245 16.3301C94.2451 16.2236 94.1366 16.136 93.9988 16.0671C93.8611 15.9982 93.6847 15.9638 93.4697 15.9638C93.1754 15.9638 92.9302 16.0316 92.7339 16.1673C92.5398 16.3009 92.4428 16.471 92.4428 16.6776C92.4428 16.8613 92.5096 17.0064 92.6432 17.1128C92.7767 17.2193 92.9855 17.308 93.2693 17.379L93.9832 17.5543C94.4132 17.6586 94.7336 17.8183 94.9444 18.0333C95.1552 18.2462 95.2606 18.5207 95.2606 18.8567C95.2606 19.1323 95.1813 19.3786 95.0226 19.5956C94.8661 19.8127 94.6469 19.9839 94.3652 20.1091C94.0834 20.2343 93.7557 20.297 93.382 20.297C92.8915 20.297 92.4856 20.1905 92.1641 19.9776C91.8427 19.7647 91.6392 19.4537 91.5536 19.0446L92.2549 18.8693C92.3217 19.1281 92.448 19.3222 92.6338 19.4516C92.8216 19.581 93.0669 19.6457 93.3695 19.6457C93.7139 19.6457 93.9874 19.5727 94.1898 19.4266C94.3944 19.2784 94.4967 19.101 94.4967 18.8943C94.4967 18.7273 94.4382 18.5875 94.3213 18.4748C94.2044 18.36 94.0249 18.2744 93.7828 18.218L92.9813 18.0302C92.5409 17.9258 92.2173 17.7641 92.0107 17.5449C91.8062 17.3236 91.7039 17.0471 91.7039 16.7152C91.7039 16.4439 91.7801 16.2038 91.9324 15.9951C92.0869 15.7864 92.2967 15.6225 92.5617 15.5035C92.8289 15.3846 93.1316 15.3251 93.4697 15.3251C93.9456 15.3251 94.3192 15.4294 94.5906 15.6382C94.864 15.8469 95.0581 16.1224 95.1729 16.4647ZM96.7402 20.1968V15.3877H97.4791V20.1968H96.7402ZM97.1159 14.5862C96.9719 14.5862 96.8477 14.5371 96.7433 14.439C96.6411 14.3409 96.5899 14.223 96.5899 14.0852C96.5899 13.9475 96.6411 13.8295 96.7433 13.7314C96.8477 13.6333 96.9719 13.5843 97.1159 13.5843C97.2599 13.5843 97.3831 13.6333 97.4854 13.7314C97.5897 13.8295 97.6419 13.9475 97.6419 14.0852C97.6419 14.223 97.5897 14.3409 97.4854 14.439C97.3831 14.5371 97.2599 14.5862 97.1159 14.5862Z" fill="#12141D"/>
</svg>
