<svg width="118" height="22" viewBox="0 0 118 22" fill="none" xmlns="http://www.w3.org/2000/svg">
<path d="M1.52082 6.66943H0.280975L2.53836 0.257318H3.97232L6.23285 6.66943H4.993L3.28039 1.5723H3.2303L1.52082 6.66943ZM1.56152 4.15531H4.94291V5.08832H1.56152V4.15531ZM8.52807 3.85161V6.66943H7.39468V1.86035H8.47797V2.67752H8.53433C8.64496 2.40826 8.82133 2.19431 9.06345 2.03568C9.30767 1.87705 9.60928 1.79773 9.96829 1.79773C10.3002 1.79773 10.5893 1.8687 10.8356 2.01063C11.0839 2.15257 11.276 2.35816 11.4116 2.62742C11.5494 2.89668 11.6172 3.22334 11.6152 3.6074V6.66943H10.4818V3.78273C10.4818 3.46129 10.3983 3.20977 10.2313 3.02818C10.0664 2.84659 9.83783 2.75579 9.54562 2.75579C9.34732 2.75579 9.17095 2.79962 9.01649 2.88729C8.86412 2.97287 8.7441 3.09706 8.65644 3.25987C8.57086 3.42267 8.52807 3.61992 8.52807 3.85161ZM14.9193 6.75397C14.5415 6.75397 14.2034 6.65691 13.9049 6.46279C13.6064 6.26868 13.3706 5.98689 13.1973 5.61745C13.0241 5.248 12.9374 4.79923 12.9374 4.27115C12.9374 3.73681 13.0251 3.28596 13.2004 2.9186C13.3779 2.54915 13.6169 2.2705 13.9174 2.08264C14.218 1.8927 14.553 1.79773 14.9224 1.79773C15.2042 1.79773 15.4359 1.84574 15.6175 1.94175C15.7991 2.03568 15.9431 2.14943 16.0496 2.28302C16.156 2.41452 16.2385 2.53871 16.2969 2.6556H16.3439V0.257318H17.4804V6.66943H16.3658V5.91175H16.2969C16.2385 6.02864 16.1539 6.15283 16.0433 6.28433C15.9327 6.41374 15.7866 6.52437 15.605 6.61621C15.4234 6.70805 15.1948 6.75397 14.9193 6.75397ZM15.2355 5.82409C15.4756 5.82409 15.6801 5.75938 15.8492 5.62997C16.0183 5.49847 16.1466 5.31583 16.2343 5.08206C16.322 4.84828 16.3658 4.57589 16.3658 4.26489C16.3658 3.95389 16.322 3.68358 16.2343 3.45398C16.1487 3.22438 16.0214 3.04592 15.8523 2.9186C15.6853 2.79127 15.4797 2.72761 15.2355 2.72761C14.983 2.72761 14.7722 2.79336 14.6031 2.92486C14.434 3.05636 14.3067 3.23795 14.2211 3.46964C14.1355 3.70133 14.0927 3.96641 14.0927 4.26489C14.0927 4.56546 14.1355 4.83367 14.2211 5.06954C14.3088 5.30331 14.4371 5.48803 14.6062 5.62371C14.7774 5.75729 14.9871 5.82409 15.2355 5.82409ZM19.0555 6.66943V1.86035H20.1545V2.66186H20.2046C20.2922 2.38425 20.4425 2.17031 20.6554 2.02002C20.8704 1.86765 21.1157 1.79147 21.3912 1.79147C21.4538 1.79147 21.5237 1.7946 21.6009 1.80086C21.6803 1.80503 21.746 1.81234 21.7982 1.82278V2.86537C21.7502 2.84867 21.674 2.83406 21.5696 2.82154C21.4674 2.80693 21.3682 2.79962 21.2722 2.79962C21.0656 2.79962 20.8798 2.8445 20.7149 2.93425C20.5521 3.02192 20.4237 3.14402 20.3298 3.30057C20.2359 3.45711 20.1889 3.63766 20.1889 3.84222V6.66943H19.0555ZM24.8495 6.76336C24.3674 6.76336 23.951 6.66317 23.6003 6.46279C23.2517 6.26033 22.9835 5.97437 22.7957 5.60492C22.6078 5.23339 22.5139 4.7961 22.5139 4.29307C22.5139 3.79838 22.6078 3.36423 22.7957 2.99061C22.9856 2.6149 23.2507 2.32268 23.5909 2.11395C23.9311 1.90314 24.3308 1.79773 24.79 1.79773C25.0864 1.79773 25.3661 1.84574 25.6291 1.94175C25.8942 2.03568 26.128 2.18179 26.3305 2.38008C26.535 2.57837 26.6957 2.83093 26.8126 3.13776C26.9295 3.4425 26.9879 3.80569 26.9879 4.22732V4.57485H23.0461V3.81091H25.9015C25.8994 3.59383 25.8525 3.40076 25.7606 3.23169C25.6688 3.06053 25.5404 2.9259 25.3755 2.8278C25.2127 2.7297 25.0228 2.68065 24.8057 2.68065C24.574 2.68065 24.3705 2.737 24.1952 2.84972C24.0198 2.96034 23.8831 3.10645 23.785 3.28804C23.689 3.46755 23.64 3.6648 23.6379 3.87979V4.54667C23.6379 4.82637 23.689 5.0664 23.7913 5.26678C23.8936 5.46507 24.0365 5.61745 24.2202 5.7239C24.4039 5.82826 24.6189 5.88044 24.8652 5.88044C25.0301 5.88044 25.1793 5.85748 25.3129 5.81156C25.4465 5.76356 25.5623 5.69363 25.6604 5.60179C25.7585 5.50995 25.8326 5.39619 25.8827 5.26052L26.941 5.3795C26.8742 5.65919 26.7469 5.9034 26.559 6.11213C26.3732 6.31877 26.1353 6.47949 25.8452 6.59429C25.555 6.707 25.2232 6.76336 24.8495 6.76336ZM29.698 6.76649C29.3933 6.76649 29.1188 6.71222 28.8746 6.60368C28.6325 6.49306 28.4404 6.33025 28.2985 6.11526C28.1586 5.90027 28.0887 5.63519 28.0887 5.32001C28.0887 5.04866 28.1388 4.82428 28.239 4.64686C28.3392 4.46944 28.4759 4.32751 28.6492 4.22106C28.8224 4.11461 29.0176 4.03425 29.2346 3.97998C29.4538 3.92362 29.6803 3.88292 29.914 3.85787C30.1958 3.82865 30.4244 3.80256 30.5997 3.7796C30.7751 3.75455 30.9024 3.71698 30.9817 3.66689C31.0631 3.6147 31.1038 3.53434 31.1038 3.4258V3.40702C31.1038 3.17116 31.0339 2.98852 30.894 2.85911C30.7542 2.7297 30.5528 2.66499 30.2898 2.66499C30.0122 2.66499 29.7919 2.72552 29.6291 2.84659C29.4684 2.96765 29.3599 3.11063 29.3035 3.27552L28.2453 3.12524C28.3288 2.83302 28.4665 2.58881 28.6586 2.3926C28.8506 2.19431 29.0854 2.04611 29.363 1.94801C29.6406 1.84782 29.9474 1.79773 30.2835 1.79773C30.5152 1.79773 30.7458 1.82486 30.9754 1.87913C31.205 1.9334 31.4148 2.02315 31.6047 2.14839C31.7947 2.27154 31.9471 2.43957 32.0619 2.65247C32.1787 2.86537 32.2372 3.1315 32.2372 3.45085V6.66943H31.1476V6.00881H31.1101C31.0412 6.1424 30.9441 6.26763 30.8189 6.38452C30.6957 6.49932 30.5402 6.5922 30.3524 6.66317C30.1666 6.73205 29.9485 6.76649 29.698 6.76649ZM29.9923 5.93367C30.2198 5.93367 30.4171 5.88879 30.5841 5.79904C30.751 5.7072 30.8794 5.58614 30.9692 5.43585C31.061 5.28557 31.1069 5.12172 31.1069 4.9443V4.3776C31.0714 4.40683 31.0109 4.43396 30.9253 4.45901C30.8418 4.48405 30.7479 4.50597 30.6436 4.52476C30.5392 4.54354 30.4359 4.56024 30.3336 4.57485C30.2313 4.58946 30.1426 4.60199 30.0675 4.61242C29.8984 4.63538 29.7471 4.67295 29.6135 4.72513C29.4799 4.77732 29.3745 4.85037 29.2973 4.9443C29.22 5.03614 29.1814 5.15511 29.1814 5.30122C29.1814 5.50995 29.2576 5.66754 29.41 5.77399C29.5623 5.88044 29.7565 5.93367 29.9923 5.93367ZM38.3461 6.76962C37.8953 6.76962 37.507 6.66317 37.1814 6.45027C36.8558 6.23737 36.6053 5.9441 36.43 5.57048C36.2547 5.19686 36.167 4.77001 36.167 4.28994C36.167 3.80151 36.2568 3.37049 36.4363 2.99687C36.6179 2.62116 36.8704 2.3279 37.194 2.11708C37.5196 1.90418 37.8995 1.79773 38.3336 1.79773C38.6717 1.79773 38.9765 1.86035 39.2478 1.98558C39.5192 2.11082 39.7415 2.28615 39.9147 2.51158C40.088 2.737 40.1955 3 40.2372 3.30057H39.4983C39.4419 3.0814 39.3167 2.88729 39.1226 2.71822C38.9306 2.54706 38.6717 2.46148 38.3461 2.46148C38.0581 2.46148 37.8055 2.53662 37.5884 2.68691C37.3735 2.83511 37.2054 3.04488 37.0844 3.31622C36.9654 3.58548 36.9059 3.9017 36.9059 4.26489C36.9059 4.63643 36.9644 4.95995 37.0812 5.23547C37.2002 5.51099 37.3672 5.72494 37.5822 5.87731C37.7993 6.02968 38.0539 6.10587 38.3461 6.10587C38.5382 6.10587 38.7124 6.07247 38.869 6.00568C39.0255 5.93889 39.1581 5.84287 39.2666 5.71764C39.3752 5.5924 39.4524 5.44211 39.4983 5.26678H40.2372C40.1955 5.55065 40.0921 5.80634 39.9272 6.03386C39.7644 6.25928 39.5484 6.43879 39.2791 6.57238C39.012 6.70387 38.701 6.76962 38.3461 6.76962ZM42.4236 3.77647V6.66943H41.6847V0.257318H42.4236V2.61177H42.4862C42.599 2.36338 42.768 2.16613 42.9935 2.02002C43.221 1.87183 43.5236 1.79773 43.9014 1.79773C44.2291 1.79773 44.5161 1.86348 44.7624 1.99498C45.0087 2.12439 45.1997 2.32372 45.3354 2.59298C45.4731 2.86015 45.542 3.20038 45.542 3.61366V6.66943H44.8031V3.66375C44.8031 3.28178 44.704 2.98643 44.5057 2.77771C44.3095 2.56689 44.0371 2.46148 43.6885 2.46148C43.4464 2.46148 43.2293 2.51262 43.0373 2.6149C42.8473 2.71717 42.6971 2.86641 42.5864 3.06262C42.4779 3.25882 42.4236 3.49677 42.4236 3.77647ZM48.6763 6.78215C48.3716 6.78215 48.095 6.72475 47.8466 6.60995C47.5982 6.49306 47.401 6.32503 47.2549 6.10587C47.1088 5.88462 47.0357 5.61745 47.0357 5.30435C47.0357 5.02883 47.09 4.80549 47.1985 4.63434C47.3071 4.46109 47.4521 4.32542 47.6337 4.22732C47.8153 4.12922 48.0157 4.05616 48.2349 4.00816C48.4561 3.95806 48.6784 3.9184 48.9017 3.88918C49.194 3.85161 49.4309 3.82343 49.6125 3.80465C49.7961 3.78377 49.9297 3.74933 50.0132 3.70133C50.0988 3.65332 50.1416 3.56983 50.1416 3.45085V3.4258C50.1416 3.11689 50.0571 2.87685 49.888 2.70569C49.721 2.53454 49.4674 2.44896 49.1272 2.44896C48.7744 2.44896 48.4979 2.52619 48.2975 2.68065C48.0971 2.83511 47.9562 3 47.8748 3.17533L47.1735 2.92486C47.2987 2.63264 47.4657 2.40513 47.6744 2.24232C47.8852 2.07742 48.1148 1.96262 48.3632 1.89792C48.6137 1.83113 48.86 1.79773 49.1021 1.79773C49.2566 1.79773 49.434 1.81651 49.6344 1.85408C49.8368 1.88957 50.032 1.96367 50.2199 2.07638C50.4098 2.18909 50.5674 2.35921 50.6926 2.58672C50.8179 2.81423 50.8805 3.11897 50.8805 3.50095V6.66943H50.1416V6.0182H50.104C50.0539 6.12257 49.9704 6.23424 49.8535 6.35321C49.7367 6.47219 49.5812 6.57342 49.387 6.65691C49.1929 6.7404 48.956 6.78215 48.6763 6.78215ZM48.789 6.11839C49.0813 6.11839 49.3276 6.06099 49.5279 5.94619C49.7304 5.83139 49.8828 5.6832 49.985 5.5016C50.0894 5.32001 50.1416 5.12902 50.1416 4.92864V4.25237C50.1103 4.28994 50.0414 4.32438 49.9349 4.35569C49.8306 4.38491 49.7095 4.411 49.5718 4.43396C49.4361 4.45483 49.3035 4.47362 49.1741 4.49032C49.0468 4.50493 48.9435 4.51745 48.8642 4.52789C48.6721 4.55293 48.4926 4.59364 48.3257 4.64999C48.1608 4.70426 48.0272 4.78671 47.9249 4.89734C47.8247 5.00587 47.7746 5.15407 47.7746 5.34193C47.7746 5.59866 47.8696 5.79278 48.0595 5.92428C48.2516 6.05369 48.4947 6.11839 48.789 6.11839ZM53.3354 3.77647V6.66943H52.5965V1.86035H53.3103V2.61177H53.373C53.4857 2.36756 53.6568 2.17135 53.8864 2.02315C54.116 1.87287 54.4124 1.79773 54.7756 1.79773C55.1012 1.79773 55.3861 1.86452 55.6303 1.99811C55.8746 2.12961 56.0645 2.32998 56.2002 2.59924C56.3358 2.86641 56.4037 3.20455 56.4037 3.61366V6.66943H55.6648V3.66375C55.6648 3.28596 55.5667 2.99165 55.3705 2.78084C55.1743 2.56793 54.905 2.46148 54.5627 2.46148C54.3268 2.46148 54.116 2.51262 53.9303 2.6149C53.7466 2.71717 53.6015 2.86641 53.4951 3.06262C53.3886 3.25882 53.3354 3.49677 53.3354 3.77647ZM60.0624 8.57303C59.7055 8.57303 59.3987 8.52711 59.1419 8.43527C58.8852 8.34552 58.6712 8.22654 58.5001 8.07835C58.331 7.93224 58.1964 7.77569 58.0962 7.60871L58.6848 7.19543C58.7516 7.28309 58.8361 7.38328 58.9384 7.496C59.0407 7.6108 59.1805 7.70994 59.358 7.79343C59.5375 7.87901 59.7723 7.9218 60.0624 7.9218C60.4507 7.9218 60.771 7.82787 61.0236 7.64002C61.2762 7.45216 61.4025 7.15786 61.4025 6.7571V5.78025H61.3398C61.2856 5.86792 61.2083 5.97646 61.1081 6.10587C61.01 6.23319 60.8681 6.34695 60.6823 6.44714C60.4987 6.54524 60.2503 6.59429 59.9372 6.59429C59.5489 6.59429 59.2004 6.50245 58.8915 6.31877C58.5846 6.13509 58.3415 5.86792 58.162 5.51726C57.9845 5.16659 57.8958 4.74079 57.8958 4.23984C57.8958 3.74725 57.9824 3.31831 58.1557 2.95304C58.3289 2.58568 58.57 2.30181 58.8789 2.10143C59.1878 1.89896 59.5448 1.79773 59.9497 1.79773C60.2628 1.79773 60.5112 1.84991 60.6949 1.95427C60.8806 2.05655 61.0226 2.17344 61.1207 2.30494C61.2209 2.43435 61.2981 2.5408 61.3524 2.62429H61.4275V1.86035H62.1413V6.80719C62.1413 7.22047 62.0474 7.55653 61.8596 7.81535C61.6738 8.07626 61.4233 8.26724 61.1081 8.38831C60.7951 8.51146 60.4465 8.57303 60.0624 8.57303ZM60.0374 5.93054C60.3338 5.93054 60.5842 5.8627 60.7888 5.72703C60.9933 5.59135 61.1488 5.39619 61.2553 5.14155C61.3617 4.8869 61.415 4.58216 61.415 4.22732C61.415 3.88083 61.3628 3.57505 61.2584 3.30996C61.1541 3.04488 60.9996 2.83719 60.7951 2.68691C60.5905 2.53662 60.3379 2.46148 60.0374 2.46148C59.7243 2.46148 59.4634 2.5408 59.2546 2.69943C59.048 2.85807 58.8925 3.07097 58.7881 3.33814C58.6859 3.60531 58.6347 3.9017 58.6347 4.22732C58.6347 4.56128 58.6869 4.85663 58.7913 5.11337C58.8977 5.36802 59.0543 5.56839 59.2609 5.7145C59.4696 5.85853 59.7285 5.93054 60.0374 5.93054ZM65.8776 6.76962C65.4142 6.76962 65.0145 6.66735 64.6784 6.46279C64.3445 6.25615 64.0867 5.96811 63.9051 5.59866C63.7256 5.22713 63.6358 4.79506 63.6358 4.30246C63.6358 3.80986 63.7256 3.37571 63.9051 3C64.0867 2.6222 64.3393 2.3279 64.6628 2.11708C64.9884 1.90418 65.3683 1.79773 65.8024 1.79773C66.0529 1.79773 66.3002 1.83947 66.5445 1.92296C66.7887 2.00646 67.011 2.14213 67.2113 2.32998C67.4117 2.51575 67.5714 2.76205 67.6904 3.06888C67.8093 3.37571 67.8688 3.75351 67.8688 4.20227V4.51536H64.1618V3.87666H67.1174C67.1174 3.60531 67.0631 3.36319 66.9546 3.15028C66.8482 2.93738 66.6958 2.76936 66.4975 2.64621C66.3013 2.52306 66.0696 2.46148 65.8024 2.46148C65.5081 2.46148 65.2535 2.53454 65.0385 2.68065C64.8256 2.82467 64.6617 3.01252 64.5469 3.24421C64.4321 3.4759 64.3747 3.72429 64.3747 3.98937V4.41517C64.3747 4.77836 64.4374 5.08623 64.5626 5.33879C64.6899 5.58927 64.8663 5.78025 65.0917 5.91175C65.3171 6.04116 65.5791 6.10587 65.8776 6.10587C66.0717 6.10587 66.247 6.07873 66.4036 6.02446C66.5622 5.96811 66.6989 5.88462 66.8137 5.77399C66.9285 5.66128 67.0172 5.52143 67.0798 5.35445L67.7937 5.55483C67.7186 5.79695 67.5923 6.00985 67.4149 6.19353C67.2374 6.37513 67.0183 6.51706 66.7574 6.61934C66.4965 6.71953 66.2032 6.76962 65.8776 6.76962ZM74.2987 1.86035V2.48653H71.8065V1.86035H74.2987ZM72.5329 0.70817H73.2718V5.29183C73.2718 5.50056 73.302 5.6571 73.3626 5.76147C73.4252 5.86374 73.5045 5.93262 73.6005 5.96811C73.6986 6.0015 73.8019 6.0182 73.9105 6.0182C73.9919 6.0182 74.0587 6.01403 74.1108 6.00568C74.163 5.99524 74.2048 5.98689 74.2361 5.98063L74.3864 6.64439C74.3363 6.66317 74.2663 6.68196 74.1766 6.70074C74.0868 6.72162 73.9731 6.73205 73.8353 6.73205C73.6266 6.73205 73.422 6.68718 73.2217 6.59742C73.0234 6.50767 72.8585 6.37095 72.727 6.18727C72.5976 6.00359 72.5329 5.7719 72.5329 5.49221V0.70817ZM76.6197 3.77647V6.66943H75.8809V0.257318H76.6197V2.61177H76.6824C76.7951 2.36338 76.9641 2.16613 77.1896 2.02002C77.4171 1.87183 77.7197 1.79773 78.0975 1.79773C78.4252 1.79773 78.7122 1.86348 78.9585 1.99498C79.2048 2.12439 79.3958 2.32372 79.5315 2.59298C79.6693 2.86015 79.7381 3.20038 79.7381 3.61366V6.66943H78.9992V3.66375C78.9992 3.28178 78.9001 2.98643 78.7018 2.77771C78.5056 2.56689 78.2332 2.46148 77.8846 2.46148C77.6425 2.46148 77.4254 2.51262 77.2334 2.6149C77.0435 2.71717 76.8932 2.86641 76.7826 3.06262C76.674 3.25882 76.6197 3.49677 76.6197 3.77647ZM83.4736 6.76962C83.0102 6.76962 82.6105 6.66735 82.2744 6.46279C81.9405 6.25615 81.6827 5.96811 81.5011 5.59866C81.3216 5.22713 81.2319 4.79506 81.2319 4.30246C81.2319 3.80986 81.3216 3.37571 81.5011 3C81.6827 2.6222 81.9353 2.3279 82.2588 2.11708C82.5844 1.90418 82.9643 1.79773 83.3984 1.79773C83.6489 1.79773 83.8963 1.83947 84.1405 1.92296C84.3847 2.00646 84.607 2.14213 84.8074 2.32998C85.0077 2.51575 85.1674 2.76205 85.2864 3.06888C85.4054 3.37571 85.4648 3.75351 85.4648 4.20227V4.51536H81.7578V3.87666H84.7134C84.7134 3.60531 84.6592 3.36319 84.5506 3.15028C84.4442 2.93738 84.2918 2.76936 84.0935 2.64621C83.8973 2.52306 83.6656 2.46148 83.3984 2.46148C83.1041 2.46148 82.8495 2.53454 82.6345 2.68065C82.4216 2.82467 82.2577 3.01252 82.1429 3.24421C82.0281 3.4759 81.9707 3.72429 81.9707 3.98937V4.41517C81.9707 4.77836 82.0334 5.08623 82.1586 5.33879C82.2859 5.58927 82.4623 5.78025 82.6877 5.91175C82.9132 6.04116 83.1751 6.10587 83.4736 6.10587C83.6677 6.10587 83.843 6.07873 83.9996 6.02446C84.1582 5.96811 84.2949 5.88462 84.4097 5.77399C84.5245 5.66128 84.6132 5.52143 84.6759 5.35445L85.3897 5.55483C85.3146 5.79695 85.1883 6.00985 85.0109 6.19353C84.8334 6.37513 84.6143 6.51706 84.3534 6.61934C84.0925 6.71953 83.7992 6.76962 83.4736 6.76962ZM91.6192 6.76962C91.2184 6.76962 90.8646 6.66839 90.5578 6.46592C90.251 6.26137 90.0109 5.97333 89.8377 5.60179C89.6644 5.22817 89.5778 4.78671 89.5778 4.27741C89.5778 3.77229 89.6644 3.33396 89.8377 2.96243C90.0109 2.59089 90.252 2.30389 90.5609 2.10143C90.8699 1.89896 91.2268 1.79773 91.6317 1.79773C91.9448 1.79773 92.1921 1.84991 92.3737 1.95427C92.5574 2.05655 92.6973 2.17344 92.7933 2.30494C92.8914 2.43435 92.9676 2.5408 93.0218 2.62429H93.0845V0.257318H93.8234V6.66943H93.1095V5.93054H93.0218C92.9676 6.0182 92.8903 6.12883 92.7901 6.26241C92.69 6.39391 92.547 6.51184 92.3612 6.61621C92.1754 6.71848 91.9281 6.76962 91.6192 6.76962ZM91.7194 6.10587C92.0158 6.10587 92.2662 6.02864 92.4708 5.87418C92.6753 5.71764 92.8308 5.5016 92.9373 5.22608C93.0438 4.94847 93.097 4.62808 93.097 4.26489C93.097 3.90588 93.0448 3.59174 92.9404 3.32248C92.8361 3.05114 92.6816 2.84032 92.4771 2.69004C92.2725 2.53767 92.0199 2.46148 91.7194 2.46148C91.4063 2.46148 91.1454 2.54184 90.9366 2.70256C90.73 2.8612 90.5745 3.07723 90.4701 3.35066C90.3679 3.62201 90.3167 3.92675 90.3167 4.26489C90.3167 4.6072 90.3689 4.91821 90.4733 5.1979C90.5797 5.47551 90.7363 5.69676 90.9429 5.86166C91.1516 6.02446 91.4105 6.10587 91.7194 6.10587ZM98.6773 4.70322V1.86035H99.4162V6.66943H98.6773V5.8554H98.6272C98.5145 6.09961 98.3392 6.30729 98.1012 6.47845C97.8633 6.64752 97.5627 6.73205 97.1995 6.73205C96.899 6.73205 96.6318 6.6663 96.398 6.5348C96.1642 6.40122 95.9805 6.20084 95.847 5.93367C95.7134 5.66441 95.6466 5.32523 95.6466 4.91612V1.86035H96.3855V4.86603C96.3855 5.21669 96.4836 5.49638 96.6798 5.70511C96.8781 5.91384 97.1306 6.0182 97.4375 6.0182C97.6211 6.0182 97.808 5.97124 97.9979 5.87731C98.1899 5.78338 98.3507 5.63936 98.4801 5.44525C98.6116 5.25113 98.6773 5.00379 98.6773 4.70322ZM103.153 6.76962C102.69 6.76962 102.29 6.66735 101.954 6.46279C101.62 6.25615 101.362 5.96811 101.181 5.59866C101.001 5.22713 100.911 4.79506 100.911 4.30246C100.911 3.80986 101.001 3.37571 101.181 3C101.362 2.6222 101.615 2.3279 101.938 2.11708C102.264 1.90418 102.644 1.79773 103.078 1.79773C103.329 1.79773 103.576 1.83947 103.82 1.92296C104.064 2.00646 104.287 2.14213 104.487 2.32998C104.687 2.51575 104.847 2.76205 104.966 3.06888C105.085 3.37571 105.144 3.75351 105.144 4.20227V4.51536H101.437V3.87666H104.393C104.393 3.60531 104.339 3.36319 104.23 3.15028C104.124 2.93738 103.971 2.76936 103.773 2.64621C103.577 2.52306 103.345 2.46148 103.078 2.46148C102.784 2.46148 102.529 2.53454 102.314 2.68065C102.101 2.82467 101.937 3.01252 101.823 3.24421C101.708 3.4759 101.65 3.72429 101.65 3.98937V4.41517C101.65 4.77836 101.713 5.08623 101.838 5.33879C101.966 5.58927 102.142 5.78025 102.367 5.91175C102.593 6.04116 102.855 6.10587 103.153 6.10587C103.347 6.10587 103.523 6.07873 103.679 6.02446C103.838 5.96811 103.975 5.88462 104.089 5.77399C104.204 5.66128 104.293 5.52143 104.355 5.35445L105.069 5.55483C104.994 5.79695 104.868 6.00985 104.69 6.19353C104.513 6.37513 104.294 6.51706 104.033 6.61934C103.772 6.71953 103.479 6.76962 103.153 6.76962ZM2.55715 19.7696C2.15639 19.7696 1.8026 19.6684 1.49577 19.4659C1.18894 19.2614 0.948903 18.9733 0.775659 18.6018C0.602415 18.2282 0.515793 17.7867 0.515793 17.2774C0.515793 16.7723 0.602415 16.334 0.775659 15.9624C0.948903 15.5909 1.18998 15.3039 1.4989 15.1014C1.80782 14.899 2.16474 14.7977 2.56967 14.7977C2.88277 14.7977 3.13011 14.8499 3.3117 14.9543C3.49538 15.0566 3.63523 15.1734 3.73124 15.3049C3.82935 15.4343 3.90553 15.5408 3.9598 15.6243H4.02242V13.2573H4.76132V19.6694H4.04747V18.9305H3.9598C3.90553 19.0182 3.8283 19.1288 3.72811 19.2624C3.62792 19.3939 3.48495 19.5118 3.29918 19.6162C3.11341 19.7185 2.86607 19.7696 2.55715 19.7696ZM2.65734 19.1059C2.95373 19.1059 3.20421 19.0286 3.40876 18.8742C3.61331 18.7176 3.76881 18.5016 3.87527 18.2261C3.98172 17.9485 4.03494 17.6281 4.03494 17.2649C4.03494 16.9059 3.98276 16.5917 3.8784 16.3225C3.77403 16.0511 3.61957 15.8403 3.41502 15.69C3.21047 15.5377 2.95791 15.4615 2.65734 15.4615C2.34425 15.4615 2.08334 15.5418 1.87461 15.7026C1.66797 15.8612 1.51247 16.0772 1.4081 16.3507C1.30583 16.622 1.25469 16.9268 1.25469 17.2649C1.25469 17.6072 1.30687 17.9182 1.41124 18.1979C1.51769 18.4755 1.67423 18.6968 1.88087 18.8617C2.0896 19.0245 2.34842 19.1059 2.65734 19.1059ZM7.99973 19.7821C7.69498 19.7821 7.41842 19.7247 7.17003 19.6099C6.92165 19.4931 6.7244 19.325 6.57829 19.1059C6.43218 18.8846 6.35913 18.6174 6.35913 18.3044C6.35913 18.0288 6.41339 17.8055 6.52193 17.6343C6.63047 17.4611 6.77554 17.3254 6.95713 17.2273C7.13872 17.1292 7.3391 17.0562 7.55827 17.0082C7.77952 16.9581 8.00181 16.9184 8.22515 16.8892C8.51737 16.8516 8.75428 16.8234 8.93587 16.8046C9.11955 16.7838 9.25314 16.7493 9.33663 16.7013C9.4222 16.6533 9.46499 16.5698 9.46499 16.4509V16.4258C9.46499 16.1169 9.38046 15.8769 9.21139 15.7057C9.04441 15.5345 8.7908 15.449 8.45058 15.449C8.09783 15.449 7.82126 15.5262 7.62088 15.6806C7.42051 15.8351 7.27961 16 7.19821 16.1753L6.49689 15.9249C6.62212 15.6326 6.7891 15.4051 6.99783 15.2423C7.20865 15.0774 7.43825 14.9626 7.68663 14.8979C7.93711 14.8311 8.18341 14.7977 8.42553 14.7977C8.57999 14.7977 8.75741 14.8165 8.95779 14.8541C9.16025 14.8896 9.35541 14.9637 9.54327 15.0764C9.73321 15.1891 9.8908 15.3592 10.016 15.5867C10.1413 15.8142 10.2039 16.119 10.2039 16.5009V19.6694H9.46499V19.0182H9.42742C9.37733 19.1226 9.29384 19.2342 9.17695 19.3532C9.06006 19.4722 8.90456 19.5734 8.71044 19.6569C8.51633 19.7404 8.27942 19.7821 7.99973 19.7821ZM8.11244 19.1184C8.40466 19.1184 8.65096 19.061 8.85133 18.9462C9.0538 18.8314 9.20617 18.6832 9.30845 18.5016C9.41281 18.32 9.46499 18.129 9.46499 17.9286V17.2524C9.43369 17.2899 9.3648 17.3244 9.25835 17.3557C9.15399 17.3849 9.03293 17.411 8.89517 17.434C8.75949 17.4548 8.62695 17.4736 8.49754 17.4903C8.37022 17.5049 8.2669 17.5175 8.18758 17.5279C7.99555 17.5529 7.81605 17.5936 7.64906 17.65C7.48417 17.7043 7.35058 17.7867 7.24831 17.8973C7.14812 18.0059 7.09802 18.1541 7.09802 18.3419C7.09802 18.5987 7.19299 18.7928 7.38294 18.9243C7.57496 19.0537 7.81813 19.1184 8.11244 19.1184ZM14.0113 14.8603V15.4865H11.5191V14.8603H14.0113ZM12.2455 13.7082H12.9844V18.2918C12.9844 18.5006 13.0147 18.6571 13.0752 18.7615C13.1378 18.8637 13.2171 18.9326 13.3132 18.9681C13.4113 19.0015 13.5146 19.0182 13.6231 19.0182C13.7045 19.0182 13.7713 19.014 13.8235 19.0057C13.8757 18.9952 13.9174 18.9869 13.9487 18.9806L14.099 19.6444C14.0489 19.6632 13.979 19.682 13.8892 19.7007C13.7995 19.7216 13.6857 19.7321 13.548 19.7321C13.3392 19.7321 13.1347 19.6872 12.9343 19.5974C12.736 19.5077 12.5711 19.371 12.4396 19.1873C12.3102 19.0036 12.2455 18.7719 12.2455 18.4922V13.7082ZM17.4548 19.7696C16.9915 19.7696 16.5917 19.6673 16.2557 19.4628C15.9217 19.2562 15.6639 18.9681 15.4824 18.5987C15.3028 18.2271 15.2131 17.7951 15.2131 17.3025C15.2131 16.8099 15.3028 16.3757 15.4824 16C15.6639 15.6222 15.9165 15.3279 16.24 15.1171C16.5657 14.9042 16.9455 14.7977 17.3797 14.7977C17.6302 14.7977 17.8775 14.8395 18.1217 14.923C18.3659 15.0065 18.5882 15.1421 18.7886 15.33C18.989 15.5158 19.1487 15.7621 19.2676 16.0689C19.3866 16.3757 19.4461 16.7535 19.4461 17.2023V17.5154H15.7391V16.8767H18.6947C18.6947 16.6053 18.6404 16.3632 18.5319 16.1503C18.4254 15.9374 18.273 15.7694 18.0748 15.6462C17.8785 15.5231 17.6469 15.4615 17.3797 15.4615C17.0854 15.4615 16.8307 15.5345 16.6157 15.6806C16.4028 15.8247 16.239 16.0125 16.1242 16.2442C16.0094 16.4759 15.952 16.7243 15.952 16.9894V17.4152C15.952 17.7784 16.0146 18.0862 16.1398 18.3388C16.2672 18.5893 16.4435 18.7803 16.669 18.9118C16.8944 19.0412 17.1564 19.1059 17.4548 19.1059C17.6489 19.1059 17.8243 19.0787 17.9808 19.0245C18.1395 18.9681 18.2762 18.8846 18.391 18.774C18.5058 18.6613 18.5945 18.5214 18.6571 18.3544L19.371 18.5548C19.2958 18.797 19.1695 19.0099 18.9921 19.1935C18.8147 19.3751 18.5955 19.5171 18.3346 19.6193C18.0737 19.7195 17.7804 19.7696 17.4548 19.7696ZM25.7382 19.7696C25.304 19.7696 24.9231 19.6663 24.5954 19.4597C24.2698 19.253 24.0151 18.9639 23.8315 18.5924C23.6499 18.2209 23.5591 17.7867 23.5591 17.2899C23.5591 16.789 23.6499 16.3517 23.8315 15.9781C24.0151 15.6045 24.2698 15.3143 24.5954 15.1077C24.9231 14.901 25.304 14.7977 25.7382 14.7977C26.1723 14.7977 26.5522 14.901 26.8778 15.1077C27.2055 15.3143 27.4602 15.6045 27.6418 15.9781C27.8255 16.3517 27.9173 16.789 27.9173 17.2899C27.9173 17.7867 27.8255 18.2209 27.6418 18.5924C27.4602 18.9639 27.2055 19.253 26.8778 19.4597C26.5522 19.6663 26.1723 19.7696 25.7382 19.7696ZM25.7382 19.1059C26.068 19.1059 26.3393 19.0213 26.5522 18.8523C26.7651 18.6832 26.9227 18.4609 27.025 18.1854C27.1273 17.9099 27.1784 17.6114 27.1784 17.2899C27.1784 16.9685 27.1273 16.669 27.025 16.3914C26.9227 16.1138 26.7651 15.8894 26.5522 15.7182C26.3393 15.5471 26.068 15.4615 25.7382 15.4615C25.4084 15.4615 25.1371 15.5471 24.9242 15.7182C24.7113 15.8894 24.5537 16.1138 24.4514 16.3914C24.3491 16.669 24.298 16.9685 24.298 17.2899C24.298 17.6114 24.3491 17.9099 24.4514 18.1854C24.5537 18.4609 24.7113 18.6832 24.9242 18.8523C25.1371 19.0213 25.4084 19.1059 25.7382 19.1059ZM31.5541 14.8603V15.4865H28.9617V14.8603H31.5541ZM29.7382 19.6694V14.1966C29.7382 13.9211 29.8029 13.6915 29.9323 13.5078C30.0617 13.3241 30.2298 13.1864 30.4364 13.0945C30.643 13.0027 30.8612 12.9567 31.0908 12.9567C31.2723 12.9567 31.4205 12.9714 31.5353 13.0006C31.6501 13.0298 31.7357 13.0569 31.7921 13.082L31.5792 13.7207C31.5416 13.7082 31.4894 13.6925 31.4226 13.6737C31.3579 13.6549 31.2723 13.6456 31.1659 13.6456C30.9217 13.6456 30.7453 13.7071 30.6368 13.8303C30.5303 13.9534 30.4771 14.134 30.4771 14.3719V19.6694H29.7382ZM35.9043 19.6694V13.2573H38.0709C38.5739 13.2573 38.9851 13.3481 39.3044 13.5297C39.6259 13.7092 39.8638 13.9524 40.0183 14.2592C40.1728 14.566 40.25 14.9084 40.25 15.2862C40.25 15.6639 40.1728 16.0073 40.0183 16.3162C39.8659 16.6251 39.6301 16.8714 39.3107 17.0551C38.9914 17.2367 38.5823 17.3275 38.0834 17.3275H36.5305V16.6387H38.0583C38.4027 16.6387 38.6793 16.5792 38.888 16.4602C39.0968 16.3413 39.2481 16.1805 39.342 15.9781C39.438 15.7735 39.486 15.5429 39.486 15.2862C39.486 15.0294 39.438 14.7998 39.342 14.5973C39.2481 14.3949 39.0957 14.2363 38.8849 14.1215C38.6741 14.0046 38.3944 13.9461 38.0458 13.9461H36.6807V19.6694H35.9043ZM41.768 19.6694V14.8603H42.4818V15.5867H42.5319C42.6196 15.3488 42.7782 15.1557 43.0078 15.0075C43.2374 14.8593 43.4962 14.7852 43.7843 14.7852C43.8385 14.7852 43.9064 14.7862 43.9878 14.7883C44.0692 14.7904 44.1308 14.7936 44.1725 14.7977V15.5491C44.1475 15.5429 44.0901 15.5335 44.0003 15.521C43.9126 15.5064 43.8198 15.4991 43.7216 15.4991C43.4879 15.4991 43.2791 15.5481 43.0955 15.6462C42.9139 15.7422 42.7698 15.8758 42.6634 16.047C42.559 16.216 42.5069 16.4091 42.5069 16.6262V19.6694H41.768ZM47.2231 19.7696C46.7889 19.7696 46.408 19.6663 46.0803 19.4597C45.7547 19.253 45.5 18.9639 45.3163 18.5924C45.1347 18.2209 45.0439 17.7867 45.0439 17.2899C45.0439 16.789 45.1347 16.3517 45.3163 15.9781C45.5 15.6045 45.7547 15.3143 46.0803 15.1077C46.408 14.901 46.7889 14.7977 47.2231 14.7977C47.6572 14.7977 48.0371 14.901 48.3627 15.1077C48.6904 15.3143 48.9451 15.6045 49.1267 15.9781C49.3103 16.3517 49.4022 16.789 49.4022 17.2899C49.4022 17.7867 49.3103 18.2209 49.1267 18.5924C48.9451 18.9639 48.6904 19.253 48.3627 19.4597C48.0371 19.6663 47.6572 19.7696 47.2231 19.7696ZM47.2231 19.1059C47.5528 19.1059 47.8242 19.0213 48.0371 18.8523C48.25 18.6832 48.4076 18.4609 48.5099 18.1854C48.6121 17.9099 48.6633 17.6114 48.6633 17.2899C48.6633 16.9685 48.6121 16.669 48.5099 16.3914C48.4076 16.1138 48.25 15.8894 48.0371 15.7182C47.8242 15.5471 47.5528 15.4615 47.2231 15.4615C46.8933 15.4615 46.6219 15.5471 46.409 15.7182C46.1961 15.8894 46.0385 16.1138 45.9362 16.3914C45.834 16.669 45.7828 16.9685 45.7828 17.2899C45.7828 17.6114 45.834 17.9099 45.9362 18.1854C46.0385 18.4609 46.1961 18.6832 46.409 18.8523C46.6219 19.0213 46.8933 19.1059 47.2231 19.1059ZM50.8974 14.8603H51.6363V20.0201C51.6363 20.3165 51.5852 20.5732 51.4829 20.7903C51.3827 21.0074 51.2304 21.1754 51.0258 21.2944C50.8233 21.4134 50.5677 21.4728 50.2587 21.4728C50.2337 21.4728 50.2086 21.4728 50.1836 21.4728C50.1586 21.4728 50.1335 21.4728 50.1085 21.4728V20.784C50.1335 20.784 50.1565 20.784 50.1773 20.784C50.1982 20.784 50.2212 20.784 50.2462 20.784C50.4716 20.784 50.6365 20.7172 50.7409 20.5837C50.8453 20.4522 50.8974 20.2643 50.8974 20.0201V14.8603ZM51.2606 14.0588C51.1166 14.0588 50.9924 14.0098 50.8881 13.9117C50.7858 13.8136 50.7346 13.6956 50.7346 13.5579C50.7346 13.4201 50.7858 13.3022 50.8881 13.2041C50.9924 13.106 51.1166 13.0569 51.2606 13.0569C51.4047 13.0569 51.5278 13.106 51.6301 13.2041C51.7344 13.3022 51.7866 13.4201 51.7866 13.5579C51.7866 13.6956 51.7344 13.8136 51.6301 13.9117C51.5278 14.0098 51.4047 14.0588 51.2606 14.0588ZM55.3734 19.7696C54.91 19.7696 54.5103 19.6673 54.1742 19.4628C53.8402 19.2562 53.5825 18.9681 53.4009 18.5987C53.2214 18.2271 53.1316 17.7951 53.1316 17.3025C53.1316 16.8099 53.2214 16.3757 53.4009 16C53.5825 15.6222 53.835 15.3279 54.1586 15.1171C54.4842 14.9042 54.8641 14.7977 55.2982 14.7977C55.5487 14.7977 55.796 14.8395 56.0402 14.923C56.2844 15.0065 56.5067 15.1421 56.7071 15.33C56.9075 15.5158 57.0672 15.7621 57.1862 16.0689C57.3051 16.3757 57.3646 16.7535 57.3646 17.2023V17.5154H53.6576V16.8767H56.6132C56.6132 16.6053 56.5589 16.3632 56.4504 16.1503C56.3439 15.9374 56.1916 15.7694 55.9933 15.6462C55.7971 15.5231 55.5654 15.4615 55.2982 15.4615C55.0039 15.4615 54.7493 15.5345 54.5343 15.6806C54.3214 15.8247 54.1575 16.0125 54.0427 16.2442C53.9279 16.4759 53.8705 16.7243 53.8705 16.9894V17.4152C53.8705 17.7784 53.9331 18.0862 54.0584 18.3388C54.1857 18.5893 54.3621 18.7803 54.5875 18.9118C54.8129 19.0412 55.0749 19.1059 55.3734 19.1059C55.5675 19.1059 55.7428 19.0787 55.8993 19.0245C56.058 18.9681 56.1947 18.8846 56.3095 18.774C56.4243 18.6613 56.513 18.5214 56.5756 18.3544L57.2895 18.5548C57.2143 18.797 57.088 19.0099 56.9106 19.1935C56.7332 19.3751 56.514 19.5171 56.2531 19.6193C55.9922 19.7195 55.699 19.7696 55.3734 19.7696ZM60.8097 19.7696C60.3588 19.7696 59.9706 19.6632 59.645 19.4503C59.3193 19.2374 59.0689 18.9441 58.8935 18.5705C58.7182 18.1969 58.6305 17.77 58.6305 17.2899C58.6305 16.8015 58.7203 16.3705 58.8998 15.9969C59.0814 15.6212 59.334 15.3279 59.6575 15.1171C59.9831 14.9042 60.363 14.7977 60.7971 14.7977C61.1353 14.7977 61.44 14.8603 61.7114 14.9856C61.9827 15.1108 62.205 15.2862 62.3783 15.5116C62.5515 15.737 62.659 16 62.7007 16.3006H61.9618C61.9055 16.0814 61.7802 15.8873 61.5861 15.7182C61.3941 15.5471 61.1353 15.4615 60.8097 15.4615C60.5216 15.4615 60.2691 15.5366 60.052 15.6869C59.837 15.8351 59.669 16.0449 59.5479 16.3162C59.4289 16.5855 59.3694 16.9017 59.3694 17.2649C59.3694 17.6364 59.4279 17.96 59.5448 18.2355C59.6637 18.511 59.8307 18.7249 60.0457 18.8773C60.2628 19.0297 60.5174 19.1059 60.8097 19.1059C61.0017 19.1059 61.176 19.0725 61.3325 19.0057C61.4891 18.9389 61.6216 18.8429 61.7302 18.7176C61.8387 18.5924 61.9159 18.4421 61.9618 18.2668H62.7007C62.659 18.5507 62.5557 18.8063 62.3908 19.0339C62.228 19.2593 62.0119 19.4388 61.7427 19.5724C61.4755 19.7039 61.1645 19.7696 60.8097 19.7696ZM66.2397 14.8603V15.4865H63.7475V14.8603H66.2397ZM64.4739 13.7082H65.2128V18.2918C65.2128 18.5006 65.243 18.6571 65.3036 18.7615C65.3662 18.8637 65.4455 18.9326 65.5415 18.9681C65.6396 19.0015 65.7429 19.0182 65.8515 19.0182C65.9329 19.0182 65.9997 19.014 66.0519 19.0057C66.104 18.9952 66.1458 18.9869 66.1771 18.9806L66.3274 19.6444C66.2773 19.6632 66.2074 19.682 66.1176 19.7007C66.0279 19.7216 65.9141 19.7321 65.7763 19.7321C65.5676 19.7321 65.3631 19.6872 65.1627 19.5974C64.9644 19.5077 64.7995 19.371 64.668 19.1873C64.5386 19.0036 64.4739 18.7719 64.4739 18.4922V13.7082ZM70.6658 19.6694V13.2573H71.4423V16.1127H74.8612V13.2573H75.6377V19.6694H74.8612V16.8015H71.4423V19.6694H70.6658ZM79.413 19.7696C78.9789 19.7696 78.598 19.6663 78.2703 19.4597C77.9446 19.253 77.69 18.9639 77.5063 18.5924C77.3247 18.2209 77.2339 17.7867 77.2339 17.2899C77.2339 16.789 77.3247 16.3517 77.5063 15.9781C77.69 15.6045 77.9446 15.3143 78.2703 15.1077C78.598 14.901 78.9789 14.7977 79.413 14.7977C79.8472 14.7977 80.2271 14.901 80.5527 15.1077C80.8804 15.3143 81.135 15.6045 81.3166 15.9781C81.5003 16.3517 81.5922 16.789 81.5922 17.2899C81.5922 17.7867 81.5003 18.2209 81.3166 18.5924C81.135 18.9639 80.8804 19.253 80.5527 19.4597C80.2271 19.6663 79.8472 19.7696 79.413 19.7696ZM79.413 19.1059C79.7428 19.1059 80.0142 19.0213 80.2271 18.8523C80.44 18.6832 80.5976 18.4609 80.6998 18.1854C80.8021 17.9099 80.8533 17.6114 80.8533 17.2899C80.8533 16.9685 80.8021 16.669 80.6998 16.3914C80.5976 16.1138 80.44 15.8894 80.2271 15.7182C80.0142 15.5471 79.7428 15.4615 79.413 15.4615C79.0833 15.4615 78.8119 15.5471 78.599 15.7182C78.3861 15.8894 78.2285 16.1138 78.1262 16.3914C78.024 16.669 77.9728 16.9685 77.9728 17.2899C77.9728 17.6114 78.024 17.9099 78.1262 18.1854C78.2285 18.4609 78.3861 18.6832 78.599 18.8523C78.8119 19.0213 79.0833 19.1059 79.413 19.1059ZM83.0874 19.6694V14.8603H83.8013V15.6118H83.8639C83.9641 15.355 84.1259 15.1557 84.3492 15.0138C84.5725 14.8697 84.8407 14.7977 85.1538 14.7977C85.4711 14.7977 85.7351 14.8697 85.946 15.0138C86.1589 15.1557 86.3248 15.355 86.4438 15.6118H86.4939C86.617 15.3634 86.8017 15.1661 87.048 15.02C87.2943 14.8718 87.5897 14.7977 87.9341 14.7977C88.3641 14.7977 88.7158 14.9324 88.9892 15.2016C89.2626 15.4688 89.3994 15.8852 89.3994 16.4509V19.6694H88.6605V16.4509C88.6605 16.096 88.5634 15.8424 88.3693 15.69C88.1752 15.5377 87.9466 15.4615 87.6836 15.4615C87.3455 15.4615 87.0835 15.5638 86.8978 15.7683C86.712 15.9708 86.6191 16.2275 86.6191 16.5385V19.6694H85.8677V16.3757C85.8677 16.1023 85.779 15.8821 85.6016 15.7151C85.4241 15.546 85.1956 15.4615 84.9159 15.4615C84.7239 15.4615 84.5444 15.5126 84.3774 15.6149C84.2125 15.7172 84.0789 15.8591 83.9766 16.0407C83.8764 16.2202 83.8263 16.4279 83.8263 16.6638V19.6694H83.0874ZM93.134 19.7696C92.6706 19.7696 92.2709 19.6673 91.9349 19.4628C91.6009 19.2562 91.3431 18.9681 91.1615 18.5987C90.982 18.2271 90.8923 17.7951 90.8923 17.3025C90.8923 16.8099 90.982 16.3757 91.1615 16C91.3431 15.6222 91.5957 15.3279 91.9192 15.1171C92.2448 14.9042 92.6247 14.7977 93.0589 14.7977C93.3094 14.7977 93.5567 14.8395 93.8009 14.923C94.0451 15.0065 94.2674 15.1421 94.4678 15.33C94.6682 15.5158 94.8279 15.7621 94.9468 16.0689C95.0658 16.3757 95.1253 16.7535 95.1253 17.2023V17.5154H91.4183V16.8767H94.3739C94.3739 16.6053 94.3196 16.3632 94.2111 16.1503C94.1046 15.9374 93.9522 15.7694 93.7539 15.6462C93.5577 15.5231 93.3261 15.4615 93.0589 15.4615C92.7646 15.4615 92.5099 15.5345 92.2949 15.6806C92.082 15.8247 91.9182 16.0125 91.8034 16.2442C91.6886 16.4759 91.6312 16.7243 91.6312 16.9894V17.4152C91.6312 17.7784 91.6938 18.0862 91.819 18.3388C91.9464 18.5893 92.1227 18.7803 92.3482 18.9118C92.5736 19.0412 92.8355 19.1059 93.134 19.1059C93.3281 19.1059 93.5035 19.0787 93.66 19.0245C93.8187 18.9681 93.9554 18.8846 94.0702 18.774C94.185 18.6613 94.2737 18.5214 94.3363 18.3544L95.0501 18.5548C94.975 18.797 94.8487 19.0099 94.6713 19.1935C94.4939 19.3751 94.2747 19.5171 94.0138 19.6193C93.7529 19.7195 93.4596 19.7696 93.134 19.7696ZM96.6166 21.4728V14.8603H97.3305V15.6243H97.4182C97.4724 15.5408 97.5476 15.4343 97.6436 15.3049C97.7417 15.1734 97.8815 15.0566 98.0631 14.9543C98.2468 14.8499 98.4952 14.7977 98.8083 14.7977C99.2132 14.7977 99.5701 14.899 99.8791 15.1014C100.188 15.3039 100.429 15.5909 100.602 15.9624C100.776 16.334 100.862 16.7723 100.862 17.2774C100.862 17.7867 100.776 18.2282 100.602 18.6018C100.429 18.9733 100.189 19.2614 99.8822 19.4659C99.5754 19.6684 99.2216 19.7696 98.8208 19.7696C98.5119 19.7696 98.2646 19.7185 98.0788 19.6162C97.893 19.5118 97.75 19.3939 97.6498 19.2624C97.5497 19.1288 97.4724 19.0182 97.4182 18.9305H97.3555V21.4728H96.6166ZM97.343 17.2649C97.343 17.6281 97.3962 17.9485 97.5027 18.2261C97.6091 18.5016 97.7646 18.7176 97.9692 18.8742C98.1738 19.0286 98.4242 19.1059 98.7206 19.1059C99.0295 19.1059 99.2873 19.0245 99.494 18.8617C99.7027 18.6968 99.8592 18.4755 99.9636 18.1979C100.07 17.9182 100.123 17.6072 100.123 17.2649C100.123 16.9268 100.071 16.622 99.9667 16.3507C99.8645 16.0772 99.7089 15.8612 99.5002 15.7026C99.2936 15.5418 99.0337 15.4615 98.7206 15.4615C98.4201 15.4615 98.1675 15.5377 97.9629 15.69C97.7584 15.8403 97.6039 16.0511 97.4996 16.3225C97.3952 16.5917 97.343 16.9059 97.343 17.2649ZM103.772 19.7821C103.467 19.7821 103.191 19.7247 102.942 19.6099C102.694 19.4931 102.497 19.325 102.35 19.1059C102.204 18.8846 102.131 18.6174 102.131 18.3044C102.131 18.0288 102.186 17.8055 102.294 17.6343C102.403 17.4611 102.548 17.3254 102.729 17.2273C102.911 17.1292 103.111 17.0562 103.33 17.0082C103.552 16.9581 103.774 16.9184 103.997 16.8892C104.289 16.8516 104.526 16.8234 104.708 16.8046C104.892 16.7838 105.025 16.7493 105.109 16.7013C105.194 16.6533 105.237 16.5698 105.237 16.4509V16.4258C105.237 16.1169 105.153 15.8769 104.983 15.7057C104.817 15.5345 104.563 15.449 104.223 15.449C103.87 15.449 103.593 15.5262 103.393 15.6806C103.193 15.8351 103.052 16 102.97 16.1753L102.269 15.9249C102.394 15.6326 102.561 15.4051 102.77 15.2423C102.981 15.0774 103.21 14.9626 103.459 14.8979C103.709 14.8311 103.956 14.7977 104.198 14.7977C104.352 14.7977 104.53 14.8165 104.73 14.8541C104.932 14.8896 105.128 14.9637 105.315 15.0764C105.505 15.1891 105.663 15.3592 105.788 15.5867C105.913 15.8142 105.976 16.119 105.976 16.5009V19.6694H105.237V19.0182H105.2C105.149 19.1226 105.066 19.2342 104.949 19.3532C104.832 19.4722 104.677 19.5734 104.483 19.6569C104.288 19.7404 104.052 19.7821 103.772 19.7821ZM103.885 19.1184C104.177 19.1184 104.423 19.061 104.623 18.9462C104.826 18.8314 104.978 18.6832 105.081 18.5016C105.185 18.32 105.237 18.129 105.237 17.9286V17.2524C105.206 17.2899 105.137 17.3244 105.03 17.3557C104.926 17.3849 104.805 17.411 104.667 17.434C104.532 17.4548 104.399 17.4736 104.27 17.4903C104.142 17.5049 104.039 17.5175 103.96 17.5279C103.768 17.5529 103.588 17.5936 103.421 17.65C103.256 17.7043 103.123 17.7867 103.02 17.8973C102.92 18.0059 102.87 18.1541 102.87 18.3419C102.87 18.5987 102.965 18.7928 103.155 18.9243C103.347 19.0537 103.59 19.1184 103.885 19.1184ZM109.633 21.573C109.276 21.573 108.969 21.5271 108.713 21.4353C108.456 21.3455 108.242 21.2265 108.071 21.0783C107.902 20.9322 107.767 20.7757 107.667 20.6087L108.256 20.1954C108.322 20.2831 108.407 20.3833 108.509 20.496C108.611 20.6108 108.751 20.7099 108.929 20.7934C109.108 20.879 109.343 20.9218 109.633 20.9218C110.021 20.9218 110.342 20.8279 110.594 20.64C110.847 20.4522 110.973 20.1579 110.973 19.7571V18.7803H110.911C110.856 18.8679 110.779 18.9765 110.679 19.1059C110.581 19.2332 110.439 19.3469 110.253 19.4471C110.069 19.5452 109.821 19.5943 109.508 19.5943C109.12 19.5943 108.771 19.5025 108.462 19.3188C108.155 19.1351 107.912 18.8679 107.733 18.5173C107.555 18.1666 107.467 17.7408 107.467 17.2398C107.467 16.7472 107.553 16.3183 107.726 15.953C107.9 15.5857 108.141 15.3018 108.45 15.1014C108.759 14.899 109.116 14.7977 109.52 14.7977C109.834 14.7977 110.082 14.8499 110.266 14.9543C110.451 15.0566 110.593 15.1734 110.691 15.3049C110.792 15.4343 110.869 15.5408 110.923 15.6243H110.998V14.8603H111.712V19.8072C111.712 20.2205 111.618 20.5565 111.43 20.8153C111.245 21.0763 110.994 21.2672 110.679 21.3883C110.366 21.5115 110.017 21.573 109.633 21.573ZM109.608 18.9305C109.905 18.9305 110.155 18.8627 110.36 18.727C110.564 18.5914 110.72 18.3962 110.826 18.1415C110.932 17.8869 110.986 17.5822 110.986 17.2273C110.986 16.8808 110.934 16.575 110.829 16.31C110.725 16.0449 110.57 15.8372 110.366 15.6869C110.161 15.5366 109.909 15.4615 109.608 15.4615C109.295 15.4615 109.034 15.5408 108.825 15.6994C108.619 15.8581 108.463 16.071 108.359 16.3381C108.257 16.6053 108.205 16.9017 108.205 17.2273C108.205 17.5613 108.258 17.8566 108.362 18.1134C108.468 18.368 108.625 18.5684 108.832 18.7145C109.04 18.8585 109.299 18.9305 109.608 18.9305ZM115.448 19.7696C114.985 19.7696 114.585 19.6673 114.249 19.4628C113.915 19.2562 113.657 18.9681 113.476 18.5987C113.296 18.2271 113.207 17.7951 113.207 17.3025C113.207 16.8099 113.296 16.3757 113.476 16C113.657 15.6222 113.91 15.3279 114.234 15.1171C114.559 14.9042 114.939 14.7977 115.373 14.7977C115.624 14.7977 115.871 14.8395 116.115 14.923C116.359 15.0065 116.582 15.1421 116.782 15.33C116.982 15.5158 117.142 15.7621 117.261 16.0689C117.38 16.3757 117.44 16.7535 117.44 17.2023V17.5154H113.733V16.8767H116.688C116.688 16.6053 116.634 16.3632 116.525 16.1503C116.419 15.9374 116.267 15.7694 116.068 15.6462C115.872 15.5231 115.64 15.4615 115.373 15.4615C115.079 15.4615 114.824 15.5345 114.609 15.6806C114.396 15.8247 114.232 16.0125 114.118 16.2442C114.003 16.4759 113.945 16.7243 113.945 16.9894V17.4152C113.945 17.7784 114.008 18.0862 114.133 18.3388C114.261 18.5893 114.437 18.7803 114.662 18.9118C114.888 19.0412 115.15 19.1059 115.448 19.1059C115.642 19.1059 115.818 19.0787 115.974 19.0245C116.133 18.9681 116.27 18.8846 116.384 18.774C116.499 18.6613 116.588 18.5214 116.651 18.3544L117.364 18.5548C117.289 18.797 117.163 19.0099 116.986 19.1935C116.808 19.3751 116.589 19.5171 116.328 19.6193C116.067 19.7195 115.774 19.7696 115.448 19.7696Z" fill="#12141D"/>
</svg>
