<svg width="12" height="12" viewBox="0 0 12 12" fill="none" xmlns="http://www.w3.org/2000/svg">
<g id="IONIcon/N/notifications/default">
<path id="Vector" d="M10.3143 7.9992C10.2754 7.95233 10.2372 7.90545 10.1997 7.86022C9.68408 7.23655 9.37213 6.86014 9.37213 5.0946C9.37213 4.18053 9.15346 3.43054 8.72244 2.86804C8.40463 2.45249 7.97502 2.13725 7.40877 1.90429C7.40148 1.90023 7.39498 1.89492 7.38955 1.88858C7.18588 1.20655 6.62854 0.749756 5.99994 0.749756C5.37135 0.749756 4.81424 1.20655 4.61057 1.88788C4.60513 1.89398 4.59872 1.89913 4.59159 1.90311C3.27018 2.4471 2.62799 3.49077 2.62799 5.09389C2.62799 6.86014 2.31651 7.23655 1.80042 7.85952C1.76292 7.90475 1.72471 7.95069 1.68581 7.9985C1.58531 8.1197 1.52163 8.26716 1.50232 8.42342C1.483 8.57967 1.50886 8.73819 1.57682 8.88022C1.72143 9.18491 2.02963 9.37405 2.38143 9.37405H9.62104C9.97119 9.37405 10.2773 9.18514 10.4224 8.88186C10.4906 8.7398 10.5167 8.58115 10.4976 8.42471C10.4784 8.26827 10.4148 8.1206 10.3143 7.9992Z" fill="white"/>
<path id="Vector_2" d="M5.99947 11.2499C6.33815 11.2497 6.67044 11.1577 6.9611 10.9839C7.25176 10.81 7.48995 10.5608 7.6504 10.2625C7.65796 10.2482 7.6617 10.2322 7.66124 10.2161C7.66079 10.1999 7.65616 10.1841 7.64781 10.1703C7.63946 10.1564 7.62767 10.145 7.61359 10.137C7.5995 10.1291 7.58361 10.1249 7.56744 10.1249H4.43197C4.41578 10.1249 4.39985 10.129 4.38574 10.1369C4.37162 10.1449 4.3598 10.1563 4.35142 10.1702C4.34304 10.184 4.33839 10.1998 4.33793 10.216C4.33746 10.2322 4.3412 10.2482 4.34877 10.2625C4.5092 10.5607 4.74736 10.81 5.03797 10.9838C5.32859 11.1577 5.66083 11.2496 5.99947 11.2499Z" fill="white"/>
</g>
</svg>
