<svg width="12" height="13" viewBox="0 0 12 13" fill="none" xmlns="http://www.w3.org/2000/svg">
<g id="IONIcon/P/person/default">
<path id="Vector" d="M7.79627 2.01341C7.34018 1.52099 6.70315 1.24982 6.00002 1.24982C5.29315 1.24982 4.65401 1.51935 4.20002 2.00872C3.74112 2.50349 3.51752 3.17591 3.57002 3.902C3.67409 5.3345 4.76416 6.49981 6.00002 6.49981C7.23588 6.49981 8.32408 5.33474 8.42979 3.90247C8.48299 3.18294 8.25799 2.51193 7.79627 2.01341Z" fill="white"/>
<path id="Vector_2" d="M10.1251 11.7493H1.87513C1.76715 11.7507 1.66021 11.728 1.56209 11.6829C1.46398 11.6377 1.37716 11.5713 1.30795 11.4884C1.1556 11.3063 1.0942 11.0576 1.13967 10.8061C1.33748 9.7088 1.95482 8.787 2.92513 8.13989C3.78716 7.56544 4.87912 7.24927 6.00013 7.24927C7.12115 7.24927 8.2131 7.56567 9.07513 8.13989C10.0454 8.78677 10.6628 9.70856 10.8606 10.8059C10.9061 11.0574 10.8447 11.3061 10.6923 11.4882C10.6231 11.5711 10.5363 11.6376 10.4382 11.6828C10.3401 11.7279 10.2331 11.7506 10.1251 11.7493Z" fill="white"/>
</g>
</svg>
