<svg width="103" height="31" viewBox="0 0 103 31" fill="none" xmlns="http://www.w3.org/2000/svg">
<g id="Logo">
<g id="Group 23">
<path id="Vector" d="M19.0777 7.15356C15.1269 7.15356 7.21325 3.9509 7.21325 0H7.15475C7.15475 3.16212 8.41086 6.19472 10.6468 8.43071C12.8827 10.6667 15.9152 11.9229 19.0774 11.9231C20.9746 11.9231 22.7942 12.6767 24.1359 14.0183C25.4775 15.3599 26.2312 17.1795 26.2312 19.0768C26.2316 20.974 25.4783 22.7939 24.1369 24.1357C22.7956 25.4777 20.9761 26.2317 19.0788 26.2321C17.1814 26.2324 15.3617 25.479 14.0198 24.1377C12.6779 22.7963 11.9239 20.9769 11.9235 19.0796C11.9235 17.5138 11.615 15.9634 11.0158 14.5168C10.4165 13.0703 9.53826 11.7559 8.43106 10.6487C7.32385 9.54162 6.00944 8.66341 4.56282 8.06426C3.11623 7.46512 1.56577 7.15678 0 7.15684V7.21487C3.95016 7.21487 7.15283 15.1252 7.1543 19.0766H7.15356C7.15354 21.4349 7.85277 23.74 9.16285 25.7008C10.4729 27.6615 12.335 29.1898 14.5137 30.0922C16.6923 30.9948 19.0896 31.231 21.4025 30.7709C23.7153 30.311 25.8398 29.1755 27.5074 27.5082C29.1749 25.8407 30.3105 23.7163 30.7708 21.4034C31.231 19.0906 30.9949 16.6933 30.0926 14.5146C29.1904 12.3359 27.6623 10.4737 25.7017 9.16343C23.7409 7.85318 21.4357 7.15374 19.0777 7.15356Z" fill="#E4E4E7"/>
</g>
<g id="fireli">
<path d="M42.671 29.2975C42.671 29.6675 43.004 30.0005 43.374 30.0005H45.224C45.668 30.0005 46.26 29.8525 46.26 29.2975V18.2715H53.327V29.2975C53.327 29.6675 53.66 30.0005 54.03 30.0005H56.139C56.509 30.0005 56.842 29.6675 56.842 29.2975V15.9035C56.842 15.5335 56.509 15.2005 56.139 15.2005H46.26V10.6125C46.26 8.05947 47.814 6.98647 49.331 6.98647C50.959 6.98647 52.846 7.98547 53.179 8.17047C53.586 8.39247 53.919 8.42947 54.141 7.98547L55.066 6.32047C55.251 6.02447 55.177 5.58047 54.881 5.39547C54.104 4.91447 51.81 3.73047 49.331 3.73047C45.668 3.73047 42.671 6.20947 42.671 10.6125V15.2005H40.932C40.525 15.2005 40.229 15.4965 40.229 15.9035V17.5685C40.229 17.9385 40.525 18.2715 40.932 18.2715H42.671V29.2975Z" fill="#E4E4E7"/>
<path d="M61.65 29.2975C61.65 29.6675 61.983 30.0005 62.353 30.0005H64.129C64.721 30.0005 65.128 29.9265 65.128 29.2975V19.8995C65.276 19.6405 66.312 18.0865 68.458 18.0865C68.939 18.0865 69.494 18.2345 69.716 18.3455C70.049 18.4935 70.419 18.4195 70.604 18.0125L71.492 16.1995C71.899 15.2005 70.197 14.8305 68.791 14.8305C66.09 14.8305 64.721 16.6065 64.462 16.9765L64.055 15.7185C63.981 15.4225 63.685 15.2005 63.426 15.2005H62.353C61.983 15.2005 61.65 15.5335 61.65 15.9035V29.2975Z" fill="#E4E4E7"/>
<path d="M72.8983 22.6005C72.8983 26.8555 75.8583 30.3705 80.3353 30.3705C82.8143 30.3705 84.7383 29.4455 85.8113 28.5205C86.2553 28.1505 86.1443 27.8545 85.8853 27.5585L84.8493 26.1525C84.5533 25.7825 84.2943 25.9305 83.8503 26.1895C83.1103 26.6705 81.8893 27.2625 80.5573 27.2625C78.1523 27.2625 76.4133 25.3015 76.3023 23.3035H86.3663C86.6993 23.3035 86.9953 23.0445 87.0323 22.6745C87.0693 22.4155 87.1063 21.9345 87.1063 21.6755C87.1063 17.7165 84.1463 14.8305 80.2983 14.8305C75.8583 14.8305 72.8983 18.4195 72.8983 22.6005ZM76.4873 20.9725C76.7093 19.1225 78.2633 17.6795 80.2613 17.6795C82.0743 17.6795 83.5543 19.1965 83.6653 20.9725H76.4873Z" fill="#E4E4E7"/>
<path d="M90.6646 29.2975C90.6646 29.6675 90.9976 30.0005 91.3676 30.0005H93.4766C93.8466 30.0005 94.1796 29.6675 94.1796 29.2975V4.80347C94.1796 4.43347 93.8466 4.10047 93.4766 4.10047H91.3676C90.9976 4.10047 90.6646 4.43347 90.6646 4.80347V29.2975Z" fill="#E4E4E7"/>
<path d="M100.677 9.16947C101.898 9.16947 102.86 8.20747 102.86 7.02347C102.86 5.80247 101.898 4.84047 100.677 4.84047C99.4932 4.84047 98.5682 5.80247 98.5682 7.02347C98.5682 8.20747 99.4932 9.16947 100.677 9.16947ZM98.9752 29.2975C98.9752 29.6675 99.3082 30.0005 99.6782 30.0005H101.787C102.157 30.0005 102.49 29.6675 102.49 29.2975V15.9035C102.49 15.5335 102.157 15.2005 101.787 15.2005H99.6782C99.3082 15.2005 98.9752 15.5335 98.9752 15.9035V29.2975Z" fill="#E4E4E7"/>
</g>
</g>
</svg>
