<svg width="24" height="24" viewBox="0 0 24 24" fill="none" xmlns="http://www.w3.org/2000/svg">
<g id="gift">
<path id="Vector" d="M20 12.0001V22.0001H4V12.0001" stroke="#089BD9" stroke-width="2" stroke-linecap="round" stroke-linejoin="round"/>
<path id="Vector_2" d="M22 7.00006H2V12.0001H22V7.00006Z" stroke="#089BD9" stroke-width="2" stroke-linecap="round" stroke-linejoin="round"/>
<path id="Vector_3" d="M12 22.0001V7.00006" stroke="#089BD9" stroke-width="2" stroke-linecap="round" stroke-linejoin="round"/>
<path id="Vector_4" d="M12 7.00006H7.5C6.83696 7.00006 6.20107 6.73667 5.73223 6.26783C5.26339 5.79899 5 5.1631 5 4.50006C5 3.83702 5.26339 3.20114 5.73223 2.73229C6.20107 2.26345 6.83696 2.00006 7.5 2.00006C11 2.00006 12 7.00006 12 7.00006Z" stroke="#089BD9" stroke-width="2" stroke-linecap="round" stroke-linejoin="round"/>
<path id="Vector_5" d="M12 7.00006H16.5C17.163 7.00006 17.7989 6.73667 18.2678 6.26783C18.7366 5.79899 19 5.1631 19 4.50006C19 3.83702 18.7366 3.20114 18.2678 2.73229C17.7989 2.26345 17.163 2.00006 16.5 2.00006C13 2.00006 12 7.00006 12 7.00006Z" stroke="#089BD9" stroke-width="2" stroke-linecap="round" stroke-linejoin="round"/>
</g>
</svg>
