<svg width="22" height="22" viewBox="0 0 22 22" fill="none" xmlns="http://www.w3.org/2000/svg">
<g id="Group 6">
<circle id="Oval 4" cx="11.1894" cy="11.2668" r="10.2861" fill="#008EFF"/>
<g id="Group 228">
<path id="edit / edit" d="M7.26661 15.6768C7.13086 15.6765 7.00145 15.6193 6.90996 15.519C6.81678 15.4195 6.77047 15.285 6.78269 15.1493L6.90125 13.8456L12.3782 8.37056L14.0899 10.0817L8.61432 15.5563L7.31064 15.6748C7.29564 15.6763 7.28064 15.6768 7.26661 15.6768ZM14.4315 9.73956L12.7204 8.02843L13.7468 7.00203C13.8375 6.91117 13.9607 6.86011 14.0891 6.86011C14.2176 6.86011 14.3407 6.91117 14.4315 7.00203L15.4579 8.02843C15.5488 8.11919 15.5998 8.24236 15.5998 8.3708C15.5998 8.49924 15.5488 8.6224 15.4579 8.71317L14.432 9.73908L14.4315 9.73956Z" fill="white"/>
</g>
</g>
</svg>
