<svg width="22" height="22" viewBox="0 0 22 22" fill="none" xmlns="http://www.w3.org/2000/svg">
<g id="Group 6">
<circle id="Oval 4" cx="10.9624" cy="11.1574" r="10.2861" fill="#FABB18"/>
<g id="Group 221">
<path id="basic / flag_fill" d="M11.9622 6.66624C11.9137 6.42864 11.7047 6.25806 11.4622 6.25806H7.7988C7.51701 6.25806 7.28857 6.48649 7.28857 6.76828V14.4216C7.28857 14.7034 7.51701 14.9319 7.7988 14.9319C8.08059 14.9319 8.30902 14.7034 8.30902 14.4216V11.3603H11.1663L11.2887 11.9726C11.335 12.2115 11.5454 12.3832 11.7887 12.3807H14.4317C14.7135 12.3807 14.9419 12.1523 14.9419 11.8705V7.78873C14.9419 7.50694 14.7135 7.2785 14.4317 7.2785H12.0847L11.9622 6.66624Z" fill="white"/>
</g>
</g>
</svg>
