<svg width="25" height="25" viewBox="0 0 25 25" fill="none" xmlns="http://www.w3.org/2000/svg">
<g id="help-circle">
<path id="Vector" d="M12.8047 22.751C18.3275 22.751 22.8047 18.2739 22.8047 12.751C22.8047 7.22819 18.3275 2.75104 12.8047 2.75104C7.28184 2.75104 2.80469 7.22819 2.80469 12.751C2.80469 18.2739 7.28184 22.751 12.8047 22.751Z" stroke="#089BD9" stroke-width="2" stroke-linecap="round" stroke-linejoin="round"/>
<path id="Vector_2" d="M9.89453 9.75104C10.1296 9.08271 10.5937 8.51915 11.2045 8.16018C11.8153 7.8012 12.5334 7.66998 13.2317 7.78975C13.93 7.90953 14.5633 8.27257 15.0196 8.81457C15.4759 9.35657 15.7256 10.0426 15.7245 10.751C15.7245 12.751 12.7245 13.751 12.7245 13.751" stroke="#089BD9" stroke-width="2" stroke-linecap="round" stroke-linejoin="round"/>
<path id="Vector_3" d="M12.8047 17.751H12.8147" stroke="#089BD9" stroke-width="2" stroke-linecap="round" stroke-linejoin="round"/>
</g>
</svg>
