<svg width="108" height="14" viewBox="0 0 108 14" fill="none" xmlns="http://www.w3.org/2000/svg">
<path d="M0.687754 11.0264V0.761835H4.3465C5.14507 0.761835 5.80665 0.907182 6.33124 1.19788C6.85583 1.48857 7.24843 1.88619 7.50906 2.39073C7.76968 2.89193 7.89999 3.45661 7.89999 4.08478C7.89999 4.71629 7.76801 5.28431 7.50404 5.78885C7.24342 6.29005 6.84915 6.68766 6.32122 6.9817C5.79663 7.2724 5.13672 7.41774 4.34149 7.41774H1.82547V6.1046H4.20115C4.70569 6.1046 5.115 6.01773 5.42909 5.84398C5.74317 5.66689 5.97372 5.42632 6.12074 5.12226C6.26776 4.8182 6.34127 4.47237 6.34127 4.08478C6.34127 3.69718 6.26776 3.35303 6.12074 3.05231C5.97372 2.75159 5.7415 2.51603 5.42407 2.34562C5.10999 2.17521 4.69567 2.09001 4.1811 2.09001H2.23646V11.0264H0.687754ZM9.59529 11.0264V3.32797H11.0438V4.55089H11.1239C11.2643 4.13657 11.5115 3.81079 11.8657 3.57355C12.2232 3.33298 12.6275 3.21269 13.0786 3.21269C13.1722 3.21269 13.2824 3.21603 13.4094 3.22272C13.5397 3.2294 13.6416 3.23775 13.7151 3.24778V4.6812C13.655 4.6645 13.5481 4.64612 13.3944 4.62607C13.2407 4.60268 13.087 4.59099 12.9333 4.59099C12.5791 4.59099 12.2633 4.66617 11.986 4.81653C11.712 4.96354 11.4948 5.16903 11.3344 5.433C11.1741 5.69362 11.0939 5.991 11.0939 6.32513V11.0264H9.59529ZM17.9791 11.1817C17.2574 11.1817 16.6275 11.0163 16.0896 10.6856C15.5516 10.3548 15.1339 9.89199 14.8366 9.29723C14.5392 8.70248 14.3905 8.00749 14.3905 7.21225C14.3905 6.41368 14.5392 5.71534 14.8366 5.11724C15.1339 4.51915 15.5516 4.0547 16.0896 3.72391C16.6275 3.39312 17.2574 3.22773 17.9791 3.22773C18.7008 3.22773 19.3306 3.39312 19.8686 3.72391C20.4065 4.0547 20.8242 4.51915 21.1216 5.11724C21.419 5.71534 21.5677 6.41368 21.5677 7.21225C21.5677 8.00749 21.419 8.70248 21.1216 9.29723C20.8242 9.89199 20.4065 10.3548 19.8686 10.6856C19.3306 11.0163 18.7008 11.1817 17.9791 11.1817ZM17.9841 9.92373C18.4519 9.92373 18.8395 9.8001 19.1469 9.55285C19.4543 9.30559 19.6815 8.97647 19.8285 8.56549C19.9789 8.1545 20.054 7.70175 20.054 7.20724C20.054 6.71607 19.9789 6.26499 19.8285 5.85401C19.6815 5.43968 19.4543 5.10722 19.1469 4.85662C18.8395 4.60602 18.4519 4.48072 17.9841 4.48072C17.513 4.48072 17.122 4.60602 16.8113 4.85662C16.5039 5.10722 16.275 5.43968 16.1246 5.85401C15.9776 6.26499 15.9041 6.71607 15.9041 7.20724C15.9041 7.70175 15.9776 8.1545 16.1246 8.56549C16.275 8.97647 16.5039 9.30559 16.8113 9.55285C17.122 9.8001 17.513 9.92373 17.9841 9.92373ZM23.2404 3.32797H24.739V11.5276C24.739 12.0421 24.6454 12.4765 24.4583 12.8307C24.2745 13.1849 24.0006 13.4538 23.6363 13.6376C23.2755 13.8214 22.8294 13.9133 22.2982 13.9133C22.2447 13.9133 22.1946 13.9133 22.1478 13.9133C22.0977 13.9133 22.0459 13.9116 21.9924 13.9083V12.6202C22.0392 12.6202 22.081 12.6202 22.1177 12.6202C22.1511 12.6202 22.1896 12.6202 22.233 12.6202C22.5872 12.6202 22.8428 12.5249 22.9998 12.3345C23.1602 12.1474 23.2404 11.8751 23.2404 11.5175V3.32797ZM23.9822 2.14013C23.7216 2.14013 23.4977 2.05325 23.3106 1.87951C23.1268 1.70242 23.0349 1.49191 23.0349 1.248C23.0349 1.00074 23.1268 0.790236 23.3106 0.616487C23.4977 0.439398 23.7216 0.350853 23.9822 0.350853C24.2428 0.350853 24.465 0.439398 24.6488 0.616487C24.8359 0.790236 24.9294 1.00074 24.9294 1.248C24.9294 1.49191 24.8359 1.70242 24.6488 1.87951C24.465 2.05325 24.2428 2.14013 23.9822 2.14013ZM30.073 11.1817C29.3145 11.1817 28.6613 11.0197 28.1133 10.6956C27.5687 10.3681 27.1477 9.9087 26.8503 9.31728C26.5562 8.72253 26.4092 8.02586 26.4092 7.22729C26.4092 6.43874 26.5562 5.74374 26.8503 5.1423C27.1477 4.54087 27.562 4.07141 28.0933 3.73394C28.6279 3.39647 29.2527 3.22773 29.9677 3.22773C30.4021 3.22773 30.8231 3.29957 31.2308 3.44324C31.6384 3.58692 32.0043 3.81246 32.3284 4.11986C32.6525 4.42726 32.9081 4.82655 33.0952 5.31772C33.2823 5.80556 33.3759 6.39864 33.3759 7.09698V7.62825H27.2563V6.50556H31.9074C31.9074 6.11129 31.8272 5.76212 31.6668 5.45806C31.5064 5.15066 31.2809 4.90841 30.9902 4.73132C30.7028 4.55423 30.3653 4.46569 29.9778 4.46569C29.5567 4.46569 29.1892 4.56927 28.8751 4.77643C28.5644 4.98025 28.3238 5.24756 28.1534 5.57835C27.9863 5.9058 27.9028 6.26165 27.9028 6.6459V7.52299C27.9028 8.03756 27.993 8.47527 28.1734 8.83613C28.3572 9.197 28.6128 9.47265 28.9403 9.66311C29.2677 9.85022 29.6503 9.94378 30.088 9.94378C30.372 9.94378 30.631 9.90368 30.8649 9.82349C31.0988 9.73996 31.3009 9.61633 31.4713 9.45261C31.6417 9.28888 31.772 9.08673 31.8623 8.84616L33.2807 9.10177C33.167 9.51943 32.9632 9.88531 32.6692 10.1994C32.3785 10.5101 32.0126 10.7524 31.5716 10.9261C31.1339 11.0965 30.6343 11.1817 30.073 11.1817ZM38.2814 11.1817C37.5362 11.1817 36.8947 11.013 36.3568 10.6755C35.8221 10.3347 35.4112 9.86526 35.1238 9.26716C34.8365 8.66907 34.6928 7.9841 34.6928 7.21225C34.6928 6.43038 34.8398 5.7404 35.1338 5.1423C35.4279 4.54087 35.8422 4.07141 36.3768 3.73394C36.9114 3.39647 37.5412 3.22773 38.2663 3.22773C38.851 3.22773 39.3723 3.33632 39.8301 3.55351C40.2878 3.76735 40.657 4.06807 40.9377 4.45566C41.2217 4.84326 41.3904 5.296 41.4439 5.81391H39.9854C39.9052 5.45305 39.7215 5.1423 39.4341 4.88168C39.1501 4.62106 38.7692 4.49075 38.2914 4.49075C37.8737 4.49075 37.5078 4.60101 37.1938 4.82154C36.883 5.03872 36.6408 5.34947 36.467 5.75377C36.2933 6.15472 36.2064 6.62919 36.2064 7.17717C36.2064 7.73851 36.2916 8.223 36.462 8.63064C36.6324 9.03828 36.873 9.35404 37.1837 9.57791C37.4978 9.80177 37.867 9.91371 38.2914 9.91371C38.5754 9.91371 38.8327 9.86192 39.0632 9.75834C39.2971 9.65141 39.4926 9.49938 39.6496 9.30225C39.81 9.10511 39.9219 8.86788 39.9854 8.59055H41.4439C41.3904 9.0884 41.2284 9.5328 40.9577 9.92373C40.6871 10.3147 40.3246 10.6221 39.8701 10.8459C39.4191 11.0698 38.8895 11.1817 38.2814 11.1817ZM46.6401 3.32797V4.53084H42.435V3.32797H46.6401ZM43.5627 1.48356H45.0613V8.76596C45.0613 9.05666 45.1047 9.27552 45.1916 9.42253C45.2785 9.56621 45.3904 9.66478 45.5274 9.71824C45.6678 9.76836 45.8198 9.79342 45.9835 9.79342C46.1038 9.79342 46.209 9.78507 46.2993 9.76836C46.3895 9.75165 46.4596 9.73829 46.5098 9.72826L46.7804 10.9662C46.6935 10.9996 46.5699 11.033 46.4095 11.0665C46.2491 11.1032 46.0487 11.1233 45.8081 11.1266C45.4138 11.1333 45.0463 11.0631 44.7055 10.9161C44.3646 10.7691 44.089 10.5419 43.8785 10.2345C43.668 9.92707 43.5627 9.54115 43.5627 9.07671V1.48356ZM52.033 11.0264V3.32797H53.5315V11.0264H52.033ZM52.7898 2.14013C52.5292 2.14013 52.3053 2.05325 52.1182 1.87951C51.9344 1.70242 51.8425 1.49191 51.8425 1.248C51.8425 1.00074 51.9344 0.790236 52.1182 0.616487C52.3053 0.439398 52.5292 0.350853 52.7898 0.350853C53.0504 0.350853 53.2726 0.439398 53.4564 0.616487C53.6435 0.790236 53.737 1.00074 53.737 1.248C53.737 1.49191 53.6435 1.70242 53.4564 1.87951C53.2726 2.05325 53.0504 2.14013 52.7898 2.14013ZM57.0462 6.45544V11.0264H55.5476V3.32797H56.9861V4.58096H57.0813C57.2584 4.17332 57.5357 3.84587 57.9133 3.59861C58.2942 3.35136 58.7737 3.22773 59.3517 3.22773C59.8763 3.22773 60.3357 3.33799 60.73 3.55852C61.1243 3.7757 61.43 4.09981 61.6472 4.53084C61.8644 4.96187 61.973 5.49481 61.973 6.12966V11.0264H60.4744V6.3101C60.4744 5.7521 60.329 5.31605 60.0384 5.00197C59.7477 4.68454 59.3484 4.52583 58.8405 4.52583C58.493 4.52583 58.1839 4.60101 57.9133 4.75137C57.646 4.90173 57.4338 5.12226 57.2768 5.41295C57.1231 5.7003 57.0462 6.0478 57.0462 6.45544ZM63.9828 11.0264V3.32797H65.4814V11.0264H63.9828ZM64.7396 2.14013C64.479 2.14013 64.2551 2.05325 64.068 1.87951C63.8842 1.70242 63.7923 1.49191 63.7923 1.248C63.7923 1.00074 63.8842 0.790236 64.068 0.616487C64.2551 0.439398 64.479 0.350853 64.7396 0.350853C65.0002 0.350853 65.2224 0.439398 65.4062 0.616487C65.5933 0.790236 65.6868 1.00074 65.6868 1.248C65.6868 1.49191 65.5933 1.70242 65.4062 1.87951C65.2224 2.05325 65.0002 2.14013 64.7396 2.14013ZM71.091 3.32797V4.53084H66.886V3.32797H71.091ZM68.0137 1.48356H69.5122V8.76596C69.5122 9.05666 69.5557 9.27552 69.6426 9.42253C69.7294 9.56621 69.8414 9.66478 69.9784 9.71824C70.1187 9.76836 70.2707 9.79342 70.4344 9.79342C70.5547 9.79342 70.66 9.78507 70.7502 9.76836C70.8404 9.75165 70.9106 9.73829 70.9607 9.72826L71.2314 10.9662C71.1445 10.9996 71.0208 11.033 70.8605 11.0665C70.7001 11.1032 70.4996 11.1233 70.259 11.1266C69.8648 11.1333 69.4972 11.0631 69.1564 10.9161C68.8156 10.7691 68.5399 10.5419 68.3294 10.2345C68.1189 9.92707 68.0137 9.54115 68.0137 9.07671V1.48356ZM72.7487 11.0264V3.32797H74.2473V11.0264H72.7487ZM73.5055 2.14013C73.2449 2.14013 73.021 2.05325 72.8339 1.87951C72.6502 1.70242 72.5583 1.49191 72.5583 1.248C72.5583 1.00074 72.6502 0.790236 72.8339 0.616487C73.021 0.439398 73.2449 0.350853 73.5055 0.350853C73.7662 0.350853 73.9884 0.439398 74.1721 0.616487C74.3592 0.790236 74.4528 1.00074 74.4528 1.248C74.4528 1.49191 74.3592 1.70242 74.1721 1.87951C73.9884 2.05325 73.7662 2.14013 73.5055 2.14013ZM78.5037 11.1968C78.0159 11.1968 77.5748 11.1066 77.1806 10.9261C76.7863 10.7424 76.4739 10.4767 76.2433 10.1292C76.0161 9.78173 75.9025 9.35571 75.9025 8.85117C75.9025 8.4168 75.986 8.05928 76.1531 7.77861C76.3202 7.49793 76.5457 7.27574 76.8297 7.11201C77.1137 6.94829 77.4312 6.82466 77.782 6.74113C78.1328 6.65759 78.4904 6.59411 78.8546 6.55067C79.3157 6.49721 79.6899 6.45377 79.9773 6.42036C80.2646 6.3836 80.4734 6.32513 80.6037 6.24494C80.7341 6.16475 80.7992 6.03444 80.7992 5.85401V5.81892C80.7992 5.38121 80.6756 5.04206 80.4283 4.80149C80.1844 4.56091 79.8202 4.44063 79.3357 4.44063C78.8312 4.44063 78.4336 4.55256 78.1429 4.77643C77.8555 4.99696 77.6567 5.24254 77.5464 5.51319L76.1381 5.19242C76.3051 4.72464 76.5491 4.34707 76.8698 4.05972C77.1939 3.76902 77.5665 3.55852 77.9875 3.42821C78.4085 3.29455 78.8512 3.22773 79.3157 3.22773C79.6231 3.22773 79.9488 3.26448 80.293 3.33799C80.6405 3.40816 80.9646 3.53847 81.2653 3.72893C81.5694 3.91938 81.8183 4.1917 82.0121 4.54588C82.2059 4.89672 82.3028 5.35281 82.3028 5.91415V11.0264H80.8393V9.97385H80.7792C80.6823 10.1676 80.5369 10.3581 80.3431 10.5452C80.1493 10.7323 79.9004 10.8877 79.5963 11.0113C79.2923 11.135 78.9281 11.1968 78.5037 11.1968ZM78.8295 9.9939C79.2438 9.9939 79.598 9.91204 79.892 9.74831C80.1894 9.58459 80.415 9.37074 80.5687 9.10678C80.7257 8.83947 80.8042 8.55379 80.8042 8.24973V7.25736C80.7508 7.31082 80.6472 7.36094 80.4935 7.40772C80.3431 7.45116 80.171 7.48958 79.9773 7.52299C79.7835 7.55307 79.5947 7.58147 79.4109 7.6082C79.2271 7.63159 79.0734 7.65163 78.9498 7.66834C78.6591 7.7051 78.3935 7.76691 78.1529 7.85378C77.9157 7.94066 77.7252 8.06596 77.5815 8.22968C77.4412 8.39007 77.371 8.60391 77.371 8.87122C77.371 9.2421 77.508 9.52277 77.782 9.71323C78.056 9.90034 78.4052 9.9939 78.8295 9.9939ZM87.8924 3.32797V4.53084H83.6874V3.32797H87.8924ZM84.8151 1.48356H86.3137V8.76596C86.3137 9.05666 86.3571 9.27552 86.444 9.42253C86.5308 9.56621 86.6428 9.66478 86.7798 9.71824C86.9201 9.76836 87.0721 9.79342 87.2359 9.79342C87.3561 9.79342 87.4614 9.78507 87.5516 9.76836C87.6418 9.75165 87.712 9.73829 87.7621 9.72826L88.0328 10.9662C87.9459 10.9996 87.8223 11.033 87.6619 11.0665C87.5015 11.1032 87.301 11.1233 87.0604 11.1266C86.6662 11.1333 86.2986 11.0631 85.9578 10.9161C85.617 10.7691 85.3413 10.5419 85.1308 10.2345C84.9203 9.92707 84.8151 9.54115 84.8151 9.07671V1.48356ZM89.5501 11.0264V3.32797H91.0487V11.0264H89.5501ZM90.3069 2.14013C90.0463 2.14013 89.8224 2.05325 89.6353 1.87951C89.4516 1.70242 89.3597 1.49191 89.3597 1.248C89.3597 1.00074 89.4516 0.790236 89.6353 0.616487C89.8224 0.439398 90.0463 0.350853 90.3069 0.350853C90.5676 0.350853 90.7898 0.439398 90.9735 0.616487C91.1606 0.790236 91.2542 1.00074 91.2542 1.248C91.2542 1.49191 91.1606 1.70242 90.9735 1.87951C90.7898 2.05325 90.5676 2.14013 90.3069 2.14013ZM96.3075 11.1817C95.5858 11.1817 94.956 11.0163 94.418 10.6856C93.8801 10.3548 93.4624 9.89199 93.165 9.29723C92.8676 8.70248 92.719 8.00749 92.719 7.21225C92.719 6.41368 92.8676 5.71534 93.165 5.11724C93.4624 4.51915 93.8801 4.0547 94.418 3.72391C94.956 3.39312 95.5858 3.22773 96.3075 3.22773C97.0293 3.22773 97.6591 3.39312 98.197 3.72391C98.735 4.0547 99.1527 4.51915 99.45 5.11724C99.7474 5.71534 99.8961 6.41368 99.8961 7.21225C99.8961 8.00749 99.7474 8.70248 99.45 9.29723C99.1527 9.89199 98.735 10.3548 98.197 10.6856C97.6591 11.0163 97.0293 11.1817 96.3075 11.1817ZM96.3125 9.92373C96.7803 9.92373 97.1679 9.8001 97.4753 9.55285C97.7827 9.30559 98.0099 8.97647 98.157 8.56549C98.3073 8.1545 98.3825 7.70175 98.3825 7.20724C98.3825 6.71607 98.3073 6.26499 98.157 5.85401C98.0099 5.43968 97.7827 5.10722 97.4753 4.85662C97.1679 4.60602 96.7803 4.48072 96.3125 4.48072C95.8414 4.48072 95.4505 4.60602 95.1397 4.85662C94.8323 5.10722 94.6035 5.43968 94.4531 5.85401C94.3061 6.26499 94.2326 6.71607 94.2326 7.20724C94.2326 7.70175 94.3061 8.1545 94.4531 8.56549C94.6035 8.97647 94.8323 9.30559 95.1397 9.55285C95.4505 9.8001 95.8414 9.92373 96.3125 9.92373ZM103.067 6.45544V11.0264H101.569V3.32797H103.007V4.58096H103.103C103.28 4.17332 103.557 3.84587 103.935 3.59861C104.315 3.35136 104.795 3.22773 105.373 3.22773C105.898 3.22773 106.357 3.33799 106.751 3.55852C107.146 3.7757 107.451 4.09981 107.668 4.53084C107.886 4.96187 107.994 5.49481 107.994 6.12966V11.0264H106.496V6.3101C106.496 5.7521 106.35 5.31605 106.06 5.00197C105.769 4.68454 105.37 4.52583 104.862 4.52583C104.514 4.52583 104.205 4.60101 103.935 4.75137C103.667 4.90173 103.455 5.12226 103.298 5.41295C103.144 5.7003 103.067 6.0478 103.067 6.45544Z" fill="#12141D"/>
</svg>
