<svg width="32" height="9" viewBox="0 0 32 9" fill="none" xmlns="http://www.w3.org/2000/svg">
<path opacity="0.5" d="M3.83413 0.112298H4.6106V4.69596C4.6106 5.10507 4.53546 5.4526 4.38517 5.73855C4.23489 6.02451 4.02303 6.24159 3.7496 6.38978C3.47616 6.53798 3.15368 6.61208 2.78214 6.61208C2.43148 6.61208 2.11943 6.54842 1.846 6.42109C1.57257 6.29168 1.35758 6.108 1.20103 5.87005C1.04449 5.6321 0.966214 5.34928 0.966214 5.02157H1.73016C1.73016 5.20317 1.77503 5.3618 1.86479 5.49747C1.95663 5.63106 2.08186 5.73542 2.2405 5.81057C2.39913 5.88571 2.57968 5.92328 2.78214 5.92328C3.00548 5.92328 3.19543 5.87631 3.35197 5.78239C3.50852 5.68846 3.62749 5.5507 3.7089 5.36911C3.79239 5.18543 3.83413 4.96104 3.83413 4.69596V0.112298ZM9.31762 4.5582V1.71533H10.0565V6.52441H9.31762V5.71038H9.26752C9.15481 5.95459 8.97948 6.16227 8.74153 6.33343C8.50358 6.5025 8.20301 6.58703 7.83983 6.58703C7.53926 6.58703 7.27209 6.52128 7.03831 6.38978C6.80454 6.2562 6.62086 6.05582 6.48727 5.78865C6.35369 5.51939 6.28689 5.18021 6.28689 4.7711V1.71533H7.02579V4.72101C7.02579 5.07167 7.12389 5.35136 7.32009 5.56009C7.51839 5.76882 7.77095 5.87318 8.07778 5.87318C8.26146 5.87318 8.44827 5.82622 8.63821 5.73229C8.83024 5.63836 8.99096 5.49434 9.12037 5.30023C9.25187 5.10611 9.31762 4.85877 9.31762 4.5582ZM12.3692 0.112298V6.52441H11.6303V0.112298H12.3692ZM14.4188 8.32782C14.2936 8.32782 14.1819 8.31739 14.0838 8.29651C13.9857 8.27773 13.9179 8.25894 13.8803 8.24016L14.0682 7.58893C14.2477 7.63485 14.4063 7.65154 14.5441 7.63902C14.6818 7.6265 14.8039 7.56492 14.9104 7.4543C15.0189 7.34576 15.1181 7.16938 15.2078 6.92517L15.3456 6.54946L13.5672 1.71533H14.3687L15.6962 5.54757H15.7463L17.0738 1.71533H17.8754L15.834 7.22574C15.7422 7.47413 15.6284 7.67972 15.4927 7.84253C15.3571 8.00742 15.1995 8.12953 15.02 8.20885C14.8425 8.28816 14.6422 8.32782 14.4188 8.32782ZM21.7586 6.52441V5.96085L23.8751 3.64397C24.1235 3.37263 24.3281 3.13676 24.4888 2.93638C24.6495 2.73392 24.7685 2.54398 24.8457 2.36656C24.925 2.18705 24.9647 1.9992 24.9647 1.80299C24.9647 1.57757 24.9104 1.38241 24.8019 1.21751C24.6954 1.05262 24.5493 0.925293 24.3635 0.83554C24.1778 0.745787 23.9691 0.700911 23.7374 0.700911C23.4911 0.700911 23.2761 0.752049 23.0924 0.854325C22.9108 0.954515 22.7699 1.09541 22.6697 1.277C22.5716 1.45859 22.5226 1.67149 22.5226 1.91571H21.7837C21.7837 1.54 21.8703 1.21021 22.0435 0.926337C22.2168 0.642467 22.4526 0.421215 22.7511 0.262582C23.0517 0.103949 23.3888 0.0246326 23.7624 0.0246326C24.1381 0.0246326 24.471 0.103949 24.7612 0.262582C25.0513 0.421215 25.2788 0.635161 25.4437 0.90442C25.6086 1.17368 25.6911 1.4732 25.6911 1.80299C25.6911 2.03886 25.6483 2.2695 25.5627 2.49493C25.4792 2.71826 25.3331 2.96769 25.1244 3.24321C24.9177 3.51665 24.6307 3.85061 24.2634 4.24511L22.8231 5.78552V5.83561H25.8038V6.52441H21.7586ZM29.321 6.61208C28.9537 6.61208 28.6228 6.53903 28.3285 6.39292C28.0342 6.24681 27.7984 6.04643 27.621 5.79178C27.4435 5.53713 27.3465 5.247 27.3298 4.92139H28.0812C28.1104 5.21152 28.2419 5.45155 28.4757 5.6415C28.7116 5.82935 28.9933 5.92328 29.321 5.92328C29.584 5.92328 29.8178 5.8617 30.0224 5.73855C30.229 5.6154 30.3908 5.44634 30.5077 5.23135C30.6266 5.01427 30.6861 4.76901 30.6861 4.49558C30.6861 4.21589 30.6245 3.96646 30.5014 3.74729C30.3803 3.52604 30.2134 3.35175 30.0004 3.22443C29.7875 3.0971 29.5444 3.0324 29.2709 3.03031C29.0747 3.02822 28.8733 3.05849 28.6667 3.12111C28.46 3.18164 28.2899 3.25991 28.1563 3.35593L27.43 3.26826L27.8182 0.112298H31.1495V0.8011H28.4694L28.244 2.69217H28.2816C28.4131 2.58781 28.578 2.50119 28.7763 2.43231C28.9746 2.36343 29.1812 2.32899 29.3962 2.32899C29.7886 2.32899 30.1382 2.42291 30.445 2.61077C30.754 2.79654 30.9961 3.05118 31.1714 3.37471C31.3488 3.69824 31.4375 4.06769 31.4375 4.48306C31.4375 4.89216 31.3457 5.25744 31.162 5.57888C30.9804 5.89823 30.73 6.15079 30.4106 6.33656C30.0912 6.52024 29.7281 6.61208 29.321 6.61208Z" fill="#12141D"/>
</svg>
