<svg width="35" height="8" viewBox="0 0 35 8" fill="none" xmlns="http://www.w3.org/2000/svg">
<path opacity="0.5" d="M3.29605 0.584955H4.07251V5.16862C4.07251 5.57772 3.99737 5.92525 3.84709 6.21121C3.6968 6.49717 3.48495 6.71424 3.21151 6.86244C2.93808 7.01064 2.61559 7.08474 2.24406 7.08474C1.8934 7.08474 1.58135 7.02107 1.30792 6.89375C1.03448 6.76434 0.819492 6.58066 0.662946 6.34271C0.506401 6.10476 0.428128 5.82193 0.428128 5.49423H1.19207C1.19207 5.67582 1.23695 5.83446 1.3267 5.97013C1.41854 6.10372 1.54378 6.20808 1.70241 6.28322C1.86104 6.35836 2.04159 6.39593 2.24406 6.39593C2.4674 6.39593 2.65734 6.34897 2.81389 6.25504C2.97043 6.16112 3.08941 6.02336 3.17081 5.84176C3.2543 5.65808 3.29605 5.4337 3.29605 5.16862V0.584955ZM8.77953 5.03086V2.18798H9.51843V6.99707H8.77953V6.18303H8.72944C8.61673 6.42724 8.44139 6.63493 8.20344 6.80608C7.96549 6.97515 7.66493 7.05969 7.30174 7.05969C7.00117 7.05969 6.734 6.99394 6.50023 6.86244C6.26645 6.72886 6.08277 6.52848 5.94918 6.26131C5.8156 5.99205 5.74881 5.65286 5.74881 5.24376V2.18798H6.4877V5.19366C6.4877 5.54433 6.5858 5.82402 6.78201 6.03275C6.9803 6.24148 7.23286 6.34584 7.53969 6.34584C7.72337 6.34584 7.91018 6.29888 8.10012 6.20495C8.29215 6.11102 8.45287 5.967 8.58229 5.77288C8.71378 5.57877 8.77953 5.33142 8.77953 5.03086ZM11.8311 4.1041V6.99707H11.0922V2.18798H11.806V2.9394H11.8687C11.9814 2.69519 12.1525 2.49899 12.3821 2.35079C12.6117 2.20051 12.9081 2.12537 13.2713 2.12537C13.5969 2.12537 13.8818 2.19216 14.126 2.32574C14.3703 2.45724 14.5602 2.65762 14.6959 2.92688C14.8315 3.19405 14.8994 3.53219 14.8994 3.9413V6.99707H14.1605V3.99139C14.1605 3.61359 14.0624 3.31929 13.8662 3.10847C13.67 2.89557 13.4007 2.78912 13.0584 2.78912C12.8225 2.78912 12.6117 2.84026 12.426 2.94253C12.2423 3.04481 12.0972 3.19405 11.9908 3.39026C11.8843 3.58646 11.8311 3.82441 11.8311 4.1041ZM18.4863 7.09726C18.0229 7.09726 17.6232 6.99498 17.2872 6.79043C16.9532 6.58379 16.6954 6.29575 16.5138 5.9263C16.3343 5.55476 16.2446 5.1227 16.2446 4.6301C16.2446 4.1375 16.3343 3.70335 16.5138 3.32764C16.6954 2.94984 16.948 2.65553 17.2715 2.44472C17.5971 2.23182 17.977 2.12537 18.4112 2.12537C18.6616 2.12537 18.909 2.16711 19.1532 2.2506C19.3974 2.33409 19.6197 2.46977 19.8201 2.65762C20.0205 2.84339 20.1801 3.08969 20.2991 3.39652C20.4181 3.70335 20.4776 4.08114 20.4776 4.52991V4.843H16.7706V4.20429H19.7262C19.7262 3.93295 19.6719 3.69082 19.5633 3.47792C19.4569 3.26502 19.3045 3.09699 19.1062 2.97384C18.91 2.85069 18.6783 2.78912 18.4112 2.78912C18.1169 2.78912 17.8622 2.86217 17.6472 3.00828C17.4343 3.15231 17.2705 3.34016 17.1557 3.57185C17.0409 3.80354 16.9835 4.05192 16.9835 4.31701V4.74281C16.9835 5.106 17.0461 5.41387 17.1713 5.66643C17.2987 5.9169 17.475 6.10789 17.7005 6.23939C17.9259 6.3688 18.1878 6.43351 18.4863 6.43351C18.6804 6.43351 18.8558 6.40637 19.0123 6.3521C19.1709 6.29575 19.3077 6.21225 19.4225 6.10163C19.5373 5.98892 19.626 5.84907 19.6886 5.68209L20.4024 5.88246C20.3273 6.12459 20.201 6.33749 20.0236 6.52117C19.8462 6.70276 19.627 6.8447 19.3661 6.94698C19.1052 7.04716 18.8119 7.09726 18.4863 7.09726ZM26.601 7.08474C26.1293 7.08474 25.7275 6.95637 25.3956 6.69963C25.0637 6.44081 24.8101 6.06614 24.6348 5.57563C24.4595 5.08304 24.3718 4.48816 24.3718 3.79101C24.3718 3.09804 24.4595 2.50629 24.6348 2.01578C24.8122 1.52319 25.0669 1.14748 25.3987 0.888653C25.7327 0.627744 26.1335 0.497289 26.601 0.497289C27.0686 0.497289 27.4683 0.627744 27.8002 0.888653C28.1341 1.14748 28.3888 1.52319 28.5641 2.01578C28.7415 2.50629 28.8302 3.09804 28.8302 3.79101C28.8302 4.48816 28.7426 5.08304 28.5672 5.57563C28.3919 6.06614 28.1383 6.44081 27.8064 6.69963C27.4745 6.95637 27.0727 7.08474 26.601 7.08474ZM26.601 6.39593C27.0686 6.39593 27.4318 6.17051 27.6906 5.71966C27.9494 5.2688 28.0788 4.62592 28.0788 3.79101C28.0788 3.2358 28.0193 2.76303 27.9003 2.37271C27.7835 1.98239 27.6144 1.68495 27.3931 1.4804C27.174 1.27584 26.9099 1.17357 26.601 1.17357C26.1376 1.17357 25.7755 1.40212 25.5146 1.85924C25.2537 2.31426 25.1232 2.95819 25.1232 3.79101C25.1232 4.34623 25.1817 4.81795 25.2986 5.20619C25.4154 5.59442 25.5835 5.88977 25.8026 6.09224C26.0239 6.2947 26.29 6.39593 26.601 6.39593ZM32.2442 7.08474C31.8768 7.08474 31.546 7.01168 31.2517 6.86557C30.9574 6.71946 30.7215 6.51908 30.5441 6.26444C30.3667 6.00979 30.2696 5.71966 30.2529 5.39404H31.0043C31.0336 5.68417 31.1651 5.92421 31.3988 6.11415C31.6347 6.30201 31.9165 6.39593 32.2442 6.39593C32.5072 6.39593 32.741 6.33436 32.9455 6.21121C33.1521 6.08806 33.3139 5.91899 33.4308 5.704C33.5498 5.48693 33.6093 5.24167 33.6093 4.96824C33.6093 4.68854 33.5477 4.43911 33.4245 4.21995C33.3035 3.9987 33.1365 3.82441 32.9236 3.69708C32.7107 3.56976 32.4675 3.50506 32.1941 3.50297C31.9979 3.50088 31.7965 3.53115 31.5898 3.59376C31.3832 3.6543 31.2131 3.73257 31.0795 3.82858L30.3531 3.74092L30.7413 0.584955H34.0726V1.27376H31.3926L31.1671 3.16483H31.2047C31.3362 3.06047 31.5011 2.97384 31.6994 2.90496C31.8977 2.83608 32.1043 2.80164 32.3193 2.80164C32.7117 2.80164 33.0614 2.89557 33.3682 3.08343C33.6771 3.26919 33.9192 3.52384 34.0946 3.84737C34.272 4.1709 34.3607 4.54034 34.3607 4.95571C34.3607 5.36482 34.2688 5.73009 34.0852 6.05153C33.9036 6.37089 33.6531 6.62345 33.3337 6.80922C33.0144 6.9929 32.6512 7.08474 32.2442 7.08474Z" fill="#12141D"/>
</svg>
