<svg width="177" height="30" viewBox="0 0 177 30" fill="none" xmlns="http://www.w3.org/2000/svg">
<g id="Logo">
<g id="Group 19">
<path id="Vector" d="M170.434 24.0428C169.869 23.4133 169.391 22.7109 169.01 21.9542C168.41 20.7681 167.579 19.7151 166.568 18.8573C165.557 17.9995 164.386 17.3542 163.123 16.9594C162.019 16.6156 160.864 16.4697 159.71 16.5282C160.55 16.4799 161.377 16.753 162.025 17.2931C162.674 17.833 163.096 18.5999 163.207 19.44C163.51 21.2552 164.309 22.9496 165.514 24.334C166.718 25.7183 168.281 26.7381 170.028 27.2794C172.025 27.8977 174.165 27.8644 176.143 27.1842C173.94 26.8223 171.926 25.7142 170.434 24.0428Z" fill="#E4E4E7"/>
<path id="Vector_2" d="M156.272 16.3489C156.529 17.4696 156.981 18.5373 157.608 19.5038C157.15 18.802 156.974 17.9554 157.114 17.1311C157.254 16.3067 157.7 15.5644 158.365 15.0505C159.776 13.892 160.835 12.3675 161.425 10.6467C162.014 8.92589 162.111 7.07641 161.705 5.30423C161.24 3.27691 160.139 1.44854 158.56 0.0830078C159.346 2.16934 159.391 4.45967 158.688 6.57501C158.418 7.37361 158.044 8.13342 157.574 8.83478C156.853 9.93654 156.362 11.1707 156.13 12.4642C155.897 13.7576 155.929 15.0842 156.222 16.3655L156.272 16.3489Z" fill="#E4E4E7"/>
<path id="Vector_3" d="M161.193 20.251C160.82 21.005 160.18 21.5877 159.401 21.8823C158.623 22.177 157.764 22.1617 156.996 21.8396C155.304 21.1954 153.468 21.0419 151.695 21.3962C149.922 21.7506 148.28 22.5989 146.955 23.8464C145.443 25.2752 144.417 27.1549 144.024 29.2144C145.431 27.4796 147.378 26.284 149.544 25.8252C150.358 25.6561 151.189 25.5905 152.019 25.6301C153.32 25.6987 154.622 25.5016 155.847 25.0507C157.072 24.5997 158.196 23.9041 159.152 23.0047C159.989 22.2152 160.683 21.2833 161.204 20.251H161.193Z" fill="#E4E4E7"/>
</g>
<g id="martino">
<path d="M0.270996 29.0827H4.987V17.5987C4.987 16.3267 5.335 15.3067 6.031 14.5387C6.727 13.7707 7.639 13.3867 8.767 13.3867C9.919 13.3867 10.831 13.7707 11.503 14.5387C12.199 15.2827 12.547 16.3027 12.547 17.5987V29.0827H17.263V17.5987C17.263 16.3267 17.611 15.3067 18.307 14.5387C19.003 13.7707 19.915 13.3867 21.043 13.3867C22.195 13.3867 23.107 13.7707 23.779 14.5387C24.475 15.2827 24.823 16.3027 24.823 17.5987V29.0827H29.539V16.4827C29.539 15.0187 29.215 13.7347 28.567 12.6307C27.943 11.5027 27.091 10.6267 26.011 10.0027C24.931 9.3787 23.695 9.0667 22.303 9.0667C21.007 9.0667 19.831 9.3307 18.775 9.8587C17.743 10.3867 16.891 11.1787 16.219 12.2347C15.643 11.2747 14.815 10.5067 13.735 9.9307C12.679 9.3547 11.491 9.0667 10.171 9.0667C8.947 9.0667 7.855 9.3067 6.895 9.7867C5.935 10.2667 5.203 10.9867 4.699 11.9467V9.4987H0.270996V29.0827Z" fill="#E4E4E7"/>
<path d="M39.4688 29.5147C42.0128 29.5147 44.0528 28.6747 45.5888 26.9947V29.0827H50.0528V16.0507C50.0528 14.6827 49.7048 13.4707 49.0088 12.4147C48.3128 11.3587 47.3528 10.5427 46.1288 9.9667C44.9288 9.3667 43.5248 9.0667 41.9168 9.0667C39.9488 9.0667 38.1968 9.5347 36.6608 10.4707C35.1248 11.4067 34.0688 12.6427 33.4928 14.1787L37.3448 16.0507C37.7048 15.1627 38.2688 14.4547 39.0368 13.9267C39.8048 13.3747 40.7048 13.0987 41.7368 13.0987C42.8168 13.0987 43.6808 13.3867 44.3288 13.9627C45.0008 14.5147 45.3368 15.2107 45.3368 16.0507V16.6987L39.5048 17.6347C37.2008 18.0187 35.4968 18.7507 34.3928 19.8307C33.2888 20.9107 32.7368 22.2667 32.7368 23.8987C32.7368 25.6267 33.3488 26.9947 34.5728 28.0027C35.7968 29.0107 37.4288 29.5147 39.4688 29.5147ZM37.6328 23.7187C37.6328 22.3507 38.5568 21.4867 40.4048 21.1267L45.3368 20.2987V21.0907C45.3368 22.4347 44.8688 23.5747 43.9328 24.5107C43.0208 25.4467 41.8208 25.9147 40.3328 25.9147C39.5408 25.9147 38.8928 25.7227 38.3888 25.3387C37.8848 24.9307 37.6328 24.3907 37.6328 23.7187Z" fill="#E4E4E7"/>
<path d="M54.4116 29.0827H59.1276V18.1747C59.1276 16.6867 59.5356 15.5347 60.3516 14.7187C61.1916 13.8787 62.2716 13.4587 63.5916 13.4587H65.2836V9.2827H64.1316C62.9316 9.2827 61.8756 9.4987 60.9636 9.9307C60.0516 10.3627 59.3436 11.1427 58.8396 12.2707V9.4987H54.4116V29.0827Z" fill="#E4E4E7"/>
<path d="M77.3318 29.2987C78.1238 29.2987 78.9038 29.2387 79.6718 29.1187V25.0507C79.2158 25.1227 78.7958 25.1587 78.4118 25.1587C77.2598 25.1587 76.4198 24.8947 75.8918 24.3667C75.3638 23.8387 75.0998 23.0827 75.0998 22.0987V13.7107H79.5998V9.4987H75.0998V5.0347H70.3838V6.5467C70.3838 7.5067 70.1198 8.2387 69.5918 8.7427C69.0638 9.2467 68.3198 9.4987 67.3598 9.4987H66.9998V13.7107H70.3838V22.3507C70.3838 24.5347 70.9838 26.2387 72.1838 27.4627C73.4078 28.6867 75.1238 29.2987 77.3318 29.2987Z" fill="#E4E4E7"/>
<path d="M83.2749 7.3027H87.9909V2.2627H83.2749V7.3027ZM83.2749 29.0827H87.9909V9.4987H83.2749V29.0827Z" fill="#E4E4E7"/>
<path d="M92.3452 29.0827H97.0612V17.5987C97.0612 16.3267 97.4212 15.3067 98.1412 14.5387C98.8852 13.7707 99.8452 13.3867 101.021 13.3867C102.197 13.3867 103.145 13.7707 103.865 14.5387C104.609 15.2827 104.981 16.3027 104.981 17.5987V29.0827H109.697V16.4827C109.697 15.0187 109.385 13.7347 108.761 12.6307C108.137 11.5027 107.261 10.6267 106.133 10.0027C105.029 9.3787 103.757 9.0667 102.317 9.0667C101.093 9.0667 99.9892 9.3067 99.0052 9.7867C98.0452 10.2667 97.3012 10.9747 96.7732 11.9107V9.4987H92.3452V29.0827Z" fill="#E4E4E7"/>
<path d="M123.261 29.5147C125.157 29.5147 126.885 29.0827 128.445 28.2187C130.005 27.3307 131.253 26.1187 132.189 24.5827C133.125 23.0227 133.593 21.2587 133.593 19.2907C133.593 17.3227 133.125 15.5707 132.189 14.0347C131.277 12.4987 130.041 11.2867 128.481 10.3987C126.921 9.5107 125.181 9.0667 123.261 9.0667C121.317 9.0667 119.565 9.5107 118.005 10.3987C116.445 11.2867 115.197 12.4987 114.261 14.0347C113.349 15.5707 112.893 17.3227 112.893 19.2907C112.893 21.2587 113.349 23.0107 114.261 24.5467C115.197 26.0827 116.445 27.2947 118.005 28.1827C119.589 29.0707 121.341 29.5147 123.261 29.5147ZM123.261 25.1947C122.205 25.1947 121.257 24.9427 120.417 24.4387C119.601 23.9347 118.953 23.2387 118.473 22.3507C118.017 21.4387 117.789 20.4187 117.789 19.2907C117.789 18.1627 118.017 17.1547 118.473 16.2667C118.953 15.3787 119.601 14.6827 120.417 14.1787C121.257 13.6507 122.205 13.3867 123.261 13.3867C124.317 13.3867 125.241 13.6507 126.033 14.1787C126.849 14.6827 127.485 15.3787 127.941 16.2667C128.421 17.1547 128.661 18.1627 128.661 19.2907C128.661 20.4187 128.421 21.4387 127.941 22.3507C127.485 23.2387 126.849 23.9347 126.033 24.4387C125.241 24.9427 124.317 25.1947 123.261 25.1947Z" fill="#E4E4E7"/>
</g>
</g>
</svg>
