<svg width="77" height="14" viewBox="0 0 77 14" fill="none" xmlns="http://www.w3.org/2000/svg">
<path d="M9.40128 0.818181V11H7.5419L3.11222 4.59162H3.03764V11H0.884943V0.818181H2.77415L7.16903 7.22159H7.25852V0.818181H9.40128ZM14.6202 11.1491C13.8347 11.1491 13.1586 10.9901 12.5918 10.6719C12.0284 10.3504 11.5942 9.89631 11.2892 9.30966C10.9843 8.7197 10.8319 8.02202 10.8319 7.21662C10.8319 6.43111 10.9843 5.74171 11.2892 5.14844C11.5942 4.55516 12.0234 4.0928 12.5769 3.76136C13.1337 3.42992 13.7866 3.2642 14.5357 3.2642C15.0395 3.2642 15.5085 3.34541 15.9427 3.50781C16.3802 3.6669 16.7613 3.9072 17.0861 4.22869C17.4142 4.55019 17.6695 4.95454 17.8517 5.44176C18.034 5.92566 18.1252 6.49242 18.1252 7.14205V7.72372H11.677V6.41122H16.1316C16.1316 6.1063 16.0653 5.83617 15.9327 5.60085C15.8001 5.36553 15.6162 5.18158 15.3809 5.04901C15.1489 4.91312 14.8787 4.84517 14.5705 4.84517C14.249 4.84517 13.964 4.91974 13.7154 5.06889C13.4701 5.21472 13.2779 5.41193 13.1387 5.66051C12.9995 5.90578 12.9282 6.17921 12.9249 6.48082V7.72869C12.9249 8.10653 12.9945 8.433 13.1337 8.7081C13.2762 8.98319 13.4767 9.19531 13.7353 9.34446C13.9938 9.49361 14.3004 9.56818 14.655 9.56818C14.8903 9.56818 15.1058 9.53504 15.3013 9.46875C15.4969 9.40246 15.6642 9.30303 15.8034 9.17045C15.9427 9.03788 16.0487 8.87547 16.1216 8.68324L18.0804 8.8125C17.981 9.28314 17.7772 9.69413 17.4689 10.0455C17.164 10.3935 16.7696 10.6652 16.2857 10.8608C15.8051 11.053 15.2499 11.1491 14.6202 11.1491ZM22.9874 11.1491C22.2019 11.1491 21.5257 10.9901 20.959 10.6719C20.3955 10.3504 19.9614 9.89631 19.6564 9.30966C19.3515 8.7197 19.199 8.02202 19.199 7.21662C19.199 6.43111 19.3515 5.74171 19.6564 5.14844C19.9614 4.55516 20.3906 4.0928 20.9441 3.76136C21.5009 3.42992 22.1538 3.2642 22.9029 3.2642C23.4067 3.2642 23.8757 3.34541 24.3098 3.50781C24.7473 3.6669 25.1285 3.9072 25.4533 4.22869C25.7814 4.55019 26.0366 4.95454 26.2189 5.44176C26.4012 5.92566 26.4924 6.49242 26.4924 7.14205V7.72372H20.0442V6.41122H24.4988C24.4988 6.1063 24.4325 5.83617 24.2999 5.60085C24.1673 5.36553 23.9834 5.18158 23.748 5.04901C23.516 4.91312 23.2459 4.84517 22.9377 4.84517C22.6162 4.84517 22.3311 4.91974 22.0826 5.06889C21.8373 5.21472 21.6451 5.41193 21.5059 5.66051C21.3667 5.90578 21.2954 6.17921 21.2921 6.48082V7.72869C21.2921 8.10653 21.3617 8.433 21.5009 8.7081C21.6434 8.98319 21.8439 9.19531 22.1025 9.34446C22.361 9.49361 22.6676 9.56818 23.0222 9.56818C23.2575 9.56818 23.473 9.53504 23.6685 9.46875C23.8641 9.40246 24.0314 9.30303 24.1706 9.17045C24.3098 9.03788 24.4159 8.87547 24.4888 8.68324L26.4476 8.8125C26.3482 9.28314 26.1444 9.69413 25.8361 10.0455C25.5312 10.3935 25.1368 10.6652 24.6529 10.8608C24.1723 11.053 23.6171 11.1491 22.9874 11.1491ZM30.6884 11.1243C30.1084 11.1243 29.583 10.9751 29.1124 10.6768C28.6451 10.3752 28.2739 9.93277 27.9988 9.34943C27.727 8.76278 27.5911 8.04356 27.5911 7.19176C27.5911 6.31676 27.732 5.58925 28.0137 5.00923C28.2954 4.4259 28.6699 3.99006 29.1373 3.7017C29.6079 3.41004 30.1233 3.2642 30.6834 3.2642C31.111 3.2642 31.4673 3.33712 31.7523 3.48295C32.0407 3.62547 32.2727 3.80445 32.4483 4.01989C32.6273 4.23201 32.7632 4.44081 32.856 4.64631H32.9206V0.818181H35.0336V11H32.9455V9.77699H32.856C32.7566 9.98911 32.6157 10.1996 32.4334 10.4084C32.2544 10.6139 32.0208 10.7846 31.7324 10.9205C31.4474 11.0563 31.0994 11.1243 30.6884 11.1243ZM31.3596 9.43892C31.7009 9.43892 31.9893 9.34612 32.2246 9.16051C32.4632 8.97159 32.6455 8.7081 32.7715 8.37003C32.9008 8.03196 32.9654 7.63589 32.9654 7.18182C32.9654 6.72775 32.9024 6.33333 32.7765 5.99858C32.6505 5.66383 32.4682 5.4053 32.2296 5.22301C31.9909 5.04072 31.7009 4.94957 31.3596 4.94957C31.0115 4.94957 30.7182 5.04403 30.4796 5.23295C30.2409 5.42187 30.0603 5.68371 29.9377 6.01847C29.815 6.35322 29.7537 6.741 29.7537 7.18182C29.7537 7.62595 29.815 8.0187 29.9377 8.36009C30.0636 8.69815 30.2443 8.9633 30.4796 9.15554C30.7182 9.34446 31.0115 9.43892 31.3596 9.43892ZM42.133 6.58523V11H40.0151V0.818181H42.0733V4.71094H42.1628C42.3352 4.26018 42.6136 3.9072 42.9981 3.65199C43.3825 3.39347 43.8648 3.2642 44.4448 3.2642C44.9751 3.2642 45.4374 3.38021 45.8319 3.61222C46.2296 3.84091 46.5378 4.17069 46.7566 4.60156C46.9786 5.02912 47.088 5.54119 47.0847 6.13778V11H44.9668V6.51562C44.9701 6.04498 44.8508 5.67874 44.6088 5.4169C44.3702 5.15507 44.0355 5.02415 43.6046 5.02415C43.3162 5.02415 43.061 5.08546 42.839 5.2081C42.6202 5.33073 42.4479 5.50971 42.3219 5.74503C42.1993 5.97704 42.1363 6.2571 42.133 6.58523ZM52.2315 11.1491C51.446 11.1491 50.7699 10.9901 50.2031 10.6719C49.6397 10.3504 49.2055 9.89631 48.9006 9.30966C48.5956 8.7197 48.4432 8.02202 48.4432 7.21662C48.4432 6.43111 48.5956 5.74171 48.9006 5.14844C49.2055 4.55516 49.6347 4.0928 50.1882 3.76136C50.745 3.42992 51.398 3.2642 52.147 3.2642C52.6508 3.2642 53.1198 3.34541 53.554 3.50781C53.9915 3.6669 54.3726 3.9072 54.6974 4.22869C55.0256 4.55019 55.2808 4.95454 55.4631 5.44176C55.6454 5.92566 55.7365 6.49242 55.7365 7.14205V7.72372H49.2884V6.41122H53.7429C53.7429 6.1063 53.6766 5.83617 53.544 5.60085C53.4115 5.36553 53.2275 5.18158 52.9922 5.04901C52.7602 4.91312 52.4901 4.84517 52.1818 4.84517C51.8603 4.84517 51.5753 4.91974 51.3267 5.06889C51.0814 5.21472 50.8892 5.41193 50.75 5.66051C50.6108 5.90578 50.5395 6.17921 50.5362 6.48082V7.72869C50.5362 8.10653 50.6058 8.433 50.745 8.7081C50.8876 8.98319 51.0881 9.19531 51.3466 9.34446C51.6051 9.49361 51.9117 9.56818 52.2663 9.56818C52.5017 9.56818 52.7171 9.53504 52.9126 9.46875C53.1082 9.40246 53.2756 9.30303 53.4148 9.17045C53.554 9.03788 53.66 8.87547 53.733 8.68324L55.6918 8.8125C55.5923 9.28314 55.3885 9.69413 55.0803 10.0455C54.7753 10.3935 54.3809 10.6652 53.897 10.8608C53.4164 11.053 52.8613 11.1491 52.2315 11.1491ZM59.2365 0.818181V11H57.1186V0.818181H59.2365ZM60.9331 13.8636V3.36364H63.0211V4.64631H63.1156C63.2084 4.44081 63.3426 4.23201 63.5183 4.01989C63.6973 3.80445 63.9293 3.62547 64.2143 3.48295C64.5027 3.33712 64.8606 3.2642 65.2882 3.2642C65.845 3.2642 66.3587 3.41004 66.8294 3.7017C67.3 3.99006 67.6762 4.4259 67.9579 5.00923C68.2397 5.58925 68.3805 6.31676 68.3805 7.19176C68.3805 8.04356 68.243 8.76278 67.9679 9.34943C67.6961 9.93277 67.3249 10.3752 66.8542 10.6768C66.3869 10.9751 65.8632 11.1243 65.2832 11.1243C64.8722 11.1243 64.5226 11.0563 64.2342 10.9205C63.9492 10.7846 63.7155 10.6139 63.5332 10.4084C63.3509 10.1996 63.2117 9.98911 63.1156 9.77699H63.051V13.8636H60.9331ZM63.0062 7.18182C63.0062 7.63589 63.0692 8.03196 63.1951 8.37003C63.3211 8.7081 63.5034 8.97159 63.742 9.16051C63.9807 9.34612 64.2707 9.43892 64.612 9.43892C64.9567 9.43892 65.2484 9.34446 65.487 9.15554C65.7257 8.9633 65.9063 8.69815 66.029 8.36009C66.1549 8.0187 66.2179 7.62595 66.2179 7.18182C66.2179 6.741 66.1566 6.35322 66.0339 6.01847C65.9113 5.68371 65.7307 5.42187 65.492 5.23295C65.2534 5.04403 64.9601 4.94957 64.612 4.94957C64.2673 4.94957 63.9757 5.04072 63.737 5.22301C63.5017 5.4053 63.3211 5.66383 63.1951 5.99858C63.0692 6.33333 63.0062 6.72775 63.0062 7.18182ZM71.612 7.94744V7.77841C71.6154 7.19839 71.6667 6.73603 71.7662 6.39133C71.8689 6.04664 72.0181 5.76823 72.2136 5.55611C72.4092 5.34399 72.6445 5.15175 72.9196 4.9794C73.1251 4.84683 73.309 4.70928 73.4714 4.56676C73.6338 4.42424 73.7631 4.26681 73.8592 4.09446C73.9553 3.9188 74.0034 3.72325 74.0034 3.50781C74.0034 3.27912 73.9487 3.0786 73.8393 2.90625C73.7299 2.7339 73.5825 2.60132 73.3968 2.50852C73.2146 2.41572 73.0124 2.36932 72.7903 2.36932C72.5749 2.36932 72.371 2.41738 72.1788 2.51349C71.9866 2.6063 71.8291 2.7455 71.7065 2.93111C71.5839 3.1134 71.5176 3.34043 71.5076 3.61222H69.4792C69.4958 2.94934 69.6549 2.40246 69.9565 1.97159C70.2581 1.5374 70.6575 1.21425 71.1547 1.00213C71.6518 0.786694 72.2004 0.678976 72.8003 0.678976C73.4598 0.678976 74.0432 0.788351 74.5503 1.0071C75.0574 1.22254 75.4551 1.53575 75.7434 1.94673C76.0318 2.35772 76.176 2.85322 76.176 3.43324C76.176 3.82102 76.1113 4.16572 75.9821 4.46733C75.8561 4.76562 75.6788 5.03078 75.4501 5.26278C75.2214 5.49148 74.9513 5.69863 74.6397 5.88423C74.3779 6.04001 74.1625 6.20241 73.9934 6.37145C73.8277 6.54048 73.7034 6.73603 73.6206 6.9581C73.541 7.18016 73.4996 7.4536 73.4963 7.77841V7.94744H71.612ZM72.5964 11.1293C72.265 11.1293 71.9816 11.0133 71.7463 10.7812C71.5143 10.5459 71.3999 10.2642 71.4032 9.93608C71.3999 9.61127 71.5143 9.33286 71.7463 9.10085C71.9816 8.86884 72.265 8.75284 72.5964 8.75284C72.9113 8.75284 73.188 8.86884 73.4267 9.10085C73.6653 9.33286 73.7863 9.61127 73.7896 9.93608C73.7863 10.1548 73.7283 10.3554 73.6156 10.5376C73.5062 10.7166 73.362 10.8608 73.1831 10.9702C73.0041 11.0762 72.8085 11.1293 72.5964 11.1293Z" fill="white"/>
</svg>
