<svg width="84" height="30" viewBox="0 0 84 30" fill="none" xmlns="http://www.w3.org/2000/svg">
<path d="M3.56099 29L14.7795 3.43774L16.7027 6.64304H0.916615V0.713237H20.3087L20.9497 3.9586L10.3722 29H3.56099ZM32.3045 29.2805C30.1142 29.2805 28.0975 28.8531 26.2545 27.9983C24.4114 27.1436 22.8756 25.9817 21.6469 24.5126L25.2528 20.3056C26.348 21.4008 27.4565 22.2155 28.5783 22.7497C29.7002 23.2572 30.8755 23.5109 32.1042 23.5109C33.1192 23.5109 34.0006 23.3373 34.7485 22.9901C35.5231 22.6161 36.1241 22.1086 36.5515 21.4675C37.0056 20.8265 37.2326 20.1053 37.2326 19.304C37.2326 18.4759 37.0056 17.7547 36.5515 17.1404C36.1241 16.4993 35.5231 15.9918 34.7485 15.6179C34.0006 15.2439 33.1325 15.0569 32.1442 15.0569C31.2895 15.0569 30.5015 15.1371 29.7803 15.2973C29.0591 15.4576 28.3914 15.6713 27.777 15.9384C27.1627 16.2055 26.5483 16.5127 25.934 16.8599L23.0492 13.0937L24.772 0.713237H41.5197V6.44271H28.0174L29.7803 4.199L28.4581 13.0937L26.0542 12.2924C26.5884 11.8383 27.2561 11.4376 28.0575 11.0904C28.8588 10.7432 29.7269 10.4627 30.6618 10.249C31.6234 10.0086 32.5716 9.8884 33.5065 9.8884C35.3762 9.8884 37.059 10.2891 38.5548 11.0904C40.0506 11.8917 41.2393 13.0136 42.1207 14.456C43.0289 15.8983 43.483 17.5678 43.483 19.4642C43.483 21.3073 42.9888 22.9767 42.0005 24.4725C41.0122 25.9416 39.6767 27.1169 37.9939 27.9983C36.3378 28.8531 34.4414 29.2805 32.3045 29.2805ZM51.2574 29L70.1286 0.953634H76.1786L57.067 29H51.2574ZM52.0988 16.7798C50.6297 16.7798 49.3209 16.4192 48.1723 15.698C47.0238 14.9501 46.129 13.9485 45.4879 12.693C44.8735 11.4376 44.5664 10.0353 44.5664 8.48609C44.5664 6.88344 44.8735 5.45441 45.4879 4.199C46.1022 2.94359 46.9837 1.95529 48.1323 1.2341C49.3075 0.512906 50.6297 0.15231 52.0988 0.15231C53.5946 0.15231 54.9035 0.512906 56.0253 1.2341C57.1739 1.95529 58.0553 2.94359 58.6697 4.199C59.284 5.45441 59.5912 6.88344 59.5912 8.48609C59.5912 10.062 59.2573 11.4643 58.5896 12.693C57.9485 13.9217 57.067 14.91 55.9452 15.6579C54.8233 16.4058 53.5412 16.7798 52.0988 16.7798ZM52.0988 12.4126C52.6063 12.4126 53.0203 12.2523 53.3409 11.9318C53.6881 11.5845 53.9419 11.1171 54.1021 10.5295C54.2624 9.91512 54.3425 9.23399 54.3425 8.48609C54.3425 7.71147 54.2624 7.03035 54.1021 6.44271C53.9419 5.82836 53.6881 5.36092 53.3409 5.04039C53.0203 4.69315 52.6063 4.51953 52.0988 4.51953C51.618 4.51953 51.204 4.69315 50.8568 5.04039C50.5095 5.36092 50.2424 5.82836 50.0554 6.44271C49.8952 7.05706 49.8151 7.73818 49.8151 8.48609C49.8151 9.2607 49.8952 9.95518 50.0554 10.5695C50.2424 11.1572 50.5095 11.6113 50.8568 11.9318C51.204 12.2523 51.618 12.4126 52.0988 12.4126ZM76.0184 29.5209C74.5226 29.5209 73.2004 29.1469 72.0518 28.399C70.93 27.6511 70.0485 26.6628 69.4074 25.4341C68.7931 24.1787 68.4859 22.7764 68.4859 21.2272C68.4859 19.6245 68.7931 18.1955 69.4074 16.9401C70.0218 15.6847 70.9032 14.6964 72.0518 13.9752C73.2004 13.254 74.5226 12.8934 76.0184 12.8934C77.5142 12.8934 78.823 13.254 79.9449 13.9752C81.0934 14.6964 81.9749 15.6847 82.5892 16.9401C83.2036 18.1955 83.5108 19.6245 83.5108 21.2272C83.5108 22.7764 83.1769 24.1787 82.5091 25.4341C81.868 26.6628 80.9866 27.6511 79.8647 28.399C78.7429 29.1469 77.4608 29.5209 76.0184 29.5209ZM76.0184 25.1136C76.5259 25.1136 76.9399 24.9533 77.2604 24.6328C77.6077 24.2855 77.8614 23.8181 78.0217 23.2305C78.1819 22.6428 78.2621 21.9751 78.2621 21.2272C78.2621 20.4525 78.1686 19.7714 77.9816 19.1838C77.8214 18.5694 77.581 18.102 77.2604 17.7815C76.9399 17.4342 76.5259 17.2606 76.0184 17.2606C75.5109 17.2606 75.0835 17.4342 74.7362 17.7815C74.389 18.102 74.1219 18.5694 73.9349 19.1838C73.7747 19.7714 73.6945 20.4525 73.6945 21.2272C73.6945 22.0018 73.788 22.6829 73.975 23.2705C74.162 23.8582 74.4157 24.3123 74.7362 24.6328C75.0835 24.9533 75.5109 25.1136 76.0184 25.1136Z" fill="#22E27F"/>
</svg>
