<svg width="12" height="11" viewBox="0 0 12 11" fill="none" xmlns="http://www.w3.org/2000/svg">
<g id="Icon" clip-path="url(#clip0_36_1742)">
<path id="Vector" d="M10.838 2.58686C10.8132 2.53872 10.7774 2.49711 10.7336 2.46541C10.6897 2.43371 10.6389 2.41282 10.5855 2.40444C10.532 2.39607 10.4773 2.40044 10.4258 2.41721C10.3743 2.43397 10.3275 2.46266 10.2893 2.50092L8.96926 3.82178C8.90446 3.88564 8.81714 3.92144 8.72616 3.92144C8.63518 3.92144 8.54786 3.88564 8.48306 3.82178L7.91244 3.2503C7.88051 3.21838 7.85518 3.18048 7.8379 3.13877C7.82062 3.09706 7.81173 3.05235 7.81173 3.0072C7.81173 2.96206 7.82062 2.91735 7.8379 2.87564C7.85518 2.83393 7.88051 2.79603 7.91244 2.76411L9.22685 1.44948C9.26626 1.41008 9.29549 1.3617 9.31204 1.30849C9.32859 1.25528 9.33196 1.19885 9.32185 1.14405C9.31175 1.08926 9.28847 1.03774 9.25403 0.993935C9.21959 0.950131 9.17502 0.915356 9.12416 0.892605C8.13137 0.448738 6.89215 0.68034 6.11076 1.45593C5.44689 2.11507 5.24902 3.14503 5.56828 4.28176C5.58549 4.34238 5.58559 4.40658 5.56857 4.46725C5.55154 4.52793 5.51805 4.5827 5.47182 4.62551L1.8951 7.89221C1.75576 8.01732 1.64337 8.1695 1.56478 8.33947C1.48619 8.50944 1.44306 8.69364 1.438 8.88084C1.43295 9.06803 1.46608 9.25429 1.53538 9.42826C1.60468 9.60222 1.7087 9.76025 1.84108 9.89269C1.97347 10.0251 2.13144 10.1292 2.30538 10.1986C2.47932 10.268 2.66556 10.3012 2.85276 10.2962C3.03995 10.2912 3.22417 10.2482 3.39418 10.1697C3.56419 10.0912 3.71642 9.97884 3.84158 9.83956L7.1433 6.25489C7.1855 6.20925 7.23935 6.17598 7.29905 6.15868C7.35875 6.14138 7.42205 6.1407 7.48211 6.1567C7.80574 6.24538 8.13956 6.29139 8.47512 6.29356C9.19269 6.29356 9.8224 6.06131 10.2766 5.61379C11.1177 4.78514 11.246 3.37964 10.838 2.58686ZM2.88746 9.6043C2.74597 9.61975 2.60316 9.59089 2.47876 9.52172C2.35436 9.45255 2.2545 9.34648 2.19296 9.21813C2.13141 9.08979 2.11122 8.94551 2.13516 8.8052C2.15911 8.66489 2.22601 8.53548 2.32664 8.43481C2.42727 8.33415 2.55666 8.2672 2.69696 8.2432C2.83726 8.21921 2.98155 8.23935 3.10992 8.30085C3.23828 8.36235 3.34439 8.46218 3.41361 8.58655C3.48282 8.71093 3.51172 8.85372 3.49633 8.99522C3.47939 9.15091 3.4098 9.29615 3.29908 9.40691C3.18836 9.51767 3.04315 9.58731 2.88746 9.6043Z" fill="#2D3748"/>
</g>
<defs>
<clipPath id="clip0_36_1742">
<rect width="11" height="11" fill="white" transform="translate(0.75 -0.00280762)"/>
</clipPath>
</defs>
</svg>
