<svg width="12" height="12" viewBox="0 0 12 12" fill="none" xmlns="http://www.w3.org/2000/svg">
<g id="IONIcon/S/settings/sharp" clip-path="url(#clip0_36_1796)">
<path id="Vector" d="M5.99954 4.12512C5.6287 4.12512 5.26619 4.23509 4.95785 4.44111C4.64951 4.64714 4.40918 4.93998 4.26727 5.28259C4.12535 5.6252 4.08822 6.0022 4.16057 6.36591C4.23292 6.72963 4.41149 7.06372 4.67372 7.32594C4.93594 7.58817 5.27003 7.76674 5.63375 7.83909C5.99746 7.91144 6.37446 7.87431 6.71707 7.73239C7.05968 7.59048 7.35252 7.35016 7.55855 7.04181C7.76457 6.73347 7.87454 6.37096 7.87454 6.00012C7.87306 5.5033 7.67504 5.02724 7.32373 4.67593C6.97242 4.32462 6.49637 4.1266 5.99954 4.12512ZM10.0477 6.00012C10.0467 6.17532 10.0338 6.35025 10.0092 6.52371L11.1504 7.41715C11.2001 7.45819 11.2336 7.51557 11.2449 7.57902C11.2562 7.64248 11.2445 7.70789 11.212 7.76356L10.1325 9.62731C10.0997 9.68248 10.0485 9.72431 9.98785 9.74545C9.92724 9.76658 9.86111 9.76566 9.8011 9.74285L8.45931 9.20379C8.1799 9.41894 7.87415 9.5975 7.54946 9.73512L7.34884 11.1596C7.33761 11.2235 7.30457 11.2814 7.25537 11.3235C7.20616 11.3657 7.14385 11.3894 7.07907 11.3907H4.92001C4.85641 11.3895 4.79511 11.3667 4.74612 11.3262C4.69712 11.2856 4.66333 11.2296 4.65025 11.1674L4.44962 9.74285C4.12404 9.60683 3.81807 9.42799 3.53978 9.21106L2.19798 9.75012C2.138 9.77295 2.07189 9.7739 2.01128 9.75281C1.95067 9.73172 1.89943 9.68994 1.86658 9.6348L0.787045 7.77129C0.754551 7.71562 0.74291 7.65022 0.754202 7.58676C0.765494 7.5233 0.798983 7.46592 0.848686 7.42488L1.98986 6.53145C1.96552 6.35536 1.95268 6.17788 1.95142 6.00012C1.95239 5.82492 1.96524 5.64999 1.98986 5.47653L0.848686 4.58309C0.798983 4.54205 0.765494 4.48467 0.754202 4.42121C0.74291 4.35776 0.754551 4.29235 0.787045 4.23668L1.86658 2.37293C1.89939 2.31776 1.95061 2.27593 2.01123 2.25479C2.07185 2.23366 2.13798 2.23458 2.19798 2.25739L3.53978 2.79645C3.81918 2.5813 4.12494 2.40274 4.44962 2.26512L4.65025 0.840591C4.66147 0.776782 4.69451 0.718853 4.74372 0.676703C4.79292 0.634553 4.85524 0.610798 4.92001 0.609497H7.07907C7.14267 0.610735 7.20397 0.633495 7.25297 0.674062C7.30196 0.714629 7.33576 0.770606 7.34884 0.832856L7.54946 2.25739C7.87545 2.39332 8.18183 2.57216 8.46048 2.78918L9.8011 2.25012C9.86108 2.22729 9.92719 2.22634 9.9878 2.24743C10.0484 2.26852 10.0997 2.3103 10.1325 2.36543L11.212 4.22918C11.2445 4.28485 11.2562 4.35026 11.2449 4.41371C11.2336 4.47717 11.2001 4.53455 11.1504 4.57559L10.0092 5.46903C10.0336 5.64503 10.0464 5.82244 10.0477 6.00012Z" fill="white"/>
</g>
<defs>
<clipPath id="clip0_36_1796">
<rect width="12" height="12" fill="white"/>
</clipPath>
</defs>
</svg>
