<svg width="188" height="40" viewBox="0 0 188 40" fill="none" xmlns="http://www.w3.org/2000/svg">
<g id="Logo">
<g id="Group">
<path id="Vector" d="M21.8407 6.88515L23.3278 5.39808C26.248 2.47785 31.0022 2.40557 33.9393 5.30897C35.0521 6.41157 35.7917 7.83508 36.0541 9.37956C36.3164 10.9241 36.0883 12.5119 35.4019 13.9201C35.0726 14.5928 34.9617 15.3515 35.0844 16.0903C35.2074 16.8291 35.5579 17.5111 36.0872 18.041C37.0604 17.0655 37.8318 15.9078 38.3575 14.634C38.8831 13.3603 39.1527 11.9955 39.1508 10.6175C39.1487 9.23957 38.8755 7.87551 38.3462 6.60326C37.8169 5.331 37.0421 4.17549 36.0661 3.20274C31.9592 -0.88102 25.2929 -0.799754 21.1975 3.29548L7.02315 17.4694L5.85789 16.3042C2.88813 13.3344 2.8692 8.48007 5.89135 5.56309C7.01001 4.48669 8.43521 3.78401 9.97024 3.55207C11.5053 3.32013 13.0744 3.57035 14.4612 4.26819C15.0942 4.59255 15.8134 4.70857 16.5163 4.59972C17.2191 4.49086 17.8696 4.16268 18.3748 3.66204L18.4109 3.62609C18.4222 3.61492 18.4311 3.60163 18.4372 3.58699C18.4433 3.57236 18.4464 3.55666 18.4464 3.54081C18.4464 3.52496 18.4433 3.50926 18.4372 3.49463C18.4311 3.48 18.4222 3.46671 18.4109 3.45553C16.46 1.55364 13.8457 0.485352 11.1212 0.476715C8.39662 0.46808 5.77557 1.51977 3.81266 3.40925C-0.415672 7.49111 -0.400562 14.2788 3.75529 18.4347L17.9254 32.6048L16.4202 34.1101C13.5 37.0303 8.74561 37.1026 5.80874 34.1992C4.69586 33.0966 3.9563 31.673 3.69393 30.1286C3.43159 28.5842 3.65959 26.9963 4.34595 25.588C4.67524 24.9153 4.78622 24.1566 4.66341 23.4179C4.54057 22.6791 4.19006 21.997 3.66083 21.4672C2.68761 22.4427 1.91613 23.6003 1.39046 24.874C0.864782 26.1479 0.595225 27.5126 0.597179 28.8907C0.599132 30.2686 0.872557 31.6327 1.40184 32.9048C1.93112 34.1772 2.70589 35.3327 3.68187 36.3054C7.78858 40.3894 14.4551 40.3083 18.5505 36.2129L32.7432 22.02L33.9129 23.1896C36.8331 26.1098 36.9054 30.864 34.002 33.8009C32.8994 34.9139 31.4758 35.6534 29.9314 35.9159C28.387 36.1782 26.7991 35.9501 25.3908 35.2637C24.7179 34.9342 23.9588 34.8231 23.2198 34.9462C22.4807 35.0692 21.7985 35.4201 21.2686 35.9497C22.2442 36.923 23.4018 37.6946 24.6755 38.2202C25.9494 38.7459 27.3141 39.0155 28.6921 39.0136C30.07 39.0115 31.4342 38.738 32.7063 38.2087C33.9786 37.6795 35.1342 36.9047 36.1069 35.9287C40.1908 31.822 40.1096 25.1555 36.0143 21.0603L21.8407 6.88515ZM20.0414 30.4879L9.1397 19.5862L19.724 9.00208L30.6257 19.9038L20.0414 30.4879Z" fill="#E4E4E7"/>
<g id="From Amazon.com">
<path d="M57.2486 32.3965C55.0793 32.3965 53.4209 31.76 52.2734 30.4871C51.135 29.2142 50.4985 27.4751 50.364 25.2699L53.8063 24.4093C53.9766 27.8516 55.1241 29.5728 57.2486 29.5728C58.9698 29.5728 59.8303 28.7122 59.8303 26.991C59.8303 26.4801 59.7586 26.0094 59.6152 25.5792C59.4807 25.1399 59.2701 24.741 58.9832 24.3824C58.6963 24.0149 58.4364 23.7235 58.2033 23.5084C57.9702 23.2843 57.652 23.0109 57.2486 22.6882L52.9457 19.2459C52.1569 18.6273 51.5249 17.843 51.0498 16.8928C50.5837 15.9336 50.3506 14.8444 50.3506 13.6253C50.3506 11.8503 50.9019 10.4385 52.0045 9.38964C53.1071 8.34082 54.5683 7.81641 56.388 7.81641C58.3423 7.81641 59.8931 8.296 61.0405 9.25518C62.1969 10.2054 62.9096 11.5545 63.1785 13.3026C63.2054 13.4908 63.2368 13.7508 63.2726 14.0824L59.8303 14.943C59.8214 14.7906 59.799 14.562 59.7631 14.2573C59.6107 13.1636 59.2656 12.2896 58.7277 11.6352C58.1988 10.9718 57.4189 10.6402 56.388 10.6402C55.5633 10.6402 54.9269 10.8732 54.4786 11.3394C54.0304 11.7966 53.8063 12.4375 53.8063 13.2622C53.8063 14.6158 54.38 15.7498 55.5275 16.6642L59.8303 20.1065C62.1252 21.9621 63.2726 24.1807 63.2726 26.7624C63.2726 28.5284 62.7258 29.9089 61.6322 30.9039C60.5475 31.899 59.0863 32.3965 57.2486 32.3965Z" fill="#E4E4E7"/>
<path d="M70.4665 29.5728C71.3719 29.5728 72.2324 29.3397 73.0482 28.8735V18.224C73.0123 18.206 72.9227 18.1522 72.7793 18.0626C72.6358 17.973 72.5327 17.9147 72.47 17.8878C72.4162 17.8519 72.3221 17.7982 72.1876 17.7264C72.0531 17.6547 71.9411 17.6054 71.8515 17.5785C71.7708 17.5427 71.6632 17.5068 71.5287 17.471C71.4032 17.4261 71.2777 17.3948 71.1522 17.3768C71.0357 17.3589 70.9102 17.3499 70.7757 17.3499C70.4889 17.3499 70.2334 17.4172 70.0093 17.5516C69.7941 17.6771 69.6149 17.8295 69.4714 18.0088C69.328 18.1881 69.2025 18.4436 69.0949 18.7753C68.9963 19.1069 68.9246 19.4028 68.8798 19.6627C68.835 19.9137 68.7991 20.2544 68.7722 20.6847C68.7453 21.106 68.7274 21.4332 68.7184 21.6662C68.7184 21.8993 68.7184 22.2265 68.7184 22.6478C68.7184 22.6658 68.7184 22.6792 68.7184 22.6882C68.7184 22.8406 68.7184 23.0871 68.7184 23.4277C68.7184 23.7684 68.7184 24.0956 68.7184 24.4093C68.7184 24.7231 68.7184 25.0189 68.7184 25.2968C68.7274 25.8974 68.7543 26.4263 68.7991 26.8835C68.8529 27.3317 68.9381 27.7754 69.0546 28.2147C69.1801 28.6449 69.3594 28.9811 69.5924 29.2231C69.8345 29.4562 70.1258 29.5728 70.4665 29.5728ZM73.0482 37.3179V30.6081C72.5372 31.137 72.0083 31.5673 71.4615 31.899C70.9236 32.2307 70.3051 32.3965 69.6059 32.3965C68.9425 32.3965 68.3509 32.2307 67.831 31.899C67.32 31.5583 66.9076 31.1236 66.5939 30.5947C66.2891 30.0658 66.0336 29.4428 65.8274 28.7256C65.6302 27.9995 65.4913 27.2869 65.4106 26.5876C65.3389 25.8884 65.303 25.1623 65.303 24.4093V21.7873C65.303 21.0074 65.3389 20.2947 65.4106 19.6493C65.4823 19.0038 65.6123 18.3674 65.8006 17.7399C65.9888 17.1124 66.2353 16.5835 66.5401 16.1532C66.8539 15.714 67.2662 15.3643 67.7772 15.1044C68.2881 14.8354 68.8798 14.701 69.5521 14.701C69.9376 14.701 70.2961 14.7548 70.6278 14.8623C70.9685 14.9609 71.2912 15.1223 71.596 15.3464C71.9097 15.5705 72.1518 15.7677 72.3221 15.9381C72.5014 16.0994 72.7434 16.3415 73.0482 16.6642V14.943H76.4905V37.3179H73.0482Z" fill="#E4E4E7"/>
<path d="M81.7077 32.3965C80.9547 32.3965 80.3496 32.1321 79.8924 31.6032C79.4352 31.0653 79.2067 30.4019 79.2067 29.6131V14.943H82.6489V28.5643C82.6489 28.9228 82.7565 29.2142 82.9717 29.4383C83.1958 29.6624 83.4826 29.7744 83.8322 29.7744C84.0205 29.7744 84.2043 29.752 84.3835 29.7072C84.5628 29.6624 84.7376 29.5862 84.9079 29.4786C85.0872 29.3621 85.2262 29.2724 85.3248 29.2097C85.4234 29.138 85.5623 29.0214 85.7416 28.8601C85.9299 28.6987 86.0464 28.6001 86.0912 28.5643V14.943H89.5335V32.1545H86.0912V30.2989C85.7506 30.5947 85.4996 30.8098 85.3382 30.9443C85.1858 31.0788 84.9483 31.2625 84.6256 31.4956C84.3029 31.7197 84.016 31.8855 83.765 31.9931C83.523 32.0917 83.2182 32.1814 82.8506 32.262C82.4831 32.3517 82.1021 32.3965 81.7077 32.3965Z" fill="#E4E4E7"/>
<path d="M97.2518 29.5728C97.4938 29.5728 97.7269 29.501 97.951 29.3576C98.1841 29.2142 98.3589 29.0752 98.4754 28.9408C98.5919 28.8063 98.7354 28.627 98.9057 28.4029C98.9326 28.3581 98.955 28.3267 98.9729 28.3088V23.5487C98.8295 23.6474 98.5919 23.7997 98.2603 24.0059C97.9286 24.2121 97.6641 24.3824 97.4669 24.5169C97.2697 24.6424 97.0322 24.8217 96.7543 25.0547C96.4764 25.2789 96.2612 25.4985 96.1088 25.7136C95.9564 25.9198 95.822 26.1753 95.7054 26.4801C95.5889 26.7849 95.5306 27.1031 95.5306 27.4348C95.5306 28.8601 96.1044 29.5728 97.2518 29.5728ZM95.5306 32.3965C94.5715 32.3965 93.7557 31.9841 93.0834 31.1594C92.42 30.3258 92.0883 29.389 92.0883 28.3491C92.0883 27.5154 92.2273 26.758 92.5052 26.0767C92.792 25.3954 93.0924 24.8531 93.4061 24.4497C93.7199 24.0373 94.2443 23.616 94.9793 23.1857C95.7144 22.7464 96.2702 22.4461 96.6467 22.2848C97.0232 22.1234 97.6776 21.859 98.6099 21.4914C98.7712 21.4287 98.8923 21.3794 98.9729 21.3435V20.1065C98.9729 19.2369 98.8519 18.5646 98.6099 18.0895C98.3678 17.6054 97.9151 17.3634 97.2518 17.3634C96.6601 17.3634 96.2343 17.5696 95.9744 17.9819C95.7234 18.3853 95.5799 18.9456 95.5441 19.6627C95.5351 19.7613 95.5306 19.9092 95.5306 20.1065H92.0883C92.1063 18.457 92.5679 17.1438 93.4733 16.1666C94.3787 15.1895 95.6382 14.701 97.2518 14.701C98.8564 14.701 100.116 15.1985 101.03 16.1935C101.954 17.1796 102.415 18.4839 102.415 20.1065V27.8516C102.415 29.6445 102.563 31.0788 102.859 32.1545H99.4301L98.9729 29.5728C98.7936 29.9313 98.6457 30.2092 98.5292 30.4064C98.4216 30.6036 98.2603 30.8502 98.0451 31.146C97.83 31.4328 97.6148 31.657 97.3997 31.8183C97.1846 31.9707 96.9156 32.1052 96.5929 32.2217C96.2702 32.3382 95.9161 32.3965 95.5306 32.3965Z" fill="#E4E4E7"/>
<path d="M105.387 32.1545V14.943H108.829V17.2424C109.179 16.5611 109.685 15.9694 110.349 15.4674C111.021 14.9565 111.765 14.701 112.581 14.701C112.608 14.701 112.791 14.7189 113.132 14.7548V18.5601C112.496 18.3091 111.859 18.1836 111.223 18.1836C110.505 18.1836 109.927 18.3988 109.488 18.829C109.049 19.2593 108.829 19.8286 108.829 20.5367V32.1545H105.387Z" fill="#E4E4E7"/>
<path d="M119.452 32.3965C118.618 32.3965 117.892 32.2531 117.274 31.9662C116.664 31.6794 116.175 31.3073 115.808 30.8502C115.449 30.384 115.158 29.7924 114.934 29.0752C114.71 28.3491 114.553 27.6275 114.463 26.9104C114.383 26.1842 114.333 25.3416 114.315 24.3824C114.288 23.6294 114.288 22.8764 114.315 22.1234C114.342 21.227 114.4 20.4337 114.49 19.7434C114.589 19.0442 114.755 18.3674 114.988 17.713C115.221 17.0586 115.521 16.5207 115.889 16.0994C116.265 15.6781 116.754 15.3419 117.354 15.0909C117.964 14.831 118.672 14.701 119.479 14.701C120.214 14.701 120.859 14.7996 121.415 14.9968C121.98 15.1851 122.446 15.4764 122.813 15.8708C123.19 16.2563 123.499 16.6866 123.741 17.1617C123.992 17.6368 124.181 18.215 124.306 18.8963C124.432 19.5686 124.517 20.232 124.562 20.8863C124.615 21.5407 124.642 22.2937 124.642 23.1454V23.5487H117.758V24.4093C117.758 24.5259 117.758 24.7096 117.758 24.9606C117.74 25.2923 117.735 25.6374 117.744 25.996C117.762 26.3456 117.78 26.6907 117.798 27.0314C117.816 27.372 117.865 27.6992 117.946 28.013C118.027 28.3178 118.125 28.5867 118.242 28.8198C118.358 29.0528 118.52 29.2366 118.726 29.3711C118.941 29.5055 119.192 29.5728 119.479 29.5728C119.837 29.5728 120.133 29.5055 120.366 29.3711C120.599 29.2276 120.77 29.017 120.877 28.7391C120.994 28.4612 121.074 28.1833 121.119 27.9054C121.164 27.6275 121.191 27.2779 121.2 26.8566V26.1305H124.615V26.8162C124.535 28.6539 124.082 30.0434 123.257 30.9846C122.432 31.9259 121.164 32.3965 119.452 32.3965ZM117.758 21.8276H121.173V20.7922C121.164 20.335 121.137 19.9361 121.092 19.5955C121.048 19.2548 120.967 18.9142 120.85 18.5736C120.743 18.2329 120.572 17.973 120.339 17.7937C120.106 17.6144 119.819 17.5247 119.479 17.5247C119.129 17.5247 118.833 17.6189 118.591 17.8071C118.358 17.9954 118.183 18.2688 118.067 18.6273C117.959 18.977 117.883 19.3221 117.838 19.6627C117.793 20.0034 117.767 20.4112 117.758 20.8863V21.8276Z" fill="#E4E4E7"/>
<path d="M133.571 32.3965C131.401 32.3965 129.743 31.76 128.595 30.4871C127.457 29.2142 126.821 27.4751 126.686 25.2699L130.128 24.4093C130.299 27.8516 131.446 29.5728 133.571 29.5728C135.292 29.5728 136.152 28.7122 136.152 26.991C136.152 26.4801 136.081 26.0094 135.937 25.5792C135.803 25.1399 135.592 24.741 135.305 24.3824C135.018 24.0149 134.758 23.7235 134.525 23.5084C134.292 23.2843 133.974 23.0109 133.571 22.6882L129.268 19.2459C128.479 18.6273 127.847 17.843 127.372 16.8928C126.906 15.9336 126.673 14.8444 126.673 13.6253C126.673 11.8503 127.224 10.4385 128.327 9.38964C129.429 8.34082 130.89 7.81641 132.71 7.81641C134.664 7.81641 136.215 8.296 137.363 9.25518C138.519 10.2054 139.232 11.5545 139.501 13.3026C139.527 13.4908 139.559 13.7508 139.595 14.0824L136.152 14.943C136.143 14.7906 136.121 14.562 136.085 14.2573C135.933 13.1636 135.588 12.2896 135.05 11.6352C134.521 10.9718 133.741 10.6402 132.71 10.6402C131.885 10.6402 131.249 10.8732 130.801 11.3394C130.352 11.7966 130.128 12.4375 130.128 13.2622C130.128 14.6158 130.702 15.7498 131.849 16.6642L136.152 20.1065C138.447 21.9621 139.595 24.1807 139.595 26.7624C139.595 28.5284 139.048 29.9089 137.954 30.9039C136.869 31.899 135.408 32.3965 133.571 32.3965Z" fill="#E4E4E7"/>
<path d="M146.735 32.3965C145.381 32.3965 144.395 32.0514 143.776 31.3611C143.167 30.6709 142.853 29.6265 142.835 28.2281V17.5247H141.114V14.943H142.835V8.91901H146.278V14.943H148.859V17.5247H146.278V27.5692C146.278 28.2595 146.372 28.766 146.56 29.0887C146.748 29.4114 147.129 29.5728 147.703 29.5728C147.954 29.5728 148.339 29.5279 148.859 29.4383V32.2351C147.999 32.3427 147.29 32.3965 146.735 32.3965Z" fill="#E4E4E7"/>
<path d="M160.074 30.7829C159.276 31.8586 157.954 32.3965 156.107 32.3965C154.26 32.3965 152.938 31.8586 152.14 30.7829C151.342 29.7072 150.943 28.1564 150.943 26.1305V20.967C150.943 18.9411 151.342 17.3903 152.14 16.3146C152.938 15.2388 154.26 14.701 156.107 14.701C157.954 14.701 159.276 15.2388 160.074 16.3146C160.871 17.3903 161.27 18.9411 161.27 20.967V26.1305C161.27 28.1564 160.871 29.7072 160.074 30.7829ZM155.461 29.4652C155.65 29.5369 155.865 29.5728 156.107 29.5728C156.349 29.5728 156.56 29.5369 156.739 29.4652C156.927 29.3935 157.079 29.3083 157.196 29.2097C157.322 29.1021 157.425 28.9497 157.505 28.7525C157.586 28.5463 157.649 28.3671 157.694 28.2147C157.738 28.0623 157.77 27.8426 157.788 27.5558C157.806 27.2689 157.815 27.0448 157.815 26.8835C157.824 26.7131 157.828 26.4621 157.828 26.1305V20.967C157.828 20.6353 157.824 20.3888 157.815 20.2275C157.815 20.0572 157.806 19.8286 157.788 19.5417C157.77 19.2548 157.738 19.0352 157.694 18.8828C157.649 18.7304 157.586 18.5556 157.505 18.3584C157.425 18.1522 157.322 17.9998 157.196 17.9012C157.079 17.7937 156.927 17.704 156.739 17.6323C156.56 17.5606 156.349 17.5247 156.107 17.5247C155.865 17.5247 155.65 17.5606 155.461 17.6323C155.282 17.704 155.13 17.7937 155.004 17.9012C154.888 17.9998 154.789 18.1522 154.708 18.3584C154.628 18.5556 154.565 18.7304 154.52 18.8828C154.475 19.0352 154.444 19.2548 154.426 19.5417C154.408 19.8286 154.395 20.0572 154.386 20.2275C154.386 20.3888 154.386 20.6353 154.386 20.967V26.1305C154.386 26.4621 154.386 26.7131 154.386 26.8835C154.395 27.0448 154.408 27.2689 154.426 27.5558C154.444 27.8426 154.475 28.0623 154.52 28.2147C154.565 28.3671 154.628 28.5463 154.708 28.7525C154.789 28.9497 154.888 29.1021 155.004 29.2097C155.13 29.3083 155.282 29.3935 155.461 29.4652Z" fill="#E4E4E7"/>
<path d="M164.094 32.1545V14.943H167.536V16.7986C168.047 16.3325 168.464 15.9784 168.787 15.7364C169.11 15.4854 169.553 15.2523 170.118 15.0371C170.692 14.813 171.301 14.701 171.947 14.701C172.682 14.701 173.278 14.9699 173.735 15.5078C174.192 16.0456 174.421 16.7045 174.421 17.4844V32.1545H170.979V19.2459C170.979 18.6453 170.893 18.2105 170.723 17.9416C170.553 17.6637 170.208 17.5247 169.688 17.5247C169.392 17.5247 169.096 17.5875 168.8 17.713C168.513 17.8295 168.298 17.9416 168.155 18.0491C168.011 18.1478 167.805 18.3091 167.536 18.5332V32.1545H164.094Z" fill="#E4E4E7"/>
<path d="M182.301 32.3965C181.467 32.3965 180.741 32.2531 180.122 31.9662C179.513 31.6794 179.024 31.3073 178.657 30.8502C178.298 30.384 178.007 29.7924 177.783 29.0752C177.558 28.3491 177.402 27.6275 177.312 26.9104C177.231 26.1842 177.182 25.3416 177.164 24.3824C177.137 23.6294 177.137 22.8764 177.164 22.1234C177.191 21.227 177.249 20.4337 177.339 19.7434C177.437 19.0442 177.603 18.3674 177.836 17.713C178.069 17.0586 178.37 16.5207 178.737 16.0994C179.114 15.6781 179.602 15.3419 180.203 15.0909C180.812 14.831 181.521 14.701 182.327 14.701C183.063 14.701 183.708 14.7996 184.264 14.9968C184.828 15.1851 185.295 15.4764 185.662 15.8708C186.039 16.2563 186.348 16.6866 186.59 17.1617C186.841 17.6368 187.029 18.215 187.155 18.8963C187.28 19.5686 187.365 20.232 187.41 20.8863C187.464 21.5407 187.491 22.2937 187.491 23.1454V23.5487H180.606V24.4093C180.606 24.5259 180.606 24.7096 180.606 24.9606C180.588 25.2923 180.584 25.6374 180.593 25.996C180.611 26.3456 180.629 26.6907 180.647 27.0314C180.665 27.372 180.714 27.6992 180.795 28.013C180.875 28.3178 180.974 28.5867 181.09 28.8198C181.207 29.0528 181.368 29.2366 181.574 29.3711C181.79 29.5055 182.041 29.5728 182.327 29.5728C182.686 29.5728 182.982 29.5055 183.215 29.3711C183.448 29.2276 183.618 29.017 183.726 28.7391C183.842 28.4612 183.923 28.1833 183.968 27.9054C184.013 27.6275 184.04 27.2779 184.049 26.8566V26.1305H187.464V26.8162C187.383 28.6539 186.931 30.0434 186.106 30.9846C185.281 31.9259 184.013 32.3965 182.301 32.3965ZM180.606 21.8276H184.022V20.7922C184.013 20.335 183.986 19.9361 183.941 19.5955C183.896 19.2548 183.816 18.9142 183.699 18.5736C183.591 18.2329 183.421 17.973 183.188 17.7937C182.955 17.6144 182.668 17.5247 182.327 17.5247C181.978 17.5247 181.682 17.6189 181.44 17.8071C181.207 17.9954 181.032 18.2688 180.916 18.6273C180.808 18.977 180.732 19.3221 180.687 19.6627C180.642 20.0034 180.615 20.4112 180.606 20.8863V21.8276Z" fill="#E4E4E7"/>
</g>
</g>
</g>
</svg>
