<svg width="12" height="11" viewBox="0 0 12 11" fill="none" xmlns="http://www.w3.org/2000/svg">
<g id="Icon" clip-path="url(#clip0_36_1750)">
<path id="Vector" d="M6.66072 5.32514C6.67765 5.32515 6.69421 5.32017 6.70832 5.31081C6.72242 5.30144 6.73345 5.28812 6.74001 5.27252C6.74658 5.25691 6.74838 5.23972 6.74521 5.22309C6.74203 5.20646 6.73402 5.19114 6.72217 5.17905L5.03779 3.46631C5.02582 3.45416 5.01051 3.44584 4.99379 3.44242C4.97708 3.439 4.95973 3.44063 4.94395 3.4471C4.92816 3.45358 4.91467 3.4646 4.90517 3.47877C4.89567 3.49295 4.89061 3.50962 4.89063 3.52668V5.06733C4.89063 5.1357 4.91779 5.20128 4.96614 5.24963C5.01449 5.29798 5.08006 5.32514 5.14844 5.32514H6.66072Z" fill="#2D3748"/>
<path id="Vector_2" d="M4.48242 5.73352C4.39418 5.64646 4.32406 5.54278 4.27612 5.42846C4.22818 5.31415 4.20337 5.19146 4.20312 5.0675V3.09094H2.65625C2.29191 3.09202 1.9428 3.23723 1.68517 3.49486C1.42754 3.75249 1.28233 4.1016 1.28125 4.46594V9.27844C1.28125 9.64311 1.42612 9.99285 1.68398 10.2507C1.94184 10.5086 2.29158 10.6534 2.65625 10.6534H5.75C6.11467 10.6534 6.46441 10.5086 6.72227 10.2507C6.98013 9.99285 7.125 9.64311 7.125 9.27844V6.01282H5.14844C5.02447 6.01264 4.90176 5.98786 4.78744 5.93992C4.67311 5.89198 4.56944 5.82182 4.48242 5.73352Z" fill="#2D3748"/>
<path id="Vector_3" d="M8.24219 2.57496H9.75447C9.7714 2.57497 9.78796 2.56998 9.80207 2.56062C9.81617 2.55126 9.8272 2.53794 9.83376 2.52234C9.84033 2.50673 9.84213 2.48953 9.83896 2.4729C9.83578 2.45627 9.82777 2.44095 9.81592 2.42886L8.13154 0.716128C8.11957 0.703974 8.10426 0.695657 8.08754 0.692236C8.07083 0.688816 8.05348 0.690446 8.0377 0.696921C8.02191 0.703395 8.00842 0.71442 7.99892 0.728592C7.98942 0.742763 7.98436 0.75944 7.98438 0.776499V2.31714C7.98438 2.38552 8.01154 2.45109 8.05989 2.49944C8.10824 2.54779 8.17381 2.57496 8.24219 2.57496Z" fill="#2D3748"/>
<path id="Vector_4" d="M8.24219 3.26257C7.99206 3.26066 7.75273 3.16045 7.57586 2.98359C7.39899 2.80672 7.29878 2.56738 7.29687 2.31726V0.340698H4.97656C4.6348 0.341096 4.30716 0.477036 4.0655 0.718695C3.82384 0.960355 3.6879 1.288 3.6875 1.62976V2.4032H4.59242C4.70793 2.40366 4.8222 2.42694 4.92868 2.4717C5.03516 2.51646 5.13175 2.58182 5.21289 2.66402L7.55812 5.04878C7.72174 5.21479 7.81309 5.43875 7.81228 5.67183V8.5907H8.95203C9.65049 8.5907 10.2185 8.01234 10.2185 7.30163V3.26257H8.24219Z" fill="black"/>
</g>
<defs>
<clipPath id="clip0_36_1750">
<rect width="11" height="11" fill="white" transform="translate(0.25 -0.00280762)"/>
</clipPath>
</defs>
</svg>
