<svg width="25" height="25" viewBox="0 0 25 25" fill="none" xmlns="http://www.w3.org/2000/svg">
<g id="thumbs-up">
<path id="Vector" d="M7.03906 11.2774L11.0391 2.2774C11.8347 2.2774 12.5978 2.59348 13.1604 3.15608C13.723 3.71869 14.0391 4.48176 14.0391 5.2774V9.2774H19.6991C19.989 9.27412 20.2761 9.33391 20.5406 9.45262C20.8051 9.57134 21.0407 9.74614 21.2309 9.96492C21.4212 10.1837 21.5616 10.4412 21.6424 10.7197C21.7232 10.9981 21.7426 11.2908 21.6991 11.5774L20.3191 20.5774C20.2467 21.0543 20.0045 21.489 19.637 21.8014C19.2694 22.1138 18.8014 22.2829 18.3191 22.2774H7.03906M7.03906 11.2774V22.2774M7.03906 11.2774H4.03906C3.50863 11.2774 2.99992 11.4881 2.62485 11.8632C2.24978 12.2383 2.03906 12.747 2.03906 13.2774V20.2774C2.03906 20.8078 2.24978 21.3165 2.62485 21.6916C2.99992 22.0667 3.50863 22.2774 4.03906 22.2774H7.03906" stroke="#089BD9" stroke-width="2" stroke-linecap="round" stroke-linejoin="round"/>
</g>
</svg>
