<svg width="428" height="266" viewBox="0 0 428 266" fill="none" xmlns="http://www.w3.org/2000/svg">
<g filter="url(#filter0_d_36_855)">
<rect x="90.1729" y="69.1133" width="265.428" height="185.559" rx="6.67675" transform="rotate(5 90.1729 69.1133)" fill="white"/>
<rect x="127.957" y="137.47" width="204.413" height="0.295901" rx="0.147951" transform="rotate(5 127.957 137.47)" fill="#DAE8EF"/>
<rect x="126.371" y="155.599" width="204.413" height="0.295901" rx="0.147951" transform="rotate(5 126.371 155.599)" fill="#DAE8EF"/>
<rect x="124.785" y="173.728" width="204.413" height="0.295901" rx="0.147951" transform="rotate(5 124.785 173.728)" fill="#DAE8EF"/>
<rect x="123.199" y="191.856" width="204.413" height="0.295901" rx="0.147951" transform="rotate(5 123.199 191.856)" fill="#DAE8EF"/>
<rect x="121.613" y="209.985" width="204.413" height="0.295901" rx="0.147951" transform="rotate(5 121.613 209.985)" fill="#DAE8EF"/>
<rect x="120.027" y="228.113" width="204.413" height="0.295901" rx="0.147951" transform="rotate(5 120.027 228.113)" fill="#DAE8EF"/>
<path d="M129.756 229.114L151.687 212.839L170.621 202.054C171.328 201.652 172.101 201.382 172.905 201.258L189.832 198.637C191.378 198.398 192.959 198.709 194.298 199.516L209.313 208.56C210.03 208.992 210.822 209.285 211.648 209.424L228.357 212.241C229.778 212.48 231.238 212.254 232.52 211.595L248.811 203.218L269.177 196.111C270.324 195.711 271.341 195.005 272.116 194.069L292.352 169.667C293.064 168.809 293.979 168.142 295.014 167.729L316.306 159.221" stroke="#2B59FF" stroke-width="2.00302"/>
<g opacity="0.6">
<path d="M94.9837 222.882L97.3702 223.09L96.8814 228.678L95.6203 228.567L96.0156 224.05L94.8902 223.951L94.9837 222.882ZM101.003 223.36C101.785 223.428 102.365 223.726 102.742 224.252C103.12 224.778 103.269 225.499 103.188 226.414C103.109 227.324 102.837 228.008 102.374 228.466C101.91 228.919 101.288 229.111 100.506 229.043C99.718 228.974 99.1328 228.676 98.7499 228.149C98.3729 227.618 98.2241 226.897 98.3037 225.987C98.3838 225.072 98.6555 224.388 99.1186 223.935C99.5872 223.483 100.215 223.291 101.003 223.36ZM100.918 224.326C100.519 224.291 100.213 224.414 100.001 224.696C99.7888 224.978 99.654 225.446 99.5968 226.1C99.54 226.749 99.5914 227.234 99.7511 227.553C99.9113 227.868 100.191 228.042 100.59 228.077C100.978 228.111 101.279 227.987 101.491 227.706C101.704 227.418 101.839 226.95 101.895 226.301C101.953 225.647 101.901 225.162 101.741 224.848C101.581 224.534 101.307 224.36 100.918 224.326ZM106.63 223.852C107.413 223.921 107.992 224.218 108.37 224.744C108.747 225.271 108.896 225.991 108.816 226.907C108.737 227.817 108.465 228.501 108.001 228.959C107.538 229.411 106.915 229.604 106.133 229.535C105.346 229.466 104.76 229.168 104.378 228.642C104.001 228.11 103.852 227.389 103.931 226.479C104.011 225.564 104.283 224.88 104.746 224.427C105.215 223.975 105.843 223.783 106.63 223.852ZM106.546 224.818C106.147 224.783 105.841 224.907 105.629 225.188C105.416 225.47 105.282 225.938 105.224 226.592C105.168 227.242 105.219 227.726 105.379 228.046C105.539 228.36 105.819 228.535 106.218 228.569C106.606 228.603 106.906 228.48 107.119 228.198C107.332 227.911 107.466 227.443 107.523 226.794C107.58 226.139 107.529 225.655 107.369 225.34C107.209 225.026 106.934 224.852 106.546 224.818Z" fill="#12141D"/>
<path d="M99.0841 209.712L98.9919 210.766L94.7936 210.399L94.8697 209.529L97.1234 207.578C97.3259 207.408 97.4881 207.24 97.6099 207.074C97.7374 206.903 97.8071 206.751 97.8187 206.618C97.8341 206.442 97.7767 206.3 97.6468 206.193C97.5226 206.08 97.3408 206.013 97.1013 205.992C96.8619 205.971 96.6011 206.01 96.319 206.109C96.037 206.207 95.7587 206.354 95.4842 206.55L95.0717 205.565C95.854 205.081 96.6229 204.872 97.3785 204.939C97.751 204.971 98.0755 205.061 98.3521 205.209C98.6292 205.351 98.8381 205.538 98.9786 205.77C99.1196 205.997 99.1776 206.254 99.1524 206.541C99.1277 206.823 99.009 207.108 98.7962 207.395C98.5835 207.682 98.2914 207.986 97.9202 208.308L96.522 209.488L99.0841 209.712ZM102.571 205.401C103.353 205.469 103.933 205.767 104.311 206.293C104.688 206.819 104.837 207.54 104.757 208.455C104.677 209.365 104.406 210.049 103.942 210.507C103.479 210.96 102.856 211.152 102.074 211.084C101.287 211.015 100.701 210.717 100.319 210.19C99.9414 209.659 99.7927 208.938 99.8723 208.028C99.9524 207.113 100.224 206.429 100.687 205.976C101.156 205.524 101.784 205.332 102.571 205.401ZM102.487 206.367C102.088 206.332 101.782 206.455 101.57 206.737C101.357 207.019 101.223 207.487 101.165 208.141C101.109 208.79 101.16 209.275 101.32 209.594C101.48 209.909 101.759 210.083 102.159 210.118C102.547 210.152 102.847 210.028 103.06 209.747C103.272 209.46 103.407 208.991 103.464 208.342C103.521 207.688 103.47 207.203 103.31 206.889C103.15 206.575 102.875 206.401 102.487 206.367ZM108.199 205.893C108.981 205.962 109.561 206.259 109.939 206.785C110.316 207.312 110.465 208.033 110.385 208.948C110.305 209.858 110.033 210.542 109.57 211C109.107 211.452 108.484 211.645 107.702 211.576C106.914 211.507 106.329 211.209 105.946 210.683C105.569 210.151 105.42 209.43 105.5 208.52C105.58 207.605 105.852 206.921 106.315 206.468C106.783 206.016 107.411 205.824 108.199 205.893ZM108.114 206.859C107.715 206.824 107.41 206.948 107.197 207.229C106.985 207.511 106.85 207.979 106.793 208.633C106.736 209.283 106.788 209.767 106.947 210.087C107.108 210.401 107.387 210.576 107.786 210.61C108.175 210.644 108.475 210.521 108.687 210.239C108.9 209.952 109.035 209.484 109.092 208.835C109.149 208.18 109.097 207.696 108.937 207.381C108.777 207.067 108.503 206.893 108.114 206.859Z" fill="#12141D"/>
<path d="M99.2563 188.717C99.7403 188.823 100.114 189.022 100.378 189.314C100.648 189.605 100.764 189.964 100.727 190.39C100.696 190.741 100.575 191.047 100.365 191.307C100.16 191.562 99.8808 191.752 99.5267 191.877C99.1785 191.997 98.7782 192.037 98.3259 191.997C97.9375 191.963 97.5541 191.871 97.1759 191.72C96.8035 191.564 96.4929 191.376 96.2441 191.156L96.8127 190.264C97.0247 190.476 97.2593 190.644 97.5166 190.768C97.7738 190.893 98.0407 190.967 98.3174 190.991C98.6686 191.022 98.946 190.976 99.1497 190.855C99.3538 190.728 99.4668 190.539 99.4887 190.289C99.5106 190.039 99.4313 189.842 99.2509 189.697C99.071 189.548 98.8028 189.457 98.4463 189.426L97.5444 189.347L97.6072 188.629L99.122 187.402L96.8792 187.206L96.9606 186.183L100.784 186.518L100.717 187.276L98.9725 188.652L99.2563 188.717ZM104.201 186.777C104.983 186.845 105.563 187.142 105.94 187.669C106.318 188.195 106.467 188.916 106.386 189.831C106.307 190.741 106.035 191.425 105.572 191.883C105.108 192.336 104.486 192.528 103.703 192.46C102.916 192.391 102.331 192.093 101.948 191.566C101.571 191.034 101.422 190.314 101.502 189.404C101.582 188.489 101.853 187.805 102.317 187.352C102.785 186.899 103.413 186.708 104.201 186.777ZM104.116 187.742C103.717 187.708 103.411 187.831 103.199 188.113C102.987 188.394 102.852 188.862 102.795 189.517C102.738 190.166 102.789 190.65 102.949 190.97C103.109 191.284 103.389 191.459 103.788 191.494C104.176 191.528 104.477 191.404 104.689 191.122C104.902 190.835 105.037 190.367 105.093 189.718C105.151 189.063 105.099 188.579 104.939 188.265C104.779 187.951 104.505 187.776 104.116 187.742ZM109.828 187.269C110.611 187.337 111.19 187.635 111.568 188.161C111.945 188.687 112.094 189.408 112.014 190.323C111.934 191.233 111.663 191.917 111.199 192.375C110.736 192.828 110.113 193.02 109.331 192.952C108.544 192.883 107.958 192.585 107.576 192.058C107.198 191.527 107.05 190.806 107.129 189.896C107.209 188.981 107.481 188.297 107.944 187.844C108.413 187.392 109.041 187.2 109.828 187.269ZM109.744 188.235C109.345 188.2 109.039 188.323 108.827 188.605C108.614 188.887 108.48 189.355 108.422 190.009C108.366 190.658 108.417 191.143 108.577 191.462C108.737 191.777 109.017 191.951 109.416 191.986C109.804 192.02 110.104 191.896 110.317 191.615C110.53 191.328 110.664 190.86 110.721 190.21C110.778 189.556 110.727 189.071 110.567 188.757C110.407 188.443 110.132 188.269 109.744 188.235Z" fill="#12141D"/>
<path d="M102.424 171.912L102.336 172.926L101.569 172.859L101.459 174.12L100.302 174.018L100.412 172.757L97.81 172.53L97.8875 171.644L99.8965 168.353L101.094 168.458L99.1997 171.63L100.501 171.744L100.609 170.507L101.766 170.608L101.658 171.845L102.424 171.912ZM105.795 168.821C106.578 168.889 107.158 169.187 107.535 169.713C107.913 170.239 108.061 170.96 107.981 171.875C107.902 172.785 107.63 173.469 107.166 173.927C106.703 174.38 106.08 174.572 105.298 174.504C104.511 174.435 103.926 174.137 103.543 173.61C103.166 173.079 103.017 172.358 103.096 171.448C103.177 170.533 103.448 169.849 103.911 169.396C104.38 168.944 105.008 168.752 105.795 168.821ZM105.711 169.787C105.312 169.752 105.006 169.875 104.794 170.157C104.582 170.439 104.447 170.907 104.39 171.561C104.333 172.21 104.384 172.695 104.544 173.014C104.704 173.329 104.984 173.503 105.383 173.538C105.771 173.572 106.072 173.448 106.284 173.167C106.497 172.88 106.631 172.411 106.688 171.762C106.745 171.108 106.694 170.623 106.534 170.309C106.374 169.995 106.099 169.821 105.711 169.787ZM111.423 169.313C112.205 169.382 112.785 169.679 113.163 170.205C113.54 170.732 113.689 171.453 113.609 172.368C113.529 173.278 113.258 173.962 112.794 174.42C112.331 174.872 111.708 175.065 110.926 174.996C110.138 174.927 109.553 174.629 109.17 174.103C108.793 173.571 108.645 172.85 108.724 171.94C108.804 171.025 109.076 170.341 109.539 169.888C110.008 169.436 110.636 169.244 111.423 169.313ZM111.339 170.279C110.94 170.244 110.634 170.368 110.422 170.649C110.209 170.931 110.074 171.399 110.017 172.054C109.96 172.703 110.012 173.187 110.172 173.507C110.332 173.821 110.611 173.996 111.01 174.03C111.399 174.064 111.699 173.941 111.912 173.659C112.124 173.372 112.259 172.904 112.316 172.255C112.373 171.6 112.322 171.116 112.162 170.801C112.001 170.487 111.727 170.313 111.339 170.279Z" fill="#12141D"/>
<path d="M101.959 151.818C102.385 151.855 102.753 151.96 103.065 152.132C103.377 152.304 103.61 152.526 103.763 152.796C103.917 153.067 103.979 153.367 103.95 153.697C103.916 154.08 103.794 154.41 103.582 154.687C103.376 154.958 103.095 155.159 102.741 155.289C102.392 155.414 101.994 155.457 101.547 155.417C101.186 155.386 100.813 155.292 100.43 155.135C100.053 154.973 99.724 154.778 99.4438 154.55L100.013 153.651C100.23 153.863 100.467 154.033 100.724 154.163C100.981 154.293 101.24 154.369 101.5 154.392C101.814 154.419 102.068 154.369 102.262 154.241C102.456 154.108 102.563 153.917 102.585 153.666C102.607 153.422 102.533 153.228 102.363 153.084C102.199 152.936 101.941 152.846 101.59 152.815C101.393 152.798 101.132 152.781 100.806 152.763C100.487 152.74 100.244 152.73 100.077 152.731L100.349 149.626L104.021 149.948L103.928 151.001L101.422 150.782L101.336 151.764L101.959 151.818ZM107.401 150.195C108.184 150.264 108.763 150.561 109.141 151.087C109.518 151.614 109.667 152.334 109.587 153.25C109.508 154.159 109.236 154.843 108.772 155.302C108.309 155.754 107.686 155.946 106.904 155.878C106.117 155.809 105.531 155.511 105.149 154.985C104.772 154.453 104.623 153.732 104.702 152.822C104.782 151.907 105.054 151.223 105.517 150.77C105.986 150.318 106.614 150.126 107.401 150.195ZM107.317 151.161C106.918 151.126 106.612 151.249 106.4 151.531C106.187 151.813 106.053 152.281 105.995 152.935C105.939 153.585 105.99 154.069 106.15 154.388C106.31 154.703 106.59 154.877 106.989 154.912C107.377 154.946 107.677 154.822 107.89 154.541C108.103 154.254 108.237 153.786 108.294 153.136C108.351 152.482 108.3 151.998 108.14 151.683C107.98 151.369 107.705 151.195 107.317 151.161ZM113.029 150.687C113.811 150.756 114.391 151.053 114.769 151.58C115.146 152.106 115.295 152.827 115.215 153.742C115.135 154.652 114.864 155.336 114.4 155.794C113.937 156.247 113.314 156.439 112.532 156.37C111.744 156.301 111.159 156.004 110.776 155.477C110.399 154.945 110.25 154.224 110.33 153.315C110.41 152.399 110.682 151.715 111.145 151.263C111.613 150.81 112.241 150.619 113.029 150.687ZM112.944 151.653C112.545 151.618 112.24 151.742 112.027 152.023C111.815 152.305 111.68 152.773 111.623 153.428C111.566 154.077 111.618 154.561 111.777 154.881C111.938 155.195 112.217 155.37 112.616 155.405C113.005 155.439 113.305 155.315 113.517 155.033C113.73 154.746 113.865 154.278 113.922 153.629C113.979 152.974 113.928 152.49 113.767 152.176C113.607 151.861 113.333 151.687 112.944 151.653Z" fill="#12141D"/>
<path d="M106.474 135.894C106.423 136.474 106.216 136.912 105.852 137.207C105.494 137.503 105.022 137.625 104.437 137.574C103.713 137.51 103.129 137.167 102.685 136.544L103.346 135.701C103.52 135.92 103.706 136.092 103.904 136.216C104.107 136.341 104.297 136.411 104.473 136.427C104.685 136.445 104.856 136.396 104.984 136.279C105.112 136.161 105.187 135.985 105.207 135.751L105.443 133.053L103.52 132.885L103.613 131.816L106.806 132.095L106.474 135.894ZM109.912 137.996L109.956 137.494C109.797 137.662 109.598 137.784 109.361 137.86C109.124 137.936 108.856 137.96 108.558 137.934C108.106 137.895 107.758 137.741 107.513 137.473C107.269 137.2 107.164 136.863 107.199 136.464C107.234 136.06 107.403 135.758 107.704 135.559C108.012 135.356 108.426 135.274 108.948 135.314L110.13 135.418L110.137 135.338C110.157 135.109 110.095 134.927 109.951 134.791C109.813 134.65 109.598 134.567 109.306 134.541C108.907 134.506 108.47 134.594 107.996 134.805L107.687 133.925C108.042 133.785 108.372 133.688 108.677 133.634C108.982 133.58 109.313 133.569 109.669 133.6C110.244 133.65 110.677 133.825 110.967 134.124C111.262 134.423 111.392 134.815 111.354 135.3L111.117 138.102L109.912 137.996ZM108.978 137.086C109.234 137.109 109.46 137.067 109.657 136.961C109.854 136.855 109.979 136.71 110.033 136.527L110.066 136.144L109.1 136.06C108.861 136.039 108.679 136.063 108.555 136.132C108.437 136.197 108.37 136.315 108.355 136.485C108.341 136.65 108.388 136.788 108.496 136.899C108.61 137.006 108.771 137.068 108.978 137.086ZM115.27 134.09C115.749 134.132 116.116 134.314 116.372 134.637C116.634 134.96 116.742 135.372 116.699 135.872L116.463 138.57L115.233 138.462L115.438 136.123C115.462 135.852 115.403 135.632 115.262 135.465C115.127 135.292 114.93 135.194 114.669 135.171C114.365 135.15 114.116 135.236 113.923 135.428C113.729 135.615 113.619 135.868 113.591 136.187L113.406 138.302L112.177 138.195L112.552 133.9L113.781 134.008L113.716 134.758C114.059 134.263 114.577 134.04 115.27 134.09Z" fill="#12141D"/>
</g>
<g opacity="0.6">
<path d="M141.495 242.518L145.135 242.837L145.066 243.53L142.201 243.28L142.04 245.115L144.618 245.341L144.557 246.035L141.979 245.81L141.773 248.172L141.006 248.105L141.495 242.518ZM147.535 244.398C148.189 244.455 148.667 244.693 148.968 245.11C149.27 245.523 149.391 246.072 149.331 246.759C149.321 246.865 149.312 246.945 149.302 246.997L145.965 246.706C145.991 247.088 146.122 247.403 146.357 247.649C146.599 247.895 146.908 248.035 147.286 248.068C147.536 248.09 147.771 248.065 147.992 247.993C148.218 247.921 148.418 247.81 148.592 247.659L148.962 248.118C148.735 248.323 148.47 248.474 148.167 248.571C147.863 248.668 147.533 248.701 147.177 248.669C146.762 248.633 146.4 248.513 146.091 248.309C145.787 248.1 145.559 247.825 145.407 247.485C145.259 247.145 145.204 246.768 145.24 246.353C145.277 245.938 145.397 245.578 145.6 245.274C145.809 244.965 146.082 244.735 146.417 244.582C146.752 244.423 147.125 244.362 147.535 244.398ZM148.69 246.365C148.702 245.98 148.6 245.668 148.385 245.429C148.171 245.185 147.872 245.047 147.489 245.013C147.116 244.981 146.795 245.065 146.526 245.267C146.261 245.469 146.089 245.757 146.008 246.13L148.69 246.365ZM152.881 244.866C153.275 244.9 153.618 245.021 153.911 245.229C154.204 245.437 154.421 245.711 154.563 246.05C154.705 246.39 154.758 246.77 154.721 247.19C154.685 247.605 154.567 247.967 154.368 248.277C154.176 248.582 153.917 248.811 153.592 248.965C153.274 249.114 152.918 249.172 152.524 249.137C152.167 249.106 151.86 249.004 151.601 248.831C151.343 248.659 151.149 248.427 151.019 248.137L150.946 248.975L150.203 248.91L150.721 242.988L151.464 243.053L151.242 245.591C151.42 245.328 151.649 245.133 151.928 245.007C152.212 244.882 152.53 244.835 152.881 244.866ZM152.421 248.477C152.692 248.5 152.94 248.458 153.164 248.349C153.393 248.24 153.576 248.076 153.713 247.858C153.856 247.64 153.94 247.387 153.965 247.1C153.989 246.818 153.951 246.557 153.848 246.317C153.746 246.078 153.594 245.885 153.392 245.739C153.19 245.592 152.954 245.507 152.683 245.484C152.411 245.46 152.161 245.502 151.932 245.611C151.707 245.72 151.524 245.884 151.382 246.102C151.239 246.32 151.156 246.57 151.131 246.852C151.106 247.145 151.144 247.411 151.246 247.65C151.349 247.884 151.501 248.075 151.703 248.221C151.91 248.368 152.149 248.453 152.421 248.477Z" fill="#12141D"/>
<path d="M121.045 243.743C120.997 244.291 120.813 244.704 120.494 244.982C120.175 245.254 119.755 245.367 119.234 245.322C118.92 245.294 118.633 245.199 118.374 245.037C118.115 244.875 117.895 244.658 117.715 244.385L118.142 243.827C118.299 244.05 118.477 244.226 118.675 244.356C118.878 244.481 119.084 244.553 119.291 244.571C119.579 244.596 119.807 244.53 119.976 244.373C120.146 244.211 120.245 243.971 120.272 243.651L120.55 240.483L118.578 240.31L118.64 239.608L121.385 239.848L121.045 243.743ZM124.873 245.783L124.925 245.192C124.575 245.58 124.064 245.744 123.394 245.686C123.101 245.66 122.848 245.582 122.634 245.45C122.426 245.32 122.269 245.15 122.164 244.943C122.064 244.736 122.025 244.51 122.046 244.265C122.079 243.887 122.244 243.601 122.54 243.407C122.841 243.208 123.242 243.128 123.743 243.167L125.084 243.284L125.101 243.084C125.127 242.787 125.054 242.55 124.882 242.374C124.716 242.193 124.457 242.087 124.106 242.056C123.68 242.019 123.233 242.133 122.765 242.398L122.498 241.859C122.819 241.689 123.11 241.573 123.373 241.51C123.642 241.442 123.954 241.424 124.311 241.455C124.838 241.501 125.233 241.667 125.498 241.953C125.763 242.234 125.878 242.606 125.843 243.069L125.608 245.847L124.873 245.783ZM123.599 245.084C123.945 245.115 124.245 245.058 124.499 244.914C124.759 244.765 124.924 244.554 124.997 244.282L125.034 243.859L123.796 243.75C123.461 243.721 123.207 243.75 123.033 243.836C122.864 243.924 122.771 244.076 122.752 244.294C122.732 244.513 122.8 244.693 122.954 244.835C123.107 244.977 123.323 245.06 123.599 245.084ZM129.651 241.922C130.146 241.966 130.522 242.146 130.778 242.463C131.035 242.775 131.141 243.187 131.096 243.697L130.868 246.307L130.126 246.242L130.337 243.832C130.368 243.476 130.291 243.19 130.106 242.975C129.927 242.756 129.661 242.631 129.31 242.6C128.932 242.572 128.613 242.668 128.352 242.886C128.098 243.1 127.938 243.394 127.873 243.769L127.675 246.028L126.933 245.963L127.302 241.741L128.045 241.806L127.966 242.7C128.301 242.123 128.863 241.864 129.651 241.922Z" fill="#12141D"/>
<path d="M165.257 244.236L166.167 244.315L167.866 248.421L170.237 244.672L171.155 244.752L170.666 250.339L169.948 250.276L170.33 245.814L168.004 249.511L167.533 249.47L165.869 245.423L165.478 249.885L164.768 249.823L165.257 244.236ZM174.773 250.698L174.824 250.108C174.474 250.495 173.964 250.66 173.293 250.601C173.001 250.575 172.747 250.497 172.534 250.366C172.325 250.235 172.168 250.066 172.063 249.858C171.963 249.651 171.924 249.425 171.946 249.18C171.979 248.802 172.143 248.517 172.439 248.323C172.74 248.124 173.142 248.044 173.642 248.082L174.983 248.199L175.001 248C175.027 247.702 174.954 247.465 174.781 247.289C174.615 247.108 174.356 247.002 174.005 246.972C173.579 246.934 173.132 247.048 172.664 247.313L172.397 246.775C172.718 246.604 173.01 246.488 173.272 246.425C173.541 246.357 173.854 246.339 174.21 246.37C174.737 246.416 175.133 246.582 175.397 246.868C175.662 247.149 175.777 247.521 175.742 247.984L175.507 250.763L174.773 250.698ZM173.499 250C173.844 250.03 174.144 249.973 174.398 249.829C174.658 249.68 174.824 249.47 174.896 249.197L174.933 248.774L173.696 248.666C173.36 248.636 173.106 248.665 172.932 248.752C172.764 248.839 172.67 248.992 172.651 249.21C172.632 249.428 172.699 249.608 172.853 249.75C173.007 249.892 173.222 249.975 173.499 250ZM177.864 247.631C178.029 247.34 178.246 247.128 178.515 246.996C178.784 246.859 179.095 246.803 179.447 246.828L179.384 247.547C178.954 247.493 178.596 247.574 178.309 247.791C178.022 248.007 177.842 248.315 177.769 248.717L177.575 250.943L176.832 250.878L177.202 246.656L177.944 246.721L177.864 247.631Z" fill="#12141D"/>
<path d="M192.192 251.977L191.72 250.568L188.775 250.31L188.074 251.616L187.267 251.546L190.238 246.176L191.037 246.246L193.022 252.049L192.192 251.977ZM189.139 249.642L191.486 249.848L190.542 247.031L189.139 249.642ZM196.479 248.073C196.873 248.107 197.216 248.229 197.509 248.436C197.802 248.644 198.019 248.918 198.161 249.258C198.303 249.597 198.355 249.977 198.319 250.397C198.282 250.812 198.165 251.175 197.966 251.484C197.773 251.789 197.515 252.019 197.19 252.173C196.872 252.322 196.515 252.379 196.122 252.344C195.765 252.313 195.458 252.211 195.199 252.039C194.941 251.866 194.747 251.634 194.617 251.344L194.408 253.731L193.666 253.666L194.17 247.895L194.913 247.96L194.839 248.798C195.018 248.535 195.247 248.34 195.526 248.215C195.81 248.089 196.128 248.042 196.479 248.073ZM196.019 251.684C196.29 251.708 196.538 251.665 196.762 251.556C196.991 251.447 197.174 251.284 197.311 251.065C197.454 250.847 197.537 250.594 197.563 250.307C197.587 250.025 197.548 249.764 197.446 249.525C197.344 249.285 197.192 249.092 196.99 248.946C196.788 248.8 196.552 248.715 196.28 248.691C196.009 248.667 195.759 248.71 195.529 248.818C195.305 248.927 195.122 249.091 194.98 249.309C194.837 249.527 194.754 249.777 194.729 250.059C194.703 250.352 194.742 250.618 194.844 250.857C194.947 251.092 195.099 251.282 195.301 251.428C195.508 251.575 195.747 251.66 196.019 251.684ZM200.203 249.34C200.367 249.048 200.584 248.837 200.853 248.705C201.123 248.568 201.433 248.512 201.785 248.537L201.722 249.255C201.292 249.202 200.934 249.283 200.647 249.499C200.36 249.715 200.18 250.024 200.108 250.425L199.913 252.652L199.171 252.587L199.54 248.365L200.282 248.43L200.203 249.34Z" fill="#12141D"/>
<path d="M212.259 247.8L213.169 247.879L214.869 251.985L217.24 248.236L218.157 248.316L217.669 253.903L216.95 253.84L217.333 249.378L215.007 253.075L214.536 253.034L212.871 248.987L212.481 253.449L211.77 253.387L212.259 247.8ZM221.775 254.262L221.826 253.672C221.476 254.059 220.966 254.224 220.295 254.165C220.003 254.139 219.75 254.061 219.536 253.93C219.327 253.799 219.171 253.63 219.066 253.422C218.966 253.215 218.926 252.989 218.948 252.744C218.981 252.366 219.145 252.081 219.441 251.887C219.743 251.688 220.144 251.608 220.644 251.646L221.985 251.763L222.003 251.564C222.029 251.266 221.956 251.029 221.784 250.853C221.617 250.672 221.358 250.566 221.007 250.536C220.581 250.498 220.134 250.612 219.666 250.877L219.4 250.339C219.72 250.168 220.012 250.052 220.275 249.989C220.543 249.921 220.856 249.903 221.212 249.934C221.739 249.98 222.135 250.146 222.399 250.432C222.664 250.713 222.779 251.085 222.744 251.548L222.509 254.326L221.775 254.262ZM220.501 253.564C220.847 253.594 221.147 253.537 221.4 253.393C221.66 253.244 221.826 253.034 221.898 252.761L221.935 252.338L220.698 252.23C220.363 252.2 220.108 252.229 219.934 252.316C219.766 252.403 219.672 252.556 219.653 252.774C219.634 252.992 219.701 253.172 219.855 253.314C220.009 253.456 220.224 253.539 220.501 253.564ZM225.111 255.157C224.949 255.47 224.75 255.699 224.512 255.845C224.279 255.991 224.014 256.051 223.716 256.025C223.535 256.009 223.372 255.968 223.228 255.901C223.084 255.835 222.947 255.74 222.818 255.616L223.189 255.062C223.363 255.211 223.546 255.294 223.738 255.311C224.057 255.339 224.313 255.179 224.504 254.831L224.696 254.47L223.313 250.142L224.096 250.211L225.141 253.712L226.706 250.439L227.464 250.505L225.111 255.157Z" fill="#12141D"/>
<path d="M239.883 255.087C239.835 255.635 239.652 256.048 239.332 256.326C239.014 256.598 238.594 256.712 238.072 256.666C237.758 256.639 237.472 256.544 237.212 256.382C236.953 256.22 236.733 256.002 236.554 255.729L236.98 255.171C237.138 255.394 237.315 255.57 237.513 255.7C237.717 255.825 237.922 255.897 238.13 255.915C238.417 255.94 238.645 255.874 238.815 255.718C238.984 255.556 239.083 255.315 239.111 254.996L239.388 251.827L237.417 251.654L237.478 250.952L240.224 251.192L239.883 255.087ZM245.239 253.006L244.869 257.229L244.119 257.163L244.197 256.269C243.868 256.846 243.32 257.106 242.552 257.05C242.063 257.007 241.692 256.83 241.441 256.518C241.19 256.202 241.086 255.788 241.131 255.277L241.359 252.667L242.11 252.733L241.899 255.143C241.868 255.499 241.939 255.787 242.113 256.006C242.293 256.22 242.553 256.342 242.893 256.372C243.287 256.401 243.611 256.29 243.863 256.039C244.122 255.782 244.269 255.442 244.307 255.016L244.488 252.941L245.239 253.006ZM249.035 253.314C249.53 253.358 249.906 253.538 250.162 253.855C250.419 254.167 250.525 254.579 250.48 255.089L250.252 257.699L249.51 257.635L249.721 255.224C249.752 254.868 249.675 254.582 249.49 254.367C249.311 254.148 249.046 254.023 248.694 253.992C248.316 253.965 247.997 254.06 247.736 254.278C247.482 254.492 247.322 254.786 247.257 255.161L247.059 257.42L246.317 257.355L246.687 253.133L247.429 253.198L247.351 254.092C247.685 253.515 248.247 253.256 249.035 253.314Z" fill="#12141D"/>
<path d="M261.617 258.323C261.303 258.295 261.014 258.2 260.749 258.038C260.49 257.876 260.289 257.66 260.147 257.39L260.525 257.021C260.66 257.258 260.823 257.444 261.015 257.579C261.207 257.713 261.425 257.791 261.67 257.813C262.362 257.873 262.743 257.494 262.815 256.674L263.111 253.29L261.068 253.111L261.113 252.601L263.739 252.83L263.4 256.701C263.348 257.292 263.171 257.722 262.869 257.99C262.572 258.259 262.155 258.37 261.617 258.323ZM266.63 258.753C266.274 258.722 265.968 258.629 265.714 258.472C265.459 258.316 265.269 258.098 265.144 257.819C265.023 257.541 264.981 257.202 265.015 256.803L265.228 254.368L265.795 254.418L265.588 256.788C265.549 257.235 265.628 257.583 265.826 257.831C266.03 258.074 266.332 258.213 266.731 258.248C267.023 258.273 267.281 258.237 267.504 258.138C267.733 258.035 267.914 257.874 268.045 257.655C268.182 257.436 268.265 257.167 268.293 256.848L268.485 254.653L269.052 254.703L268.685 258.893L268.142 258.846L268.243 257.696L268.312 257.911C268.152 258.208 267.924 258.432 267.626 258.583C267.335 258.729 267.003 258.786 266.63 258.753ZM270.264 259.031L270.782 253.109L271.349 253.158L270.831 259.081L270.264 259.031Z" fill="#12141D"/>
<path d="M285.683 260.167L285.211 258.759L282.266 258.501L281.564 259.807L280.758 259.737L283.729 254.367L284.527 254.436L286.513 260.24L285.683 260.167ZM282.63 257.833L284.976 258.039L284.033 255.222L282.63 257.833ZM291.138 256.39L290.769 260.612L290.019 260.547L290.097 259.653C289.768 260.23 289.219 260.49 288.452 260.434C287.963 260.391 287.592 260.214 287.341 259.902C287.09 259.585 286.986 259.172 287.031 258.661L287.259 256.051L288.01 256.116L287.799 258.527C287.768 258.883 287.839 259.171 288.013 259.39C288.192 259.604 288.453 259.726 288.793 259.756C289.187 259.785 289.511 259.674 289.763 259.423C290.022 259.166 290.169 258.825 290.207 258.4L290.388 256.324L291.138 256.39ZM296.322 256.844L295.99 260.635C295.955 261.039 295.833 261.385 295.626 261.673C295.424 261.961 295.153 262.17 294.815 262.301C294.476 262.438 294.091 262.487 293.66 262.45C293.037 262.395 292.475 262.148 291.972 261.707L292.346 261.193C292.539 261.381 292.743 261.525 292.96 261.624C293.176 261.729 293.417 261.793 293.683 261.816C294.119 261.855 294.479 261.763 294.761 261.541C295.043 261.319 295.202 261.003 295.238 260.593L295.289 260.003C295.118 260.245 294.898 260.427 294.63 260.548C294.363 260.664 294.064 260.708 293.734 260.679C293.357 260.646 293.029 260.531 292.751 260.335C292.479 260.135 292.277 259.873 292.144 259.55C292.011 259.228 291.963 258.867 291.998 258.468C292.032 258.074 292.142 257.733 292.328 257.443C292.515 257.154 292.759 256.937 293.061 256.792C293.369 256.647 293.711 256.591 294.089 256.624C294.424 256.653 294.711 256.748 294.949 256.908C295.192 257.069 295.377 257.284 295.504 257.552L295.572 256.778L296.322 256.844ZM293.93 260.093C294.191 260.116 294.428 260.075 294.641 259.97C294.854 259.865 295.025 259.711 295.156 259.508C295.292 259.3 295.372 259.061 295.396 258.789C295.42 258.513 295.383 258.263 295.284 258.04C295.192 257.812 295.05 257.628 294.858 257.488C294.667 257.348 294.44 257.266 294.18 257.243C293.919 257.22 293.679 257.261 293.461 257.365C293.248 257.47 293.074 257.626 292.938 257.834C292.802 258.037 292.722 258.277 292.698 258.553C292.667 258.969 292.765 259.321 292.992 259.608C293.218 259.896 293.531 260.058 293.93 260.093Z" fill="#12141D"/>
<path d="M309.021 258.342C308.774 258.154 308.514 258.008 308.239 257.904C307.969 257.794 307.718 257.73 307.484 257.709C307.159 257.681 306.893 257.722 306.685 257.832C306.482 257.938 306.372 258.1 306.353 258.318C306.335 258.515 306.38 258.682 306.486 258.82C306.592 258.953 306.727 259.064 306.891 259.153C307.055 259.237 307.285 259.34 307.58 259.463C307.947 259.613 308.243 259.751 308.468 259.878C308.693 260.005 308.878 260.182 309.025 260.409C309.172 260.631 309.23 260.915 309.2 261.261C309.172 261.58 309.059 261.852 308.863 262.076C308.672 262.301 308.413 262.466 308.088 262.571C307.768 262.672 307.406 262.705 307.001 262.669C306.592 262.634 306.2 262.519 305.825 262.325C305.451 262.132 305.134 261.889 304.875 261.599L305.276 260.966C305.52 261.25 305.8 261.479 306.117 261.651C306.44 261.819 306.759 261.916 307.073 261.944C307.445 261.976 307.744 261.93 307.97 261.805C308.201 261.675 308.327 261.485 308.349 261.235C308.367 261.038 308.322 260.871 308.216 260.733C308.11 260.595 307.97 260.481 307.796 260.39C307.627 260.301 307.395 260.197 307.099 260.08C306.737 259.936 306.443 259.8 306.218 259.673C305.993 259.546 305.807 259.372 305.661 259.15C305.519 258.929 305.463 258.648 305.493 258.307C305.519 258.009 305.625 257.753 305.81 257.538C305.995 257.324 306.241 257.169 306.55 257.072C306.859 256.976 307.21 256.945 307.604 256.98C307.939 257.009 308.262 257.088 308.572 257.217C308.888 257.341 309.164 257.497 309.4 257.684L309.021 258.342ZM312.279 258.804C312.934 258.861 313.412 259.099 313.713 259.517C314.015 259.929 314.136 260.479 314.076 261.165C314.066 261.271 314.057 261.351 314.047 261.404L310.71 261.112C310.736 261.495 310.866 261.809 311.102 262.055C311.344 262.301 311.653 262.441 312.031 262.474C312.281 262.496 312.516 262.471 312.737 262.399C312.963 262.328 313.163 262.217 313.337 262.066L313.707 262.524C313.48 262.73 313.215 262.881 312.912 262.977C312.608 263.074 312.278 263.107 311.922 263.076C311.507 263.039 311.145 262.919 310.835 262.715C310.532 262.506 310.304 262.232 310.152 261.891C310.004 261.551 309.949 261.174 309.985 260.759C310.021 260.344 310.141 259.984 310.345 259.68C310.554 259.372 310.826 259.141 311.162 258.988C311.497 258.83 311.87 258.768 312.279 258.804ZM313.434 260.771C313.447 260.386 313.345 260.074 313.13 259.836C312.916 259.592 312.617 259.453 312.234 259.419C311.861 259.387 311.54 259.471 311.271 259.673C311.006 259.875 310.834 260.163 310.753 260.537L313.434 260.771ZM317.626 259.272C318.02 259.306 318.363 259.428 318.656 259.636C318.949 259.843 319.166 260.117 319.308 260.457C319.45 260.796 319.503 261.176 319.466 261.596C319.429 262.011 319.312 262.374 319.113 262.683C318.92 262.988 318.662 263.218 318.337 263.372C318.019 263.521 317.662 263.578 317.269 263.544C316.912 263.512 316.605 263.41 316.346 263.238C316.088 263.065 315.894 262.833 315.764 262.543L315.555 264.93L314.813 264.865L315.318 259.094L316.06 259.159L315.986 259.997C316.165 259.734 316.394 259.539 316.673 259.414C316.957 259.289 317.275 259.241 317.626 259.272ZM317.166 262.883C317.437 262.907 317.685 262.864 317.909 262.755C318.138 262.646 318.321 262.483 318.458 262.264C318.601 262.046 318.684 261.793 318.71 261.506C318.734 261.224 318.695 260.963 318.593 260.724C318.491 260.484 318.339 260.291 318.137 260.145C317.935 259.999 317.699 259.914 317.427 259.89C317.156 259.866 316.906 259.909 316.676 260.017C316.452 260.126 316.269 260.29 316.127 260.508C315.984 260.726 315.901 260.976 315.876 261.258C315.851 261.551 315.889 261.817 315.991 262.056C316.094 262.291 316.246 262.481 316.448 262.627C316.655 262.774 316.894 262.859 317.166 262.883Z" fill="#12141D"/>
</g>
<path d="M148.205 111.631L145.788 113.826L150.228 114.263L148.205 111.631Z" stroke="#4AB940" stroke-width="3.32396" stroke-linecap="round" stroke-linejoin="round"/>
<rect width="1.63846" height="0.959232" transform="matrix(0.995296 0.095914 -0.0791416 0.996871 147.251 112.238)" fill="#4AB940"/>
<path opacity="0.6" d="M107.217 91.5659L107.624 86.9099L109.44 87.0688C109.848 87.1045 110.191 87.1992 110.468 87.353C110.744 87.5068 110.95 87.7125 111.084 87.9699C111.218 88.2274 111.27 88.5246 111.24 88.8616C111.211 89.1986 111.108 89.4823 110.931 89.7126C110.755 89.9385 110.517 90.1053 110.217 90.2131C109.918 90.3165 109.564 90.3503 109.156 90.3146L107.706 90.1878L108.033 89.9014L107.882 91.624L107.217 91.5659ZM108.027 89.9679L107.757 89.6091L109.187 89.7342C109.613 89.7715 109.942 89.7087 110.175 89.5459C110.413 89.3835 110.546 89.136 110.575 88.8034C110.604 88.4709 110.516 88.204 110.31 88.0028C110.109 87.802 109.795 87.6829 109.37 87.6457L107.939 87.5206L108.268 87.2142L108.027 89.9679ZM111.794 91.9663L112.102 88.4411L112.714 88.4946L112.631 89.4524L112.592 89.2077C112.711 88.9724 112.891 88.8005 113.133 88.6921C113.375 88.5837 113.664 88.5442 114.001 88.5737L113.947 89.1923C113.921 89.1855 113.894 89.1809 113.868 89.1786C113.846 89.1767 113.823 89.1747 113.801 89.1728C113.46 89.1429 113.18 89.2213 112.963 89.4078C112.746 89.5943 112.62 89.8804 112.586 90.2662L112.433 92.0222L111.794 91.9663ZM115.951 92.3702C115.596 92.3391 115.288 92.234 115.026 92.0547C114.765 91.8755 114.566 91.6436 114.43 91.3592C114.295 91.0703 114.242 90.7529 114.273 90.407C114.303 90.0567 114.41 89.7533 114.593 89.4968C114.777 89.2403 115.012 89.0487 115.301 88.922C115.589 88.7908 115.911 88.7408 116.265 88.7718C116.616 88.8024 116.922 88.9074 117.183 89.0866C117.449 89.2618 117.648 89.4915 117.779 89.7755C117.916 90.0556 117.968 90.3729 117.937 90.7277C117.907 91.078 117.8 91.3814 117.616 91.6379C117.438 91.8948 117.202 92.0887 116.909 92.2194C116.62 92.3506 116.301 92.4008 115.951 92.3702ZM115.999 91.8115C116.226 91.8312 116.432 91.7979 116.618 91.7114C116.809 91.6253 116.963 91.4936 117.082 91.3163C117.2 91.1346 117.27 90.9195 117.292 90.6712C117.314 90.4185 117.282 90.1967 117.196 90.006C117.111 89.8109 116.981 89.6543 116.808 89.5364C116.64 89.4189 116.443 89.3503 116.217 89.3305C115.99 89.3107 115.784 89.3441 115.598 89.4305C115.412 89.517 115.257 89.6487 115.134 89.8256C115.012 89.9981 114.94 90.2107 114.918 90.4635C114.896 90.7118 114.93 90.936 115.02 91.1359C115.11 91.3315 115.239 91.488 115.408 91.6055C115.576 91.723 115.773 91.7917 115.999 91.8115ZM118.098 93.8582C117.951 93.8454 117.813 93.8155 117.683 93.7684C117.549 93.7209 117.438 93.6576 117.351 93.5785L117.601 93.1043C117.724 93.2268 117.892 93.2974 118.105 93.316C118.273 93.3307 118.407 93.2888 118.505 93.1901C118.607 93.0963 118.667 92.9474 118.684 92.7434L119.008 89.0452L119.646 89.1011L119.324 92.7859C119.293 93.1451 119.17 93.4204 118.957 93.6117C118.748 93.8079 118.461 93.8901 118.098 93.8582ZM119.387 88.3947C119.262 88.3839 119.162 88.3348 119.084 88.2477C119.012 88.1609 118.98 88.0598 118.99 87.9445C119.001 87.8248 119.049 87.7285 119.136 87.6557C119.227 87.5832 119.335 87.5525 119.459 87.5633C119.583 87.5742 119.682 87.623 119.755 87.7098C119.832 87.7926 119.866 87.8916 119.856 88.0069C119.846 88.1266 119.797 88.2251 119.71 88.3024C119.623 88.3752 119.515 88.406 119.387 88.3947ZM122.123 92.9102C121.746 92.8772 121.42 92.7705 121.145 92.5901C120.875 92.41 120.672 92.1778 120.536 91.8933C120.405 91.6093 120.354 91.2921 120.385 90.9418C120.415 90.5915 120.518 90.2877 120.692 90.0304C120.871 89.7735 121.1 89.5813 121.379 89.4538C121.664 89.3223 121.974 89.2712 122.311 89.3007C122.653 89.3306 122.947 89.4324 123.196 89.606C123.444 89.7797 123.63 90.0103 123.752 90.2981C123.879 90.5817 123.927 90.9054 123.895 91.269C123.893 91.2956 123.888 91.3264 123.88 91.3615C123.877 91.397 123.872 91.4301 123.865 91.4607L120.865 91.1983L120.905 90.7393L123.572 90.9727L123.299 91.1096C123.323 90.8839 123.294 90.678 123.212 90.4921C123.13 90.3062 123.007 90.1569 122.843 90.0442C122.683 89.9275 122.49 89.8593 122.264 89.8395C122.042 89.8201 121.84 89.8538 121.659 89.9407C121.477 90.0231 121.33 90.1509 121.216 90.3242C121.103 90.493 121.037 90.6927 121.016 90.9233L121.007 91.0297C120.986 91.2648 121.021 91.48 121.111 91.6756C121.206 91.8671 121.347 92.0224 121.533 92.1414C121.719 92.2605 121.939 92.3311 122.191 92.3532C122.4 92.3714 122.591 92.3524 122.766 92.2962C122.945 92.2404 123.105 92.1472 123.246 92.0165L123.563 92.4598C123.387 92.632 123.175 92.7565 122.927 92.8331C122.683 92.9101 122.415 92.9358 122.123 92.9102ZM126.162 93.2636C125.803 93.2321 125.488 93.1264 125.218 92.9464C124.952 92.7667 124.751 92.5347 124.615 92.2502C124.479 91.9658 124.427 91.6484 124.457 91.2981C124.488 90.9478 124.595 90.6444 124.778 90.3879C124.962 90.1313 125.2 89.9399 125.492 89.8136C125.789 89.6832 126.118 89.6338 126.477 89.6652C126.796 89.6931 127.074 89.7822 127.311 89.9325C127.553 90.0788 127.732 90.2821 127.848 90.5425L127.335 90.8126C127.235 90.6296 127.104 90.4908 126.942 90.3962C126.786 90.2976 126.612 90.24 126.421 90.2233C126.191 90.2031 125.98 90.2361 125.789 90.3222C125.599 90.4083 125.442 90.5398 125.319 90.7167C125.197 90.8892 125.125 91.1018 125.103 91.3545C125.08 91.6073 125.114 91.8314 125.205 92.027C125.295 92.2225 125.426 92.3793 125.599 92.4972C125.772 92.6151 125.974 92.6841 126.204 92.7043C126.395 92.7209 126.576 92.6965 126.747 92.6311C126.923 92.5616 127.076 92.4454 127.206 92.2826L127.665 92.631C127.506 92.8628 127.295 93.0342 127.03 93.1451C126.771 93.252 126.481 93.2915 126.162 93.2636ZM129.681 93.5715C129.327 93.5404 129.06 93.421 128.882 93.2133C128.703 93.0056 128.63 92.7243 128.661 92.3696L128.943 89.137L129.582 89.1929L129.301 92.3988C129.285 92.5895 129.319 92.7399 129.403 92.85C129.491 92.9606 129.624 93.0236 129.802 93.0391C130.001 93.0566 130.172 93.0157 130.315 92.9165L130.475 93.3929C130.37 93.4686 130.247 93.5204 130.106 93.5483C129.969 93.5765 129.828 93.5843 129.681 93.5715ZM128.231 90.3817L128.277 89.8562L130.525 90.0529L130.479 90.5783L128.231 90.3817ZM132.236 93.795C131.943 93.7693 131.667 93.705 131.408 93.6019C131.154 93.4992 130.956 93.3836 130.815 93.2551L131.126 92.7729C131.268 92.8881 131.446 92.9908 131.662 93.0812C131.877 93.1715 132.1 93.2268 132.331 93.247C132.628 93.273 132.844 93.2495 132.98 93.1765C133.121 93.1038 133.198 92.9922 133.211 92.8414C133.22 92.7305 133.188 92.6406 133.114 92.5715C133.039 92.5024 132.937 92.4466 132.807 92.4039C132.681 92.3616 132.539 92.3224 132.381 92.2863C132.224 92.2457 132.067 92.2007 131.911 92.1512C131.754 92.0974 131.613 92.0314 131.486 91.9532C131.359 91.8706 131.261 91.766 131.191 91.6393C131.122 91.5081 131.097 91.3406 131.115 91.1366C131.133 90.9237 131.209 90.7427 131.343 90.5936C131.477 90.4444 131.656 90.3372 131.881 90.272C132.11 90.2027 132.376 90.1813 132.677 90.2076C132.908 90.2278 133.138 90.277 133.368 90.3552C133.603 90.4294 133.791 90.524 133.933 90.6392L133.616 91.1208C133.466 91.0005 133.306 90.9127 133.136 90.8577C132.967 90.8027 132.796 90.7676 132.623 90.7525C132.343 90.728 132.131 90.7563 131.985 90.8374C131.84 90.9141 131.761 91.0234 131.749 91.1653C131.738 91.285 131.77 91.3816 131.844 91.4551C131.923 91.5245 132.025 91.5826 132.151 91.6294C132.281 91.6765 132.424 91.7203 132.581 91.7609C132.739 91.797 132.896 91.842 133.052 91.8959C133.209 91.9453 133.348 92.0089 133.471 92.0867C133.598 92.1649 133.697 92.2673 133.766 92.394C133.84 92.5211 133.868 92.6844 133.85 92.8839C133.832 93.0968 133.754 93.2754 133.616 93.4197C133.478 93.5641 133.292 93.6707 133.058 93.7396C132.825 93.804 132.551 93.8225 132.236 93.795ZM137.792 94.2945C137.437 94.2634 137.103 94.1805 136.789 94.0458C136.475 93.9066 136.232 93.7424 136.061 93.5532L136.352 93.0559C136.516 93.2266 136.731 93.375 136.997 93.5011C137.263 93.6271 137.545 93.7031 137.842 93.7291C138.112 93.7528 138.334 93.7409 138.508 93.6936C138.682 93.6463 138.814 93.5729 138.903 93.4734C138.992 93.3696 139.043 93.2489 139.055 93.1114C139.069 92.9518 139.027 92.8185 138.929 92.7117C138.836 92.6052 138.707 92.5158 138.544 92.4434C138.385 92.367 138.208 92.2978 138.013 92.236C137.817 92.1742 137.62 92.1056 137.421 92.0301C137.227 91.9506 137.049 91.8569 136.889 91.749C136.733 91.6415 136.611 91.5057 136.522 91.3416C136.434 91.1731 136.401 90.9646 136.423 90.7163C136.444 90.4769 136.525 90.2628 136.667 90.0741C136.813 89.8814 137.023 89.7366 137.295 89.6398C137.572 89.5389 137.914 89.5063 138.322 89.542C138.592 89.5657 138.858 89.6246 139.117 89.7188C139.377 89.8131 139.599 89.9352 139.782 90.0853L139.516 90.5982C139.328 90.4477 139.126 90.334 138.91 90.2569C138.693 90.1754 138.481 90.1256 138.272 90.1074C138.011 90.0845 137.793 90.0989 137.619 90.1507C137.444 90.2025 137.312 90.2803 137.223 90.3841C137.138 90.4884 137.089 90.6093 137.077 90.7467C137.063 90.9108 137.102 91.0461 137.196 91.1525C137.294 91.2594 137.422 91.3488 137.581 91.4208C137.745 91.4932 137.924 91.5625 138.119 91.6288C138.315 91.6906 138.51 91.759 138.704 91.8341C138.903 91.9096 139.081 92.0011 139.237 92.1086C139.397 92.2164 139.522 92.3524 139.61 92.5165C139.698 92.6807 139.732 92.8847 139.711 93.1285C139.69 93.3636 139.606 93.5774 139.46 93.7702C139.314 93.9584 139.1 94.1028 138.819 94.2033C138.542 94.2998 138.2 94.3302 137.792 94.2945ZM141.958 94.6455C141.656 94.6191 141.395 94.5404 141.174 94.4094C140.958 94.2787 140.795 94.0947 140.686 93.8573C140.582 93.6159 140.545 93.3222 140.576 92.9764L140.753 90.9477L141.392 91.0036L141.221 92.9591C141.19 93.3049 141.25 93.5715 141.399 93.7588C141.552 93.9465 141.779 94.0535 142.081 94.0799C142.303 94.0993 142.499 94.0718 142.671 93.9975C142.843 93.9187 142.981 93.7967 143.085 93.6316C143.189 93.462 143.252 93.253 143.274 93.0047L143.434 91.1822L144.072 91.2381L143.764 94.7633L143.158 94.7103L143.242 93.7592L143.319 94.0207C143.183 94.2456 142.995 94.4123 142.753 94.5207C142.511 94.6291 142.246 94.6707 141.958 94.6455ZM146.845 95.0731C146.543 95.0467 146.276 94.9563 146.044 94.8019C145.817 94.6435 145.644 94.4251 145.525 94.1466C145.411 93.8686 145.371 93.53 145.406 93.1309C145.441 92.7318 145.541 92.4054 145.706 92.1518C145.876 91.8986 146.086 91.7159 146.337 91.6038C146.593 91.4921 146.867 91.4491 147.16 91.4747C147.506 91.5049 147.805 91.6071 148.058 91.7811C148.311 91.9552 148.503 92.1842 148.634 92.4683C148.766 92.7479 148.817 93.0673 148.785 93.4265C148.754 93.7857 148.649 94.0937 148.47 94.3506C148.291 94.6075 148.062 94.7997 147.783 94.9272C147.503 95.0547 147.191 95.1033 146.845 95.0731ZM144.979 94.8696L145.411 89.9343L146.05 89.9902L145.844 92.3381L145.706 93.1504L145.674 93.972L145.591 94.9232L144.979 94.8696ZM146.841 94.5097C147.067 94.5295 147.273 94.4961 147.459 94.4097C147.65 94.3236 147.804 94.1919 147.923 94.0146C148.046 93.8332 148.118 93.6184 148.14 93.3701C148.162 93.1173 148.128 92.8954 148.037 92.7043C147.952 92.5091 147.822 92.3526 147.649 92.2347C147.481 92.1172 147.284 92.0485 147.058 92.0287C146.836 92.0093 146.63 92.0427 146.439 92.1288C146.253 92.2152 146.098 92.3469 145.975 92.5239C145.858 92.6967 145.788 92.9096 145.765 93.1623C145.744 93.4106 145.775 93.6346 145.861 93.8342C145.951 94.0297 146.08 94.1863 146.249 94.3038C146.422 94.4217 146.619 94.4903 146.841 94.5097ZM154.234 92.0936C154.518 92.1185 154.764 92.1958 154.971 92.3257C155.179 92.4555 155.333 92.6388 155.433 92.8754C155.537 93.1124 155.574 93.4039 155.544 93.7497L155.366 95.7784L154.728 95.7225L154.899 93.767C154.929 93.4256 154.871 93.1614 154.727 92.9745C154.582 92.7876 154.366 92.6816 154.078 92.6563C153.865 92.6377 153.675 92.6658 153.508 92.7405C153.34 92.8152 153.205 92.9352 153.101 93.1003C153.001 93.2659 152.94 93.4773 152.918 93.7345L152.759 95.5503L152.12 95.4944L152.292 93.5389C152.321 93.1975 152.264 92.9333 152.12 92.7464C151.98 92.5599 151.763 92.4538 151.471 92.4282C151.262 92.41 151.074 92.4382 150.907 92.513C150.739 92.5877 150.604 92.7076 150.5 92.8728C150.396 93.038 150.333 93.2492 150.311 93.5063L150.152 95.3222L149.513 95.2663L149.822 91.7411L150.433 91.7946L150.351 92.7325L150.273 92.4843C150.404 92.2634 150.59 92.0988 150.832 91.9903C151.074 91.8819 151.348 91.8411 151.654 91.8679C151.991 91.8973 152.274 92.007 152.503 92.1968C152.732 92.3822 152.87 92.6467 152.916 92.9903L152.666 92.8612C152.796 92.6 153.001 92.3991 153.282 92.2583C153.562 92.1175 153.88 92.0626 154.234 92.0936ZM156.541 95.8812L156.85 92.356L157.488 92.4118L157.18 95.937L156.541 95.8812ZM157.228 91.7055C157.104 91.6946 157.003 91.6456 156.926 91.5584C156.853 91.4716 156.822 91.3705 156.832 91.2552C156.842 91.1355 156.891 91.0392 156.978 90.9664C157.069 90.894 157.177 90.8632 157.301 90.874C157.425 90.8849 157.524 90.9337 157.596 91.0205C157.674 91.1033 157.708 91.2023 157.698 91.3176C157.687 91.4373 157.639 91.5358 157.551 91.6131C157.465 91.6859 157.357 91.7167 157.228 91.7055ZM159.606 96.1895C159.251 96.1585 158.985 96.0391 158.806 95.8314C158.628 95.6236 158.554 95.3424 158.585 94.9876L158.868 91.7551L159.506 91.8109L159.226 95.0169C159.209 95.2076 159.243 95.358 159.327 95.4681C159.416 95.5786 159.549 95.6416 159.726 95.6572C159.926 95.6746 160.097 95.6337 160.24 95.5345L160.399 96.0109C160.294 96.0866 160.171 96.1384 160.03 96.1663C159.894 96.1946 159.752 96.2023 159.606 96.1895ZM158.156 92.9997L158.202 92.4743L160.45 92.671L160.404 93.1964L158.156 92.9997ZM162.276 96.4231C161.921 96.392 161.654 96.2727 161.476 96.0649C161.297 95.8572 161.224 95.5759 161.255 95.2212L161.538 91.9886L162.176 92.0445L161.896 95.2505C161.879 95.4411 161.913 95.5915 161.997 95.7017C162.086 95.8122 162.219 95.8752 162.396 95.8907C162.595 95.9082 162.767 95.8673 162.909 95.7681L163.069 96.2445C162.964 96.3202 162.841 96.372 162.7 96.3999C162.563 96.4281 162.422 96.4359 162.276 96.4231ZM160.826 93.2333L160.871 92.7078L163.12 92.9045L163.074 93.43L160.826 93.2333ZM165.272 96.6852C164.895 96.6522 164.569 96.5456 164.295 96.3651C164.024 96.1851 163.821 95.9529 163.685 95.6684C163.554 95.3844 163.503 95.0672 163.534 94.7169C163.565 94.3666 163.667 94.0628 163.842 93.8055C164.02 93.5486 164.25 93.3564 164.529 93.2289C164.813 93.0973 165.123 93.0463 165.46 93.0758C165.802 93.1057 166.097 93.2074 166.345 93.3811C166.594 93.5547 166.779 93.7854 166.901 94.0731C167.028 94.3568 167.076 94.6805 167.044 95.0441C167.042 95.0707 167.037 95.1015 167.029 95.1366C167.026 95.1721 167.021 95.2051 167.014 95.2358L164.014 94.9733L164.054 94.5144L166.722 94.7478L166.448 94.8847C166.472 94.6589 166.444 94.4531 166.361 94.2672C166.279 94.0813 166.156 93.932 165.992 93.8193C165.832 93.7026 165.639 93.6343 165.413 93.6145C165.192 93.5952 164.99 93.6289 164.808 93.7157C164.626 93.7982 164.479 93.926 164.365 94.0993C164.252 94.2681 164.186 94.4678 164.166 94.6984L164.156 94.8048C164.136 95.0398 164.171 95.2551 164.261 95.4507C164.356 95.6422 164.496 95.7974 164.682 95.9165C164.869 96.0356 165.088 96.1061 165.341 96.1283C165.549 96.1465 165.741 96.1275 165.915 96.0713C166.095 96.0155 166.255 95.9222 166.396 95.7916L166.712 96.2348C166.536 96.4071 166.324 96.5315 166.076 96.6081C165.833 96.6851 165.565 96.7108 165.272 96.6852ZM169.232 97.0316C168.89 97.0018 168.591 96.8996 168.333 96.7252C168.081 96.5512 167.888 96.3221 167.757 96.038C167.625 95.754 167.575 95.4323 167.607 95.0732C167.638 94.714 167.743 94.4082 167.921 94.1557C168.1 93.8988 168.329 93.7066 168.609 93.5791C168.892 93.452 169.205 93.4034 169.546 93.4333C169.843 93.4593 170.106 93.5492 170.334 93.7032C170.561 93.8572 170.735 94.0734 170.853 94.3519C170.976 94.6307 171.02 94.9697 170.986 95.3688C170.951 95.7679 170.851 96.0942 170.685 96.3479C170.525 96.6019 170.319 96.7872 170.067 96.9037C169.816 97.0158 169.537 97.0584 169.232 97.0316ZM169.334 96.4776C169.555 96.497 169.759 96.4634 169.946 96.377C170.136 96.2909 170.291 96.1592 170.409 95.9819C170.532 95.8005 170.605 95.5857 170.626 95.3374C170.648 95.0846 170.614 94.8627 170.524 94.6716C170.438 94.4764 170.309 94.3199 170.136 94.202C169.967 94.0845 169.772 94.016 169.551 93.9966C169.325 93.9768 169.118 94.0102 168.932 94.0967C168.746 94.1831 168.591 94.3148 168.468 94.4918C168.346 94.6642 168.274 94.8769 168.252 95.1296C168.23 95.3779 168.264 95.6021 168.354 95.8021C168.444 95.9976 168.573 96.1541 168.742 96.2716C168.91 96.3892 169.107 96.4578 169.334 96.4776ZM170.492 97.1017L170.575 96.1506L170.687 95.336L170.692 94.512L170.897 92.1641L171.536 92.22L171.104 97.1553L170.492 97.1017Z" fill="#12141D"/>
<path d="M105.991 102.574L110.029 102.927L109.202 112.382L107.068 112.195L107.737 104.55L105.832 104.384L105.991 102.574ZM111.537 103.059L118.952 103.708L118.819 105.234L114.397 112.836L112.141 112.639L116.405 105.281L113.285 105.008L113.156 106.331L111.265 106.165L111.537 103.059ZM126.197 112.072L126.041 113.855L118.936 113.234L119.065 111.761L122.878 108.461C123.221 108.173 123.496 107.889 123.702 107.607C123.918 107.318 124.035 107.06 124.055 106.835C124.081 106.538 123.984 106.298 123.764 106.116C123.554 105.925 123.246 105.812 122.841 105.776C122.436 105.741 121.995 105.807 121.517 105.974C121.04 106.14 120.569 106.39 120.104 106.721L119.406 105.054C120.73 104.235 122.031 103.882 123.31 103.994C123.941 104.049 124.49 104.201 124.958 104.451C125.427 104.691 125.78 105.008 126.018 105.401C126.257 105.785 126.355 106.22 126.312 106.706C126.27 107.183 126.07 107.665 125.709 108.151C125.349 108.636 124.855 109.151 124.227 109.695L121.861 111.693L126.197 112.072ZM134.256 112.777L134.1 114.56L126.995 113.939L127.124 112.466L130.938 109.166C131.281 108.878 131.555 108.594 131.761 108.313C131.977 108.023 132.095 107.766 132.115 107.54C132.141 107.243 132.044 107.003 131.824 106.821C131.614 106.63 131.306 106.517 130.901 106.481C130.495 106.446 130.054 106.512 129.577 106.679C129.099 106.846 128.628 107.095 128.164 107.426L127.466 105.759C128.79 104.94 130.091 104.587 131.37 104.699C132 104.754 132.549 104.906 133.017 105.156C133.486 105.396 133.84 105.713 134.078 106.106C134.316 106.49 134.414 106.925 134.372 107.411C134.33 107.888 134.129 108.37 133.769 108.856C133.409 109.341 132.915 109.856 132.286 110.4L129.92 112.398L134.256 112.777ZM135.274 105.136L139.313 105.489L138.486 114.944L136.352 114.757L137.02 107.112L135.116 106.946L135.274 105.136Z" fill="#12141D"/>
</g>
<defs>
<filter id="filter0_d_36_855" x="0.598328" y="0.64213" width="427.394" height="354.79" filterUnits="userSpaceOnUse" color-interpolation-filters="sRGB">
<feFlood flood-opacity="0" result="BackgroundImageFix"/>
<feColorMatrix in="SourceAlpha" type="matrix" values="0 0 0 0 0 0 0 0 0 0 0 0 0 0 0 0 0 0 127 0" result="hardAlpha"/>
<feOffset dy="4.93052"/>
<feGaussianBlur stdDeviation="36.9789"/>
<feComposite in2="hardAlpha" operator="out"/>
<feColorMatrix type="matrix" values="0 0 0 0 0 0 0 0 0 0 0 0 0 0 0 0 0 0 0.08 0"/>
<feBlend mode="normal" in2="BackgroundImageFix" result="effect1_dropShadow_36_855"/>
<feBlend mode="normal" in="SourceGraphic" in2="effect1_dropShadow_36_855" result="shape"/>
</filter>
</defs>
</svg>
