<svg width="188" height="38" viewBox="0 0 188 38" fill="none" xmlns="http://www.w3.org/2000/svg">
<g id="Logo">
<g id="Group 20">
<path id="Vector" d="M5.6063 8.51983L7.77718 9.60527C8.17679 9.7798 8.61161 9.85845 9.04698 9.83489C9.48235 9.81134 9.90616 9.68624 10.2845 9.46959L12.3361 8.1345C12.6891 7.87828 12.9764 7.54206 13.1745 7.15342C13.3726 6.76478 13.4758 6.33473 13.4757 5.89849L13.3455 3.45083C13.298 3.01812 13.1495 2.60256 12.912 2.23774C12.6744 1.87292 12.3544 1.569 11.9778 1.3505L9.80695 0.237927C9.40816 0.061326 8.97334 -0.0188877 8.53775 0.00374373C8.10216 0.0263751 7.67797 0.1512 7.29959 0.36818L5.24816 1.70327C4.89577 1.96014 4.60889 2.29646 4.41091 2.68499C4.21287 3.07347 4.10921 3.50325 4.1084 3.93927L4.23865 6.38694C4.28082 6.82557 4.42687 7.2478 4.66468 7.6187C4.9025 7.98965 5.22531 8.29856 5.6063 8.51983Z" fill="#E4E4E7"/>
<path id="Vector_2" d="M18.7011 11.6889L16.5303 10.5764C16.1316 10.4019 15.6977 10.3233 15.2632 10.3469C14.8287 10.3704 14.4058 10.4955 14.0283 10.7121L11.9551 12.0471C11.6041 12.3052 11.3181 12.6418 11.1202 13.0301C10.9223 13.4183 10.8179 13.8474 10.8154 14.2831L10.9457 16.7308C10.9932 17.1636 11.1417 17.5791 11.3793 17.944C11.6169 18.3088 11.9368 18.6127 12.3133 18.8311L14.4842 19.9166C14.8821 20.0931 15.316 20.1734 15.7508 20.1508C16.1855 20.1281 16.6087 20.0033 16.9862 19.7863L19.0431 18.4512C19.3943 18.192 19.6802 17.8545 19.878 17.4653C20.0759 17.0763 20.1803 16.6463 20.1828 16.2098L20.0525 13.7676C20.0028 13.3404 19.8549 12.9305 19.6205 12.5699C19.386 12.2093 19.0714 11.9078 18.7011 11.6889Z" fill="#E4E4E7"/>
<path id="Vector_3" d="M25.3997 22.0119L23.2288 20.9265C22.83 20.7498 22.3952 20.6696 21.9596 20.6922C21.524 20.7149 21.0999 20.8397 20.7215 21.0567L18.67 22.3918C18.3183 22.6492 18.0319 22.9857 17.8339 23.3741C17.6359 23.7624 17.532 24.1919 17.5303 24.6278L17.6606 27.0755C17.7125 27.5012 17.862 27.9093 18.0973 28.2679C18.3326 28.6265 18.6475 28.926 19.0174 29.1432L21.1883 30.2287C21.5878 30.4032 22.0226 30.4818 22.458 30.4582C22.8934 30.4347 23.3172 30.3096 23.6956 30.093L25.7525 28.7579C26.1039 28.5004 26.3897 28.1638 26.5867 27.7754C26.7838 27.3869 26.8866 26.9575 26.8868 26.5219L26.7728 24.1176C26.726 23.6833 26.5772 23.2662 26.3386 22.9002C26.1 22.5343 25.7783 22.2299 25.3997 22.0119Z" fill="#E4E4E7"/>
<path id="Vector_4" d="M9.40533 15.9331L9.30221 14.0282C9.30471 13.5924 9.40907 13.1633 9.607 12.7751C9.80488 12.3868 10.0908 12.0502 10.4419 11.7922L14.4418 9.19254C14.8192 8.976 15.2421 8.8509 15.6766 8.82734C16.1111 8.80379 16.5451 8.88243 16.9437 9.05686L18.6478 9.92521C19.0467 10.1018 19.4815 10.1821 19.917 10.1594C20.3527 10.1368 20.7768 10.0119 21.1552 9.79496L23.2067 8.45444C23.5588 8.1973 23.8454 7.86092 24.0433 7.47244C24.2413 7.08402 24.3451 6.65446 24.3464 6.21844L24.2161 3.7762C24.1695 3.34251 24.0213 2.92587 23.7837 2.56007C23.5461 2.19423 23.2257 1.88949 22.8485 1.67045L20.6776 0.557871C20.2781 0.383386 19.8432 0.304746 19.4078 0.3283C18.9724 0.351854 18.5486 0.476951 18.1702 0.693551L16.0753 2.00693C15.7239 2.2644 15.4381 2.60099 15.2411 2.98947C15.044 3.37795 14.9412 3.80735 14.9411 4.24294L15.0388 6.14788C15.0386 6.58352 14.9357 7.01292 14.7387 7.4014C14.5416 7.78988 14.2558 8.12647 13.9045 8.38389L9.90463 10.9835C9.52625 11.2005 9.10211 11.3254 8.66653 11.348C8.23088 11.3706 7.79611 11.2904 7.39727 11.1138L5.69855 10.2508C5.29971 10.0742 4.86494 9.99403 4.4293 10.0167C3.99371 10.0393 3.56957 10.1641 3.19119 10.3811L1.13971 11.7162C0.787322 11.9731 0.500496 12.3094 0.302458 12.6979C0.10442 13.0864 0.000814079 13.5162 0 13.9522L0.130252 16.3999C0.176491 16.8337 0.324491 17.2505 0.562093 17.6164C0.79975 17.9823 1.12034 18.2869 1.49791 18.5056L3.66878 19.591C4.06833 19.7656 4.50316 19.8442 4.93853 19.8207C5.3739 19.7971 5.79776 19.672 6.17615 19.4554L8.22763 18.1203C8.58018 17.8721 8.87004 17.5453 9.07449 17.1656C9.27888 16.7861 9.39214 16.3641 9.40533 15.9331Z" fill="#E4E4E7"/>
<path id="Vector_5" d="M30.8917 14.0991C30.8433 13.6658 30.6945 13.2499 30.4571 12.8843C30.2197 12.5187 29.9002 12.2136 29.524 11.9933L27.3532 10.9079C26.9535 10.7338 26.5187 10.6553 26.0834 10.6789C25.6481 10.7024 25.2243 10.8273 24.8458 11.0435L22.7943 12.3786C22.4425 12.6361 22.1562 12.9725 21.9582 13.3609C21.7603 13.7493 21.6562 14.1787 21.6546 14.6146L21.7577 16.525C21.756 16.9609 21.6521 17.3903 21.4541 17.7787C21.2562 18.1671 20.9698 18.5036 20.618 18.761L16.6236 21.3552C16.2452 21.5718 15.8214 21.6969 15.386 21.7205C14.9506 21.744 14.5158 21.6654 14.1162 21.4909L12.412 20.6225C12.0134 20.4481 11.5795 20.3694 11.145 20.393C10.7105 20.4166 10.2876 20.5416 9.91011 20.7582L7.83692 22.0879C7.48584 22.346 7.19993 22.6825 7.002 23.0708C6.80413 23.459 6.69976 23.8881 6.69727 24.3239L6.82746 26.7715C6.87501 27.2043 7.02349 27.6198 7.26104 27.9846C7.49864 28.3495 7.81858 28.6534 8.19517 28.8719L10.366 29.9845C10.7639 30.161 11.1978 30.2412 11.6325 30.2186C12.0673 30.196 12.4905 30.0711 12.868 29.8542L14.9248 28.5191C15.2757 28.2607 15.5614 27.9241 15.7592 27.5359C15.9571 27.1477 16.0616 26.7188 16.0646 26.2831L15.9615 24.3727C15.9627 23.9367 16.0665 23.5072 16.2645 23.1187C16.4625 22.7303 16.7491 22.3939 17.1011 22.1367L21.0956 19.5371C21.4739 19.3201 21.8981 19.1952 22.3337 19.1726C22.7693 19.15 23.2041 19.2302 23.6029 19.4068L25.3016 20.2698C25.7005 20.4464 26.1353 20.5266 26.5709 20.504C27.0065 20.4813 27.4306 20.3565 27.809 20.1395L29.866 18.8044C30.217 18.5466 30.5026 18.21 30.6996 17.8216C30.8966 17.4332 30.9996 17.0039 31.0002 16.5684L30.8917 14.0991Z" fill="#E4E4E7"/>
</g>
<g id="Virogan">
<path d="M38.1792 4.31506H46.3152L50.1312 19.7591L53.9472 4.31506H62.4432L54.7032 29.0831H45.5232L38.1792 4.31506Z" fill="#E4E4E7"/>
<path d="M70.4307 29.3711C68.4147 29.3711 66.8427 28.7231 65.7147 27.4271C64.5867 26.1311 64.0227 24.3671 64.0227 22.1351V11.0471H71.6547V21.8111C71.6547 22.3631 71.7987 22.7951 72.0867 23.1071C72.3987 23.3951 72.7947 23.5391 73.2747 23.5391C73.7547 23.5391 74.2467 23.3951 74.7507 23.1071L75.1467 28.1111C74.6187 28.5191 73.9227 28.8311 73.0587 29.0471C72.2187 29.2631 71.3427 29.3711 70.4307 29.3711ZM67.8387 8.34706C66.7107 8.34706 65.7507 7.99906 64.9587 7.30306C64.1907 6.58306 63.8067 5.70706 63.8067 4.67506C63.8067 3.64306 64.2147 2.77906 65.0307 2.08306C65.8467 1.38706 66.7827 1.03906 67.8387 1.03906C68.9427 1.03906 69.8907 1.39906 70.6827 2.11906C71.4987 2.83906 71.9067 3.69106 71.9067 4.67506C71.9067 5.73106 71.4987 6.60706 70.6827 7.30306C69.8667 7.99906 68.9187 8.34706 67.8387 8.34706Z" fill="#E4E4E7"/>
<path d="M77.2431 11.2991H84.8391V14.9711C85.3911 13.5551 86.1351 12.5111 87.0711 11.8391C88.0311 11.1431 89.1471 10.7951 90.4191 10.7951L91.4631 16.6631C89.1831 16.6631 87.5031 16.9151 86.4231 17.4191C85.3671 17.8991 84.8391 18.6671 84.8391 19.7231V29.0831H77.2431V11.2991Z" fill="#E4E4E7"/>
<path d="M102.778 29.3711C100.762 29.3711 98.9615 28.9751 97.3775 28.1831C95.8175 27.3911 94.5935 26.2991 93.7055 24.9071C92.8415 23.4911 92.4095 21.8711 92.4095 20.0471C92.4095 18.2231 92.8535 16.6151 93.7415 15.2231C94.6295 13.8071 95.8535 12.7151 97.4135 11.9471C98.9975 11.1791 100.798 10.7951 102.814 10.7951C104.854 10.7951 106.654 11.1911 108.214 11.9831C109.798 12.7511 111.022 13.8311 111.886 15.2231C112.75 16.6151 113.182 18.2231 113.182 20.0471C113.182 21.8951 112.738 23.5271 111.85 24.9431C110.986 26.3351 109.762 27.4271 108.178 28.2191C106.618 28.9871 104.818 29.3711 102.778 29.3711ZM102.85 23.9711C103.834 23.9711 104.638 23.6111 105.262 22.8911C105.91 22.1471 106.234 21.1991 106.234 20.0471C106.234 18.8951 105.91 17.9591 105.262 17.2391C104.638 16.4951 103.834 16.1231 102.85 16.1231C101.866 16.1231 101.05 16.4951 100.402 17.2391C99.7775 17.9591 99.4655 18.8951 99.4655 20.0471C99.4655 21.1991 99.7775 22.1471 100.402 22.8911C101.05 23.6111 101.866 23.9711 102.85 23.9711Z" fill="#E4E4E7"/>
<path d="M126.068 37.3271C124.748 37.3271 123.488 37.1951 122.288 36.9311L122.864 31.6031C123.8 31.7471 124.664 31.8191 125.456 31.8191C126.944 31.8191 128.072 31.3751 128.84 30.4871C129.608 29.6231 130.064 28.1591 130.208 26.0951C128.792 28.0871 126.632 29.0831 123.728 29.0831C122.144 29.0831 120.68 28.6751 119.336 27.8591C118.016 27.0431 116.96 25.9391 116.168 24.5471C115.4 23.1551 115.016 21.6311 115.016 19.9751C115.016 18.2951 115.4 16.7591 116.168 15.3671C116.936 13.9511 117.98 12.8351 119.3 12.0191C120.644 11.2031 122.108 10.7951 123.692 10.7951C125.156 10.7951 126.428 11.1791 127.508 11.9471C128.612 12.6911 129.332 13.6991 129.668 14.9711V10.7951H137.264V24.5111C137.264 28.7111 136.304 31.8911 134.384 34.0511C132.488 36.2351 129.716 37.3271 126.068 37.3271ZM126.068 23.6831C127.028 23.6831 127.856 23.3471 128.552 22.6751C129.248 21.9791 129.62 21.1631 129.668 20.2271V19.9391C129.62 19.0271 129.236 18.2231 128.516 17.5271C127.82 16.8311 127.004 16.4831 126.068 16.4831C125.084 16.4831 124.244 16.8431 123.548 17.5631C122.852 18.2591 122.504 19.0991 122.504 20.0831C122.504 21.0671 122.852 21.9191 123.548 22.6391C124.244 23.3351 125.084 23.6831 126.068 23.6831Z" fill="#E4E4E7"/>
<path d="M148.867 29.3711C147.307 29.3711 145.843 28.9631 144.475 28.1471C143.131 27.3071 142.051 26.1791 141.235 24.7631C140.419 23.3231 140.011 21.7271 140.011 19.9751C140.011 18.2471 140.419 16.6871 141.235 15.2951C142.051 13.8791 143.143 12.7751 144.511 11.9831C145.879 11.1911 147.331 10.7951 148.867 10.7951C150.115 10.7951 151.267 11.1431 152.323 11.8391C153.403 12.5351 154.219 13.5791 154.771 14.9711V10.7951H162.331V29.0831H154.771V25.7351C153.571 28.1591 151.603 29.3711 148.867 29.3711ZM151.207 23.6831C152.167 23.6831 152.983 23.3471 153.655 22.6751C154.351 21.9791 154.723 21.1631 154.771 20.2271V19.9391C154.723 18.9791 154.339 18.1631 153.619 17.4911C152.923 16.8191 152.119 16.4831 151.207 16.4831C150.199 16.4831 149.335 16.8431 148.615 17.5631C147.919 18.2591 147.571 19.0991 147.571 20.0831C147.571 21.0911 147.931 21.9431 148.651 22.6391C149.371 23.3351 150.223 23.6831 151.207 23.6831Z" fill="#E4E4E7"/>
<path d="M165.978 11.2991H173.214V14.9711C174.605 12.1871 176.814 10.7951 179.838 10.7951C182.142 10.7951 183.941 11.6231 185.238 13.2791C186.558 14.9111 187.218 17.1791 187.218 20.0831V29.0831H179.658V19.3271C179.658 18.2951 179.43 17.5031 178.974 16.9511C178.542 16.3991 177.93 16.1231 177.138 16.1231C176.562 16.1231 175.998 16.3151 175.446 16.6991C174.894 17.0591 174.438 17.5871 174.077 18.2831C173.742 18.9791 173.574 19.7711 173.574 20.6591V29.0831H165.978V11.2991Z" fill="#E4E4E7"/>
</g>
</g>
</svg>
