<svg width="165" height="38" viewBox="0 0 165 38" fill="none" xmlns="http://www.w3.org/2000/svg">
<g id="Logo">
<path id="Vector" d="M31.6372 14.0753L31.6151 14.0532C31.6133 14.0519 31.6118 14.0503 31.6109 14.0484L17.7758 0.212891L3.94085 14.048C3.93926 14.0496 3.93837 14.0517 3.93676 14.0528L3.91393 14.0749C1.79837 16.2024 0.454625 18.9759 0.0963089 21.9548C-0.262007 24.9336 0.38567 27.9467 1.93637 30.5152C3.48708 33.0837 5.85183 35.0602 8.6547 36.1303C11.4576 37.2003 14.5377 37.3029 17.4055 36.4213C17.6468 36.3475 17.9047 36.3475 18.1461 36.4213C21.0136 37.3025 24.0936 37.2 26.8963 36.1297C29.699 35.0595 32.0634 33.0832 33.614 30.5149C35.1647 27.9466 35.8124 24.9336 35.4542 21.9549C35.0961 18.9763 33.7525 16.2027 31.6372 14.0753ZM8.86039 23.1986C8.79304 23.266 8.73963 23.346 8.70321 23.4339C8.66676 23.5218 8.64801 23.6161 8.64802 23.7113C8.67264 26.1532 9.36273 28.542 10.644 30.6208C10.6731 30.668 10.6866 30.7232 10.6824 30.7784C10.6783 30.8336 10.6568 30.8861 10.621 30.9284C10.5852 30.9708 10.537 31.0006 10.4832 31.0138C10.4294 31.027 10.3728 31.0229 10.3215 31.002C9.35823 30.5969 8.48317 30.0079 7.74524 29.2681C6.23298 27.7556 5.3828 25.7046 5.38143 23.5657C5.38005 21.4269 6.2276 19.3748 7.73794 17.8604L17.7758 7.82346L27.8132 17.8604C29.3238 19.3746 30.1716 21.4267 30.1702 23.5657C30.169 25.7046 29.3186 27.7556 27.8063 29.2681C27.0683 30.0079 26.1933 30.5969 25.2302 31.002C25.1788 31.0229 25.1222 31.027 25.0684 31.0138C25.0146 31.0006 24.9664 30.9706 24.9305 30.9284C24.8948 30.8861 24.8731 30.8336 24.869 30.7782C24.8649 30.723 24.8783 30.6678 24.9074 30.6206C26.189 28.542 26.8795 26.1532 26.9045 23.7113C26.9045 23.6161 26.8855 23.5218 26.8489 23.4337C26.8123 23.3456 26.7587 23.2658 26.6912 23.1985L21.9434 18.1626C21.8961 18.1231 21.8366 18.1015 21.775 18.1015C21.7135 18.1015 21.6539 18.1231 21.6067 18.1626C21.5594 18.2019 21.5276 18.2567 21.5165 18.3173C21.5054 18.3778 21.5159 18.4402 21.5463 18.4938C23.3902 21.8306 21.8046 26.6235 19.1604 29.2681L19.1465 29.2821C18.7815 29.6431 18.2888 29.8455 17.7755 29.8453C17.2621 29.8451 16.7695 29.6424 16.4048 29.2812L16.392 29.2681C13.7468 26.6235 12.162 21.8311 14.0062 18.4945C14.0365 18.4409 14.0471 18.3785 14.036 18.318C14.025 18.2574 13.9931 18.2026 13.9459 18.1633C13.8986 18.1238 13.839 18.1022 13.7775 18.1022C13.7159 18.1022 13.6563 18.1238 13.6091 18.1633L8.86039 23.1986Z" fill="#E4E4E7"/>
<g id="From Amazon.com">
<path d="M65.6736 11.7675H70.2526L65.503 27.6372H60.27L58.0516 18.2519L55.8048 27.6372H50.5718L45.8223 11.7675H50.6856L53.1599 22.9161L55.6058 11.7675H60.7535L63.1993 22.9161L65.6736 11.7675Z" fill="#E4E4E7"/>
<path d="M82.1466 22.6033C82.8482 21.9207 83.1989 20.9537 83.1989 19.7023C83.1989 18.451 82.8482 17.4935 82.1466 16.8299C81.4451 16.1473 80.6393 15.806 79.7292 15.806C78.8191 15.806 78.0133 16.1473 77.3118 16.8299C76.6102 17.5124 76.2595 18.4794 76.2595 19.7308C76.2595 20.9822 76.6102 21.9491 77.3118 22.6317C78.0133 23.2953 78.8191 23.6271 79.7292 23.6271C80.6393 23.6271 81.4451 23.2858 82.1466 22.6033ZM73.4154 25.5611C72.0124 24.0442 71.3108 22.1008 71.3108 19.7308C71.3108 17.3607 72.0124 15.4173 73.4154 13.9005C74.8185 12.3647 76.5249 11.5968 78.5347 11.5968C80.5634 11.5968 82.1182 12.3458 83.1989 13.8436V11.7675H88.0622V27.6372H83.1989V25.3335C82.0234 27.002 80.4497 27.8363 78.4778 27.8363C76.506 27.8363 74.8185 27.0779 73.4154 25.5611Z" fill="#E4E4E7"/>
<path d="M90.3159 11.7675H95.4921L99.104 23.5702L102.716 11.7675H107.892L102.261 27.6372H95.9471L90.3159 11.7675Z" fill="#E4E4E7"/>
<path d="M116.879 27.8363C114.565 27.8363 112.669 27.0968 111.19 25.6179C109.712 24.1201 108.972 22.1387 108.972 19.6739C108.972 17.2091 109.702 15.2467 111.162 13.7867C112.641 12.3268 114.546 11.5968 116.879 11.5968C119.211 11.5968 121.145 12.3173 122.68 13.7583C124.216 15.1993 124.984 17.1996 124.984 19.7592C124.984 20.3091 124.946 20.821 124.87 21.295H113.949C114.044 21.9965 114.357 22.5748 114.888 23.0299C115.419 23.466 115.987 23.684 116.594 23.684C117.22 23.684 117.684 23.6271 117.988 23.5133C118.291 23.3806 118.509 23.2574 118.642 23.1436C118.794 23.0109 118.983 22.8023 119.211 22.5179H124.472C124.017 24.1106 123.107 25.3999 121.742 26.3858C120.377 27.3528 118.756 27.8363 116.879 27.8363ZM119.922 18.2519C119.846 17.5124 119.524 16.9152 118.955 16.4601C118.386 15.9861 117.713 15.7491 116.935 15.7491C116.158 15.7491 115.504 15.9861 114.973 16.4601C114.442 16.9152 114.11 17.5124 113.978 18.2519H119.922Z" fill="#E4E4E7"/>
<path d="M132.971 11.7675V14.7253C134.109 12.6396 135.626 11.5968 137.522 11.5968V16.5455H136.327C135.208 16.5455 134.365 16.8109 133.796 17.3418C133.246 17.8727 132.971 18.8017 132.971 20.1289V27.6372H128.108V11.7675H132.971Z" fill="#E4E4E7"/>
<path d="M144.598 9.97573C144.049 10.5256 143.375 10.8005 142.579 10.8005C141.783 10.8005 141.11 10.5256 140.56 9.97573C140.01 9.42588 139.735 8.75279 139.735 7.95646C139.735 7.14117 140.01 6.4586 140.56 5.90875C141.11 5.35891 141.783 5.08398 142.579 5.08398C143.375 5.08398 144.049 5.35891 144.598 5.90875C145.148 6.4586 145.423 7.14117 145.423 7.95646C145.423 8.75279 145.148 9.42588 144.598 9.97573ZM140.162 27.6372V11.7675H145.025V27.6372H140.162Z" fill="#E4E4E7"/>
<path d="M158.827 22.6601C159.471 21.9776 159.794 20.9916 159.794 19.7023C159.794 18.413 159.462 17.4366 158.798 16.773C158.135 16.0904 157.348 15.7491 156.438 15.7491C155.528 15.7491 154.741 16.0904 154.077 16.773C153.433 17.4366 153.11 18.413 153.11 19.7023C153.11 20.9916 153.442 21.9776 154.106 22.6601C154.788 23.3427 155.585 23.684 156.495 23.684C157.405 23.684 158.182 23.3427 158.827 22.6601ZM150.551 25.5895C148.958 24.0916 148.162 22.1198 148.162 19.6739C148.162 17.228 148.958 15.2751 150.551 13.8152C152.143 12.3363 154.115 11.5968 156.466 11.5968C158.817 11.5968 160.78 12.3363 162.353 13.8152C163.946 15.2751 164.742 17.228 164.742 19.6739C164.742 22.1198 163.956 24.0916 162.382 25.5895C160.808 27.0874 158.846 27.8363 156.495 27.8363C154.144 27.8363 152.162 27.0874 150.551 25.5895Z" fill="#E4E4E7"/>
</g>
</g>
</svg>
